<svg xmlns="http://www.w3.org/2000/svg" height="16" viewBox="0 0 16 16"><circle cx="13" cy="2" r="2"/><path d="M13.4 7.3H10l1.5-1.8c.5-.5.3-1.3-.2-1.7L7.2 1.2C6.8.9 6.3 1 6 1.3l-2.4 2c-.4.4-.5 1-.1 1.4s1 .5 1.4.1l1.8-1.5 1 .7L5 7.3c-.5.2-1 .4-1.4.8l1 1c.5-.4 1.2-.6 1.9-.6 1.7 0 3.1 1.4 3.1 3.1 0 .7-.2 1.3-.6 1.9l1 1c.6-.8 1.1-1.8 1.1-2.9 0-.8-.2-1.6-.6-2.2h1.9l-.4 3.9c-.1.5.3 1 .9 1.1h.1c.5 0 .9-.4 1-.9l.5-5c0-.3-.1-.6-.2-.8-.3-.3-.6-.4-.9-.4zm-6.9 7.3c-1.7 0-3.1-1.4-3.1-3.1 0-.5.1-1 .3-1.4l-1-1c-.4.7-.7 1.5-.7 2.4C2 14 4 16 6.5 16c.9 0 1.7-.3 2.4-.7l-1-1c-.4.2-.9.3-1.4.3z"/></svg>