<svg xmlns="http://www.w3.org/2000/svg" height="30" viewBox="0 -7 30 30"><path d="M23 0c1.7 0 3-1.3 3-3s-1.3-3-3-3-3 1.3-3 3 1.3 3 3 3zm-7.3 20.2c-.9.5-2 .8-3.2.8C8.9 21 6 18.1 6 14.5c0-1.7.7-3.3 1.7-4.4L6.5 8.5C4.9 10 4 12.2 4 14.5c0 4.7 3.8 8.5 8.5 8.5 1.6 0 3.1-.5 4.4-1.3l-1.2-1.5zM26.1 8.5c-.3-.3-.7-.5-1.1-.5h-6.5l3-4.1c.8-.9.6-2.4-.5-3l-7.7-4.6c-.5-.3-1.2-.3-1.7.2L7.5.4c-.6.5-.7 1.4-.1 2.1.5.6 1.5.7 2.1.2l3.3-3.1L15 .9l-4.5 5.5c-.8.2-1.6.5-2.3 1L9.4 9c.9-.5 2-.8 3.2-.8 3.6 0 6.5 2.9 6.5 6.5 0 1.7-.7 3.3-1.7 4.4l1.3 1.6c1.5-1.5 2.5-3.7 2.5-6 0-1.2-.3-2.4-.8-3.5h3.1l-.8 7.3c-.1.8.5 1.6 1.3 1.7h.2c.8 0 1.4-.6 1.5-1.3l1-9c-.2-.7-.3-1.1-.6-1.4z"/></svg>