<svg xmlns="http://www.w3.org/2000/svg" height="30" viewBox="0 0 30 30"><path d="M21.5 26H13l-5.5-9.4c.3-.5.5-1 .5-1.6 0-.5-.1-1-.4-1.4L12.3 7c1.2-.1 2.2-.9 2.6-2H18v2.6c-3.3 1.6-5 6.2-5 9.4h15c0-3.2-1.7-7.8-5-9.4V2.2c0-.6-.5-1.2-1.2-1.2h-2.5c-.7 0-1.3.6-1.3 1.2V3h-3.2c-.4-1.2-1.5-2-2.8-2-1.7 0-3 1.3-3 3 0 .4.1.8.3 1.2l-4.8 6.9C3.1 12.3 2 13.5 2 15c0 1.3.9 2.5 2.1 2.9L8.9 26H6.5c-.8 0-1.5.7-1.5 1.5S5.7 29 6.5 29h15c.8 0 1.5-.7 1.5-1.5s-.6-1.5-1.5-1.5zM11.1 6.8l-4.1 6c-.4-.3-.8-.6-1.3-.7l4.2-6c.3.3.7.6 1.2.7zM5.3 18c.6-.1 1.1-.3 1.5-.6l5 8.6H10l-4.7-8z"/></svg>