<svg xmlns="http://www.w3.org/2000/svg" height="20" viewBox="0 0 20 20"><path d="M8.5 1.3c2.9 0 5.2 2.3 5.2 5.2s-2.3 5.2-5.2 5.2-5.2-2.3-5.2-5.2 2.3-5.2 5.2-5.2m0-1.3C4.9 0 2 2.9 2 6.5S4.9 13 8.5 13 15 10.1 15 6.5 12.1 0 8.5 0zm6.232 11.318l5.02 5.02-1.414 1.414-5.02-5.02z"/><path d="M5 15c.4 0 1 .8 1 2s-.6 2-1 2-1-.8-1-2 .6-2 1-2m0-1c-1.1 0-2 1.3-2 3s.9 3 2 3 2-1.3 2-3-.9-3-2-3zm5 1c.4 0 1 .8 1 2s-.6 2-1 2-1-.8-1-2 .6-2 1-2m0-1c-1.1 0-2 1.3-2 3s.9 3 2 3 2-1.3 2-3-.9-3-2-3z"/><path d="M1 14v1H0v1h1v4h1v-6z"/></svg>