<svg xmlns="http://www.w3.org/2000/svg" height="16" viewBox="0 0 16 16"><path d="M13.015 8.61l2.97 2.97-1.414 1.415-2.97-2.97z"/><path d="M5 12c.5 0 1 .7 1 1.5S5.5 15 5 15s-1-.7-1-1.5.5-1.5 1-1.5m0-1c-1.1 0-2 1.1-2 2.5S3.9 16 5 16s2-1.1 2-2.5S6.1 11 5 11zm5 1c.5 0 1 .7 1 1.5s-.5 1.5-1 1.5-1-.7-1-1.5.5-1.5 1-1.5m0-1c-1.1 0-2 1.1-2 2.5s.9 2.5 2 2.5 2-1.1 2-2.5-.9-2.5-2-2.5z"/><path d="M1 11v1H0v1h1v3h1v-5zm7-9.8c2.1 0 3.8 1.7 3.8 3.8S10.1 8.8 8 8.8 4.2 7.1 4.2 5 5.9 1.2 8 1.2M8 0C5.2 0 3 2.2 3 5s2.2 5 5 5 5-2.2 5-5-2.2-5-5-5z"/></svg>