<svg xmlns="http://www.w3.org/2000/svg" height="20" viewBox="0 0 20 20"><path d="M4.5 9.2c1.3 0 2.3 1 2.3 2.3s-1 2.3-2.3 2.3-2.3-1-2.3-2.3 1-2.3 2.3-2.3m0-1.2C2.6 8 1 9.6 1 11.5S2.6 15 4.5 15 8 13.4 8 11.5 6.4 8 4.5 8zm3.1 8H1.4c-.8 0-1.4.6-1.4 1.4V20h9v-2.6c0-.8-.6-1.4-1.4-1.4zM9.5 2.2c1.3 0 2.3 1 2.3 2.3s-1 2.3-2.3 2.3-2.3-1-2.3-2.3 1-2.3 2.3-2.3m0-1.2C7.6 1 6 2.6 6 4.5S7.6 8 9.5 8 13 6.4 13 4.5 11.4 1 9.5 1zm5 8.2c1.3 0 2.3 1 2.3 2.3s-1 2.3-2.3 2.3-2.3-1-2.3-2.3 1-2.3 2.3-2.3m0-1.2C12.6 8 11 9.6 11 11.5s1.6 3.5 3.5 3.5 3.5-1.6 3.5-3.5S16.4 8 14.5 8zm3.1 8h-6.2c-.8 0-1.4.6-1.4 1.4V20h9v-2.6c0-.8-.6-1.4-1.4-1.4zM20 2h-2V0h-2v2h-2v2h2v2h2V4h2z"/></svg>