<svg xmlns="http://www.w3.org/2000/svg" height="20" viewBox="0 0 20 20"><circle cx="5" cy="10" r="1.7"/><circle cx="10" cy="10" r="1.7"/><circle cx="15" cy="10" r="1.7"/><path d="M8 3H5V0H3v3H0v2h3v3h2V5h3z"/><path d="M19.4 7.5C18 4.8 14.2 3 10 3H9v1.2h1c3.7 0 7.1 1.6 8.3 3.9.3.6.5 1.2.5 1.8 0 3.1-3.4 5.7-7.7 6-.2 0-.5.1-.7.2-1.2.9-3 1.6-4.6 2.1.8-.9 1-1.5 1.1-1.9.1-.6-.2-1.2-.8-1.4-2.5-.9-4.9-2.8-4.9-5 0-.8.3-1.6.8-2.3V6.5h-.7C.5 7.5 0 8.7 0 9.9c0 2.8 2.8 5.1 5.7 6.2-.1.4-.6 1.3-2.7 3.2-.2.1-.2.3-.1.5.1.1.3.2.4.2h.1c.2 0 5-.9 7.7-2.9 5-.3 8.9-3.4 8.9-7.2 0-.8-.2-1.6-.6-2.4z"/></svg>