<svg xmlns="http://www.w3.org/2000/svg" height="16" viewBox="0 0 16 16"><path d="M7 9.5C7 10.9 8.1 12 9.5 12S12 10.9 12 9.5 10.9 7 9.5 7 7 8.1 7 9.5zM9.5 8c.8 0 1.5.7 1.5 1.5S10.3 11 9.5 11 8 10.3 8 9.5 8.7 8 9.5 8zm2 5h-4c-.4 0-.7.1-1 .4-.3-.2-.6-.4-1-.4h-4c-.8 0-1.5.7-1.5 1.5V16h13v-1.5c0-.8-.7-1.5-1.5-1.5zm-8-1C4.9 12 6 10.9 6 9.5S4.9 7 3.5 7 1 8.1 1 9.5 2.1 12 3.5 12zm0-4C4.3 8 5 8.7 5 9.5S4.3 11 3.5 11 2 10.3 2 9.5 2.7 8 3.5 8zm3-1C7.9 7 9 5.9 9 4.5S7.9 2 6.5 2 4 3.1 4 4.5 5.1 7 6.5 7zm0-4C7.3 3 8 3.7 8 4.5S7.3 6 6.5 6 5 5.3 5 4.5 5.7 3 6.5 3zM14 2V0h-2v2h-2v2h2v2h2V4h2V2z"/></svg>