<svg xmlns="http://www.w3.org/2000/svg" height="30" viewBox="0 0 30 30"><path d="M6 10V6h4V4H6V0H4v4H0v2h4v4zm7-1c-4.4 0-8.1 3.6-8.1 8s3.7 8 8.1 8 8.1-3.6 8.1-8-3.7-8-8.1-8zm0 14c-3.3 0-6.1-2.7-6.1-6s2.8-6 6.1-6 6.1 2.7 6.1 6-2.8 6-6.1 6zm6.035 1.45l1.414-1.415 5.585 5.586-1.414 1.415zM28.4 3.3c-1-.9-2.3-1.3-4-1.3-1.6 0-2.8.4-3.8 1.2-1 .8-1.5 2-1.7 3.5v.1l2.4.3V7c.2-1.1.5-1.9 1.1-2.4.6-.5 1.3-.8 2.1-.8.9 0 1.6.3 2.2.8.6.6.9 1.2.9 1.9 0 .4-.1.8-.3 1.1s-.7.8-1.3 1.4c-.7.6-1.2 1.1-1.5 1.4-.4.4-.7.9-.8 1.3-.2.6-.3 1-.3 1.8v.9h2.3s0-1.4.1-1.8c.1-.3.2-.6.4-.9.2-.3.6-.7 1.3-1.2 1-.8 1.7-1.6 2-2.2s.5-1.3.5-2c-.1-1-.6-2.1-1.6-3zM23.3 16h2.5v2.5h-2.5z"/></svg>