<svg xmlns="http://www.w3.org/2000/svg" height="30" viewBox="0 0 30 30"><circle cx="15" cy="15" r="2.3"/><circle cx="8" cy="15" r="2.3"/><circle cx="22" cy="15" r="2.3"/><path d="M10 4H6V0H4v4H0v2h4v4h2V6h4z"/><path d="M29.1 11C27 6.8 21.3 4 15 4c-1.4 0-2.7.1-4 .4v1.8c1.3-.3 2.6-.4 4-.4 5.5 0 10.7 2.5 12.5 6 .5.9.7 1.9.7 2.8 0 4.8-5.1 8.8-11.6 9.2-.4 0-.7.1-1 .4-1.8 1.4-4.6 2.5-7 3.2 1.3-1.4 1.6-2.3 1.7-2.9.2-.9-.3-1.7-1.1-2.1-3.7-1.4-7.4-4.3-7.4-7.8 0-1.3.4-2.5 1.2-3.6V8.2c-1.9 1.8-3 3.9-3 6.3 0 4.3 4.2 7.8 8.6 9.4-.1.7-1 2.1-4.1 4.8-.2.2-.3.5-.2.8.2.4.4.5.7.5h.1c.3-.1 7.5-1.3 11.6-4.4 7.5-.4 13.3-5.2 13.3-11 0-1.3-.3-2.5-.9-3.6z"/></svg>