<svg xmlns="http://www.w3.org/2000/svg" height="16" viewBox="0 0 16 16"><circle cx="8" cy="8" r="1.5"/><circle cx="12" cy="8" r="1.5"/><circle cx="4" cy="8" r="1.5"/><path d="M6 2H4V0H2v2H0v2h2v2h2V4h2z"/><path d="M15.5 5.7C14.4 3.5 11.4 2 8 2H7v1h1c2.9 0 5.7 1.3 6.6 3.2.2.5.4 1 .4 1.5 0 2.6-2.7 4.7-6.2 4.9-.2 0-.4.1-.6.2-.9.7-2.3 1.3-3.6 1.7.6-.7.8-1.2.9-1.5.1-.5-.2-1-.6-1.1C3 11.1 1 9.5 1 7.7c0-.6.2-1.2.5-1.7H.4C.1 6.5 0 7.1 0 7.7c0 2.3 2.3 4.2 4.6 5.1-.1.4-.5 1.1-2.2 2.6-.1.1-.2.3-.1.4.1.1.2.2.4.2h.1c.2 0 4-.7 6.2-2.4 4-.2 7.1-2.8 7.1-5.9-.1-.7-.3-1.3-.6-2z"/></svg>