<svg xmlns="http://www.w3.org/2000/svg" height="20" viewBox="0 0 20 20"><path d="M8.6 15H2.4c-.8 0-1.4.6-1.4 1.4V18h9v-1.6c0-.8-.6-1.4-1.4-1.4zm-3.1-1C7.4 14 9 12.4 9 10.5S7.4 7 5.5 7 2 8.6 2 10.5 3.6 14 5.5 14zm0-5.9c1.3 0 2.4 1.1 2.4 2.4s-1.1 2.4-2.4 2.4-2.4-1.1-2.4-2.4 1.1-2.4 2.4-2.4zm12.1.9h-6.1c-.9 0-1.5.6-1.5 1.4V12h9v-1.6c0-.8-.6-1.4-1.4-1.4zm-3.1-1C16.4 8 18 6.4 18 4.5S16.4 1 14.5 1 11 2.6 11 4.5 12.6 8 14.5 8zm0-5.9c1.3 0 2.4 1.1 2.4 2.4s-1.1 2.4-2.4 2.4-2.4-1.1-2.4-2.4 1.1-2.4 2.4-2.4zM16 14h-2v2h-2v2h2v2h2v-2h2v-2h-2z" fill="#949494"/></svg>