<svg xmlns="http://www.w3.org/2000/svg" height="16" viewBox="0 0 16 16"><g fill="#949494"><path d="M7.6 13H2.4c-.8 0-1.4.6-1.4 1.4V16h8v-1.6c0-.8-.6-1.4-1.4-1.4zM5 12c1.7 0 3-1.3 3-3S6.7 6 5 6 2 7.3 2 9s1.3 3 3 3zm0-4.9c1 0 1.9.9 1.9 1.9S6 10.9 5 10.9 3.1 10 3.1 9 4 7.1 5 7.1zm7-.1c1.7 0 3-1.3 3-3s-1.3-3-3-3-3 1.3-3 3 1.3 3 3 3zm0-4.9c1 0 1.9.9 1.9 1.9S13 5.9 12 5.9 10.1 5 10.1 4 11 2.1 12 2.1zm2 7.9h-2v2h-2v2h2v2h2v-2h2v-2h-2z"/><path d="M14.6 8H9v3h2V9h4v2h1V9.4c0-.8-.6-1.4-1.4-1.4z"/></g></svg>