<svg xmlns="http://www.w3.org/2000/svg" height="30" viewBox="0 0 30 30"><path d="M11 25H2c-1.1 0-2 .9-2 2v3h13v-3c0-1.1-.9-2-2-2zm14 0h-9c-1.1 0-2 .9-2 2v3h13v-3c0-1.1-.9-2-2-2zM6.5 14.8c2 0 3.7 1.7 3.7 3.7s-1.7 3.7-3.7 3.7-3.7-1.7-3.7-3.7 1.7-3.7 3.7-3.7m0-1.8c-3 0-5.5 2.5-5.5 5.5S3.5 24 6.5 24s5.5-2.5 5.5-5.5S9.5 13 6.5 13zm14 1.8c2 0 3.7 1.7 3.7 3.7s-1.7 3.7-3.7 3.7-3.7-1.7-3.7-3.7 1.7-3.7 3.7-3.7m0-1.8c-3 0-5.5 2.5-5.5 5.5s2.5 5.5 5.5 5.5 5.5-2.5 5.5-5.5-2.5-5.5-5.5-5.5zm-7-9.2c2 0 3.7 1.7 3.7 3.7s-1.7 3.7-3.7 3.7-3.7-1.7-3.7-3.7 1.7-3.7 3.7-3.7m0-1.8C10.5 2 8 4.5 8 7.5s2.5 5.5 5.5 5.5S19 10.5 19 7.5 16.5 2 13.5 2zM26 4V0h-2v4h-4v2h4v4h2V6h4V4z"/></svg>