<svg xmlns="http://www.w3.org/2000/svg" height="16" viewBox="0 0 16 16"><path d="M14 2V0h-2v2h-2v2h2v2h2V4h2V2z"/><path d="M12.5 11c-.6 0-1-.4-1-1V7c0-.7-.2-1.4-.5-2H9.9c.4.6.6 1.3.6 2v3c0 1.1.9 2 2 2 .3 0 .5.2.5.5s-.2.5-.5.5h-11c-.3 0-.5-.2-.5-.5s.2-.5.5-.5c1.1 0 2-.9 2-2V7c0-1.9 1.6-3.5 3.5-3.5.7 0 1.4.2 2 .6V3c-.3-.2-.7-.3-1-.4V2c0-.5-.5-1-1-1s-1 .5-1 1v.6C4 3.1 2.5 4.9 2.5 7v3c0 .6-.4 1-1 1-.8 0-1.5.7-1.5 1.5S.7 14 1.5 14H5c0 1.1.9 2 2 2s2-.9 2-2h3.5c.8 0 1.5-.7 1.5-1.5s-.7-1.5-1.5-1.5z"/></svg>