<svg xmlns="http://www.w3.org/2000/svg" height="30" viewBox="0 0 30 30"><path d="M12.7 22H3.3C2 22 1 23 1 24.2V27h14v-2.8c0-1.2-1-2.2-2.3-2.2zM8 21c3.3 0 6-2.7 6-6s-2.7-6-6-6-6 2.7-6 6 2.7 6 6 6zm0-10.4c2.4 0 4.4 2 4.4 4.4 0 2.4-2 4.4-4.4 4.4s-4.4-2-4.4-4.4c0-2.4 2-4.4 4.4-4.4zM27.7 14h-9.3C17 14 16 15 16 16.2V19h14v-2.8c0-1.2-1-2.2-2.3-2.2zM23 13c3.3 0 6-2.7 6-6s-2.7-6-6-6-6 2.7-6 6 2.7 6 6 6zm0-10.4c2.4 0 4.4 2 4.4 4.4 0 2.4-2 4.4-4.4 4.4s-4.4-2-4.4-4.4c0-2.4 2-4.4 4.4-4.4zM25 20h-2v4h-4v2h4v4h2v-4h4v-2h-4z" fill="#949494"/></svg>