<svg xmlns="http://www.w3.org/2000/svg" height="30" viewBox="0 0 30 30"><path d="M26 4V0h-2v4h-4v2h4v4h2V6h4V4zM13 30c1.7 0 3-1.3 3-3h-6c0 1.7 1.3 3 3 3zM22.9 20c-.5 0-.9-.4-.9-.9V13c0-4.5-3.2-8.1-7.5-8.9V1.5C14.5.7 13.8 0 13 0s-1.5.7-1.5 1.5v2.6C7.2 4.9 4 8.5 4 13v6.1c0 .5-.4.9-.9.9-1.5 0-2.8 1-3.1 2.4-.3 1.9 1.2 3.6 3 3.6h20c1.8 0 3.3-1.7 2.9-3.6-.2-1.4-1.6-2.4-3-2.4zm1 3.8c-.2.3-.6.4-.9.4H3c-.4 0-.7-.2-.9-.4-.1-.2-.3-.5-.2-1 .1-.5.7-.9 1.3-.9 1.5 0 2.7-1.2 2.7-2.7V13C5.8 9 9 5.8 13 5.8c4 0 7.2 3.2 7.2 7.2v6.1c0 1.5 1.2 2.7 2.7 2.7.6 0 1.2.4 1.3.9.1.5-.1.9-.3 1.1z"/></svg>