<svg xmlns="http://www.w3.org/2000/svg" height="16" viewBox="0 0 16 16"><path d="M2 6h2V4h2V2H4V0H2v2H0v2h2zm9.6 3.2h1.8V11h-1.8zM15 .8c-.6-.5-1.5-.8-2.5-.8s-1.7.2-2.4.8C9.4 1.4 9.1 2 9 3h1.5c.2-1.3.9-2 2.1-2 .6 0 1.1.2 1.5.6.4.4.6.8.6 1.4 0 .3 0 .6-.2.8s-.5.6-1.1 1.1-1 1-1.2 1.4c-.2.4-.3.7-.3 1.6h1.3c0-.7.1-.8.2-1.1s.5-.7 1.1-1.2 1-1 1.2-1.4c.2-.4.3-.8.3-1.3 0-.8-.4-1.5-1-2.1zM8.52 13.293l1.343-1.344 2.687 2.686-1.343 1.344z"/><path d="M10 9c0-2.2-1.8-4-4-4-.3 0-.7.1-1 .1v1.3c.3-.1.6-.2 1-.2 1.5 0 2.8 1.3 2.8 2.8S7.5 11.8 6 11.8 3.2 10.5 3.2 9c0-.8.3-1.5.8-2H2.6c-.4.6-.6 1.3-.6 2 0 2.2 1.8 4 4 4s4-1.8 4-4z"/></svg>