<svg xmlns="http://www.w3.org/2000/svg" height="20" viewBox="0 0 20 20"><path d="M8 3H5V0H3v3H0v2h3v3h2V5h3z"/><path d="M13 5.1c.1-1 .4-1.7 1.1-2.3s1.4-.8 2.4-.8 1.9.3 2.5.8 1 1.3 1 2.1c0 .5-.1.9-.3 1.3s-.7 1-1.3 1.5-1 .9-1.1 1.2c-.1.3-.2.4-.2 1.1h-1.3c0-.9.1-1.2.3-1.6.2-.4.6-.9 1.2-1.4s.9-.9 1.1-1.1c.1-.3.2-.5.2-.8 0-.6-.2-1-.6-1.4s-.9-.6-1.5-.6c-1.2 0-1.9.7-2.1 2H13zm4.4 7.9h-1.8v-1.8h1.8V13z"/><path d="M12.52 17.293l1.343-1.344 2.687 2.686-1.343 1.344zM9 8.2c2.1 0 3.8 1.7 3.8 3.8s-1.7 3.8-3.8 3.8-3.8-1.7-3.8-3.8S6.9 8.2 9 8.2M9 7c-2.8 0-5 2.2-5 5s2.2 5 5 5 5-2.2 5-5-2.2-5-5-5z"/></svg>