<svg xmlns="http://www.w3.org/2000/svg" height="30" viewBox="0 0 30 30"><path d="M15 30c1.7 0 3-1.3 3-3h-6c0 1.7 1.3 3 3 3zM27.9 22.4c-.2-1.4-1.6-2.4-3-2.4-.5 0-.9-.4-.9-.9V13c0-4.5-3.2-8.1-7.5-8.9V1.5C16.5.7 15.8 0 15 0s-1.5.7-1.5 1.5v2.6C9.2 4.9 6 8.5 6 13v6.1c0 .5-.4.9-.9.9-1.5 0-2.8 1-3.1 2.4-.3 1.9 1.2 3.6 3 3.6h20c1.8 0 3.3-1.7 2.9-3.6zm-2 1.4c-.2.3-.6.4-.9.4H5c-.4 0-.7-.2-.9-.4-.1-.2-.3-.5-.2-1 .1-.5.7-.9 1.3-.9 1.5 0 2.7-1.2 2.7-2.7V13c0-4 3.2-7.2 7.2-7.2S22.3 9 22.3 13v6.1c0 1.5 1.2 2.7 2.7 2.7.6 0 1.2.4 1.3.9 0 .5-.2.9-.4 1.1z"/></svg>