<svg xmlns="http://www.w3.org/2000/svg" height="30" viewBox="0 0 30 30"><path d="M4 9c-1.1 0-2 .9-2 2v8c0 1.1.9 2 2 2s2-.9 2-2v-8c0-1.1-.9-2-2-2zm22 0c-1.1 0-2 .9-2 2v8c0 1.1.9 2 2 2s2-.9 2-2v-8c0-1.1-.9-2-2-2zM7 21.5C7 22.9 8.1 24 9.5 24h.5v4c0 1.1.9 2 2 2s2-.9 2-2v-4h2v4c0 1.1.9 2 2 2s2-.9 2-2v-4h.5c1.4 0 2.5-1.1 2.5-2.5V10H7v11.5zM18.8 2.9L20 .6c.1-.2 0-.5-.2-.6s-.5 0-.6.2L18 2.6c-.9-.4-1.9-.6-3-.6s-2.1.2-3 .6L10.8.3c-.1-.3-.3-.4-.6-.3s-.3.4-.2.6l1.2 2.3C9 4.1 7.3 6.4 7 9h16c-.3-2.6-2-4.9-4.2-6.1zm-7.6 3.6c-.4 0-.8-.3-.8-.8 0-.4.3-.8.8-.8s.8.4.8.9c0 .4-.3.7-.8.7zm7.6 0c-.4 0-.8-.3-.8-.8 0-.4.3-.7.8-.7s.8.3.8.8c-.1.4-.4.7-.8.7z"/></svg>