<svg xmlns="http://www.w3.org/2000/svg" height="20" viewBox="0 0 20 20"><path d="M3 6c-.5 0-1 .5-1 1v6c0 .5.5 1 1 1s1-.5 1-1V7c0-.5-.5-1-1-1zm14 0c-.5 0-1 .5-1 1v6c0 .5.5 1 1 1s1-.5 1-1V7c0-.5-.5-1-1-1zM5 14c0 1.1.9 2 2 2v3c0 .5.5 1 1 1s1-.5 1-1v-3h2v3c0 .5.5 1 1 1s1-.5 1-1v-3c1.1 0 2-.9 2-2V7H5v7zm7.7-11.2L14 .5c.1-.2 0-.4-.2-.4-.2-.1-.4 0-.5.1L12 2.5c-.6-.3-1.3-.5-2-.5s-1.4.2-2.1.5L6.7.2C6.6 0 6.4 0 6.2 0c-.2.1-.3.3-.2.5l1.3 2.3C6.1 3.5 5.3 4.6 5 6h10c-.3-1.4-1.1-2.5-2.3-3.2zM8 5c-.4 0-.8-.3-.8-.8 0-.4.3-.8.8-.8s.8.3.8.8-.4.8-.8.8zm4 0c-.4 0-.8-.3-.8-.8 0-.4.3-.8.8-.8s.8.3.8.8-.4.8-.8.8z"/></svg>