<svg xmlns="http://www.w3.org/2000/svg" height="16" viewBox="0 0 16 16"><path d="M4 11c0 .6.4 1 1 1h.5v3.2c0 .4.3.8.8.8s.7-.3.7-.8V12h2v3.2c0 .5.3.8.8.8s.8-.3.8-.8V12h.4c.6 0 1-.4 1-1V5H4v6zm6.3-9.4L11 .5c.1-.2 0-.4-.2-.4-.2-.1-.4 0-.5.1l-.7 1.1C9.1 1.1 8.6 1 8 1s-1.1.1-1.6.3L5.7.2C5.6 0 5.4 0 5.2 0c-.2.1-.3.3-.2.5l.7 1.2C4.9 2.2 4.2 3 4 4h8c-.2-1-.9-1.8-1.7-2.4zM6.4 3.2c-.3 0-.6-.3-.6-.6s.3-.6.6-.6.6.3.6.6-.3.6-.6.6zm3.2 0c-.3 0-.6-.3-.6-.6s.3-.6.6-.6.6.3.6.6-.3.6-.6.6zm3.6.8c-.4 0-.8.3-.8.8v5.5c0 .4.3.8.8.8s.8-.3.8-.8V4.8c0-.5-.3-.8-.8-.8zM2.8 4c-.5 0-.8.3-.8.8v5.5c0 .4.3.7.8.7s.8-.3.8-.8V4.8c-.1-.5-.4-.8-.8-.8z"/></svg>