<svg xmlns="http://www.w3.org/2000/svg" height="50" viewBox="0 0 50 50"><path d="M25 4c11.6 0 21 9.4 21 21s-9.4 21-21 21S4 36.6 4 25 13.4 4 25 4m0-2C12.3 2 2 12.3 2 25s10.3 23 23 23 23-10.3 23-23S37.7 2 25 2z"/><circle cx="18.5" cy="21.5" r="3.5"/><circle cx="31.5" cy="21.5" r="3.5"/><path d="M20 17c-.2 0-.4 0-.5-.1l-5.5-3c-.5-.3-.7-1-.4-1.5.3-.5 1-.7 1.5-.4l5.5 3c.5.3.7 1 .4 1.5-.2.3-.6.5-1 .5zM30 17c-.4 0-.8-.2-1-.6-.3-.5-.1-1.2.4-1.5l5.5-3c.5-.3 1.2-.1 1.5.4.3.5.1 1.2-.4 1.5l-5.5 3c-.1.2-.3.2-.5.2zM23.1 36c-.2 0-.5-.1-.7-.3-.5-.4-.5-1-.1-1.5C24.2 32 26.4 31 29 31c2.6 0 4.7 1 6.7 3.2.4.4.4 1.1-.1 1.5-.4.4-1.1.3-1.5-.1-1.6-1.7-3.2-2.5-5.1-2.5-2 0-3.6.8-5.1 2.5-.2.3-.5.4-.8.4z"/></svg>