<svg xmlns="http://www.w3.org/2000/svg" height="40" viewBox="0 0 40 40"><path d="M20 2c9.9 0 18 8.1 18 18s-8.1 18-18 18S2 29.9 2 20 10.1 2 20 2m0-2C9 0 0 9 0 20s9 20 20 20 20-9 20-20S31 0 20 0z"/><circle cx="14" cy="17" r="3"/><circle cx="26" cy="17" r="3"/><path d="M16 13c-.2 0-.3 0-.5-.1L10 10.4c-.6-.3-.8-.9-.5-1.5.3-.6.9-.8 1.5-.5l5.5 2.5c.6.3.8.9.5 1.5-.2.4-.6.6-1 .6zM24 13c-.4 0-.8-.2-1-.6-.3-.6 0-1.2.5-1.5L29 8.4c.6-.2 1.2 0 1.5.5.3.6 0 1.2-.5 1.5l-5.5 2.5c-.2.1-.3.1-.5.1zM17.1 31c-.2 0-.4-.1-.6-.2-.5-.3-.6-1-.2-1.5C18 27 19.8 26 22.5 26c2.6 0 4.5 1 6.3 3.3.4.5.3 1.1-.2 1.5-.5.4-1.2.3-1.5-.2-1.6-2-3-2.5-4.6-2.5-1.6 0-3 .4-4.5 2.5-.3.3-.6.4-.9.4z"/></svg>