<svg xmlns="http://www.w3.org/2000/svg" height="30" viewBox="0 0 30 30"><path d="M15 2c7.2 0 13 5.8 13 13s-5.8 13-13 13S2 22.2 2 15 7.8 2 15 2m0-2C6.7 0 0 6.7 0 15s6.7 15 15 15 15-6.7 15-15S23.3 0 15 0z"/><circle cx="10.5" cy="13.5" r="2.5"/><circle cx="19.5" cy="13.5" r="2.5"/><path d="M12 9.9c-.1 0-.3 0-.4-.1l-4-2c-.4-.2-.6-.8-.4-1.2.2-.4.8-.6 1.2-.4l4 2c.4.2.6.8.4 1.2-.2.3-.5.5-.8.5zM18 9.9c-.3 0-.6-.2-.8-.5-.2-.4 0-1 .4-1.2l4-2c.4-.2 1 0 1.2.4.2.4 0 1-.4 1.2l-4 2c-.1.1-.3.1-.4.1zM13 23c-.2 0-.4-.1-.6-.2-.4-.3-.5-1-.2-1.4C13.5 19.7 15 19 17 19s3.4.7 4.8 2.4c.4.4.3 1.1-.1 1.4-.4.4-1.1.3-1.4-.1-1-1.2-1.9-1.6-3.2-1.6-1.4 0-2.3.4-3.2 1.6-.3.2-.6.3-.9.3z"/></svg>