<svg xmlns="http://www.w3.org/2000/svg" height="20" viewBox="0 0 20 20"><path d="M12.9 3.5c.7-.9 1.2-2.2 1-3.5-1 0-2.2.7-2.9 1.6-.6.8-1.1 2.2-1 3.4 1.1.1 2.2-.6 2.9-1.5z"/><path d="M15.8 12.5c-.3-.7-.5-1.6-.3-2.4.1-1 .8-2.1 1.3-2.5.1-.1.5-.4.7-.6-.9-1.3-2.3-2-3.7-2-1.4-.1-2.9.9-3.7.9C9.4 5.9 8.2 5 7 5h-.2C5.2 5 3.7 6 2.9 7.5 2.5 8 2.1 9.3 2 10c-.1.5 0 1.8.1 2.5.1.6.4 1.8.6 2.4.3.7.9 2 1.3 2.6.8 1.2 1.8 2.5 3.1 2.5s1.7-.8 3.2-.8c1.5 0 1.9.8 3.2.8 1.3-.1 2.2-1.3 3-2.5.4-.6 1.1-1.8 1.3-2.5 0-.1.1-.2.1-.3-.8-.2-1.8-1.4-2.1-2.2"/></svg>