<svg xmlns="http://www.w3.org/2000/svg" height="30" viewBox="0 0 30 30"><path d="M20.4 4.8c1-1.3 1.7-3.1 1.6-4.8-1.5.1-3.3 1-4.4 2.3-1 1.1-1.8 3-1.6 4.7 1.7.1 3.4-.9 4.4-2.2z"/><path d="M24.6 18.5c-.5-1-.7-2.5-.5-3.7.2-1.6 1.2-3.2 2-3.8.2-.2.7-.6 1-.9-1.3-1.9-3.3-2.9-5.5-3-2.1-.2-4.4 1.4-5.5 1.3-1.2 0-2.9-1.4-4.7-1.3H11c-2.4.1-4.6 1.5-5.8 3.8-.5.8-1.1 2.7-1.2 3.9v.1c-.1.8 0 2.8.1 3.8s.6 2.8.9 3.7c.3 1 1.3 2.9 1.9 3.9 1.3 1.8 2.7 3.9 4.7 3.8 1.9-.1 2.6-1.3 4.8-1.3 2.3 0 2.9 1.2 4.9 1.2 2-.1 3.3-1.9 4.5-3.8.6-.9 1.6-2.8 1.9-3.9 0-.1.1-.3.1-.4-1.1-.4-2.6-2.2-3.2-3.4"/></svg>