<svg xmlns="http://www.w3.org/2000/svg" height="30" viewBox="0 0 30 30"><path d="M7.5 28c-1.8 0-3.4-.7-4.6-2-2.5-2.6-2.5-6.8 0-9.4L14.6 4.5c1.6-1.6 3.7-2.5 6-2.5s4.4.9 6 2.5c3.3 3.3 3.3 8.8 0 12.1L17 26.5l-1.3-1.3 9.6-9.8c2.6-2.6 2.6-6.9 0-9.6-1.2-1.3-2.9-2-4.6-2-1.7 0-3.4.7-4.6 2L4.2 17.9c-1.8 1.9-1.8 5 0 6.9.9.9 2.1 1.4 3.3 1.4 1.2 0 2.4-.5 3.3-1.4l8.8-9c1.1-1.1 1.1-3 0-4.1-.5-.5-1.2-.8-2-.8-.7 0-1.4.3-2 .8L9 18.5l-1.3-1.3 6.6-6.8c.9-.9 2.1-1.4 3.3-1.4 1.3 0 2.4.5 3.3 1.4 1.8 1.9 1.8 4.9 0 6.7l-8.8 9A6.42 6.42 0 0 1 7.5 28z"/></svg>