<svg xmlns="http://www.w3.org/2000/svg" height="20" viewBox="0 0 20 20"><path d="M5.4 19c-1.2 0-2.3-.5-3.1-1.4-1.7-1.8-1.7-4.7 0-6.5l8-8.4c1.1-1.1 2.5-1.8 4-1.8s3 .6 4 1.8c2.2 2.3 2.2 6.1 0 8.4L11.8 18l-.9-.9 6.5-6.8c1.7-1.8 1.7-4.8 0-6.6-.8-.9-1.9-1.4-3.1-1.4s-2.3.5-3.1 1.3l-8 8.4c-1.2 1.3-1.2 3.4 0 4.7.6.6 1.4 1 2.2 1 .8 0 1.6-.3 2.2-1l6-6.2c.8-.8.8-2.1 0-2.9-.3-.3-.8-.6-1.3-.6s-1 .2-1.3.6l-4.5 4.7-.9-.9L10 6.7c.6-.6 1.4-1 2.2-1 .9 0 1.6.3 2.2 1 1.2 1.3 1.2 3.4 0 4.7l-6 6.2c-.7.9-1.8 1.4-3 1.4z"/></svg>