<svg xmlns="http://www.w3.org/2000/svg" height="16" viewBox="0 0 16 16"><path d="M3.7 16c-1 0-1.9-.4-2.6-1.1-1.4-1.5-1.4-3.9 0-5.4l6.7-7c.9-1 2.1-1.5 3.4-1.5 1.3 0 2.5.5 3.4 1.5 1.9 1.9 1.9 5.1 0 7l-5.5 5.7-.8-.7 5.5-5.7c1.5-1.5 1.5-4 0-5.5-.7-.7-1.6-1.1-2.6-1.1s-1.9.3-2.6 1l-6.7 7c-1.1 1.1-1.1 2.9 0 4 .5.5 1.2.8 1.9.8s1.4-.3 1.9-.8l5-5.2c.6-.7.6-1.7 0-2.4-.4-.4-.8-.6-1.2-.6-.4 0-.8.2-1.1.5l-3.8 3.9-.8-.7 3.8-3.9c.5-.5 1.2-.8 1.9-.8s1.4.3 1.9.8c1 1.1 1 2.8 0 3.9l-5 5.2c-.7.7-1.7 1.1-2.7 1.1z"/></svg>