<svg xmlns="http://www.w3.org/2000/svg" height="20" viewBox="0 0 20 20"><circle cx="10" cy="10" r="2"/><path d="M13.1 4.9l-1.3 1.3c1.4.7 2.4 2.1 2.4 3.8s-1 3.1-2.4 3.8l1.3 1.3C14.8 14 16 12.2 16 10s-1.2-4.1-2.9-5.1zM5.8 10c0-1.7 1-3.1 2.4-3.8L6.9 4.9C5.2 5.9 4 7.8 4 10s1.2 4.1 2.9 5.1l1.3-1.3c-1.4-.7-2.4-2.1-2.4-3.8z"/><path d="M16 2l-1.3 1.3c2.1 1.5 3.5 3.9 3.5 6.7s-1.4 5.2-3.5 6.7L16 18c2.4-1.8 4-4.7 4-8s-1.6-6.2-4-8zM1.8 10c0-2.8 1.4-5.2 3.5-6.7L4 2c-2.4 1.8-4 4.7-4 8s1.6 6.2 4 8l1.3-1.3c-2.1-1.5-3.5-3.9-3.5-6.7z"/></svg>