<svg xmlns="http://www.w3.org/2000/svg" height="30" viewBox="0 0 30 30"><circle cx="15" cy="15" r="3.5"/><path d="M23.4 4L22 5.4c3 2.1 5 5.6 5 9.6s-2 7.5-5 9.6l1.4 1.4c3.4-2.5 5.6-6.5 5.6-11s-2.2-8.5-5.6-11zM3 15c0-4 2-7.5 5-9.6L6.6 4C3.2 6.5 1 10.5 1 15s2.2 8.5 5.6 11L8 24.6C4.9 22.5 3 19 3 15z"/><path d="M8 15c0-2.6 1.5-4.9 3.7-6.1l-1.4-1.4C7.7 9.1 6 11.8 6 15s1.7 5.9 4.2 7.5l1.4-1.4C9.5 19.9 8 17.6 8 15zM19.8 7.5l-1.4 1.4c2.2 1.1 3.7 3.4 3.7 6.1 0 2.6-1.5 4.9-3.7 6.1l1.4 1.4C22.3 21 24 18.2 24 15s-1.7-5.9-4.2-7.5z"/></svg>