<svg xmlns="http://www.w3.org/2000/svg" height="30" viewBox="0 0 30 30"><path d="M17 11.8c0-1.1-.9-2-2-2s-2 .9-2 2c0 .9.6 1.7 1.4 1.9L13 29h4l-1.4-15.2c.8-.3 1.4-1.1 1.4-2z"/><path d="M18.1 6.7L16.8 8c1.4.7 2.4 2.1 2.4 3.8 0 1.7-1 3.1-2.4 3.8l1.3 1.3c1.7-1.1 2.9-2.9 2.9-5.1s-1.2-4-2.9-5.1zM10.8 11.8c0-1.7 1-3.1 2.4-3.8l-1.3-1.3C10.2 7.8 9 9.7 9 11.8s1.2 4.1 2.9 5.1l1.3-1.3c-1.4-.6-2.4-2.1-2.4-3.8z"/><path d="M21 3.9l-1.3 1.3c2.1 1.5 3.5 3.9 3.5 6.7s-1.4 5.2-3.5 6.7l1.3 1.3c2.4-1.8 4-4.7 4-8s-1.6-6.2-4-8zM6.8 11.8c0-2.8 1.4-5.2 3.5-6.7L9 3.9c-2.4 1.8-4 4.7-4 8s1.6 6.2 4 8l1.3-1.3c-2.1-1.5-3.5-4-3.5-6.8z"/><path d="M23.8 1l-1.3 1.3c2.8 2.2 4.6 5.7 4.6 9.6s-1.8 7.3-4.6 9.6l1.3 1.3c3.2-2.7 5.2-6.6 5.2-11S27 3.6 23.8 1zM2.8 11.8c0-3.9 1.8-7.3 4.6-9.6L6.2 1C3 3.6 1 7.5 1 11.8s2 8.3 5.2 10.8l1.3-1.3c-2.9-2.1-4.7-5.6-4.7-9.5z"/></svg>