<svg xmlns="http://www.w3.org/2000/svg" height="20" viewBox="0 0 20 20"><path d="M12.5 7.6c0-1.1-.9-2-2-2s-2 .9-2 2c0 .9.6 1.7 1.5 1.9L9.5 20h2L11 9.6c.9-.3 1.5-1 1.5-2zM17.5 7.6c0-2.4-1.3-4.6-3.2-5.8l-.8.8c1.7 1 2.9 2.9 2.9 5s-1.1 4-2.9 5l.8.8c1.9-1.2 3.2-3.3 3.2-5.8zM4.6 7.6c0-2.1 1.1-4 2.9-5l-.8-.8C4.8 3 3.5 5.2 3.5 7.6s1.3 4.6 3.2 5.8l.8-.8c-1.8-1-2.9-2.8-2.9-5z"/><path d="M12.5 3.6l-.8.8c1.3.5 2.2 1.7 2.2 3.2s-.9 2.7-2.2 3.2l.8.8c1.5-.7 2.5-2.2 2.5-4s-1-3.2-2.5-4zM7.1 7.6c0-1.5.9-2.7 2.2-3.2l-.8-.8C7 4.4 6 5.9 6 7.6s1 3.3 2.5 4l.8-.8C8 10.3 7.1 9.1 7.1 7.6zM16.1 0l-.8.8c2.1 1.5 3.6 4 3.6 6.8s-1.4 5.3-3.6 6.8l.8.8c2.3-1.7 3.9-4.5 3.9-7.6S18.5 1.7 16.1 0zM2.1 7.6c0-2.8 1.4-5.3 3.6-6.8L4.9 0C2.5 1.7 1 4.5 1 7.6s1.5 5.9 3.9 7.6l.8-.8C3.5 13 2.1 10.5 2.1 7.6z"/></svg>