<svg xmlns="http://www.w3.org/2000/svg" height="16" viewBox="0 0 16 16"><path d="M10 6.6c0-1.1-.9-2-2-2s-2 .9-2 2c0 .9.6 1.7 1.5 1.9L7 16h2l-.5-7.5c.9-.2 1.5-1 1.5-1.9zM3 6.6C3 4.7 4.1 3 5.6 2.2l-.7-.8C3.2 2.5 2 4.4 2 6.6s1.2 4.1 2.9 5.1l.7-.7C4.1 10.1 3 8.5 3 6.6zM14 6.6c0-2.2-1.2-4.1-2.9-5.1l-.7.7C11.9 3 13 4.7 13 6.6s-1.1 3.5-2.6 4.4l.7.7c1.7-1.1 2.9-3 2.9-5.1z"/><path d="M12 6.6c0-1.6-1-3-2.4-3.6l-.7.7c1.2.4 2.1 1.5 2.1 2.9s-.9 2.5-2.1 2.9l.8.8C11 9.6 12 8.2 12 6.6zM5 6.6c0-1.4.9-2.5 2.1-2.9l-.7-.8C5 3.6 4 4.9 4 6.6c0 1.6 1 3 2.4 3.6l.8-.8C5.9 9.1 5 7.9 5 6.6z"/><path d="M12.6 0l-.7.7C13.7 2 15 4.1 15 6.6s-1.3 4.6-3.2 5.8l.7.7c2.1-1.4 3.4-3.8 3.4-6.6S14.6 1.4 12.6 0zM1 6.6C1 4.1 2.3 2 4.2.7L3.4 0C1.4 1.4 0 3.8 0 6.6s1.4 5.1 3.4 6.6l.7-.7C2.3 11.2 1 9 1 6.6z"/></svg>