<svg xmlns="http://www.w3.org/2000/svg" height="20" viewBox="0 0 20 20"><path d="M13.5 1h2v1.2h-2zM10.5 1h2v1.2h-2zM7.5 1h2v1.2h-2zM4.5 1h2v1.2h-2zM4.9 13.5H3.7l.3 2h1.2zM2.8 6.5H4l-.3-2H2.5zM15.2 12.5h1.2l.3-2h-1.2zM15.6 9.5h1.2l.3-2h-1.2zM16 6.5h1.2l.3-2h-1.2zM16.3 13.5h-1.2l-.3 2H16zM16.8 1l-.4 2.5h1.3L18 1zM2 1l.3 2.5h1.3L3.2 1zM6 17.8h-.5l-.1-1.3H4.2l.3 2.5H6zM4.4 9.5l-.3-2H2.9l.3 2zM14.6 16.5l-.1 1.3H14V19h1.5l.3-2.5zM4.8 12.5l-.3-2H3.3l.3 2zM7 17.8h2.5V19H7zM10.5 17.8H13V19h-2.5z"/></svg>