<svg xmlns="http://www.w3.org/2000/svg" height="30" viewBox="0 0 30 30"><path d="M10 6.6C10 5.5 9.4 4 6.8 4H2.1L1 10h4.8C9.1 10 10 8.2 10 6.6zm-1 8c0-1.1-.6-2.6-3.2-2.6H1.1L0 18h4.8C8.1 18 9 16.2 9 14.6zm11-8c0-1.1-.6-2.6-3.2-2.6h-4.6L11 10h4.8c3.3 0 4.2-1.8 4.2-3.4zm-1 8c0-1.2-.6-2.6-3.2-2.6h-4.6L10 18h4.8c3.3 0 4.2-1.8 4.2-3.4zm10.5-4c0-1.2-.6-2.6-3.2-2.6h-4.6l-1.1 6h4.8c3.2 0 4.1-1.8 4.1-3.4zm-1 8c0-1.2-.6-2.6-3.2-2.6h-4.6l-1.1 6h4.8c3.2 0 4.1-1.8 4.1-3.4zm-10.5 4c0-1.2-.6-2.6-3.2-2.6h-4.6L9 26h4.8c3.3 0 4.2-1.8 4.2-3.4z"/></svg>