<svg xmlns="http://www.w3.org/2000/svg" height="16" viewBox="0 0 16 16"><path d="M6.5 4.3c0-.6-.3-1.3-1.7-1.3H2.6L2 6h2.2C6 6 6.5 5.1 6.5 4.3zm-1 4c0-.6-.3-1.3-1.7-1.3H1.6L1 10h2.2c1.8 0 2.3-.9 2.3-1.7zm6-4c0-.6-.3-1.3-1.7-1.3H7.6L7 6h2.2c1.8 0 2.3-.9 2.3-1.7zm-1 4c0-.6-.3-1.3-1.7-1.3H6.6L6 10h2.2c1.8 0 2.3-.9 2.3-1.7zm5.5-2c0-.6-.3-1.3-1.7-1.3h-2.2l-.6 3h2.2c1.8 0 2.3-.9 2.3-1.7zm-1 4c0-.6-.3-1.3-1.7-1.3h-2.2l-.6 3h2.2c1.8 0 2.3-.9 2.3-1.7zm-5.5 2c0-.6-.3-1.3-1.7-1.3H5.6L5 14h2.2c1.8 0 2.3-.9 2.3-1.7z"/></svg>