<svg xmlns="http://www.w3.org/2000/svg" height="30" viewBox="0 0 30 30"><path d="M19.6 14.3c2.3.5 3.4 1.2 4.4 1.9 1.3 1.1 2 2.5 2 4.2 0 1.8-.7 3.3-2.2 4.5-1.8 1.4-4.5 2.1-7.9 2.1H4v-1c1.1 0 1.6-.1 2-.3.4-.2.7-.5.8-.8.2-.3.2-1.1.2-2.4v-15C7 6.2 7 5.4 6.8 5c-.1-.3-.4-.5-.8-.7-.5-.2-.9-.3-2-.3V3h11.2c2.8 0 4.9.2 6.1.7 1.1.5 2 1.3 2.7 2.2.7 1 1 2 1 3.1 0 1.2-.4 2.2-1.3 3.1-.8.9-1.9 1.7-4.1 2.2zm-7.5-.8c1.7 0 3.9-.2 4.7-.6.8-.4 1.4-.6 1.9-1.3.4-.7.7-1.6.7-2.6 0-1.1-.2-1.9-.6-2.6-.4-.7-1-1-1.8-1.4-.8-.4-3-.5-4.7-.5v9zm0 1.5v8.6c0 .6.3 1.1.6 1.5.3.3.8.5 1.5.5 1 0 2.6 0 3.4-.4.8-.4 1.4-1 1.9-1.8.4-.8.7-1.7.7-2.7 0-1.1-.3-2.1-.8-3-.5-.9-1.3-1.7-2.2-2.1S14 15 12.1 15z"/></svg>