<svg xmlns="http://www.w3.org/2000/svg" height="16" viewBox="0 0 16 16"><path d="M10.5 7.6c1.3.3 1.9.7 2.4 1.1.7.6 1.1 1.4 1.1 2.4s-.4 1.9-1.2 2.6c-1 .8-2.4 1.3-4.3 1.3H2v-.6c.6 0 .9-.1 1.1-.2.2-.1.4-.3.5-.5.1-.2.1-.7.1-1.4V3.6c0-.8 0-1.2-.1-1.4-.1-.2-.3-.3-.5-.5-.2-.1-.5-.1-1.1-.1V1h6.1c1.5 0 2.6.1 3.2.4.6.3 1.1.7 1.5 1.3.4.6.6 1.2.6 1.8 0 .7-.2 1.3-.7 1.8-.5.6-1 1-2.2 1.3zm-4-.5c.9 0 2-.1 2.5-.3.4-.2.8-.4 1-.8.2-.4.4-.9.4-1.5s-.1-1.1-.3-1.5c-.3-.4-.6-.6-1.1-.8-.4-.2-1.5-.3-2.5-.3v5.2zm0 .9v5c0 .4.1.7.3.8.2.2.4.3.8.3.5 0 1.4 0 1.9-.3.4-.2.8-.6 1-1.1.2-.5.4-1 .4-1.6 0-.6-.1-1.2-.4-1.8-.3-.5-.7-1-1.2-1.2-.6 0-1.8-.1-2.8-.1z"/></svg>