<svg xmlns="http://www.w3.org/2000/svg" height="30" viewBox="0 0 30 30"><path d="M22.3 14.1l5.8-5.8c1.2-1.2 1.2-3.1 0-4.2l-.2-.2c-1.2-1.2-3.1-1.2-4.2 0l-5.8 5.8c-.9.9-1.1 2.4-.5 3.5l-1.3 1.2-3.7-3.7c.2-.6.3-1.2.3-1.9 0-3.2-2.6-5.9-5.9-5.9-.7.1-1.5.3-2.2.6l3.1 3.1c.9.9.9 2.3 0 3.1-.4.4-1 .6-1.6.6-.6 0-1.1-.2-1.6-.6l-3-3.1c-.3.7-.5 1.5-.5 2.3 0 3.2 2.6 5.9 5.9 5.9.7 0 1.3-.1 1.9-.3l3.7 3.7-4.7 4.7-1.1.4-1.8 2.5L6.3 27l2.5-1.8.4-1.1 4.7-4.7 6.8 6.8c.5.5 1.2.8 1.8.8s1.3-.3 1.8-.8c1-1 1-2.6 0-3.6l-6.7-6.7 1.3-1.2c1 .5 2.4.4 3.4-.6zm.2 8.9c.8 0 1.5.7 1.5 1.5s-.7 1.5-1.5 1.5-1.5-.7-1.5-1.5.7-1.5 1.5-1.5zm5.3-16.8c.2.2.2.4 0 .6l-7 7c-.1.1-.2.1-.3.1s-.2 0-.3-.1c-.2-.2-.2-.4 0-.6l7-7c.2-.1.4-.1.6 0zm-9.6 5l7-7c.2-.2.4-.2.6 0s.2.4 0 .6l-7 7c-.1.1-.2.1-.3.1s-.2 0-.3-.1c-.1-.2-.1-.4 0-.6z"/></svg>