<svg xmlns="http://www.w3.org/2000/svg" height="20" viewBox="0 0 20 20"><path d="M14.5 9.4l4.9-4.9c.8-.8.8-2.1 0-2.8l-.1-.1c-.8-.8-2.1-.8-2.8 0l-4.9 4.9c-.6.6-.8 1.5-.4 2.2l-.4.4-2.5-2.4c.2-.4.2-.9.2-1.4C8.5 2.9 6.6 1 4.3 1c-.6 0-1.2.1-1.7.3l2.3 2.3c.6.6.6 1.6 0 2.3-.3.3-.8.4-1.2.4-.4 0-.8-.2-1.1-.5L.3 3.6C.1 4.1 0 4.7 0 5.3c0 2.4 1.9 4.3 4.3 4.3.5 0 1-.1 1.4-.2l2.5 2.5-3.3 3.3-1.1.2L2 17.7 3.3 19l2.3-1.7.2-1.1 3.3-3.3 5.6 5.6c.4.4.8.5 1.3.5s1-.2 1.3-.5c.7-.7.7-1.9 0-2.6l-5.6-5.6.4-.4c.9.3 1.8.1 2.4-.5zM16 16c.6 0 1 .4 1 1s-.4 1-1 1-1-.4-1-1 .4-1 1-1zm2.3-12.7c.1-.1.3-.1.4 0s.1.3 0 .4l-5 5c-.1.1-.1.1-.2.1s-.2 0-.2-.1c-.1-.1-.1-.3 0-.4l5-5zm-6 4l5-5c.1-.1.3-.1.4 0s.1.3 0 .4l-5 5c-.1.1-.1.1-.2.1s-.2 0-.2-.1c-.1-.1-.1-.3 0-.4z"/></svg>