<svg xmlns="http://www.w3.org/2000/svg" height="16" viewBox="0 0 16 16"><path d="M11.7 7.5l3.8-3.8c.6-.6.6-1.6 0-2.2l-.1-.1c-.6-.6-1.6-.6-2.2 0L9.5 5.3c-.5.4-.6 1-.4 1.5l-.5.6-1.7-1.7c.1-.3.2-.7.2-1.1 0-2-1.6-3.6-3.6-3.6-.5 0-1 .1-1.4.3L4 3.2c.5.5.5 1.4 0 1.9-.2.2-.5.3-.9.3-.3 0-.7-.1-.9-.4L.3 3.2c-.2.4-.3.9-.3 1.4 0 2 1.6 3.6 3.6 3.6.4-.1.8-.2 1.1-.3l1.7 1.7-2.6 2.6-1.1.2L1 14.7 2.3 16l2.3-1.7.2-1.1 2.6-2.6 4.9 4.9c.3.3.7.5 1.1.5.4 0 .8-.2 1.1-.5.6-.6.6-1.6 0-2.2L9.6 8.4l.5-.5c.6.2 1.2.1 1.6-.4zM13 13c.6 0 1 .4 1 1s-.4 1-1 1-1-.4-1-1 .4-1 1-1zm1.8-10.2c.1-.1.3-.1.4 0s.1.3 0 .4l-4 4c-.1.1-.1.1-.2.1s-.2 0-.2-.1c-.1-.1-.1-.3 0-.4l4-4zm-5 3.4c-.1-.1-.1-.3 0-.4l4-4c.1-.1.3-.1.4 0s.1.3 0 .4l-4 4c-.1.1-.1.1-.2.1s-.2 0-.2-.1z"/></svg>