<svg xmlns="http://www.w3.org/2000/svg" height="30" viewBox="0 0 30 30"><path d="M15 24.5c0 1.4-1.1 2.5-2.5 2.5S10 25.9 10 24.5s1.1-2.5 2.5-2.5 2.5 1.1 2.5 2.5zm12 0c0 1.4-1.1 2.5-2.5 2.5S22 25.9 22 24.5s1.1-2.5 2.5-2.5 2.5 1.1 2.5 2.5zM26 21H11c-.5 0-.8-.3-1-.7L6.2 6H1c-.6 0-1-.4-1-1s.4-1 1-1h6c.5 0 .8.3 1 .7L11.8 19H26c.6 0 1 .4 1 1s-.4 1-1 1z"/><path d="M29 9H12c-.6 0-1-.4-1-1s.4-1 1-1h17c.6 0 1 .4 1 1s-.4 1-1 1zm-1 4H13c-.6 0-1-.4-1-1s.4-1 1-1h15c.6 0 1 .4 1 1s-.4 1-1 1zm-1 4H14c-.6 0-1-.4-1-1s.4-1 1-1h13c.6 0 1 .4 1 1s-.4 1-1 1z"/></svg>