<svg xmlns="http://www.w3.org/2000/svg" height="20" viewBox="0 0 20 20"><path d="M11 17c0 1.1-.9 2-2 2s-2-.9-2-2 .9-2 2-2 2 .9 2 2zm8 0c0 1.1-.9 2-2 2s-2-.9-2-2 .9-2 2-2 2 .9 2 2zm-1-3H7.5c-.2 0-.4-.2-.5-.4L4.1 3H.5C.2 3 0 2.8 0 2.5S.2 2 .5 2h4c.2 0 .5.2.5.4L7.9 13H18c.3 0 .5.2.5.5s-.2.5-.5.5z"/><path d="M19.5 5H8c-.3 0-.5-.2-.5-.5S7.7 4 8 4h11.5c.3 0 .5.2.5.5s-.2.5-.5.5zM19 8H9c-.3 0-.5-.2-.5-.5S8.7 7 9 7h10c.3 0 .5.2.5.5s-.2.5-.5.5zm-.5 3H10c-.3 0-.5-.2-.5-.5s.2-.5.5-.5h8.5c.3 0 .5.2.5.5s-.2.5-.5.5z"/></svg>