<svg xmlns="http://www.w3.org/2000/svg" height="16" viewBox="0 0 16 16"><path d="M8 13c0 1.1-.9 2-2 2s-2-.9-2-2 .9-2 2-2 2 .9 2 2zm7 0c0 1.1-.9 2-2 2s-2-.9-2-2 .9-2 2-2 2 .9 2 2zm-1.1-3H5.5c-.2 0-.5-.2-.5-.4L3 2H.5C.2 2 0 1.8 0 1.5S.2 1 .5 1h2.9c.2 0 .4.2.5.4l2 7.6h8c.3 0 .5.2.5.5s-.2.5-.5.5z"/><path d="M15.5 4h-9c-.3 0-.5-.2-.5-.5s.2-.5.5-.5h9c.3 0 .5.2.5.5s-.2.5-.5.5zM15 6H7c-.3 0-.5-.2-.5-.5S6.7 5 7 5h8c.3 0 .5.2.5.5s-.2.5-.5.5zm-.5 2h-7c-.3 0-.5-.2-.5-.5s.2-.5.5-.5h7c.3 0 .5.2.5.5s-.2.5-.5.5z"/></svg>