<svg xmlns="http://www.w3.org/2000/svg" height="30" viewBox="0 0 30 30"><path d="M24.5 17C22 21.1 18 21.9 18 21.9l3.9 7.1 1.6-5.5 5.5 1.6-4.5-8.1zm-19 0L1 25.1l5.5-1.6L8.1 29l3.9-7.1s-4-.8-6.5-4.9z"/><circle cx="15" cy="11" r="6"/><path d="M19.3 19.4c.5.2 1.1.1 1.6-.3s.7-.9.8-1.5c.6 0 1.1-.3 1.5-.8.4-.5.4-1.1.3-1.6.5-.2 1-.6 1.2-1.2s.1-1.2-.2-1.6c.4-.3.7-.9.7-1.5s-.3-1.1-.7-1.5c.3-.5.4-1.1.2-1.6-.2-.6-.6-1-1.2-1.2.2-.5.1-1.1-.3-1.6s-.9-.7-1.5-.8c0-.6-.3-1.1-.8-1.5s-1.1-.4-1.6-.3c-.2-.5-.6-1-1.2-1.2s-1.2-.1-1.6.2c-.4-.1-.9-.4-1.5-.4s-1.1.3-1.5.7c-.5-.3-1.1-.4-1.6-.2-.6.2-1 .6-1.2 1.2-.5-.2-1.1-.1-1.6.3-.5.3-.7.8-.7 1.4-.6 0-1.1.3-1.5.8-.3.4-.4 1-.3 1.5-.5.2-1 .6-1.2 1.2-.1.6 0 1.2.3 1.6-.4.4-.7.9-.7 1.5s.3 1.1.7 1.5c-.3.5-.4 1.1-.2 1.6.2.6.6 1 1.2 1.2-.2.5-.1 1.1.3 1.6s.9.7 1.5.8c0 .6.3 1.1.8 1.5.5.4 1.1.4 1.6.3.2.5.6 1 1.2 1.2.6.2 1.2.1 1.6-.2.3.4.9.7 1.5.7s1.1-.3 1.5-.7c.5.3 1.1.4 1.6.2s.8-.8 1-1.3zm-4.3-.6c-4.3 0-7.7-3.5-7.7-7.8s3.5-7.8 7.7-7.8c4.3 0 7.8 3.5 7.8 7.8s-3.5 7.8-7.8 7.8z"/></svg>