<svg xmlns="http://www.w3.org/2000/svg" height="20" viewBox="0 0 20 20"><path d="M16.7 11c-1.9 3.1-4.9 3.7-4.9 3.7l2.9 5.3 1.2-4.1 4.1 1.2-3.3-6.1zM3.3 11L0 17.1l4.1-1.2L5.3 20l2.9-5.3c.1 0-2.9-.6-4.9-3.7z"/><circle cx="10" cy="7" r="4.5"/><path d="M12.2 13.7c.4-.1.7-.4.8-.8.4.1.8.1 1.1-.2.3-.2.5-.6.5-1 .4 0 .8-.2 1-.5.2-.3.3-.8.2-1.1.4-.1.7-.4.8-.8.1-.4 0-.8-.2-1.1.4-.4.6-.8.6-1.2 0-.4-.2-.8-.5-1 .2-.3.3-.7.2-1.1-.1-.4-.4-.7-.8-.8.1-.4.1-.8-.2-1.1-.2-.3-.6-.5-1-.5 0-.4-.2-.8-.5-1s-.8-.5-1.2-.3c-.1-.4-.4-.7-.8-.8-.4-.1-.8 0-1.1.2-.3-.4-.7-.6-1.1-.6-.4 0-.8.2-1 .5C8.7.3 8.2.2 7.8.3c-.4.2-.7.5-.8.9-.4-.2-.8-.1-1.1.1-.4.3-.5.7-.5 1.1-.4 0-.8.2-1 .5-.3.3-.4.7-.2 1.1-.4.1-.7.4-.9.8-.1.4 0 .9.2 1.2-.3.2-.5.6-.5 1s.2.8.5 1c-.2.3-.3.8-.2 1.2.2.4.5.7.9.8-.1.4-.1.8.2 1.1.2.3.6.5 1 .5 0 .4.2.8.5 1 .3.3.7.4 1.1.2.1.4.4.7.8.8.4.1.8 0 1.1-.2.2.3.6.5 1 .5s.8-.2 1-.5c.4.3.9.4 1.3.3zm-2.2-1c-3.2 0-5.7-2.6-5.7-5.7 0-3.2 2.6-5.7 5.7-5.7 3.2 0 5.7 2.6 5.7 5.7 0 3.2-2.5 5.7-5.7 5.7z"/></svg>