<svg xmlns="http://www.w3.org/2000/svg" height="16" viewBox="0 0 16 16"><path d="M13.3 8.8c-1.5 2.5-3.9 2.9-3.9 2.9l2.3 4.3 1-3.3 3.3 1-2.7-4.9zm-10.6 0L0 13.7l3.3-1 1 3.3 2.3-4.3s-2.4-.4-3.9-2.9z"/><circle cx="8" cy="5.5" r="3.5"/><path d="M9.7 10.7c.3-.1.5-.3.6-.6.3.1.6 0 .9-.1.3-.2.4-.5.4-.8.3 0 .6-.1.8-.4.2-.3.2-.6.1-.9.3-.1.5-.3.6-.6.1-.3 0-.6-.1-.9.2-.2.4-.5.4-.8s-.2-.6-.4-.8c.2-.3.2-.6.1-.9-.1-.3-.3-.5-.6-.6.1-.3 0-.6-.1-.9-.1-.4-.4-.5-.8-.5 0-.3-.1-.6-.4-.8-.3-.2-.6-.2-.9-.1-.1-.4-.3-.6-.6-.7s-.6 0-.9.1C8.6.2 8.3 0 8 0c-.3 0-.6.2-.8.4-.3-.2-.6-.2-.9-.1-.3.1-.5.3-.6.6-.3-.1-.7 0-.9.2-.3.1-.4.4-.4.8-.4 0-.7.1-.8.4-.2.2-.3.6-.2.9-.3.1-.5.3-.6.6-.1.3 0 .6.1.9-.2.2-.4.5-.4.8s.2.6.4.8c-.2.3-.2.6-.1.9.1.3.3.5.6.6-.1.3 0 .6.1.9.2.3.5.4.9.4 0 .3.1.6.4.8.3.2.6.2.9.1.1.3.3.5.6.6.3.1.6 0 .9-.1.2.3.5.5.8.5.3 0 .6-.2.8-.4.3.2.6.2.9.1zM8 10c-2.5 0-4.5-2-4.5-4.5S5.5 1 8 1s4.5 2 4.5 4.5S10.5 10 8 10z"/></svg>