<svg xmlns="http://www.w3.org/2000/svg" height="16" viewBox="0 0 16 16"><path d="M9.1 11.9l-2.3 4c-1.9-.3-3.6-1.2-4.9-2.7C.7 11.7 0 10 0 8c0-1.4.3-2.7 1-3.9l3.2 5.7c.3.7.8 1.2 1.5 1.7.7.4 1.4.7 2.2.7.5-.1.8-.2 1.2-.3zM4 7L1.7 3c.8-.9 1.7-1.7 2.8-2.2C5.6.3 6.7 0 8 0c1.4 0 2.8.4 4 1.1 1.2.7 2.2 1.7 2.9 2.9H8c-.9 0-1.8.2-2.5.8C4.7 5.3 4.3 6.1 4 7zm2 3c-.6-.5-.9-1.2-.9-2s.3-1.5.9-2c.6-.6 1.3-.9 2-.9.8 0 1.5.3 2 .9.6.6.9 1.3.9 2 0 .8-.3 1.5-.9 2-.6.6-1.3.9-2 .9-.8 0-1.5-.3-2-.9zm4.9-5h4.6c.3.9.5 2 .5 3 0 2.2-.8 4.1-2.3 5.6-1.5 1.6-3.4 2.4-5.6 2.4l3.3-5.7c.5-.7.7-1.5.7-2.3 0-1.1-.4-2.2-1.2-3z"/></svg>