<svg xmlns="http://www.w3.org/2000/svg" height="30" viewBox="0 0 30 30"><path d="M16.9 21.9l-4 6.9c-3.4-.5-6.2-2.1-8.5-4.7C2.1 21.6 1 18.5 1 15c0-2.4.6-4.7 1.8-6.9l5.7 10c.6 1.2 1.5 2.2 2.6 3 1.2.8 2.5 1.1 3.9 1.1.7 0 1.3-.1 1.9-.3zm-8.8-8.7l-4-6.9c1.3-1.7 2.9-3 4.8-3.9C10.8 1.5 12.8 1 15 1c2.5 0 4.8.6 7 1.9 2.1 1.2 3.8 3 5.1 5.1H15.6c-.2 0-.4-.1-.6-.1-1.6 0-3.1.4-4.4 1.4-1.3 1-2.1 2.3-2.5 3.9z"/><path d="M11.4 18.6c-1-1-1.5-2.2-1.5-3.6s.5-2.6 1.5-3.6 2.2-1.5 3.6-1.5 2.6.5 3.6 1.5 1.5 2.2 1.5 3.6-.5 2.6-1.5 3.6-2.2 1.5-3.6 1.5-2.6-.5-3.6-1.5z"/><path d="M20 9.9h8c.7 1.6 1 3.4 1 5.1 0 3.8-1.3 7.1-4 9.8-2.7 2.7-6 4.1-9.8 4.2l5.7-9.9c.8-1.2 1.3-2.6 1.3-4.1 0-2-.7-3.7-2.2-5.1z"/></svg>