<svg xmlns="http://www.w3.org/2000/svg" height="20" viewBox="0 0 20 20"><path d="M11.4 14.9l-2.9 5c-2.4-.4-4.4-1.5-6.1-3.3C.8 14.7 0 12.5 0 10c0-1.7.4-3.4 1.3-4.9l4.1 7.1c.4.9 1 1.6 1.9 2.1.8.5 1.8.8 2.8.8.4 0 .8 0 1.3-.2zM5 8.7l-2.9-5c1-1.1 2.2-2 3.5-2.7C7 .3 8.4 0 10 0c1.8 0 3.5.4 5 1.3s2.7 2.2 3.6 3.7H10c-1.2 0-2.2.2-3.1 1-1 .7-1.6 1.6-1.9 2.7zm2.4 3.9c-.7-.8-1-1.6-1-2.6s.4-1.8 1.1-2.6c.7-.7 1.5-1 2.5-1s1.8.4 2.6 1.1c.7.7 1.1 1.6 1.1 2.6s-.4 1.8-1.1 2.6c-.7.7-1.6 1.1-2.6 1.1-1-.2-1.8-.5-2.6-1.2zm6.2-6.3h5.7c.5 1.2.7 2.4.7 3.7 0 2.7-1 5.1-2.9 7-1.9 2-4.3 2.9-7 3l4.1-7.1c.6-.9.9-1.9.9-2.9 0-1.4-.5-2.7-1.5-3.7z"/></svg>