<svg xmlns="http://www.w3.org/2000/svg" height="30" viewBox="0 0 30 30"><path d="M10.5 5C5.3 5 1 9.3 1 14.5S5.3 24 10.5 24s9.5-4.3 9.5-9.5S15.7 5 10.5 5zm0 17C6.4 22 3 18.6 3 14.5S6.4 7 10.5 7s7.5 3.4 7.5 7.5-3.4 7.5-7.5 7.5z"/><path transform="rotate(-45.001 21.818 25.217)" d="M20.7 21h2.2v8.5h-2.2z"/><path d="M28.4 2.3c-1-.9-2.3-1.3-4-1.3-1.6 0-2.8.4-3.8 1.2s-1.5 2-1.7 3.5v.1l2.4.3V6c.2-1.1.5-1.9 1.1-2.4s1.3-.8 2.1-.8c.9 0 1.6.3 2.2.8.6.6.9 1.2.9 1.9 0 .4-.1.8-.3 1.1s-.7.8-1.3 1.4c-.7.6-1.2 1.1-1.5 1.4-.4.4-.7.9-.8 1.3-.2.6-.3 1-.3 1.8v.9h2.3v-.2c0-.7 0-1.2.1-1.6.1-.3.2-.6.4-.9.2-.3.6-.7 1.3-1.2 1-.8 1.7-1.6 2-2.2s.5-1.3.5-2c-.1-1-.6-2.1-1.6-3zM23.3 15h2.5v2.5h-2.5zM6 13.8h9v1.4H6zM6 11h9v1.4H6zM6 16.6h9V18H6z"/></svg>