<svg xmlns="http://www.w3.org/2000/svg" height="30" viewBox="0 0 30 30"><path d="M15 3c6.6 0 12 5.4 12 12s-5.4 12-12 12S3 21.6 3 15 8.4 3 15 3m0-2C7.3 1 1 7.3 1 15s6.3 14 14 14 14-6.3 14-14S22.7 1 15 1z"/><path d="M8.5 8.3c.6 0 1.2 1 1.2 2.2s-.6 2.2-1.2 2.2-1.2-1-1.2-2.2.6-2.2 1.2-2.2m0-1.3C7.1 7 6 8.6 6 10.5S7.1 14 8.5 14s2.5-1.6 2.5-3.5S9.9 7 8.5 7zm4.3 0h1.5v7h-1.5zm5.7 1.3c.6 0 1.2 1 1.2 2.2s-.6 2.2-1.2 2.2-1.2-1-1.2-2.2.6-2.2 1.2-2.2m0-1.3C17.1 7 16 8.6 16 10.5s1.1 3.5 2.5 3.5 2.5-1.6 2.5-3.5S19.9 7 18.5 7zm4 0H24v7h-1.5zm-1 10.3c.6 0 1.2 1 1.2 2.2s-.6 2.2-1.2 2.2-1.2-1-1.2-2.2.6-2.2 1.2-2.2m0-1.3c-1.4 0-2.5 1.6-2.5 3.5s1.1 3.5 2.5 3.5 2.5-1.6 2.5-3.5-1.1-3.5-2.5-3.5zm-5.7 0h1.5v7h-1.5zm-4.3 1.3c.6 0 1.2 1 1.2 2.2s-.6 2.2-1.2 2.2-1.2-1-1.2-2.2.6-2.2 1.2-2.2m0-1.3C10.1 16 9 17.6 9 19.5s1.1 3.5 2.5 3.5 2.5-1.6 2.5-3.5-1.1-3.5-2.5-3.5zM6 16h1.5v7H6z"/></svg>