<svg xmlns="http://www.w3.org/2000/svg" height="16" viewBox="0 0 16 16"><path d="M8 1.2c3.7 0 6.8 3.1 6.8 6.8s-3.1 6.8-6.8 6.8S1.2 11.7 1.2 8 4.3 1.2 8 1.2M8 0C3.6 0 0 3.6 0 8s3.6 8 8 8 8-3.6 8-8-3.6-8-8-8z"/><path d="M6 3.8c.7 0 1.2.8 1.2 1.7S6.7 7.2 6 7.2s-1.2-.8-1.2-1.7.5-1.7 1.2-1.7M6 3C4.9 3 4 4.1 4 5.5S4.9 8 6 8s2-1.1 2-2.5S7.1 3 6 3zm4 5.8c.7 0 1.2.8 1.2 1.7s-.5 1.7-1.2 1.7-1.2-.8-1.2-1.7.5-1.7 1.2-1.7m0-.8c-1.1 0-2 1.1-2 2.5s.9 2.5 2 2.5 2-1.1 2-2.5S11.1 8 10 8zm-.4-5H11v4.5H9.6zM5 8.5h1.4V13H5z"/></svg>