<svg xmlns="http://www.w3.org/2000/svg" height="20" viewBox="0 0 20 20"><path d="M10 1.2c4.9 0 8.8 3.9 8.8 8.8s-3.9 8.8-8.8 8.8-8.8-3.9-8.8-8.8S5.1 1.2 10 1.2M10 0C4.5 0 0 4.5 0 10s4.5 10 10 10 10-4.5 10-10S15.5 0 10 0z"/><path d="M12 12.1c.8 0 1.4.9 1.4 1.9s-.6 1.9-1.4 1.9-1.4-.9-1.4-1.9.6-1.9 1.4-1.9m0-1.1c-1.4 0-2.5 1.3-2.5 3s1.1 3 2.5 3 2.5-1.3 2.5-3-1.1-3-2.5-3zM8.5 4.1c.8 0 1.4.9 1.4 1.9s-.6 1.9-1.4 1.9S7.1 7 7.1 6s.6-1.9 1.4-1.9m0-1.1C7.1 3 6 4.3 6 6s1.1 3 2.5 3S11 7.7 11 6 9.9 3 8.5 3zm4.1 0H14v6h-1.4zM6 11h1.4v6H6z"/></svg>