<svg xmlns="http://www.w3.org/2000/svg" height="20" viewBox="0 0 20 20"><path d="M10 0C4.5 0 0 4.5 0 10s4.5 10 10 10 10-4.5 10-10S15.5 0 10 0zm0 1.2c2.6 0 4.9 1.1 6.5 2.9-1.7-.2-4.2-.1-6 .4h-1c-1.8-.5-4.3-.6-6-.4C5.1 2.3 7.4 1.2 10 1.2zm0 17.6c-4.9 0-8.8-3.9-8.8-8.8 0-1.7.5-3.4 1.4-4.7.3.2.5.5.5.5s.1.3.4 1.6c.2 1.2.9 1.5.9 1.5S5.1 9 6 9s1.5-.1 2.1-.4c.6-.3.9-1.2.9-1.2s.3-.8.5-1.5c0-.2 1.1-.2 1.1 0 .1.7.4 1.5.4 1.5s.3.9.9 1.2c.6.3 1.1.4 2 .4s1.7-.2 1.7-.2.7-.2.9-1.5c.3-1.3.4-1.6.4-1.6s.1-.3.5-.5c.9 1.4 1.4 3 1.4 4.8 0 4.9-3.9 8.8-8.8 8.8z"/><path d="M11.9 12.4c-.6.6-1.1.8-1.9.8-.9 0-1.4-.2-1.9-.8-.3-.3-.8-.3-1.1 0s-.3.8 0 1.1c.9.9 1.8 1.2 3.1 1.2 1.2 0 2.2-.4 3.1-1.2.3-.3.3-.8 0-1.1-.4-.3-.9-.3-1.3 0z"/></svg>