<svg xmlns="http://www.w3.org/2000/svg" height="40" viewBox="0 0 40 40"><path d="M20 0C9 0 0 9 0 20s9 20 20 20 20-9 20-20S31 0 20 0zm0 38c-9.9 0-18-8.1-18-18S10.1 2 20 2s18 8.1 18 18-8.1 18-18 18z"/><path d="M25.1 26.4c-1.5 1.8-2.9 2.5-5.1 2.5-2.2 0-3.6-.7-5.1-2.5-.4-.5-1.1-.5-1.5-.2-.5.4-.5 1-.2 1.5C15.1 30 17.1 31 20 31c2.8 0 4.8-1 6.8-3.3.4-.5.3-1.1-.1-1.5-.6-.3-1.2-.3-1.6.2zM33.7 9.4c-3-.6-8.7-.7-12.8.7h-1.8C15 8.7 9.3 8.8 6.3 9.4c-.4.1-.4 2-.1 2.1.6.3.8 1 .8 1s.2.7.7 3.1c.5 2.5 1.7 2.9 1.7 2.9s1.5.4 3.2.4 2.7-.1 3.8-.8c1.1-.7 1.6-2.5 1.6-2.5s.6-1.6.9-3c.1-.4 2-.4 2.1 0 .4 1.5.9 3 .9 3s.5 1.8 1.6 2.5 2.2.8 3.8.8c1.7 0 3.2-.4 3.2-.4s1.2-.3 1.7-2.9.7-3.1.7-3.1.3-.7.8-1c.4-.1.4-2.1 0-2.1z"/></svg>