<svg xmlns="http://www.w3.org/2000/svg" height="50" viewBox="0 0 50 50"><path d="M30.1 33.4c-1.6 1.7-3.2 2.5-5.1 2.5-2 0-3.6-.8-5.1-2.5-.4-.4-1.1-.5-1.5-.1-.5.4-.5 1-.1 1.5C20.2 37 22.4 38 25 38c2.6 0 4.7-1 6.7-3.2.4-.4.4-1.1-.1-1.5-.4-.4-1.1-.4-1.5.1z"/><path d="M25 2C12.3 2 2 12.3 2 25s10.3 23 23 23 23-10.3 23-23S37.7 2 25 2zm0 44C13.4 46 4 36.6 4 25S13.4 4 25 4s21 9.4 21 21-9.4 21-21 21z"/><path d="M40.7 13.4c-3.4-.6-10-.7-14.7.7h-2c-4.7-1.5-11.2-1.3-14.7-.7-.4.1-.4 2.2-.1 2.3.6.4 1 1.1 1 1.1s.2.7.7 3.4c.5 2.7 1.9 3.2 1.9 3.2s1.7.5 3.6.5 3.1-.1 4.4-.9c1.3-.7 1.8-2.7 1.8-2.7s.6-1.7 1.1-3.3c.1-.5 2.2-.5 2.4 0 .4 1.6 1.1 3.3 1.1 3.3s.5 2 1.8 2.7c1.3.7 2.5.9 4.4.9 1.9 0 3.6-.5 3.6-.5s1.4-.4 1.9-3.2c.5-2.8.7-3.4.7-3.4s.3-.7 1-1.1c.5-.1.5-2.3.1-2.3z"/></svg>