<svg xmlns="http://www.w3.org/2000/svg" height="30" viewBox="0 0 30 30"><path d="M15 2c7.2 0 13 5.8 13 13s-5.8 13-13 13S2 22.2 2 15 7.8 2 15 2m0-2C6.7 0 0 6.7 0 15s6.7 15 15 15 15-6.7 15-15S23.3 0 15 0z"/><path d="M15 23c-2 0-3.5-.7-4.8-2.4-.3-.4-.3-1.1.2-1.4.4-.3 1.1-.3 1.4.2.9 1.2 1.8 1.6 3.2 1.6 1.4 0 2.3-.5 3.2-1.6.4-.4 1-.5 1.4-.1.4.4.5 1 .1 1.4C18.4 22.3 17 23 15 23zM24.8 7.3c-2.1-.4-6.2-.5-9.2.5h-1.3c-2.9-.9-7-.9-9.2-.5-.2.1-.2 1.4 0 1.5.4.2.6.7.6.7s.1.5.5 2.2c.3 1.7 1.2 2 1.2 2s1.1.3 2.3.3 1.9-.1 2.7-.5c.8-.5 1.1-1.7 1.1-1.7s.4-1.1.7-2.1c.1-.3 1.4-.3 1.5 0 .3 1 .7 2.1.7 2.1s.3 1.3 1.1 1.7c.8.5 1.5.5 2.7.5 1.2 0 2.3-.3 2.3-.3s.9-.2 1.2-2c.3-1.8.5-2.2.5-2.2s.2-.5.6-.7c.3-.1.3-1.5 0-1.5zm0 0"/></svg>