<svg xmlns="http://www.w3.org/2000/svg" height="30" viewBox="0 0 30 30"><path d="M28 16h2v3h-2zm0 10h-2v2h4v-4h-2zM3 24H1v4h4v-2H3zm15 2h3v2h-3zm4 0h3v2h-3zM6 26h3v2H6zm4 0h3v2h-3zm4 0h3v2h-3zm14-6h2v3h-2zM1 16h2v3H1zm0 4h2v3H1zM26 3v2h2v2h2V3zM3 5h2V3H1v4h2zm15-2h3v2h-3zm4 0h3v2h-3zM6 3h3v2H6zm4 0h3v2h-3zm4 0h3v2h-3zm14 5h2v3h-2zM1 8h2v3H1zm13-1h1v14h-1zM8 7h2v14H8zm0 15h2v2H8zm6 0h1v2h-1zm7-15h2v14h-2zm-2 0h1v14h-1zm2 15h2v2h-2zm-2 0h1v2h-1zM11 7h2v14h-2zm5 0h2v14h-2zm8 0h2v17h-2zM5 7h2v17H5zm6 15h2v2h-2zm5 0h2v2h-2zM1 12h2v3H1zm27 0h2v3h-2z"/></svg>