<svg xmlns="http://www.w3.org/2000/svg" height="16" viewBox="0 0 16 16"><path d="M12 0H3v7h1V1h7v4h4v10H4v-1H3v2h13V4z"/><path d="M2.5 13c-.4 0-.7 0-1-.1s-.6-.3-.8-.5c-.2-.2-.4-.5-.5-.8-.1-.3-.2-.7-.2-1.1 0-.5.1-.8.2-1.2.1-.3.3-.5.6-.7.2-.2.4-.4.8-.5.3-.1.6-.1.9-.1.3 0 .5 0 .7.1.3.1.5.1.8.3v1.3h-.2c0-.1-.1-.2-.2-.2-.1-.1-.2-.2-.3-.2-.1-.1-.2-.1-.3-.2s-.3 0-.4 0c-.4 0-.6.1-.8.4-.2.3-.3.6-.3 1.1 0 .5.1.8.3 1.1.2.2.5.4.8.4.2 0 .3 0 .5-.1s.2-.1.3-.2c.1-.1.2-.1.2-.2l.2-.2H4v1.3c-.1 0-.2.1-.3.1-.1 0-.2.1-.3.1-.1 0-.3.1-.4.1h-.5zm4.2 0c-.3 0-.7 0-1-.1s-.5-.2-.7-.3v-1.2h.1l.2.2c.1.1.2.1.4.2.1.1.3.1.5.2h.5c.2 0 .4 0 .5-.1s.2-.2.2-.3c0-.1 0-.2-.1-.2-.1-.1-.2-.1-.4-.2-.1 0-.3-.1-.4-.1-.1-.1-.2-.1-.4-.1-.4-.1-.6-.3-.8-.5-.2-.3-.3-.6-.3-.9 0-.2 0-.4.1-.6.1-.2.2-.4.4-.5.3-.2.5-.3.8-.4s.6-.1.9-.1c.3 0 .6 0 .9.1.3.1.5.1.7.2v1.2h-.1l-.2-.2c-.2 0-.3 0-.4-.1-.1 0-.2-.1-.4-.1-.1-.1-.3-.1-.4-.1-.3 0-.4 0-.6.1-.1.1-.2.2-.2.3 0 .1 0 .2.1.3.1.1.2.1.5.2.1 0 .3.1.4.1.2 0 .3 0 .5.1.3.1.6.3.8.5.1.2.2.4.2.8 0 .2-.1.4-.2.6-.1.2-.2.4-.4.5-.2.1-.4.3-.7.3-.3.2-.6.2-1 .2zM14 8l-1.4 5h-1.3L10 8h1.2l.8 3.3.8-3.3H14z"/></svg>