<svg xmlns="http://www.w3.org/2000/svg" height="20" viewBox="0 0 20 20"><path d="M15 0H5v9h1V1h8v5h5v13H6v-1H5v2h15V5zM3.2 16c-.5 0-.9-.1-1.3-.2s-.7-.3-1-.5c-.3-.2-.5-.6-.7-.9C.1 14 0 13.5 0 13c0-.5.1-1 .3-1.4.2-.4.4-.7.7-.9.3-.2.6-.4 1-.5.3-.1.7-.2 1.1-.2.3 0 .6 0 .9.1l.9.3V12h-.1c-.1-.1-.2-.1-.3-.2-.1-.1-.2-.2-.3-.2-.1-.1-.3-.1-.4-.2-.2 0-.3-.1-.5-.1-.4 0-.8.2-1 .5-.2.3-.4.7-.4 1.3 0 .6.1 1 .4 1.3.3.3.6.4 1 .4.2 0 .4 0 .6-.1.2-.1.3-.1.4-.2.1-.1.2-.1.3-.2.1-.1.2-.1.2-.2H5v1.5c-.1 0-.2.1-.3.2-.1.1-.3.1-.4.1-.2 0-.3.1-.5.1h-.6z"/><path d="M8.2 16c-.4 0-.8 0-1.2-.1-.4-.1-.7-.2-.9-.3V14h.1c.1.1.2.1.3.2.1.1.3.2.5.2.2.1.4.1.6.2.2.1.4.1.7.1.3 0 .5 0 .7-.1.2-.1.3-.2.3-.4 0-.1 0-.2-.1-.3-.1-.1-.3-.1-.5-.2-.1 0-.3-.1-.5-.1s-.4-.1-.6-.1c-.5-.1-.8-.3-1-.6-.5-.2-.6-.6-.6-1 0-.3.1-.5.2-.7s.3-.4.5-.6c.2-.2.5-.3.9-.4.3-.1.7-.2 1.1-.2.4 0 .8 0 1.1.1l.9.3v1.4h-.1c-.1 0-.2-.1-.3-.2-.1-.1-.3-.1-.4-.2-.2-.1-.3-.1-.5-.2-.2 0-.4-.1-.6-.1-.3 0-.5 0-.7.1-.2.1-.3.2-.3.3 0 .1 0 .2.1.3.1.1.3.1.6.2.2 0 .3.1.5.1s.4.1.6.1c.4.1.7.3 1 .6.2.3.3.6.3 1 0 .3-.1.5-.2.8-.1.2-.3.4-.5.6-.2.2-.5.3-.9.4-.3.4-.7.4-1.1.4zm8.8-6l-1.7 6h-1.6L12 10h1.6l1 4 1-4H17z"/></svg>