<svg xmlns="http://www.w3.org/2000/svg" height="30" viewBox="0 0 30 30"><path d="M4.8 23c-.6 0-1.1-.1-1.5-.2-.5-.1-.9-.4-1.2-.6-.3-.3-.6-.6-.8-1.1-.2-.5-.3-1-.3-1.6 0-.6.1-1.2.3-1.6.2-.4.5-.8.8-1.1.3-.3.7-.5 1.2-.6.5-.1 1-.2 1.5-.2.4 0 .7 0 1.1.1.4.1.7.2 1.1.4v1.8h-.3l-.3-.3c-.1 0-.2-.1-.4-.2s-.3-.2-.5-.2c-.2-.1-.4-.1-.6-.1-.5 0-1 .2-1.3.6-.3.4-.4.9-.4 1.5 0 .7.2 1.2.5 1.5s.7.5 1.3.5c.3 0 .5 0 .7-.1.2-.1.4-.1.5-.2 0-.2.2-.3.3-.3.1-.1.2-.2.3-.2H7v1.8c-.1.1-.3.1-.4.2-.2.1-.3.1-.5.2s-.4.1-.6.1c-.2-.1-.4-.1-.7-.1zm5.8 0c-.5 0-1-.1-1.5-.2s-.8-.2-1.1-.4v-1.7h.2c.1.1.2.2.4.2.1.1.3.2.6.3.2.1.4.2.7.2s.5.1.8.1c.3 0 .6 0 .8-.1.2-.1.4-.2.4-.4s-.1-.3-.2-.3c-.1-.1-.3-.2-.6-.2-.2 0-.4-.1-.6-.1-.3 0-.5-.1-.7-.2-.5-.2-1-.4-1.2-.7-.4-.4-.6-.8-.6-1.3 0-.3.1-.6.2-.8.1-.3.4-.5.6-.7.3-.2.6-.4 1-.5.4-.1.9-.2 1.4-.2.5 0 .9 0 1.4.1.4.1.8.2 1 .3v1.7h-.2c-.1-.1-.2-.1-.4-.2s-.3-.2-.5-.2c-.2-.1-.4-.1-.6-.2-.2-.1-.5-.1-.7-.1-.3 0-.6.1-.8.2-.2.1-.3.2-.3.4 0 .1.1.3.2.4.1.1.3.2.7.3.2 0 .4.1.6.1.2 0 .5.1.7.2.5.2.9.4 1.1.7.3.3.4.7.4 1.2 0 .3-.1.6-.2.9-.2.3-.4.5-.7.7-.3.2-.7.4-1.1.5-.1-.1-.6 0-1.2 0zM22 16l-2.4 7h-2.3L15 16h2.2l1.4 4.6 1.3-4.6H22z"/><path d="M20 1H7v13h2V3h10v8h8v16H9v-2H7v4h22V10z"/></svg>