<svg xmlns="http://www.w3.org/2000/svg" height="20" viewBox="0 0 20 20"><path d="M4 2.2c1 0 1.8 1.3 1.8 2.8S5 7.8 4 7.8 2.2 6.5 2.2 5 3 2.2 4 2.2M4 1C2.3 1 1 2.8 1 5s1.3 4 3 4 3-1.8 3-4-1.3-4-3-4zm10 1.2c1 0 1.8 1.3 1.8 2.8S15 7.8 14 7.8 12.2 6.5 12.2 5 13 2.2 14 2.2M14 1c-1.7 0-3 1.8-3 4s1.3 4 3 4 3-1.8 3-4-1.3-4-3-4zM8 1h1.5v8H8zm10 0h1.5v8H18zm-1 11.2c1 0 1.8 1.3 1.8 2.8s-.8 2.8-1.8 2.8-1.8-1.3-1.8-2.8.8-2.8 1.8-2.8m0-1.2c-1.7 0-3 1.8-3 4s1.3 4 3 4 3-1.8 3-4-1.3-4-3-4zM7 12.2c1 0 1.8 1.3 1.8 2.8S8 17.8 7 17.8 5.2 16.5 5.2 15 6 12.2 7 12.2M7 11c-1.7 0-3 1.8-3 4s1.3 4 3 4 3-1.8 3-4-1.3-4-3-4zm4.5 0H13v8h-1.5zm-10 0H3v8H1.5z"/></svg>