<svg xmlns="http://www.w3.org/2000/svg" height="16" viewBox="0 0 16 16"><path d="M2.5 1C3.2 1 4 2 4 3.5S3.2 6 2.5 6 1 5 1 3.5 1.8 1 2.5 1m0-1C1.1 0 0 1.6 0 3.5S1.1 7 2.5 7 5 5.4 5 3.5 3.9 0 2.5 0zM6 0h1.2v7H6zm5 1c.7 0 1.5 1 1.5 2.5S11.7 6 11 6 9.5 5 9.5 3.5 10.3 1 11 1m0-1C9.6 0 8.5 1.6 8.5 3.5S9.6 7 11 7s2.5-1.6 2.5-3.5S12.4 0 11 0zm3.8 0H16v7h-1.2zm-1.3 10c.7 0 1.5 1 1.5 2.5s-.8 2.5-1.5 2.5-1.5-1-1.5-2.5.8-2.5 1.5-2.5m0-1c-1.4 0-2.5 1.6-2.5 3.5s1.1 3.5 2.5 3.5 2.5-1.6 2.5-3.5S14.9 9 13.5 9zM8.8 9H10v7H8.8zM5 10c.7 0 1.5 1 1.5 2.5S5.7 15 5 15s-1.5-1-1.5-2.5S4.3 10 5 10m0-1c-1.4 0-2.5 1.6-2.5 3.5S3.6 16 5 16s2.5-1.6 2.5-3.5S6.4 9 5 9zM0 9h1.2v7H0z"/></svg>