<svg xmlns="http://www.w3.org/2000/svg" height="30" viewBox="0 0 30 30"><path d="M6 4.6c1.1 0 2.4 1.6 2.4 3.9S7.1 12.4 6 12.4s-2.4-1.6-2.4-3.9S4.9 4.6 6 4.6M6 3C3.8 3 2 5.5 2 8.5S3.8 14 6 14s4-2.5 4-5.5S8.2 3 6 3zm14 1.6c1.1 0 2.4 1.6 2.4 3.9s-1.3 3.9-2.4 3.9-2.4-1.6-2.4-3.9 1.3-3.9 2.4-3.9M20 3c-2.2 0-4 2.5-4 5.5s1.8 5.5 4 5.5 4-2.5 4-5.5S22.2 3 20 3zm-8 0h2v11h-2zm14 0h2v11h-2zm-1 14.6c1.1 0 2.4 1.6 2.4 3.9s-1.3 3.9-2.4 3.9-2.4-1.6-2.4-3.9 1.3-3.9 2.4-3.9m0-1.6c-2.2 0-4 2.5-4 5.5s1.8 5.5 4 5.5 4-2.5 4-5.5-1.8-5.5-4-5.5zm-14 1.6c1.1 0 2.4 1.6 2.4 3.9s-1.3 3.9-2.4 3.9-2.4-1.6-2.4-3.9 1.3-3.9 2.4-3.9m0-1.6c-2.2 0-4 2.5-4 5.5S8.8 27 11 27s4-2.5 4-5.5-1.8-5.5-4-5.5zm6 0h2v11h-2zM3 16h2v11H3z"/></svg>