<svg xmlns="http://www.w3.org/2000/svg" height="30" viewBox="-9 11 30 30"><path d="M21 25h-2.1c-.4-6.4-5.5-11.5-11.9-11.9V11H5v2.1c-6.4.4-11.5 5.5-11.9 11.9H-9v2h2.1c.4 6.4 5.5 11.5 11.9 11.9V41h2v-2.1c6.4-.5 11.5-5.6 11.9-11.9H21v-2zm-4.1 0h-3c-.5-3.6-3.3-6.5-6.9-6.9v-3c5.3.4 9.5 4.6 9.9 9.9zm-4.2 2c-.4 2.9-2.8 5.3-5.7 5.7V29H5v3.7C2.1 32.3-.3 29.9-.7 27H3v-2H-.7c.4-2.9 2.8-5.3 5.7-5.7V23h2v-3.7c2.9.4 5.3 2.8 5.7 5.7H9v2h3.7zM5 15.1v3c-3.6.5-6.5 3.3-6.9 6.9h-3c.4-5.3 4.6-9.5 9.9-9.9zM-4.9 27h3c.5 3.6 3.3 6.5 6.9 6.9v3c-5.3-.4-9.5-4.6-9.9-9.9zM7 36.9v-3c3.6-.5 6.5-3.3 6.9-6.9h3c-.4 5.3-4.6 9.5-9.9 9.9z"/></svg>