<svg xmlns="http://www.w3.org/2000/svg" height="20" viewBox="-14 16 20 20"><path d="M6 25H4.4C4 21.1.9 18-3 17.6V16h-2v1.6c-3.9.5-7 3.5-7.4 7.4H-14v2h1.6c.5 3.9 3.5 7 7.4 7.4V36h2v-1.6C.9 34 4 30.9 4.4 27H6v-2zm-3.2 0H.9C.5 23-1 21.5-3 21.1v-1.9c3 .4 5.4 2.8 5.8 5.8zm-2.9 2c-.4 1.4-1.5 2.5-2.9 2.9V28h-2v1.9c-1.4-.4-2.5-1.5-2.9-2.9H-6v-2h-1.9c.4-1.4 1.5-2.5 2.9-2.9V24h2v-1.9c1.4.4 2.5 1.5 2.9 2.9H-2v2h1.9zM-5 19.2v1.9c-2 .4-3.5 1.9-3.9 3.9h-1.9c.4-3 2.8-5.4 5.8-5.8zm-5.8 7.8h1.9c.4 2 1.9 3.5 3.9 3.9v1.9c-3-.4-5.4-2.8-5.8-5.8zm7.8 5.8v-1.9C-1 30.5.5 29 .9 27h1.9C2.4 30 0 32.4-3 32.8z"/></svg>