<svg xmlns="http://www.w3.org/2000/svg" height="20" viewBox="0 0 20 20"><path d="M19.8 12.7l-1-3c-.1-.2-.3-.4-.5-.5L16 8.5v-.7l2.6-2.2c.2-.2.3-.4.3-.6V3c0-.4-.4-.8-.8-.8s-.9.4-.9.8v1.6L15.6 6H4.4L2.8 4.6V3c0-.4-.4-.8-.8-.8s-.8.4-.8.8v2c0 .2.1.5.3.6l2.6 2.2c-.1.2-.1.5-.1.7l-2.3.7c-.2.1-.4.3-.5.5l-1 3c-.1.4.1.9.5 1H1c.3 0 .6-.2.8-.5l.9-2.6 1.3-.4c.1 1.1.2 2.2.5 3.2l-2.1 2.1c-.1.1-.2.4-.2.6v2c0 .4.4.8.8.8s.8-.4.8-.8v-1.7L5.1 15c.8 2 2 3.4 3.4 4L10 8l1.4 11c1.4-.6 2.6-2 3.4-4l1.3 1.3V18c0 .4.4.8.8.8s.8-.4.8-.8v-2c0-.2-.1-.4-.2-.6l-2.1-2.1c.3-1 .4-2 .5-3.2l1.4.5.9 2.6c.1.3.4.5.8.5h.3c.4-.1.6-.5.5-1z"/><path d="M10 2c1.7 0 3.2 1.2 4 3h1.1c-.8-2.3-2.8-4-5.1-4S5.8 2.7 4.9 5H6c.8-1.8 2.3-3 4-3z"/></svg>