<svg xmlns="http://www.w3.org/2000/svg" height="16" viewBox="-16 18 16 16"><path d="M0 26h-1c-.2-3.2-2.8-5.7-6-6v-1h-1v1c-3.2.2-5.7 2.8-6 6h-1v1h1c.3 3.2 2.8 5.7 6 6v1h1v-1c3.2-.2 5.7-2.8 6-6h1v-1zm-2.4 0H-4c-.2-1.5-1.4-2.7-3-3v-1.6c2.4.3 4.3 2.2 4.6 4.6zM-5 27c-.2 1-1 1.7-1.9 1.9v-1.4h-1v1.4c-1-.2-1.7-1-1.9-1.9h1.4v-1h-1.4c.2-1 1-1.8 2-2v1.4h1V24c1 .2 1.8 1 2 2h-1.4v1H-5zm-3-5.5v1.6c-1.5.2-2.7 1.4-3 3h-1.6c.3-2.5 2.2-4.4 4.6-4.6zm-4.5 5.5h1.6c.2 1.5 1.4 2.7 2.9 2.9v1.6c-2.4-.2-4.3-2.1-4.5-4.5zm5.5 4.5v-1.6c1.5-.2 2.7-1.4 2.9-2.9h1.6c-.2 2.4-2.1 4.3-4.5 4.5z"/></svg>