<svg xmlns="http://www.w3.org/2000/svg" height="16" viewBox="0 0 16 16"><path d="M15.3 4.5c.2-.1.3-.3.3-.5V2c0-.3-.3-.6-.6-.6s-.6.3-.6.6v1.7l-2 1.3H3.6l-2-1.3V2c0-.3-.3-.6-.6-.6s-.6.3-.6.6v2c0 .2.1.4.3.5l2.4 1.6v.7l-1.4.7c-.1 0-.2.1-.2.2l-1 2c-.1.3 0 .7.3.8.1 0 .2.1.3.1.2 0 .4-.1.5-.3l.9-1.8.5-.4c.1.9.3 1.8.5 2.6l-1.9 1.9c-.1.1-.2.3-.2.4v2c0 .3.3.6.6.6s.6-.3.6-.6v-1.8l1.3-1.3c.7 1.5 1.7 2.6 2.9 3.1L8 6.5 9.2 15c1.2-.5 2.2-1.6 2.9-3.1l1.3 1.3V15c0 .3.3.6.6.6s.6-.3.6-.6v-2c0-.2-.1-.3-.2-.4l-1.9-1.9c.2-.8.4-1.7.5-2.6l.6.3.9 1.8c.1.2.3.3.5.3.1 0 .2 0 .3-.1.3-.1.4-.5.3-.8l-1-2-.3-.3-1.3-.5v-.7l2.3-1.6z"/><path d="M8 2.2c1.2 0 2.2.8 2.6 1.8h1.3c-.4-1.7-2-3-3.9-3S4.6 2.3 4.1 4h1.3C5.8 3 6.8 2.2 8 2.2z"/></svg>