<svg xmlns="http://www.w3.org/2000/svg" height="30" viewBox="0 0 30 30"><path d="M29 19.8l-1-4c-.1-.3-.3-.5-.5-.7L24 13.4c0-.3 0-.6-.1-.9l3.8-3.8c.2-.2.3-.4.3-.7V5c0-.6-.4-1-1-1s-1 .4-1 1v2.6L23.6 10H6.4L4 7.6V5c0-.6-.4-1-1-1s-1 .4-1 1v3c0 .3.1.5.3.7l3.8 3.8c0 .3 0 .6-.1.9l-3.5 1.7c-.3.1-.5.4-.5.7l-1 4c-.1.5.2 1.1.7 1.2h.2c.4 0 .9-.3 1-.8l.9-3.6L6 15.5c.1 1.8.5 3.5 1 5l-2.7 2.7c-.2.3-.3.5-.3.8v3c0 .6.4 1 1 1s1-.4 1-1v-2.6l1.8-1.8c1.3 2.6 3.1 4.6 5.2 5.4l2-15 2 15c2.1-.8 3.9-2.8 5.2-5.4l1.8 1.8V27c0 .6.4 1 1 1s1-.4 1-1v-3c0-.3-.1-.5-.3-.7L23 20.6c.5-1.5.8-3.2 1-5l2.2 1.1.9 3.6c.1.5.5.8 1 .8h.2c.5-.3.8-.8.7-1.3z"/><path d="M15 3.2c3.4 0 6.2 2.5 6.8 5.8H23c-.5-3.9-3.9-7-8-7S7.5 5.1 7 9h1.2c.6-3.3 3.4-5.8 6.8-5.8z"/></svg>