<svg xmlns="http://www.w3.org/2000/svg" height="20" viewBox="0 0 20 20"><path d="M19.1 3.2c.4-.2.9-.6.9-1.3V.6c0-.3-.3-.6-.6-.6h-1.2c-.7 0-1.1.5-1.3.9-.1.2-.2.3-.3.3-.1 0-.2-.1-.3-.3-.3-.3-.7-.9-1.4-.9s-1.1.5-1.3.9c-.1.2-.2.3-.3.3-.1 0-.2-.1-.3-.3-.3-.4-.6-.9-1.4-.9-.7 0-1.1.5-1.3.9-.1.2-.2.3-.3.3s-.2-.1-.3-.3C9.5.5 9.1 0 8.4 0 7.6 0 7.3.5 7 .9l-.2.4c-.1 0-.2-.1-.3-.3-.3-.5-.6-1-1.4-1-.7 0-1.1.5-1.3.9-.1.2-.2.4-.3.4-.1 0-.2-.1-.3-.3-.2-.5-.6-1-1.3-1H.6C.3 0 0 .3 0 .6v1.2c0 .8.6 1.2.9 1.4.2.1.3.2.3.3 0 .1-.1.2-.3.3-.3.2-.9.6-.9 1.3 0 .7.5 1.1.9 1.3.2.1.3.2.3.3 0 .1-.1.2-.3.3-.4.3-.9.6-.9 1.4 0 .7.5 1.1.9 1.3.2.1.3.2.3.3 0 .1-.1.2-.3.3-.4.2-.9.6-.9 1.3 0 .7.5 1.1.9 1.3.2.1.3.2.3.3 0 .1-.1.2-.3.3-.4.3-.9.6-.9 1.4 0 .7.5 1.1.9 1.3.2.1.3.2.3.3 0 .1-.1.2-.3.3-.4.2-.9.6-.9 1.3v1.3c0 .3.3.6.6.6h1.2c.7 0 1.1-.6 1.3-.9.1-.2.2-.3.3-.3.1 0 .2.1.3.3.3.3.7.9 1.4.9s1.1-.5 1.3-.9c.1-.2.2-.3.3-.3.1 0 .2.1.3.3.3.4.6.9 1.4.9.7 0 1.1-.5 1.3-.9.1-.2.2-.3.3-.3s.2.1.3.3c.2.4.6.9 1.3.9.7 0 1.1-.5 1.3-.9.1-.2.2-.3.3-.3s.2.1.3.3c.2.4.6.9 1.3.9.7 0 1.1-.5 1.3-.9.1-.2.2-.3.3-.3.1 0 .2.1.3.3.2.4.6.9 1.3.9h1.2c.3 0 .6-.3.6-.6v-1.3c0-.7-.6-1.1-.9-1.3-.2-.1-.3-.2-.3-.3 0-.1.1-.2.3-.3.3-.2.9-.6.9-1.3 0-.7-.5-1.1-.9-1.3-.2-.1-.3-.2-.3-.3 0-.1.1-.2.3-.3.4-.2.9-.6.9-1.3 0-.7-.5-1.1-.9-1.3-.2-.1-.3-.2-.3-.3 0-.1.1-.2.3-.3.6-.3 1.1-.7 1.1-1.4s-.5-1.1-.9-1.3c-.2-.1-.3-.2-.3-.3 0-.1.1-.2.3-.3.4-.3.9-.6.9-1.4s-.5-1.1-.9-1.3c-.2-.1-.3-.2-.3-.3 0-.1.1-.2.3-.3zm-.6 1.4c.4.3.5.4.5.5 0 .2-.1.3-.5.5-.3.2-.8.5-.8 1.1 0 .6.5.9.8 1.1.4.3.5.4.5.6 0 .2-.1.3-.5.5-.3.2-.8.5-.8 1.1 0 .6.5.9.8 1.1.4.3.5.3.5.5s-.1.3-.5.5c-.3.2-.8.5-.8 1.1 0 .6.5.9.8 1.1.4.2.5.3.5.5s-.1.3-.5.5c-.3.2-.8.5-.8 1.1 0 .6.5.9.8 1.1.4.2.5.3.5.5v1h-.9c-.2 0-.3-.1-.5-.5-.2-.3-.5-.8-1.1-.8-.6 0-.9.5-1.1.8-.3.4-.4.5-.5.5-.2 0-.3-.1-.5-.5-.2-.3-.5-.8-1.1-.8-.6 0-.9.5-1.1.8-.2.4-.3.5-.5.5s-.3-.1-.5-.5c-.2-.3-.5-.8-1.1-.8-.6 0-.9.5-1.1.8-.4.4-.5.5-.6.5-.2 0-.3-.1-.5-.4-.2-.3-.5-.8-1.1-.8-.6 0-.9.5-1.1.8-.3.3-.4.4-.6.4-.2 0-.3-.1-.5-.5-.2-.3-.5-.8-1.1-.8-.6 0-.9.5-1.1.8-.3.4-.4.5-.5.5H1v-.9c0-.2.1-.3.5-.5.3-.2.8-.5.8-1.1 0-.6-.5-.9-.8-1.1-.4-.3-.5-.4-.5-.5 0-.2.1-.3.5-.5.3-.2.8-.5.8-1.1 0-.6-.5-.9-.8-1.1-.4-.3-.5-.4-.5-.6 0-.2.1-.2.5-.5.3-.2.8-.5.8-1.1 0-.6-.5-.9-.8-1.1-.4-.3-.5-.4-.5-.5 0-.2.1-.3.5-.5.3-.2.8-.5.8-1.1 0-.6-.5-.9-.8-1.1-.4-.3-.5-.4-.5-.6 0-.1.1-.2.5-.5.3-.2.8-.5.8-1.1 0-.6-.5-.9-.8-1.1-.4-.3-.5-.4-.5-.5V1h.9c.1 0 .2.1.5.5.2.3.5.8 1.1.8.6 0 .9-.5 1.1-.8.3-.4.4-.5.5-.5.2 0 .3.1.5.5.2.3.5.8 1.1.8.6 0 .9-.5 1.1-.8.3-.4.4-.5.6-.5.2 0 .3.1.5.5.2.3.5.8 1.1.8.6 0 .9-.5 1.1-.8.3-.4.4-.5.5-.5s.3.1.5.5c.2.3.5.8 1.1.8.6 0 .9-.5 1.1-.8.3-.4.4-.5.6-.5.2 0 .3.1.5.5.2.3.5.8 1.1.8.6 0 .9-.5 1.1-.8.3-.4.4-.5.5-.5h.9v.9c0 .2-.1.3-.5.5-.3.2-.8.5-.8 1.1s.5.9.8 1.1z"/><path d="M15.5 4h-11c-.3 0-.5.2-.5.5v10.9c0 .4.2.6.5.6h10.9c.3 0 .5-.2.5-.5v-11c.1-.3-.1-.5-.4-.5zM15 15H5V5h10v10z"/><path d="M11.8 9h1.5c.4 0 .7-.3.7-.8V6.8c0-.5-.3-.8-.7-.8h-1.5c-.5 0-.8.3-.8.8v1.5c0 .4.3.7.8.7zM6 11h8v1H6zm0 2h5v1H6z"/></svg>