<svg xmlns="http://www.w3.org/2000/svg" height="16" viewBox="0 0 16 16"><path d="M15.1 3.1c.4-.3.9-.6.9-1.3V.6c0-.3-.3-.6-.6-.6h-1.2c-.7 0-1.1.5-1.3.9-.1.2-.2.3-.3.3-.1 0-.2-.1-.3-.3-.1-.4-.5-.9-1.2-.9S10 .5 9.8.9c-.1.2-.2.3-.2.3-.1 0-.2-.1-.3-.3C9.1.5 8.7 0 8 0c-.7 0-1 .5-1.3.9-.1.2-.2.3-.3.3s-.1-.1-.2-.3C5.9.5 5.6 0 4.9 0c-.7 0-1.1.5-1.3.9-.1.2-.2.3-.3.3-.1 0-.2-.1-.3-.3C2.8.5 2.5 0 1.8 0H.6C.3 0 0 .3 0 .6v1.2c0 .7.5 1.1.9 1.3.2.1.3.2.3.3 0 .1-.1.2-.3.3-.4.1-.9.5-.9 1.2S.5 6 .9 6.2c.2.1.3.2.3.3 0 .1-.1.2-.3.3-.4.1-.9.5-.9 1.2s.5 1.1.9 1.3c.2.1.3.2.3.3 0 .1-.1.2-.3.3-.4.2-.9.5-.9 1.2s.5 1.1.9 1.3c.2.1.3.2.3.3 0 .1-.1.2-.3.3-.4.2-.9.5-.9 1.2v1.2c0 .3.3.6.6.6h1.2c.7 0 1.1-.5 1.3-.9.1-.2.2-.3.3-.3.1 0 .2.1.3.3.1.4.5.9 1.2.9s1.1-.5 1.3-.9c.1-.2.2-.3.3-.3.1 0 .2.1.3.3.2.4.5.9 1.2.9s1.1-.5 1.3-.9c.1-.2.2-.3.3-.3.1 0 .2.1.3.3.2.3.6.9 1.3.9.7 0 1.1-.5 1.3-.9.1-.2.2-.3.3-.3.1 0 .2.1.3.3.2.3.6.9 1.3.9h1.2c.3 0 .6-.3.6-.6v-1.2c0-.7-.5-1.1-.9-1.3-.2-.1-.3-.2-.3-.3 0-.1.1-.2.3-.3.3-.2.9-.6.9-1.3 0-.7-.5-1.1-.9-1.3-.2-.1-.3-.2-.3-.3 0-.1.1-.2.3-.3.2 0 .7-.4.7-1.1 0-.7-.5-1.1-.9-1.3-.2-.1-.3-.2-.3-.3 0-.1.1-.2.3-.3.4-.2.9-.5.9-1.2s-.5-1.1-.9-1.3c-.2-.1-.3-.2-.3-.3 0 0 .1-.1.3-.2zm-.5 1.4c.3.2.4.3.4.4 0 .1-.1.2-.4.4-.3.2-.8.5-.8 1.1 0 .6.5.9.8 1.1.3.3.4.4.4.5 0 .1-.1.2-.4.4-.3.2-.8.5-.8 1.1 0 .6.5.9.8 1.1.4.2.4.3.4.4 0 .1-.1.2-.4.4-.3.2-.8.5-.8 1.1 0 .6.5.9.8 1.1.3.2.4.3.4.4v1h-.8c-.1 0-.2-.1-.4-.4-.2-.3-.5-.8-1.1-.8s-.9.5-1.1.8c-.2.4-.3.4-.4.4-.1 0-.2-.1-.4-.4-.2-.3-.5-.8-1.1-.8-.6 0-.9.5-1.1.8-.4.3-.5.4-.6.4-.1 0-.2-.1-.4-.4-.2-.3-.5-.8-1.1-.8-.6 0-.9.5-1.1.8-.3.3-.4.4-.5.4-.1 0-.2-.1-.4-.4-.2-.3-.5-.8-1.1-.8-.6 0-.9.5-1.1.8-.3.3-.4.4-.5.4H1v-.8c0-.1.1-.2.4-.4.3-.2.8-.5.8-1.1 0-.6-.4-.9-.8-1.1-.3-.3-.4-.4-.4-.5 0-.1.1-.2.4-.4.3-.2.8-.5.8-1.1 0-.6-.5-.9-.8-1.1-.3-.3-.4-.4-.4-.5 0-.1.1-.2.4-.4.3-.3.8-.6.8-1.2s-.5-.9-.8-1.1C1.1 5.1 1 5 1 4.9c0-.1.1-.2.4-.4.3-.2.8-.5.8-1.1s-.5-1-.8-1.2C1.1 2 1 1.9 1 1.8V1h.8c.1 0 .2.1.4.4.2.3.5.8 1.1.8.6 0 .9-.5 1.1-.8.3-.3.4-.4.5-.4.1 0 .2.1.4.4.2.3.5.8 1.1.8.6 0 .9-.5 1.1-.8.3-.3.4-.4.5-.4.1 0 .2.1.4.4.2.3.5.8 1.1.8.6 0 .9-.4 1.1-.8.3-.3.4-.4.5-.4.1 0 .2.1.4.4.2.3.5.8 1.1.8.6 0 .9-.5 1.1-.8.3-.3.4-.4.5-.4h.8v.8c0 .1-.1.2-.4.4-.3.2-.8.5-.8 1.1s.5 1 .8 1.2z"/><path d="M12.5 3h-9c-.3 0-.5.2-.5.5v9.1c0 .2.2.4.5.4h9.1c.3 0 .5-.2.5-.5v-9c-.1-.3-.3-.5-.6-.5zm-.5 9H4V4h8v8z"/><path d="M8.8 8h1.5c.4 0 .7-.3.7-.8V5.8c0-.5-.3-.8-.7-.8H8.8c-.5 0-.8.3-.8.8v1.5c0 .4.3.7.8.7zM5 10h6v1H5z"/></svg>