<svg xmlns="http://www.w3.org/2000/svg" height="30" viewBox="0 0 30 30"><path d="M15 2c7.2 0 13 5.8 13 13s-5.8 13-13 13S2 22.2 2 15 7.8 2 15 2m0-2C6.7 0 0 6.7 0 15s6.7 15 15 15 15-6.7 15-15S23.3 0 15 0z"/><path d="M11 23c-.2 0-.4-.1-.6-.2-.4-.3-.5-1-.2-1.4C11.5 19.7 13 19 15 19s3.4.7 4.8 2.4c.4.4.3 1.1-.1 1.4-.4.4-1.1.3-1.4-.1-1-1.2-1.9-1.6-3.2-1.6-1.4 0-2.3.4-3.2 1.6-.3.2-.6.3-.9.3zM20.5 11.8c-1.3 0-2.5-.3-3.5-.8.3 1.7 1.8 3 3.5 3s3.2-1.3 3.5-3c-1 .5-2.2.8-3.5.8zM9.5 11.8c-1.3 0-2.5-.3-3.5-.8.3 1.7 1.8 3 3.5 3s3.2-1.3 3.5-3c-1 .5-2.2.8-3.5.8z"/></svg>