<svg xmlns="http://www.w3.org/2000/svg" height="20" viewBox="0 0 20 20"><path d="M10 1.2c4.9 0 8.8 3.9 8.8 8.8s-3.9 8.8-8.8 8.8-8.8-3.9-8.8-8.8S5.1 1.2 10 1.2M10 0C4.5 0 0 4.5 0 10s4.5 10 10 10 10-4.5 10-10S15.5 0 10 0z"/><path d="M12.5 14.8c-.2 0-.4-.1-.6-.2-.6-.6-1.1-.8-1.9-.8-.9 0-1.4.2-1.9.8-.3.3-.8.3-1.1 0s-.3-.8 0-1.1c.9-.9 1.8-1.2 3.1-1.2 1.2 0 2.2.4 3.1 1.2.3.3.3.8 0 1.1-.3.1-.5.2-.7.2zM13.5 7.6c-.9 0-1.8-.2-2.5-.6.2 1.1 1.3 2 2.5 2s2.3-.9 2.5-2c-.7.3-1.6.6-2.5.6zM6.5 7.6c-.9 0-1.8-.3-2.5-.6.2 1.1 1.3 2 2.5 2S8.8 8.1 9 7c-.7.3-1.6.6-2.5.6z"/></svg>