<svg xmlns="http://www.w3.org/2000/svg" height="20" viewBox="0 0 20 20"><path d="M10.9 8h-.8l-.9 3.2L8.5 8h-1l1.2 5h.9l.9-3.3 1 3.3h.8l1.2-5h-1l-.6 3.2zm7.5 3.2l-1-3.2h-.8l-.9 3.2L15 8h-1l1.2 5h.9l.9-3.3 1 3.3h.8L20 8h-1zM3.1 13L4 9.7 5 13h.8L7 8H6l-.6 3.2-1-3.2h-.8l-.9 3.2L2 8H1l1.2 5zm.4-7.3c.7.4 1.5.8 2.5 1.1 0 .1 0 .2-.1.2h1c1.1.3 2.3.4 3.6.4 1.3 0 2.5-.1 3.6-.4h1c0-.1 0-.2-.1-.2.9-.3 1.7-.7 2.4-1.1.3.4.6.8.8 1.3h1.1c-1.4-3.5-4.8-6-8.8-6S3.1 3.5 1.7 7h1.1c.2-.5.5-.9.7-1.3zM11 2.6c1.1.3 2.1 1.6 2.7 3.4-.8.1-1.7.2-2.7.3V2.6zm-1 0v3.7c-1 0-1.9-.1-2.7-.3.6-1.9 1.6-3.1 2.7-3.4zm6.8 2.2c-.6.3-1.3.6-2 .9-.5-1.5-1.3-2.7-2.2-3.4 1.6.4 3 1.3 4.2 2.5zM8.5 2.3c-.9.7-1.7 1.9-2.2 3.4-.8-.2-1.5-.5-2-.9 1.1-1.2 2.5-2.1 4.2-2.5zm9 13c-.7-.4-1.5-.8-2.4-1.1 0-.1 0-.2.1-.2h-1c-1.1-.3-2.3-.4-3.6-.4-1.3 0-2.5.1-3.6.4H6c0 .1 0 .2.1.2-.9.3-1.7.7-2.4 1.1-.5-.4-.7-.8-.9-1.3H1.7c1.4 3.5 4.8 6 8.8 6s7.4-2.5 8.8-6h-1.1c-.2.5-.4.9-.7 1.3zM10 18.4c-1.1-.3-2.1-1.6-2.7-3.4.9-.2 1.8-.3 2.7-.3v3.7zm1 0v-3.7c1 0 1.9.1 2.7.3-.6 1.9-1.6 3.1-2.7 3.4zm-6.8-2.2c.6-.3 1.3-.6 2-.9.5 1.5 1.3 2.7 2.2 3.4-1.6-.4-3.1-1.3-4.2-2.5zm8.3 2.5c.9-.7 1.7-1.9 2.2-3.4.8.2 1.5.5 2 .9-1 1.2-2.5 2.1-4.2 2.5z"/></svg>