<svg xmlns="http://www.w3.org/2000/svg" height="30" viewBox="0 0 30 30"><path d="M15.6 12h-1.2l-1.3 3.9-1-3.9h-1.6l1.8 6h1.3l1.4-4 1.4 4h1.4l1.7-6H18l-1 3.9zM3.1 18l1.4-4 1.4 4h1.4L9 12H7.5l-1 3.9L5.1 12H3.9l-1.3 3.9-1-3.9H0l1.8 6zm23-6h-1.2l-1.3 3.9-1-3.9H21l1.8 6h1.3l1.4-4 1.4 4h1.4l1.7-6h-1.5l-1 3.9zm-.9 9.3C23 19.8 19.6 19 15 19s-8 .8-10.2 2.3c-.4-.7-.8-1.5-1.1-2.3H1.6C3.3 24.8 8.7 29 15 29s11.7-4.2 13.4-10h-2.1c-.3.8-.7 1.6-1.1 2.3zM14 25.7c-1.2-.6-2.3-2.2-3.1-4.5.9-.1 2-.2 3.1-.2v4.7zm2 0v-4.8c1.1 0 2.1.1 3.1.2-.8 2.4-1.9 4-3.1 4.6zM5.9 22.8c.8-.5 1.8-1 3-1.3.7 2.1 1.6 3.8 2.8 5-2.2-.6-4.2-1.9-5.8-3.7zm12.4 3.7c1.2-1.1 2.1-2.8 2.8-5 1.2.3 2.2.7 3 1.3-1.6 1.8-3.6 3.1-5.8 3.7zM4.8 8.7C7 10.2 10.4 11 15 11s8-.8 10.2-2.3c.4.7.8 1.5 1.1 2.3h2.1C26.7 5.2 21.3 1 15 1S3.3 5.2 1.6 11h2.1c.3-.8.7-1.6 1.1-2.3zM16 4.3c1.2.6 2.3 2.2 3.1 4.5-.9.1-2 .2-3.1.2V4.3zm-2 0v4.8c-1.1 0-2.1-.1-3.1-.2.8-2.4 1.9-4 3.1-4.6zm10.1 2.9c-.8.5-1.8 1-3 1.3-.7-2.1-1.6-3.8-2.8-5 2.2.6 4.2 1.9 5.8 3.7zM11.7 3.5c-1.2 1.1-2.1 2.8-2.8 5-1.2-.3-2.2-.7-3-1.3 1.6-1.8 3.6-3.1 5.8-3.7z"/></svg>