<svg xmlns="http://www.w3.org/2000/svg" height="30" viewBox="0 0 30 30"><path transform="rotate(-45.001 22.5 26.5)" d="M21.5 22.5h2v7.9h-2z"/><path d="M28.4 3.3c-1-.9-2.3-1.3-4-1.3-1.6 0-2.8.4-3.8 1.2-1 .8-1.5 1.9-1.7 3.4v.1l2.4.3v-.2c.2-1.1.5-1.8 1.1-2.3.6-.5 1.3-.8 2.1-.8.9 0 1.6.3 2.2.8.6.6.9 1.2.9 1.8 0 .4-.1.8-.3 1.1-.2.3-.7.8-1.3 1.4-.7.6-1.2 1.1-1.5 1.4-.4.4-.7.9-.8 1.3-.2.6-.3 1-.3 1.7v.9h2.3s0-1.4.1-1.7c.1-.3.2-.6.4-.9.2-.3.6-.7 1.3-1.2 1-.8 1.7-1.5 2-2.1s.5-1.4.5-2c-.1-1-.6-2.1-1.6-2.9zM23.3 16h2.5v2.5h-2.5zM16.8 3.8c.3-.3.3-.7 0-.9L14.1.2c-.3-.3-.7-.3-.9 0l-1.4 1.4 3.6 3.6 1.4-1.4zM14.5 6.1l-3.6-3.6-9.1 9.1L0 17l5.4-1.8 9.1-9.1zM3.7 14.3l-1-1 .3-1 7.9-7.9 1.7 1.7L4.7 14l-1 .3zM13.7 9l-2.1 2.1c.4 0 .9-.1 1.4-.1 3.3 0 6 2.7 6 6s-2.8 6-6 6-6-2.7-6-6c0-.5.1-1 .2-1.4l-.9.9-1.3.4v.1c0 4.4 3.7 8 8 8s8-3.6 8-8c0-4.2-3.3-7.6-7.3-8z"/></svg>