<svg xmlns="http://www.w3.org/2000/svg" height="16" viewBox="0 0 16 16"><path transform="rotate(-45.001 10.535 13.965)" d="M9.6 12.1h1.9v3.8H9.6z"/><path d="M8.9 2.8c.1-.2.1-.4 0-.5L6.7.1c-.1-.1-.3-.1-.5 0l-.8.9L8 3.6l.9-.8zM10 9c0-1.6-.9-3-2.3-3.6l-.9.9c1.2.3 2 1.4 2 2.7 0 1.5-1.3 2.8-2.8 2.8-1.4 0-2.5-1-2.7-2.3l-1.2.2C2.4 11.6 4 13 6 13c2.2 0 4-1.8 4-4z"/><path d="M9 3.1c.1-1 .4-1.7 1.1-2.3s1.4-.8 2.4-.8 1.9.3 2.5.8 1 1.3 1 2.1c0 .5-.1.9-.3 1.3s-.7 1-1.3 1.5-1 .9-1.1 1.2c-.1.3-.2.4-.2 1.1h-1.3c0-.9.1-1.2.3-1.6.2-.4.6-.9 1.2-1.4s.9-.9 1.1-1.1c.1-.3.2-.5.2-.8 0-.6-.2-1-.6-1.4s-.9-.6-1.5-.6c-1.2 0-1.9.7-2.1 2H9zm4.4 7.9h-1.8V9.2h1.8V11z"/><path d="M4.9 1.5L.5 5.8 0 9l3.2-.5 4.4-4.4-2.7-2.6zm-2 5.7L1.8 6.1 4.9 3 6 4.1 2.9 7.2z"/></svg>