<svg xmlns="http://www.w3.org/2000/svg" height="20" viewBox="0 0 20 20"><path d="M19 2.8c-.6-.5-1.5-.8-2.5-.8s-1.7.2-2.4.8c-.7.6-1 1.3-1.1 2.3h1.4c.2-1.3.9-2 2.1-2 .6 0 1.1.2 1.5.6.4.4.6.8.6 1.4 0 .3-.1.5-.2.8-.2.2-.5.6-1.1 1.1-.6.5-1 1-1.2 1.4-.2.4-.3.7-.3 1.6h1.3c0-.7.1-.8.2-1.1.1-.3.5-.7 1.1-1.2.6-.5 1.1-1.1 1.3-1.5.2-.4.3-.8.3-1.3 0-.8-.4-1.6-1-2.1zM15.6 11.2h1.8V13h-1.8z"/><path transform="rotate(-45.001 14.535 17.985)" d="M13.6 16.1h1.9v3.8h-1.9z"/><path d="M11.9 3.1c.2-.2.2-.5 0-.6L9.5.1c-.2-.1-.4-.1-.6 0L8 1l3 3 .9-.9zM7 2L1 8l-1 4 4-1 6-6-3-3zM3.6 9.9L2.1 8.4 7 3.6 8.4 5 3.6 9.9zM14 12c0-2.7-2-4.8-4.6-5L8.1 8.3c.3-.1.6-.1.9-.1 2.1 0 3.8 1.7 3.8 3.8 0 2.1-1.7 3.8-3.8 3.8S5.2 14.1 5.2 12c0-.3 0-.6.1-.9l-.8.8-.5.1c0 2.8 2.2 5 5 5s5-2.2 5-5z"/></svg>