<svg xmlns="http://www.w3.org/2000/svg" height="40" viewBox="0 0 40 40"><path d="M19.6 32.4c-.2.5.1 1.1.6 1.3.1 0 .2.1.3.1.4 0 .8-.3.9-.7.6-1.7 2.9-2.9 5.6-2.9 2.6 0 4.9 1.2 5.6 2.9.2.5.8.8 1.3.6.5-.2.8-.8.6-1.3-.9-2.5-3.9-4.2-7.4-4.2-3.6 0-6.6 1.7-7.5 4.2zM23 24c1.1 0 2-.9 2-2 0-.8-.5-1.5-1.2-1.8 1.4-2.1 2.2-4.5 2.2-7.2 0-7.2-5.8-13-13-13S0 5.8 0 13s5.8 13 13 13c3.1 0 6-1.1 8.3-3 .3.6 1 1 1.7 1zm-10 0C6.9 24 2 19.1 2 13S6.9 2 13 2s11 4.9 11 11-4.9 11-11 11z"/><circle cx="31" cy="22" r="2"/><circle cx="9" cy="8" r="2"/><circle cx="17" cy="8" r="2"/><path d="M21 12c-.6 0-1 .4-1 1 0 3.9-3.1 7-7 7s-7-3.1-7-7c0-.6-.4-1-1-1s-1 .4-1 1c0 5 4 9 9 9s9-4 9-9c0-.6-.4-1-1-1zM27.9 14c0 .7-.1 1.3-.3 2 5.8.4 10.4 5.2 10.4 11 0 6.1-4.9 11-11 11-5.8 0-10.6-4.6-11-10.3-.6.1-1.3.2-2 .3.5 6.7 6.1 12 13 12 7.2 0 13-5.8 13-13 0-6.9-5.3-12.5-12.1-13z"/></svg>