<svg xmlns="http://www.w3.org/2000/svg" height="30" viewBox="0 0 30 30"><circle cx="6.8" cy="6.2" r="1.8"/><circle cx="13.2" cy="6.2" r="1.8"/><path d="M16.2 9c-.5 0-.8.4-.8.8 0 3-2.4 5.5-5.4 5.5s-5.4-2.5-5.4-5.5c0-.4-.3-.8-.8-.8s-.8.4-.8.8c0 3.9 3.1 7.2 7 7.2s7-3.2 7-7.2c0-.4-.4-.8-.8-.8z"/><circle cx="23.2" cy="16.2" r="1.8"/><path d="M14.3 23.7c-.2.4 0 .9.4 1 .4.2.9 0 1-.4.5-1.1 2.3-1.9 4.3-1.9s3.8.8 4.3 1.9c.1.3.4.5.7.5.1 0 .2 0 .3-.1.4-.2.6-.6.4-1-.7-1.7-3-2.9-5.7-2.9s-5 1.2-5.7 2.9zM17.2 18c1 0 1.8-.8 1.8-1.8 0-.4-.2-.8-.4-1.1.9-1.5 1.4-3.2 1.4-5.1 0-5.5-4.5-10-10-10S0 4.5 0 10s4.5 10 10 10c2.4 0 4.6-.9 6.3-2.3.3.2.6.3.9.3zm-7.2.4c-4.6 0-8.4-3.8-8.4-8.4S5.4 1.6 10 1.6s8.4 3.8 8.4 8.4-3.8 8.4-8.4 8.4z"/><path d="M21.5 10.1c0 .5-.1 1.1-.1 1.6 4 .7 7 4.1 7 8.3 0 4.6-3.8 8.4-8.4 8.4-4.2 0-7.6-3.1-8.3-7-.5.1-1.1.1-1.6.1.7 4.8 4.9 8.5 9.9 8.5 5.5 0 10-4.5 10-10 0-5-3.7-9.2-8.5-9.9z"/></svg>