<svg xmlns="http://www.w3.org/2000/svg" height="50" viewBox="0 0 50 50"><path d="M16 3c7.2 0 13 5.8 13 13s-5.8 13-13 13S3 23.2 3 16 8.8 3 16 3m0-2C7.7 1 1 7.7 1 16s6.7 15 15 15 15-6.7 15-15S24.3 1 16 1z"/><circle cx="11.5" cy="10.5" r="2.5"/><circle cx="20.5" cy="10.5" r="2.5"/><path d="M16 26c-5.7 0-10.4-4.5-10.4-10 0-.6.4-1 1-1s1 .4 1 1c0 4.4 3.8 8 8.4 8s8.4-3.6 8.4-8c0-.6.4-1 1-1s1 .4 1 1c0 5.5-4.7 10-10.4 10zM42 41.5c-.4 0-.8-.2-.9-.6-.8-2-3.8-3.4-7.1-3.4-3.4 0-6.3 1.4-7.1 3.4-.2.5-.8.8-1.3.6-.5-.2-.8-.8-.6-1.3 1.1-2.8 4.7-4.6 8.9-4.6s7.8 1.9 8.9 4.6c.2.5 0 1.1-.6 1.3H42z"/><circle cx="29.5" cy="28.5" r="2.5"/><circle cx="38.5" cy="28.5" r="2.5"/><path d="M34 19c-.4 0-.9 0-1.3.1-.1.7-.3 1.4-.5 2.1.6-.1 1.2-.1 1.8-.1 7.2 0 13 5.8 13 13s-5.8 13-13 13-13-5.8-13-13c0-.6.1-1.2.1-1.8-.7.2-1.4.4-2.1.5 0 .4-.1.9-.1 1.3 0 8.3 6.7 15 15 15s15-6.7 15-15S42.3 19 34 19z"/></svg>