<svg xmlns="http://www.w3.org/2000/svg" height="20" viewBox="0 0 20 20"><circle cx="4.2" cy="4.2" r="1.2"/><circle cx="8.8" cy="4.2" r="1.2"/><path d="M11.2 12.5c.7 0 1.2-.6 1.2-1.2 0-.5-.3-.9-.6-1.1.7-1 1.1-2.3 1.1-3.7C13 2.9 10.1 0 6.5 0S0 2.9 0 6.5 2.9 13 6.5 13c1.4 0 2.6-.4 3.7-1.1.2.3.6.6 1 .6zm-10.1-6c0-3 2.4-5.4 5.4-5.4s5.4 2.4 5.4 5.4c0 3-2.4 5.4-5.4 5.4S1.1 9.5 1.1 6.5z"/><circle cx="15.8" cy="11.2" r="1.2"/><path d="M10 6.2c-.3 0-.5.2-.5.5 0 1.5-1.3 2.8-2.9 2.8s-3-1.2-3-2.7c0-.3-.2-.5-.5-.5s-.6.2-.6.5c0 2.1 1.8 3.9 4 3.9s4-1.7 4-3.9c0-.3-.2-.6-.5-.6zM10 15.7c-.1.3 0 .6.3.7h.2c.2 0 .4-.1.5-.3.3-.6 1.3-1 2.5-1 1.1 0 2.2.4 2.4 1 .1.3.5.4.7.3.3-.1.4-.5.3-.7-.5-1.1-2.1-1.6-3.5-1.6-1.5 0-2.9.7-3.4 1.6z"/><path d="M14 7c0 .4-.1.7-.2 1.1 2.8.2 5.1 2.5 5.1 5.4 0 3-2.4 5.4-5.4 5.4-2.9 0-5.2-2.3-5.4-5.1-.3.1-.7.1-1.1.2.2 3.4 3 6 6.5 6 3.6 0 6.5-2.9 6.5-6.5 0-3.4-2.7-6.2-6-6.5z"/></svg>