<svg xmlns="http://www.w3.org/2000/svg" height="30" viewBox="0 0 30 30"><path d="M6.5 14c2.9 0 5.2-2.2 5.5-5h6c.3 2.8 2.6 5 5.5 5 3 0 5.5-2.5 5.5-5.5S26.5 3 23.5 3c-2.9 0-5.2 2.2-5.5 5h-6c-.3-2.8-2.6-5-5.5-5C3.5 3 1 5.5 1 8.5S3.5 14 6.5 14zm17-9.5c2.2 0 4 1.8 4 4s-1.8 4-4 4-4-1.8-4-4 1.8-4 4-4zm0 12.5c-2.9 0-5.2 2.2-5.5 5h-6c-.3-2.8-2.6-5-5.5-5-3 0-5.5 2.5-5.5 5.5S3.5 28 6.5 28c2.9 0 5.2-2.2 5.5-5h6c.3 2.8 2.6 5 5.5 5 3 0 5.5-2.5 5.5-5.5S26.5 17 23.5 17zm-17 9.5c-2.2 0-4-1.8-4-4s1.8-4 4-4 4 1.8 4 4-1.8 4-4 4z"/></svg>