<svg xmlns="http://www.w3.org/2000/svg" height="16" viewBox="0 0 16 16"><path d="M3.5 7c1.8 0 3.2-1.3 3.4-3H9c.2 1.7 1.7 3 3.4 3 2 0 3.6-1.6 3.6-3.5S14.4 0 12.5 0c-1.8 0-3.2 1.3-3.4 3H6.9c-.2-1.7-1.6-3-3.4-3C1.6 0 0 1.6 0 3.5S1.6 7 3.5 7zm9-5.8c1.3 0 2.3 1 2.3 2.3 0 1.3-1 2.3-2.3 2.3s-2.3-1-2.3-2.3c0-1.3 1-2.3 2.3-2.3zm0 7.8c-1.8 0-3.2 1.3-3.4 3H6.9c-.2-1.7-1.7-3-3.4-3C1.6 9 0 10.6 0 12.5S1.6 16 3.5 16c1.8 0 3.2-1.3 3.4-3H9c.2 1.7 1.7 3 3.4 3 1.9 0 3.5-1.6 3.5-3.5S14.4 9 12.5 9zm-9 5.8c-1.3 0-2.3-1-2.3-2.3 0-1.3 1-2.3 2.3-2.3s2.3 1 2.3 2.3c0 1.3-1 2.3-2.3 2.3z"/></svg>