<svg xmlns="http://www.w3.org/2000/svg" height="20" viewBox="0 0 20 20"><path d="M4.5 9c2.3 0 4.2-1.8 4.4-4H11c.3 2.2 2.1 4 4.4 4C18 9 20 7 20 4.5S18 0 15.5 0c-2.3 0-4.2 1.8-4.4 4H8.9c-.2-2.2-2.1-4-4.4-4C2 0 0 2 0 4.5S2 9 4.5 9zm11-7.8c1.8 0 3.3 1.5 3.3 3.3s-1.5 3.3-3.3 3.3-3.3-1.5-3.3-3.3 1.5-3.3 3.3-3.3zm0 9.8c-2.3 0-4.2 1.8-4.4 4H8.9c-.3-2.2-2.1-4-4.4-4C2 11 0 13 0 15.5S2 20 4.5 20c2.3 0 4.2-1.8 4.4-4H11c.3 2.2 2.1 4 4.4 4 2.5 0 4.5-2 4.5-4.5S18 11 15.5 11zm-11 7.8c-1.8 0-3.3-1.5-3.3-3.3s1.5-3.3 3.3-3.3 3.3 1.5 3.3 3.3-1.5 3.3-3.3 3.3z"/></svg>