<svg xmlns="http://www.w3.org/2000/svg" height="30" viewBox="0 0 30 30"><path d="M15 28C7.8 28 2 22.2 2 15S7.8 2 15 2s13 5.8 13 13-5.8 13-13 13zm0-9c-1.5 0-2.7 1.2-2.7 2.7 0 1.5 1.2 2.8 2.7 2.8 1.5 0 2.8-1.2 2.8-2.8 0-1.5-1.3-2.7-2.8-2.7h1.8l1-8.7V6h-5.4v4.3l1 8.7H15z"/><path d="M15 3c6.6 0 12 5.4 12 12s-5.4 12-12 12S3 21.6 3 15 8.4 3 15 3m-2.7 16.2c-.6.7-1 1.6-1 2.6 0 2.1 1.7 3.8 3.7 3.8 2.1 0 3.8-1.7 3.8-3.8 0-1-.4-1.9-1-2.6l.1-1 .9-7.8V5h-7.4v5.4l.9 7.8v1M15 1C7.3 1 1 7.3 1 15s6.3 14 14 14 14-6.3 14-14S22.7 1 15 1zm-.9 17l-.9-7.8V7h3.4v3.2l-.7 7.8h-1.8zm.9 5.5c-1 0-1.7-.8-1.7-1.8S14.1 20 15 20c1 0 1.8.8 1.8 1.7 0 1-.8 1.8-1.8 1.8z"/></svg>