<svg xmlns="http://www.w3.org/2000/svg" height="16" viewBox="0 0 16 16"><path d="M8 15.4C3.9 15.4.6 12.1.6 8 .6 3.9 3.9.6 8 .6c4.1 0 7.4 3.3 7.4 7.4 0 4.1-3.3 7.4-7.4 7.4zm-.8-4.8c-.7.3-1.2 1-1.2 1.8 0 1.1.9 2 2 2s2-.9 2-2c0-.8-.5-1.5-1.2-1.8h.5L9.7 6V2.4H6.3v3.5l.4 4.7h.5z"/><path d="M8 1.2c3.7 0 6.8 3.1 6.8 6.8 0 3.3-2.3 6-5.4 6.7.7-.5 1.2-1.3 1.2-2.2 0-.7-.3-1.4-.8-1.8v-.5l.5-4.2V1.8H5.7v4.3l.4 4.1v.5c-.5.5-.8 1.1-.8 1.8 0 .9.5 1.8 1.2 2.2-3-.7-5.3-3.4-5.3-6.7 0-3.7 3.1-6.8 6.8-6.8M8 0C3.6 0 0 3.6 0 8s3.6 8 8 8 8-3.6 8-8-3.6-8-8-8zm-.7 10l-.4-4.1V3H9v2.9L8.7 10H7.3zm.7 3.9c-.8 0-1.4-.6-1.4-1.4 0-.8.6-1.4 1.4-1.4.8 0 1.4.6 1.4 1.4 0 .7-.6 1.4-1.4 1.4z"/></svg>