<svg xmlns="http://www.w3.org/2000/svg" height="20" viewBox="0 0 20 20"><path d="M10 19.4C4.8 19.4.6 15.2.6 10S4.8.6 10 .6s9.4 4.2 9.4 9.4-4.2 9.4-9.4 9.4zm0-6c-1.2 0-2.1.9-2.1 2.1 0 1.2.9 2.1 2.1 2.1 1.2 0 2.1-.9 2.1-2.1 0-1.2-.9-2.1-2.1-2.1zM7.9 7l.9 6.1h2.5l.9-6V3.4H7.9V7z"/><path d="M10 1.2c4.9 0 8.8 3.9 8.8 8.8s-3.9 8.8-8.8 8.8-8.8-3.9-8.8-8.8S5.1 1.2 10 1.2M8.2 13.5c-.6.5-.9 1.2-.9 2 0 1.5 1.2 2.7 2.7 2.7 1.5 0 2.7-1.2 2.7-2.7 0-.8-.4-1.5-.9-2l.1-.8.8-5.5V2.8H7.2v4.4l.8 5.5.2.8M10 0C4.5 0 0 4.5 0 10s4.5 10 10 10 10-4.5 10-10S15.5 0 10 0zm-.7 12.5L8.4 7V4h3.1v3l-.8 5.5H9.3zM10 17c-.8 0-1.5-.7-1.5-1.5S9.2 14 10 14s1.5.7 1.5 1.5S10.8 17 10 17z"/></svg>