<svg xmlns="http://www.w3.org/2000/svg" height="30" viewBox="9 -9 30 30"><path d="M23.8 2c.5 0 1 .4 1 1s-.4 1-1 1-1-.4-1-1 .4-1 1-1m0-.8c-1 0-1.8.8-1.8 1.8s.8 1.8 1.8 1.8S25.5 4 25.5 3s-.8-1.8-1.7-1.8zM30.2 2c.5 0 1 .4 1 1s-.4 1-1 1-1-.4-1-1 .5-1 1-1m0-.8c-1 0-1.8.8-1.8 1.8s.8 1.8 1.8 1.8S32 4 32 3s-.8-1.8-1.8-1.8z"/><path d="M29 16h4v2h-4zM21 13h7v2h-7zM21 10h7v2h-7zM21 7h7v2h-7zM21 16h7v2h-7zM29 13h4v2h-4zM29 7h4v2h-4zM29 10h4v2h-4z"/><path d="M29 7h-1v2h-7v1h7v2h-7v1h7v2h-7v1h7v2h1v-2h4v-1h-4v-2h4v-1h-4v-2h4V9h-4z"/><path d="M18-2v23h18V-2H18zm2 21V0h14v19H20z"/><path d="M17-3h16v-2H15v23h2z"/><path d="M14-6h16v-2H12v23h2z"/></svg>