<svg xmlns="http://www.w3.org/2000/svg" height="50" viewBox="0 0 50 50"><path d="M43 17v29H21V17h22m2-2H19v33h26V15z"/><path d="M26 20c.6 0 1 .4 1 1s-.4 1-1 1-1-.4-1-1 .4-1 1-1m0-1c-1.1 0-2 .9-2 2s.9 2 2 2 2-.9 2-2-.9-2-2-2zM38 20c.6 0 1 .4 1 1s-.4 1-1 1-1-.4-1-1 .4-1 1-1m0-1c-1.1 0-2 .9-2 2s.9 2 2 2 2-.9 2-2-.9-2-2-2z"/><path d="M23 41h11v3H23zM23 33h11v3H23zM23 25h11v3H23zM23 29h11v3H23zM35 41h6v3h-6zM23 37h11v3H23zM35 25h6v3h-6zM35 29h6v3h-6zM35 33h6v3h-6zM35 37h6v3h-6z"/><path d="M35 25h-1v3H23v1h11v3H23v1h11v3H23v1h11v3H23v1h11v3h1v-3h6v-1h-6v-3h6v-1h-6v-3h6v-1h-6v-3h6v-1h-6z"/><path d="M15 11v33h3v-2h-1V13h22v1h2v-3z"/><path d="M11 7v33h3v-2h-1V9h22v1h2V7z"/><path d="M7 3v33h3v-2H9V5h22v1h2V3z"/></svg>