<svg xmlns="http://www.w3.org/2000/svg" height="40" viewBox="0 0 40 40"><path d="M34 9v29H12V9h22m2-2H10v33h26V7z"/><path d="M17 12c.6 0 1 .4 1 1s-.4 1-1 1-1-.4-1-1 .4-1 1-1m0-1c-1.1 0-2 .9-2 2s.9 2 2 2 2-.9 2-2-.9-2-2-2zM29 12c.6 0 1 .4 1 1s-.4 1-1 1-1-.4-1-1 .4-1 1-1m0-1c-1.1 0-2 .9-2 2s.9 2 2 2 2-.9 2-2-.9-2-2-2z"/><path d="M14 17h11v3H14zM26 33h6v3h-6zM14 33h11v3H14zM14 21h11v3H14zM14 25h11v3H14zM14 29h11v3H14zM26 29h6v3h-6zM26 21h6v3h-6zM26 17h6v3h-6zM26 25h6v3h-6z"/><path d="M26 17h-1v3H14v1h11v3H14v1h11v3H14v1h11v3H14v1h11v3h1v-3h6v-1h-6v-3h6v-1h-6v-3h6v-1h-6v-3h6v-1h-6z"/><path d="M7 4v33h2V6h24V4z"/><path d="M4 1v33h2V3h24V1z"/></svg>