<svg xmlns="http://www.w3.org/2000/svg" height="20" viewBox="0 0 20 20"><path d="M2 17h16v3H2z"/><path d="M15.8 9.2c.1-.1.1-.2.1-.3v-.1c.1-.1.1-.2.1-.3v-.1c0-.6-.1-1.1-.6-1.6l-4.3-4.3c-.4-.3-.9-.5-1.4-.5s-1 .2-1.4.6l-.4.4-1.8-1.8c-.3-.3-.7-.3-.9 0-.3.3-.3.7 0 .9L7 3.9 2.6 8.3c-.2.2-.4.4-.5.7-.1.4-.1 1 0 1.5.1.2.2.5.4.7l4.3 4.3c.5.3 1 .5 1.5.5.2 0 .3 0 .5-.1.1 0 .3-.1.4-.2.2-.1.3-.2.5-.4l5.7-5.7c.1 0 .2-.1.4-.4-.1.1-.1.1 0 0zm-6-4.3L8.6 3.7l.4-.4c.2-.2.5-.3.7-.3s.5.1.7.3l4.3 4.3c.1.1.2.2.3.4H4.3l3.4-3.4 1.2 1.2c.1.1.3.2.4.2s.3-.1.5-.2c.3-.2.3-.7 0-.9z"/><path d="M17.8 13.1L16 8l-1.8 5.1c-.1.3-.2.6-.2.9 0 1.1.9 2 2 2s2-.9 2-2c0-.3-.1-.6-.2-.9z"/></svg>