<svg xmlns="http://www.w3.org/2000/svg" height="30" viewBox="0 0 30 30"><path d="M3 24h24v4H3z"/><path d="M22.9 12.4c0-.1 0-.1.1-.2 0-.1.1-.3.1-.4v-.2c0-.7-.2-1.4-.8-2l-5.8-5.8c-.6-.5-1.3-.8-2-.8s-1.4.3-1.9.8l-.7.7-2.2-2.2c-.4-.4-1-.4-1.4 0s-.4 1 0 1.4l2.2 2.2L5.3 11l-.5.5c-.9.9-1 2.3-.4 3.4.1.2.2.3.4.5l5.8 5.8c.5.5 1.2.8 1.9.8s1.4-.3 1.9-.8l7.8-7.8c.2-.2.3-.3.4-.5 0-.1.1-.1.1-.2 0 0 .1-.2.2-.3zM11.7 7.1l1.6 1.6c.4.4 1 .4 1.4 0s.4-1 0-1.4l-1.6-1.6.7-.7c.2-.2.4-.3.7-.3.3 0 .5.1.7.3l5.8 5.8c.1.1.1.1.1.2H7.7l4-3.9z"/><path d="M25.5 18.1L22.9 11l-2.5 7.1c-.2.4-.2.8-.2 1.2 0 1.5 1.2 2.7 2.8 2.7s2.8-1.2 2.8-2.7l-.3-1.2z"/></svg>