<svg xmlns="http://www.w3.org/2000/svg" height="16" viewBox="0 0 16 16"><path d="M1 14h14v2H1z"/><path d="M12.7 7.3c.1-.1.1-.1 0 0 .1-.2.1-.3.2-.4v-.1c.1-.6 0-1.2-.4-1.6L8.8 1.5C8.5 1.2 8 1 7.6 1s-.9.2-1.2.5l-.5.5L4.1.2c-.3-.3-.7-.3-.9 0-.3.3-.3.7 0 .9L5 2.9 1.5 6.4c-.5.5-.6 1.2-.4 1.8.1.2.2.4.4.6l3.7 3.7c.3.3.8.5 1.2.5.4 0 .9-.2 1.2-.5l1.2-1.2 3.7-3.7c.1-.1.2-.2.2-.3zM7.8 3.9L6.6 2.7l.5-.5c.1-.1.3-.2.5-.2s.4.1.5.2l3.7 3.7.1.1H3.3l2.4-2.4 1.2 1.2c.1.1.3.2.4.2s.3-.1.5-.2c.3-.2.3-.7 0-.9z"/><path d="M14.5 10.4L12.9 6l-1.6 4.4c-.1.3-.2.5-.2.8 0 .9.8 1.7 1.7 1.7s1.7-.8 1.7-1.7c.2-.2.1-.5 0-.8z"/></svg>