<svg xmlns="http://www.w3.org/2000/svg" height="30" viewBox="0 0 30 30"><path d="M30 11.1c0 .4 0 1.1-.1 2.2s-.2 2.2-.4 3.2-.6 2.2-1.1 3.5c-.5 1.3-1.2 2.5-1.9 3.5-.8 1-1.8 2-3.1 3-1.3.9-2.8 1.6-4.5 2-.9.2-1.8.4-2.8.4 0 0-.1 0-.2.1h-2.3c-4.9-.4-8.6-2.8-11.1-7.3-1.2-2.1-1.8-4.1-2-6-.1.6-.2 1-.2 1.4-.1-2.3.1-4.1.5-5.5-.4.6-.6 1.1-.8 1.7.3-1.8.7-3.2 1.2-4.2 0-.2.3-.7.7-1.3v-.2c-.1-1.1 0-2.1.3-3S2.8 3.2 3 3l.5-.5c0 .9.5 1.9 1.5 2.7.2 0 .4.1.6.1 1-.2 2-.2 3 .1.6-.8 1.6-1.3 2.9-1.6l1.1-.1c-1.1.7-1.8 1.6-2.1 2.9.4.9 1 1.4 1.7 1.4h1.3c.7 0 1 .1 1.1.2v.6c0 .4-.2.7-.4.9H14s-.2.2-.5.4c-.5.3-.8.6-1.1.8-.5.3-.8.5-.8.7v.1h-.1c.1.2.2.5.2.9.1.4.1.6.1.7v.5c-.5-.2-.9-.4-1.3-.5-.5.2-.9.5-.9.8 0 .2-.1.3-.1.5 0 .8.5 1.4 1.6 2.1.4.3.9.4 1.3.5.4 0 .8 0 1.1-.1.3-.1.6-.2.9-.4.4-.2.6-.3.8-.3 1.2-.3 2.1 0 2.9.8.2.2.3.5.1.7-.1.2-.3.3-.6.2h-.2s-.1 0-.3.1c-.1.1-.2.1-.3.1-.1 0-.2.1-.3.2-.1.1-.2.2-.3.2-.1 0-.2.1-.4.3-.2.1-.3.2-.4.3-.5.4-1.1.6-2 .8-.9.2-1.6.2-2.2 0 .5.4.8.6 1.1.8.3.2.7.4 1.3.7.6.3 1.2.6 1.6.7.4.1 1 .1 1.7.1s1.3-.1 1.9-.4c.6-.2 1.2-.6 1.8-1.2.6-.6 1.3-1.3 1.8-2.2.1-.2.2-.3.2-.4.1 0 0 .5-.3 1.6-.1.6-.2.8-.1.8.7-.5 1.1-1.4 1.4-2.7.3-1.3.3-2.6.1-3.9.5.2.8.6 1 1.1l.1.1c.2-.7.4-1.7.4-2.9s-.1-2.2-.4-3c.5.2 1 .7 1.4 1.5-.1-.6-.3-1.2-.5-1.7s-.5-1-.8-1.4c-.3-.4-.6-.7-.9-1.1-.3-.3-.7-.6-1-.8-.4-.2-.7-.4-1-.6-.3-.2-.6-.3-.9-.4-.3-.1-.6-.2-.8-.2-.2-.1-.4-.1-.5-.1h-.1c1-.3 2-.4 3-.4-.1-.2-.3-.4-.7-.5-.3-.2-.7-.3-1.1-.4-.4-.1-.8-.2-1.1-.3-.4-.1-.8-.2-1.3-.3h-.1.1c1.1-.3 2.8-.1 5.2.7.9.3 1.6.8 2.3 1.5.7.7 1.1 1.3 1.3 1.6.2.4.3.7.4.9v-.7c0-.2 0-.5-.1-.9s-.2-.9-.4-1.3c0 0 .1 0 .2.1s.2.3.4.7c.2.3.4.8.7 1.6.4 1.1.8 3 1.1 5.7l.4-2.3v.9z"/></svg>