<svg xmlns="http://www.w3.org/2000/svg" height="16" viewBox="0 0 16 16"><path d="M16 6.1v1.2c0 .6-.1 1.2-.2 1.8-.1.6-.3 1.2-.6 2-.3.7-.6 1.4-1 2-.4.6-1 1.1-1.7 1.6s-1.5.9-2.4 1.1c-.5.1-1 .2-1.5.2H7.2c-2.6-.2-4.6-1.6-5.9-4C.7 10.8.3 9.7.2 8.7c0 .3-.1.5-.1.7C0 8.1.1 7.1.4 6.3c-.2.4-.3.7-.4 1C.2 6.3.4 5.5.7 5c0-.1.1-.4.4-.7v-.1C1 3.5 1 3 1.2 2.5s.3-.8.4-.9c.1-.1.2-.2.2-.3 0 .5.3 1 .8 1.5h.3c.5-.1 1.1-.1 1.6 0 .4-.4.9-.7 1.6-.8h.6c-.6.4-1 .9-1.1 1.6.3.4.6.7.9.7h.7c.4 0 .5 0 .6.1v.1c0 .2-.1.4-.2.5 0 0-.1.1-.3.2-.3.3-.5.5-.7.6-.2.2-.4.3-.4.3.1.1.1.3.1.5s.1.3 0 .4v.3c-.2-.1-.4-.2-.7-.2-.3.1-.4.2-.5.4 0 .1 0 .2-.1.3 0 .4.3.8.8 1.2.2.2.5.2.7.3h.6c.1 0 .3-.1.5-.2.3-.2.4-.3.5-.3.6-.2 1.1 0 1.5.5.1.1.2.3.1.4-.1 0-.2.1-.3 0h-.2l-.2.1s-.1 0-.2.1l-.2.2s-.1.1-.2.1c-.1.1-.2.1-.2.1-.2.2-.6.3-1.1.4-.5.1-.9.1-1.2 0 .2.2.4.3.6.4.1.1.4.2.7.4.3.2.6.3.9.4.2.1.6.2.9.2.4 0 .7-.1 1-.2.3-.1.6-.4 1-.7.3-.3.7-.7 1-1.2.1-.1.1-.2.1-.2s0 .3-.2.9c-.1.3-.1.5-.1.5.4-.3.6-.8.7-1.5.1-.7.2-1.5 0-2.2.2.1.4.3.5.6l.1.1c.1-.4.2-1 .2-1.6 0-.7 0-1.2-.2-1.7.3.1.5.4.7.9-.1-.4-.2-.7-.3-1-.1-.3-.3-.5-.4-.8-.2-.2-.3-.4-.5-.6-.2-.2-.4-.3-.5-.5-.2-.1-.4-.2-.5-.3-.2-.1-.3-.2-.5-.2-.2-.1-.3-.1-.4-.1-.1 0-.2-.1-.3-.1h-.1c.7-.2 1.2-.3 1.8-.3-.1-.1-.2-.2-.4-.3-.2-.1-.4-.2-.6-.2-.2-.1-.4-.1-.6-.2-.2 0-.4-.1-.7-.2h.1c.6-.2 1.5 0 2.7.4.5.2.9.4 1.2.8.4.4.6.7.7.9.1.2.2.4.2.5v-.5c-.1-.2-.1-.5-.2-.7h.1l.2.4c.1.2.2.5.4.9.2.6.4 1.7.6 3.2l.2-1.3v.5z"/></svg>