<svg xmlns="http://www.w3.org/2000/svg" height="20" viewBox="0 0 20 20"><path d="M20 7.1c0 .3 0 .7-.1 1.5 0 .7-.1 1.4-.3 2.1-.1.7-.4 1.5-.7 2.3-.4.9-.8 1.7-1.3 2.3-.5.7-1.2 1.4-2.1 2-.9.6-1.9 1.1-3 1.3-.6.2-1.2.3-1.8.3H8.9c-3.2-.3-5.7-1.9-7.4-4.8-.8-1.4-1.2-2.7-1.3-4-.1.4-.1.7-.2.9-.1-1.5 0-2.7.4-3.7-.1.5-.3.9-.4 1.3.2-1.2.5-2.1.8-2.8 0-.2.2-.4.5-.9v-.1c-.1-.7 0-1.4.2-2s.4-1 .5-1.1c.1-.1.2-.3.3-.3 0 .6.4 1.2 1 1.8h.4c.7-.1 1.3-.1 2 0 .4-.5 1.1-.9 1.9-1.1h.7c-.7.5-1.1 1.1-1.3 2 .3.6.7.9 1.2.9H9c.4 0 .7 0 .7.1v.1c0 .3-.1.5-.3.6 0 0-.1.1-.4.2-.3.4-.5.6-.7.7-.4.2-.5.4-.5.5.1.2.1.4.2.6-.1.2 0 .4-.1.4v.4c-.3-.2-.6-.3-.9-.3-.3.1-.5.3-.6.5 0 .1-.1.2-.1.3 0 .5.4 1 1.1 1.4.3.2.6.3.9.3H9c.2-.1.4-.1.6-.2.2-.1.4-.2.5-.2.8-.2 1.4 0 1.9.6.2.2.2.3.1.5-.1.1-.2.2-.4.1h-.4c-.1 0-.2.1-.2.1s-.1.1-.2.1c-.1.1-.2.1-.2.1-.1 0-.1.1-.3.2-.1.1-.2.2-.3.2-.3.2-.8.4-1.3.5-.6.1-1.1.1-1.5 0 .4.2.7.3.9.5.2.1.5.3.9.5s.8.4 1.1.4c.3.1.7.1 1.1.1.5 0 .9-.1 1.2-.2.4-.2.8-.4 1.2-.8.4-.4.8-.9 1.2-1.4.1-.1.1-.2.2-.2s0 .4-.2 1.1c-.1.4-.1.6-.1.6.4-.3.7-.9.9-1.8.2-.9.2-1.8.1-2.6.3.1.5.4.7.8l.1.1c.2-.5.2-1.2.3-2 0-.8-.1-1.5-.2-2 .3.1.7.4.9 1-.1-.4-.2-.8-.4-1.2-.2-.4-.3-.7-.5-.9-.2-.2-.4-.5-.6-.7-.2-.2-.4-.4-.7-.6-.2-.1-.5-.3-.7-.4l-.6-.3c-.2-.1-.4-.1-.5-.2-.2 0-.3-.1-.4-.1h-.1c.7-.2 1.3-.3 2-.3-.1-.2-.3-.3-.5-.4-.2-.1-.5-.2-.7-.3-.3-.1-.5-.1-.8-.2-.2-.1-.5-.1-.9-.2h.1c.7-.2 1.9-.1 3.4.5.6.2 1.1.5 1.6 1s.8.8.9 1.1l.3.6v-.2c0-.1 0-.3-.1-.6l-.3-.9s.1 0 .1.1c.1 0 .1.2.3.4.1.3.3.6.5 1.1.3.7.5 2 .7 3.8l.3-1.5v.6z"/></svg>