<svg xmlns="http://www.w3.org/2000/svg" height="20" viewBox="0 0 20 20"><path d="M15.5 12c-1.8 0-3.2 1.3-3.4 3H7.9c-.1-.6-.3-1.1-.6-1.5l6.1-6.1c.6.4 1.3.6 2 .6 2 0 3.6-1.6 3.6-3.5S17.4 1 15.5 1c-1.8 0-3.2 1.3-3.4 3H7.9c-.2-1.7-1.6-3-3.4-3C2.6 1 1 2.6 1 4.5S2.6 8 4.5 8c1.8 0 3.2-1.3 3.4-3H12c.1.6.3 1.1.6 1.5l-6.1 6.1c-.6-.4-1.3-.6-2-.6C2.6 12 1 13.6 1 15.5S2.6 19 4.5 19c1.8 0 3.2-1.3 3.4-3H12c.2 1.7 1.7 3 3.4 3 1.9 0 3.5-1.6 3.5-3.5S17.4 12 15.5 12zm-11-5.2c-1.3 0-2.3-1-2.3-2.3 0-1.3 1-2.3 2.3-2.3s2.3 1 2.3 2.3c0 1.3-1 2.3-2.3 2.3zm11-4.6c1.3 0 2.3 1 2.3 2.3 0 1.3-1 2.3-2.3 2.3s-2.3-1-2.3-2.3c0-1.3 1-2.3 2.3-2.3zm-11 15.6c-1.3 0-2.3-1-2.3-2.3 0-1.3 1-2.3 2.3-2.3s2.3 1 2.3 2.3c0 1.3-1 2.3-2.3 2.3z"/></svg>