<svg xmlns="http://www.w3.org/2000/svg" height="30" viewBox="0 0 30 30"><circle cx="23.5" cy="23.5" r="4.5"/><path d="M6.5 20.8c1.5 0 2.7 1.2 2.7 2.7S8 26.2 6.5 26.2 3.8 25 3.8 23.5s1.2-2.7 2.7-2.7m0-1.8C4 19 2 21 2 23.5S4 28 6.5 28s4.5-2 4.5-4.5S9 19 6.5 19zm0-15.2C8 3.8 9.2 5 9.2 6.5S8 9.2 6.5 9.2 3.8 8 3.8 6.5 5 3.8 6.5 3.8m0-1.8C4 2 2 4 2 6.5S4 11 6.5 11 11 9 11 6.5 9 2 6.5 2zm17 1.8c1.5 0 2.7 1.2 2.7 2.7S25 9.2 23.5 9.2 20.8 8 20.8 6.5s1.2-2.7 2.7-2.7m0-1.8C21 2 19 4 19 6.5s2 4.5 4.5 4.5S28 9 28 6.5 26 2 23.5 2z"/><path d="M10 6h10v1H10zm0 17h10v1H10z"/><path d="M21 9L9 21"/></svg>