<svg xmlns="http://www.w3.org/2000/svg" height="16" viewBox="0 0 16 16"><path d="M12.5 10c-1.2 0-2.2.9-2.4 2H5.9c-.1-.3-.2-.6-.4-.9L11 5.6c.5.2 1 .4 1.5.4C13.9 6 15 4.9 15 3.5S13.9 1 12.5 1c-1.2 0-2.2.9-2.4 2H5.9c-.2-1.1-1.2-2-2.4-2C2.1 1 1 2.1 1 3.5S2.1 6 3.5 6c1.2 0 2.2-.9 2.4-2H10c.1.3.2.6.4.9l-5.5 5.5c-.4-.2-.9-.4-1.4-.4C2.1 10 1 11.1 1 12.5S2.1 15 3.5 15c1.2 0 2.2-.9 2.4-2H10c.2 1.1 1.2 2 2.4 2 1.4 0 2.5-1.1 2.5-2.5.1-1.4-1-2.5-2.4-2.5zm0-8c.8 0 1.5.7 1.5 1.5S13.3 5 12.5 5 11 4.3 11 3.5 11.7 2 12.5 2zm-9 3C2.7 5 2 4.3 2 3.5S2.7 2 3.5 2 5 2.7 5 3.5 4.3 5 3.5 5zm0 9c-.8 0-1.5-.7-1.5-1.5S2.7 11 3.5 11s1.5.7 1.5 1.5S4.3 14 3.5 14z"/></svg>