<svg xmlns="http://www.w3.org/2000/svg" height="30" viewBox="0 0 30 30"><path d="M16.5 19.5c-1.2-2.2-4.3-3.8-8-3.8-4.7 0-8.5 2.6-8.5 5.8 0 2.2 2.3 4.3 5.1 5.2.1.6-.6 1.7-2.5 3.4 0 0 4.4-.8 6.7-2.5h.1c4.4-.2 7.6-3 7.6-6 0-.9-.2-1.5-.5-2.1"/><path d="M30 9.8C30 4.4 23.7 0 16 0 10.1 0 4.9 2.6 2.9 6.4 2.3 7.5 2 8.6 2 9.8c0 1.7.6 3.4 1.6 4.8.6-.2 1.2-.4 1.9-.5-1.1-1.3-1.7-2.8-1.7-4.3 0-.9.2-1.7.7-2.6C6.2 4 10.8 1.8 16 1.8c6.7 0 12.2 3.6 12.2 8 0 2.8-3 5.8-7.3 7.2-.3.1-.5.4-.6.7-.2 1 .4 2.2 1.8 3.8-1-.3-2-.6-3.1-1v.5c0 .4-.1.9-.2 1.3 3 1.1 5.9 1.6 6 1.6h.2c.3 0 .7-.2.8-.5.2-.4.1-.8-.2-1.1-2.5-2.2-3.3-3.4-3.6-4 4.2-1.4 8-4.6 8-8.5z"/><circle cx="16" cy="10" r="2"/><circle cx="22" cy="10" r="2"/><circle cx="10" cy="10" r="2"/></svg>