<svg xmlns="http://www.w3.org/2000/svg" height="16" viewBox="0 0 16 16"><path d="M8.7 10.1C8.1 8.9 6.5 8 4.5 8 2 8 0 9.4 0 11.2c0 1.2 1.2 2.4 2.7 2.9.1.4-.3 1-1.4 1.9 0 0 2.3-.4 3.6-1.4 2.4-.2 4.1-1.7 4.1-3.4 0-.4-.1-.7-.3-1.1"/><path d="M16 5.3C16 2.4 12.6 0 8.5 0c-3.1 0-6 1.4-7 3.5-.3.6-.5 1.2-.5 1.8 0 .8.2 1.6.6 2.3.3-.1.7-.2 1-.3-.4-.7-.6-1.3-.6-2 0-.4.1-.9.4-1.3.9-1.7 3.4-2.9 6.1-2.9C12.1 1.1 15 3 15 5.3c0 1.5-1.6 3-3.8 3.8-.2.1-.3.2-.3.4-.1.5.2 1.1.9 1.9-.5-.1-1-.3-1.5-.5 0 .4-.1.7-.2 1 1.7.6 3.3.9 3.4.9h.1c.2 0 .4-.1.5-.3.1-.2 0-.5-.1-.6-1.3-1.1-1.7-1.7-1.9-2C14 9.2 16 7.4 16 5.3z"/><circle cx="8.5" cy="5.5" r="1.5"/><circle cx="12.5" cy="5.5" r="1.5"/><circle cx="4.5" cy="5.5" r="1.5"/></svg>