<svg xmlns="http://www.w3.org/2000/svg" height="20" viewBox="0 0 20 20"><path d="M11.6 12.7c-.8-1.6-3-2.7-5.6-2.7-3.3 0-6 1.8-6 4 0 1.6 1.6 3 3.6 3.6.1.5-.5 1.2-1.8 2.4 0 0 3.1-.5 4.8-1.8 3.1-.1 5.4-2.1 5.4-4.2 0-.5-.1-.9-.4-1.3"/><path d="M20 6.1C20 2.8 16 0 11 0 7.2 0 3.9 1.6 2.6 4c-.4.7-.6 1.4-.6 2.1 0 1 .3 2 .9 2.8.4-.1.9-.2 1.3-.3-.6-.8-1-1.6-1-2.5 0-.5.1-1 .4-1.5 1.1-2 4-3.4 7.4-3.4 4.3 0 7.8 2.2 7.8 4.9 0 1.7-1.9 3.5-4.6 4.4-.2.1-.4.2-.4.5-.1.6.2 1.3 1.1 2.3-.3-.1-.7-.2-1.1-.3.1.2.1.5.1.8v.5c1.6.5 2.9.7 3 .7h.1c.2 0 .5-.1.6-.4.1-.3 0-.5-.2-.7-1.5-1.3-2.1-2-2.2-2.4 2.4-.9 4.8-2.9 4.8-5.4z"/><circle cx="11" cy="6.5" r="1.5"/><circle cx="15.5" cy="6.5" r="1.5"/><circle cx="6.5" cy="6.5" r="1.5"/></svg>