<svg xmlns="http://www.w3.org/2000/svg" height="20" viewBox="0 0 20 20"><path d="M13.5 1.1l.3 1.1.1.6.6.2c.5.2.9.4 1.3.8l.5.4.6-.2 1.2-.4.5.8-1 .9-.5.4.1.6c0 .3.1.5.1.7 0 .2 0 .4-.1.7l-.1.6.5.4 1 .9-.5.8-1.2-.4-.6-.2-.5.4c-.4.3-.8.6-1.3.8l-.6.2-.1.6-.3 1.1h-1l-.3-1.1-.1-.6-.6-.2c-.5-.2-.9-.4-1.3-.8l-.5-.4-.6.2-1.2.4-.5-.8 1-.9.5-.4-.1-.6c0-.3-.1-.5-.1-.7 0-.2 0-.4.1-.7l.1-.6-.5-.4-1-.9.5-.8 1.2.4.6.2.5-.4c.4-.4.8-.6 1.3-.8l.6-.2.1-.6.3-1.1h1m.9-1.1h-2.8l-.5 2c-.6.2-1.1.5-1.6 1l-2-.7L6 4.7l1.7 1.5c0 .3-.1.6-.1.8 0 .3 0 .6.1.8L6 9.3l1.4 2.4 2-.7c.5.4 1 .8 1.7 1l.5 2h2.8l.5-2c.6-.2 1.2-.6 1.7-1l2 .7L20 9.3l-1.7-1.5c0-.3.1-.6.1-.8s0-.6-.1-.8L20 4.7l-1.4-2.4-2 .7c-.5-.4-1-.8-1.7-1l-.5-2z"/><path d="M13 5.7c.7 0 1.3.6 1.3 1.3s-.6 1.3-1.3 1.3-1.3-.6-1.3-1.3.6-1.3 1.3-1.3m0-1.2c-1.4 0-2.5 1.1-2.5 2.5s1.1 2.5 2.5 2.5 2.5-1.1 2.5-2.5-1.1-2.5-2.5-2.5zM5.2 11l.1.6.1.5.6.2c.3.1.6.3.9.5l.4.4.5-.2.7-.2.2.3-.6.5-.4.4.1.5v.8l-.1.7.4.4.6.5-.2.3-.7-.2-.5-.2-.4.4c-.3.2-.6.4-.9.5l-.5.2-.1.5-.2.6h-.4l-.1-.6-.1-.5-.6-.2c-.3-.1-.6-.3-.9-.5l-.4-.4-.5.2-.7.2-.2-.3.6-.5.4-.4-.1-.5v-.8l.1-.7-.4-.4-.6-.5.2-.3.7.2.5.2.4-.4c.3-.2.6-.4.9-.5l.5-.2.1-.5.2-.6h.4m.8-1H4l-.3 1.4c-.4.2-.8.4-1.2.7L1 11.6l-1 1.7 1.2 1.1c0 .2-.1.4-.1.6 0 .2 0 .4.1.6L0 16.7l1 1.7 1.5-.5c.3.3.7.5 1.2.7L4 20h2l.3-1.4c.4-.2.8-.4 1.2-.7l1.5.5 1-1.7-1.2-1.1c0-.2.1-.4.1-.6s0-.4-.1-.6l1.2-1.1-1-1.7-1.5.5c-.3-.3-.7-.5-1.2-.7L6 10z"/><path d="M5 14.5c.3 0 .5.2.5.5s-.2.5-.5.5-.5-.2-.5-.5.2-.5.5-.5m0-1c-.8 0-1.5.7-1.5 1.5s.7 1.5 1.5 1.5 1.5-.7 1.5-1.5-.7-1.5-1.5-1.5z"/></svg>