<svg xmlns="http://www.w3.org/2000/svg" height="16" viewBox="0 0 16 16"><path d="M10.8 1l.2.8.1.5.5.2c.4.1.7.3 1 .6l.4.3.5-.2.9-.2.3.5-.7.6-.4.4.1.5v1l-.1.5.4.4.7.6-.3.5-.8-.3-.6-.1-.4.4c-.3.3-.6.5-1 .6l-.5.2-.1.4-.2.8h-.6l-.2-.8-.1-.5-.5-.2c-.4-.1-.7-.3-1-.6L8 7.6l-.6.1-.8.3-.3-.5.7-.6.4-.4-.1-.5V5l.1-.5-.4-.4-.7-.6.3-.5.8.3.6.1.4-.4c.3-.3.6-.5 1-.6l.5-.2.1-.4.2-.8h.6m.8-1H9.4L9 1.5c-.4.2-.9.5-1.3.8l-1.6-.5L5 3.7l1.3 1.2c0 .2-.1.4-.1.7 0 .2 0 .4.1.7L5 7.3l1.1 1.9 1.6-.5c.4.3.9.6 1.3.8l.4 1.5h2.2l.4-1.5c.5-.2.9-.4 1.3-.8l1.6.5L16 7.3l-1.3-1.2c0-.2.1-.4.1-.7s0-.4-.1-.7l1.3-1-1.1-1.9-1.6.5c-.4-.3-.9-.6-1.3-.8L11.6 0z"/><path d="M10.5 4.6c.5 0 .9.4.9.9s-.4.9-.9.9-.9-.4-.9-.9.4-.9.9-.9m0-1.1c-1.1 0-2 .9-2 2s.9 2 2 2 2-.9 2-2-.9-2-2-2zM4 9l.1.3.1.5.5.2c.2.1.5.2.6.4l.4.4.5-.2.3-.1-.3.2-.2.4v1.8l.4.4.3.2-.3-.1-.5-.2-.4.4c-.2.2-.4.3-.6.4l-.5.2-.1.5-.3.3-.1-.3-.1-.5-.5-.2c-.2-.1-.5-.2-.6-.4l-.4-.4-.5.2-.3.1.3-.2.2-.4V11.1l-.4-.4-.3-.2.3.1.5.2.4-.4c.2-.2.4-.3.6-.4l.5-.2.1-.5L4 9m.8-1H3.2l-.3 1.1c-.3.2-.6.3-.9.6L.8 9.3 0 10.7l1 .9v1l-1 .9.8 1.4 1.2-.6c.3.2.6.4 1 .6l.2 1.1h1.6l.3-1.1c.4-.1.7-.3 1-.6l1.2.4.7-1.4-1-.9v-1l1-.9-.8-1.2-1.2.4c-.3-.2-.6-.4-1-.6L4.8 8z"/><path d="M4 11c-.6 0-1 .4-1 1s.4 1 1 1 1-.4 1-1-.4-1-1-1z"/></svg>