<svg xmlns="http://www.w3.org/2000/svg" height="16" viewBox="0 0 16 16"><g fill="#949494"><path d="M14.1 8c0-.3 0-.6-.1-1l2-1.7-1.7-2.7-2.3.8c-.6-.5-1.2-.9-1.9-1.1L9.6 0H6.4l-.5 2.2c-.7.3-1.4.7-1.9 1.2l-2.3-.8L0 5.3 1.9 7c0 .3-.1.6-.1 1 0 .3 0 .6.1 1L0 10.7l1.7 2.7 2.3-.8c.6.5 1.2.9 1.9 1.1l.5 2.3h3.2l.5-2.2c.7-.3 1.3-.6 1.9-1.1l2.3.8 1.7-2.7L14.1 9V8zm.6 2.9l-.8 1.3-1.6-.5-.5-.2-.4.4c-.5.4-1 .7-1.6.9l-.5.2-.1.5-.4 1.5H7.2l-.3-1.5-.2-.5-.5-.2c-.6-.2-1.1-.5-1.6-.9l-.4-.4-.5.2-1.6.5-.8-1.3 1.3-1.2.4-.3-.1-.6c0-.3-.1-.6-.1-.8s0-.5.1-.8l.1-.5-.4-.4-1.3-1.2.8-1.3 1.6.5.5.2.4-.4c.5-.4 1-.7 1.6-.9l.5-.2.1-.5.4-1.5h1.6l.3 1.5.2.5.5.2c.6.2 1.1.5 1.6.9l.4.4.5-.2 1.6-.5.8 1.3-1.3 1.2-.4.3.1.5c0 .3.1.6.1.8s0 .5-.1.8l-.1.7.4.4 1.3 1.1z"/><path d="M8 5C6.3 5 5 6.3 5 8s1.3 3 3 3 3-1.3 3-3-1.3-3-3-3zm0 4.7c-.9 0-1.7-.8-1.7-1.7S7.1 6.3 8 6.3s1.7.8 1.7 1.7S8.9 9.7 8 9.7z"/></g></svg>