<svg xmlns="http://www.w3.org/2000/svg" height="20" viewBox="0 0 20 20"><g fill="#949494"><path d="M17.7 10c0-.4 0-.8-.1-1.2L20 6.7l-2.1-3.4-2.9.9c-.7-.6-1.5-1.1-2.4-1.4L12 0H8l-.6 2.8c-.9.3-1.7.8-2.4 1.4l-2.9-.9L0 6.7l2.4 2.1c0 .4-.1.8-.1 1.2s0 .8.1 1.2L0 13.3l2.1 3.4 2.9-.9c.7.6 1.5 1.1 2.4 1.4L8 20h4l.6-2.8c.9-.3 1.7-.8 2.4-1.4l2.9.9 2.1-3.4-2.4-2.1c0-.4.1-.8.1-1.2zm.7 3.6l-1.1 1.7-2.6-.9-.5.4c-.6.5-1.3.9-2 1.2l-.6.2-.6 2.6H9l-.6-2.5-.6-.2c-.7-.3-1.4-.7-2-1.2l-.5-.4-2.6.9-1.1-1.7 2.2-1.9-.2-.8c-.1-.4-.1-.7-.1-1s0-.6.1-1l.1-.7-2.1-1.9 1.1-1.7 2.6.9.5-.4c.6-.5 1.3-.9 2-1.2l.6-.2.6-2.6h2l.6 2.5.6.2c.7.3 1.4.7 2 1.2l.5.4 2.6-.9 1.1 1.7-2.2 1.9.2.8c.1.4.1.7.1 1s0 .6-.1 1l-.1.7 2.1 1.9z"/><path d="M10 7c-1.7 0-3 1.3-3 3s1.3 3 3 3 3-1.3 3-3-1.3-3-3-3zm0 4.7c-.9 0-1.7-.8-1.7-1.7s.8-1.7 1.7-1.7 1.7.8 1.7 1.7-.8 1.7-1.7 1.7z"/></g></svg>