<svg xmlns="http://www.w3.org/2000/svg" height="16" viewBox="0 0 16 16"><path d="M0 0v16h16V0H0zm15 15H1V1h14v14z"/><path d="M3.2 12l1.8-.5c.4.4.9.6 1.4.8l.4 1.7h2.4l.4-1.7c.5-.2 1-.5 1.4-.8l1.7.6 1.2-2-1.5-1.3c0-.2.1-.5.1-.7s0-.5-.1-.7L14 6l-1.2-2-1.8.5c-.4-.4-.9-.6-1.4-.8L9.2 2H6.8l-.4 1.7c-.5.2-1 .5-1.4.8L3.2 4 2 6l1.5 1.3c0 .2-.1.5-.1.7 0 .2 0 .5.1.7L2 10l1.2 2zm1.3-2.9l-.1-.5V8v-.6l.1-.5-1.2-1.1.4-.6 1.5.5.4-.4c.4-.3.7-.5 1.2-.7l.5-.2.3-1.4h.8l.3 1.4.5.2c.5.2.8.4 1.2.7l.4.4 1.5-.5.4.6-1.2 1.1.1.5v1.2l-.1.5 1.2 1.1-.4.6-1.5-.5-.4.4c-.4.3-.7.5-1.2.7l-.5.2-.3 1.4h-.8l-.3-1.4-.5-.2c-.5-.2-.8-.4-1.2-.7l-.4-.4-1.5.5-.4-.6 1.2-1.1z"/><path d="M8 10c1.1 0 2-.9 2-2s-.9-2-2-2-2 .9-2 2 .9 2 2 2zm0-3c.6 0 1 .4 1 1s-.4 1-1 1-1-.4-1-1 .4-1 1-1z"/></svg>