<svg xmlns="http://www.w3.org/2000/svg" height="30" viewBox="0 0 30 30"><g fill="#949494"><path d="M25.7 15c0-.6-.1-1.1-.1-1.7l3.4-3-2.9-4.8L22 6.9c-1-.8-2.1-1.5-3.3-2L17.8 1h-5.6l-.9 3.9c-1.2.5-2.4 1.1-3.3 2L3.9 5.6 1 10.3l3.4 3c-.1.5-.1 1.1-.1 1.7 0 .6.1 1.1.1 1.7l-3.4 3 2.9 4.8L8 23.1c1 .8 2.1 1.5 3.3 2l.9 3.9h5.6l.9-3.9c1.2-.5 2.4-1.1 3.3-2l4.1 1.3 2.9-4.8-3.4-3c.1-.5.1-1 .1-1.6zm.7 5.1l-1.2 2-2.6-.8-1.1-.4-.9.7c-.8.7-1.7 1.2-2.7 1.6l-1 .4-.2 1.1-.5 2.3h-2.4l-.5-2.4-.3-1-1-.4c-1-.4-1.9-.9-2.7-1.6l-.9-.7-1.1.4-2.5.7-1.2-2 2.1-1.9.8-.7-.2-1.1c-.1-.5-.1-1-.1-1.4 0-.4 0-.9.1-1.4l.2-1.1-.8-.7-2.1-1.8 1.2-2 2.6.8 1.1.4.9-.7c.7-.7 1.6-1.2 2.6-1.6l1-.4.2-1.1.6-2.3h2.4l.5 2.4.3 1 1 .4c1 .4 1.9.9 2.7 1.6l.9.7 1.1-.4 2.5-.7 1.2 2-2.1 1.9-.8.7.2 1.1c.1.5.1 1 .1 1.4 0 .4 0 .9-.1 1.4l-.2 1.1.8.7 2.1 1.8z"/><path d="M15 10c-2.8 0-5 2.2-5 5s2.2 5 5 5 5-2.2 5-5-2.2-5-5-5zm0 7.5c-1.4 0-2.5-1.1-2.5-2.5s1.1-2.5 2.5-2.5 2.5 1.1 2.5 2.5-1.1 2.5-2.5 2.5z"/></g></svg>