<svg xmlns="http://www.w3.org/2000/svg" height="20" viewBox="0 0 20 20"><path d="M19 1v18H1V1h18m1-1H0v20h20V0z"/><path d="M10.6 4l.4 1.7.5.2c.5.2 1 .5 1.4.8l.4.4 1.8-.6.6 1-1.5 1.3.1.5c0 .3.1.5.1.7 0 .2 0 .4-.1.7l-.1.5 1.5 1.3-.6 1-1.8-.6-.4.4c-.4.3-.9.6-1.4.8l-.5.2-.4 1.7H9.4L9 14.3l-.5-.2c-.5-.2-1-.5-1.4-.8l-.4-.4-1.8.6-.6-1 1.5-1.3-.1-.5c0-.3-.1-.5-.1-.7 0-.2 0-.4.1-.7l.1-.5-1.5-1.3.6-1 1.8.6.4-.4c.4-.3.9-.6 1.4-.8l.5-.2.4-1.7h1.2m.8-1H8.6l-.5 2c-.6.2-1.1.5-1.6 1l-2-.7L3 7.7l1.7 1.5c0 .3-.1.6-.1.8 0 .3 0 .6.1.8L3 12.3l1.4 2.4 2-.7c.5.4 1 .8 1.7 1l.5 2h2.8l.5-2c.6-.2 1.2-.6 1.7-1l2 .7 1.4-2.4-1.7-1.5c0-.3.1-.6.1-.8s0-.6-.1-.8L17 7.7l-1.4-2.4-2 .7c-.5-.4-1-.8-1.7-1l-.5-2z"/><path d="M10 8.5c.8 0 1.5.7 1.5 1.5s-.7 1.5-1.5 1.5-1.5-.7-1.5-1.5.7-1.5 1.5-1.5m0-1c-1.4 0-2.5 1.1-2.5 2.5s1.1 2.5 2.5 2.5 2.5-1.1 2.5-2.5-1.1-2.5-2.5-2.5z"/></svg>