<svg xmlns="http://www.w3.org/2000/svg" height="30" viewBox="0 0 30 30"><path d="M20.6 1.8l.3 1.4.2 1 .9.3c.7.2 1.3.6 1.8 1.1l.8.7 1-.3 1.6-.5.5.9-1.3 1.1-.7.7.2 1c.1.3.1.6.1.9 0 .3 0 .6-.1.9l-.2 1 .7.7 1.3 1.1-.5.9-1.6-.5-1-.3-.8.7c-.5.5-1.1.8-1.8 1.1l-.9.3-.2 1-.3 1.4h-1.1l-.3-1.4-.2-1-1-.5c-.7-.2-1.3-.6-1.8-1.1l-.8-.7-1 .3-1.6.5-.5-.9 1.3-1.1.7-.7-.2-1c-.1-.3-.1-.6-.1-.9 0-.3 0-.6.1-.9l.2-1-.7-.7-1.3-1.1.5-.9 1.6.5 1 .3.8-.7c.5-.5 1.1-.8 1.8-1.1l.9-.3.2-1 .3-1.4h1.2M22 0h-4l-.6 2.8c-.9.3-1.7.8-2.4 1.4l-2.9-.9L10 6.7l2.4 2.1c-.1.4-.1.8-.1 1.2 0 .4 0 .8.1 1.2L10 13.3l2.1 3.4 2.9-.9c.7.6 1.5 1.1 2.4 1.4L18 20h4l.6-2.8c.9-.3 1.7-.8 2.4-1.4l2.9.9 2.1-3.4-2.4-2.1c.1-.4.1-.8.1-1.2s0-.8-.1-1.2L30 6.7l-2.1-3.4-2.9.9c-.7-.6-1.5-1.1-2.4-1.4L22 0z"/><path d="M20 8c1.1 0 2 .9 2 2s-.9 2-2 2-2-.9-2-2 .9-2 2-2m0-1.5c-1.9 0-3.5 1.6-3.5 3.5s1.6 3.5 3.5 3.5 3.5-1.6 3.5-3.5-1.6-3.5-3.5-3.5zm-11.6 9l.2 1.1.2.8.8.3c.5.2 1 .5 1.4.8l.6.6.8-.3 1.2-.4.4.6-1 .9-.6.5.1.8c0 .3.1.5.1.7 0 .2 0 .5-.1.7l-.1.8.6.5 1 .9-.4.6-1.2-.4-.8-.3-.6.8c-.4.4-.9.7-1.4.8l-.8.3-.2.8-.2 1.1h-.8l-.2-1.1-.2-.8-.8-.3c-.5-.2-1-.5-1.4-.8l-.6-.6-.8.3-1.2.4-.5-.6 1-.9.6-.5-.1-.8c0-.3-.1-.5-.1-.7 0-.2 0-.5.1-.7l.1-.8-.6-.5-1-.9.4-.6 1.2.4.8.3.7-.8c.4-.4.9-.7 1.4-.8l.8-.3.2-.8.2-1.1h.8M9.6 14H6.4l-.5 2.2c-.7.3-1.3.6-1.9 1.1l-2.3-.8L0 19.3 1.9 21c0 .3-.1.6-.1 1 0 .3 0 .6.1 1L0 24.7l1.7 2.7 2.3-.8c.6.5 1.2.9 1.9 1.1l.5 2.3h3.2l.5-2.2c.7-.3 1.3-.6 1.9-1.1l2.3.8 1.7-2.7-1.9-1.8c0-.3.1-.6.1-1s0-.6-.1-1l1.9-1.7-1.7-2.7-2.3.8c-.6-.5-1.2-.9-1.9-1.1L9.6 14z"/><path d="M8 20.8c.7 0 1.2.5 1.2 1.2s-.5 1.2-1.2 1.2-1.2-.5-1.2-1.2.5-1.2 1.2-1.2m0-1.3c-1.4 0-2.5 1.1-2.5 2.5s1.1 2.5 2.5 2.5 2.5-1.1 2.5-2.5-1.1-2.5-2.5-2.5z"/></svg>