<svg xmlns="http://www.w3.org/2000/svg" height="20" viewBox="0 0 20 20"><circle cx="10" cy="10" r="2.5"/><path d="M10.8 18.8V20c1.2-.1 2.4-.4 3.5-.9l-.6-1c-.9.3-1.9.6-2.9.7zM2 6.3l-1-.6C.5 6.8.1 8 0 9.2h1.2c.1-1 .4-2 .8-2.9zM5.7 19c1.1.5 2.3.9 3.5 1v-1.2c-1-.1-2-.4-2.9-.8l-.6 1zM1.2 10.8H0c.1 1.2.5 2.4 1 3.5l1-.6c-.4-.9-.7-1.9-.8-2.9zM14.3 1C13.2.5 12 .1 10.8 0v1.2c1 .1 2 .4 2.9.8l.6-1zM9.2 1.2V0C8 .1 6.8.5 5.7 1l.6 1c.9-.4 1.9-.7 2.9-.8zM18 13.7l1 .6c.5-1.1.8-2.2.9-3.5h-1.2c0 1-.3 2-.7 2.9zM1.8 4.3l1 .6c.6-.8 1.3-1.5 2.1-2.1l-.6-1c-1 .7-1.8 1.5-2.5 2.5zM2.8 15.1l-1 .6c.7 1 1.6 1.9 2.6 2.6l.6-1c-.9-.7-1.6-1.4-2.2-2.2zM18.8 9.2H20c-.1-1.2-.5-2.4-1-3.5l-1 .6c.4.9.7 1.9.8 2.9zM17.2 4.9l1-.6c-.7-1-1.6-1.9-2.6-2.6l-.6 1c.9.7 1.6 1.4 2.2 2.2zM15.1 17.2l.6 1c1-.7 1.9-1.6 2.6-2.6l-1-.6c-.7.9-1.4 1.6-2.2 2.2z"/></svg>