<svg xmlns="http://www.w3.org/2000/svg" height="30" viewBox="0 0 30 30"><path d="M3.1 16h-2c.1 1.8.6 3.5 1.4 5.1l1.7-1c-.6-1.3-1-2.6-1.1-4.1zM8.9 27.6c1.6.8 3.3 1.2 5.1 1.4v-2c-1.5-.1-2.8-.5-4.1-1.1l-1 1.7zM4.2 9.9l-1.7-1c-.8 1.6-1.2 3.3-1.4 5.1h2c.1-1.5.5-2.8 1.1-4.1zM16 3.1c1.5.1 2.8.5 4.1 1.1l1-1.7c-1.6-.8-3.3-1.2-5.1-1.4v2zM16 26.9v2c1.8-.1 3.5-.6 5.1-1.4l-1-1.7c-1.3.6-2.6 1-4.1 1.1zM14 3.1v-2c-1.8.1-3.5.6-5.1 1.4l1 1.7c1.3-.6 2.6-1 4.1-1.1zM5.2 21.8l-1.7 1c1 1.5 2.3 2.7 3.7 3.7l1-1.7C7 24 6 23 5.2 21.8zM3.4 7.2l1.7 1C6 7 7 6 8.2 5.2l-1-1.7c-1.5.9-2.8 2.2-3.8 3.7zM21.8 24.8l1 1.7c1.5-1 2.7-2.3 3.7-3.7l-1.7-1c-.8 1.2-1.8 2.2-3 3zM26.9 14h2c-.1-1.8-.6-3.5-1.4-5.1l-1.7 1c.6 1.3 1 2.6 1.1 4.1zM24.8 8.2l1.7-1c-1-1.5-2.3-2.7-3.7-3.7l-1 1.7c1.2.8 2.2 1.8 3 3zM25.8 20.1l1.7 1c.8-1.6 1.2-3.3 1.4-5.1h-2c-.1 1.5-.5 2.8-1.1 4.1z"/><circle cx="15" cy="15" r="3"/></svg>