<svg xmlns="http://www.w3.org/2000/svg" height="30" viewBox="0 0 30 30"><circle cx="22.5" cy="15" r="2.5"/><path d="M27.8 10.4C26.4 8.9 24.6 8 22.5 8s-3.9.9-5.3 2.4S15 14 15 16.3c0 2.4 1 4.5 2.2 6.2l4.5 7.1c.2.3.5.4.8.4s.6-.1.8-.4l4.5-7.1c1.2-1.8 2.2-3.8 2.2-6.2 0-2.3-.8-4.4-2.2-5.9zm-1.5 11.1l-3.8 5.9-3.8-6c-.9-1.3-1.9-3.1-1.9-5.2 0-1.8.6-3.4 1.7-4.7 1.1-1.2 2.5-1.8 4-1.8s2.9.7 4 1.8c1.1 1.2 1.7 2.9 1.7 4.7 0 2.2-1 3.9-1.9 5.3z"/><path d="M4 28V5h20v1.1c.7.1 1.4.3 2 .6V0H2v30h17.6l-1.3-2H4z"/></svg>