<svg xmlns="http://www.w3.org/2000/svg" height="16" viewBox="0 0 16 16"><circle cx="8" cy="8" r="2"/><path d="M11.5.8C10.6.4 9.6.1 8.6 0v1c.8.1 1.6.3 2.4.6l.5-.8zM1 8.6H0c.1 1 .3 2 .8 2.9l.9-.5c-.4-.8-.6-1.6-.7-2.4zM4.5 15.2c.9.4 1.8.7 2.9.8v-1c-.8-.1-1.6-.3-2.4-.6l-.5.8zM1.7 5l-.9-.5C.4 5.4.1 6.4 0 7.4h1c.1-.8.3-1.6.7-2.4zM8.6 15v1c1-.1 2-.3 2.9-.8l-.5-.9c-.8.4-1.6.6-2.4.7zM7.4 1V0c-1 .1-2 .3-2.9.8l.5.9c.8-.4 1.6-.6 2.4-.7zM1.4 3.5l.9.5c.4-.7 1-1.3 1.7-1.7l-.5-.9C2.7 2 2 2.7 1.4 3.5zM2.3 12l-.9.5c.6.8 1.3 1.5 2.1 2.1l.5-.9c-.7-.4-1.3-1-1.7-1.7zM12 13.7l.5.9c.8-.6 1.5-1.3 2.1-2.1l-.9-.5c-.4.7-1 1.3-1.7 1.7zM14.3 11l.9.5c.4-.9.7-1.8.8-2.9h-1c-.1.8-.3 1.6-.7 2.4zM15 7.4h1c-.1-1-.3-2-.8-2.9l-.9.5c.4.8.6 1.6.7 2.4zM13.7 4l.9-.5c-.6-.8-1.3-1.5-2.1-2.1l-.5.9c.7.4 1.3 1 1.7 1.7z"/></svg>