<svg xmlns="http://www.w3.org/2000/svg" height="20" viewBox="0 0 20 20"><path d="M5.5 15C7.4 15 9 13.4 9 11.5S7.4 8 5.5 8 2 9.6 2 11.5 3.6 15 5.5 15zm0-5.8c1.3 0 2.3 1 2.3 2.3s-1 2.3-2.3 2.3-2.3-1-2.3-2.3 1-2.3 2.3-2.3zM8.6 16H2.4c-.8 0-1.4.6-1.4 1.4V20h9v-2.6c0-.8-.6-1.4-1.4-1.4zM14 4.5C14 2.6 12.4 1 10.5 1S7 2.6 7 4.5 8.6 8 10.5 8 14 6.4 14 4.5zm-3.5 2.3c-1.3 0-2.3-1-2.3-2.3s1-2.3 2.3-2.3 2.3 1 2.3 2.3-1 2.3-2.3 2.3zm1.5 4.7c0 1.9 1.6 3.5 3.5 3.5s3.5-1.6 3.5-3.5S17.4 8 15.5 8 12 9.6 12 11.5zm3.5-2.3c1.3 0 2.3 1 2.3 2.3s-1 2.3-2.3 2.3-2.3-1-2.3-2.3 1-2.3 2.3-2.3zm3.1 6.8h-6.3c-.8 0-1.4.6-1.4 1.4V20h9v-2.6c.1-.8-.5-1.4-1.3-1.4z" fill="#949494"/></svg>