<svg xmlns="http://www.w3.org/2000/svg" height="16" viewBox="0 0 16 16"><path d="M4 12c1.7 0 3-1.3 3-3S5.7 6 4 6 1 7.3 1 9s1.3 3 3 3zm0-5c1.1 0 2 .9 2 2s-.9 2-2 2-2-.9-2-2 .9-2 2-2zm4-1c1.7 0 3-1.3 3-3S9.7 0 8 0 5 1.3 5 3s1.3 3 3 3zm0-5c1.1 0 2 .9 2 2s-.9 2-2 2-2-.9-2-2 .9-2 2-2zm1 8c0 1.7 1.3 3 3 3s3-1.3 3-3-1.3-3-3-3-3 1.3-3 3zm3-2c1.1 0 2 .9 2 2s-.9 2-2 2-2-.9-2-2 .9-2 2-2zm2.6 6H9.4c-.8 0-1.4.6-1.4 1.4 0-.8-.6-1.4-1.4-1.4H1.4c-.8 0-1.4.6-1.4 1.4V16h16v-1.6c0-.8-.6-1.4-1.4-1.4z" fill="#949494"/></svg>