<svg xmlns="http://www.w3.org/2000/svg" height="30" viewBox="0 0 30 30"><path d="M18.8 8.1c-.9-.9-2.2-1.3-3.8-1.3-1.5 0-2.7.4-3.6 1.2-.9.8-1.5 2-1.7 3.5v.2l2.4.3v-.2c.2-1 .5-1.8 1-2.3.5-.5 1.1-.7 1.9-.7.8 0 1.4.3 1.9.8s.8 1.1.8 1.8c0 .4-.1.7-.3 1-.2.3-.6.8-1.2 1.3-.7.6-1.1 1.1-1.4 1.4-.4.4-.6.9-.8 1.3-.2.6-.3 1.2-.3 1.9v.8H16v-.2c0-.7.1-1.1.2-1.5.1-.3.2-.6.4-.8.2-.3.6-.7 1.2-1.2 1-.9 1.6-1.6 1.9-2.2.3-.6.5-1.3.5-2 .1-1.2-.4-2.2-1.4-3.1zm-5 12.7h2.5v2.5h-2.5z"/><path d="M15 1C7.3 1 1 7.3 1 15s6.3 14 14 14 14-6.3 14-14S22.7 1 15 1zm0 26C8.4 27 3 21.6 3 15S8.4 3 15 3s12 5.4 12 12-5.4 12-12 12z"/></svg>