<svg xmlns="http://www.w3.org/2000/svg" height="30" viewBox="0 0 30 30"><path d="M15 1C7.3 1 1 7.3 1 15s6.3 14 14 14 14-6.3 14-14S22.7 1 15 1zm1.2 23h-2.5v-2.5h2.5V24zM20 12.8c-.3.6-1 1.4-2 2.3l-1.2 1.2c-.2.2-.3.5-.4.9-.1.4-.1.8-.2 1.5v.3h-2.4V18.1c0-.8.1-1.4.3-2 .2-.5.4-.9.8-1.4.3-.3.8-.8 1.5-1.4.7-.6 1.1-1.1 1.3-1.4.2-.3.3-.7.3-1.1 0-.7-.3-1.3-.8-1.9-.6-.5-1.2-.8-2-.8s-1.4.2-1.9.7c-.5.5-.9 1.3-1 2.4v.2l-2.6-.3v-.3c.2-1.6.8-2.8 1.7-3.7.8-.7 2.1-1.1 3.6-1.1 1.6 0 3 .5 4 1.4 1 .9 1.5 2 1.5 3.3 0 .8-.2 1.5-.5 2.1z"/></svg>