<svg xmlns="http://www.w3.org/2000/svg" height="20" viewBox="0 0 20 20"><path d="M10 0C4.5 0 0 4.5 0 10s4.5 10 10 10 10-4.5 10-10S15.5 0 10 0zm0 18.8c-4.9 0-8.8-3.9-8.8-8.8S5.1 1.2 10 1.2s8.8 3.9 8.8 8.8-3.9 8.8-8.8 8.8z"/><path d="M10 3.9c-1.1 0-2 .3-2.7.9-.6.6-1 1.5-1.2 2.6v.1l1.7.2v-.1c.1-.8.4-1.4.8-1.8.4-.3.9-.5 1.4-.5.6 0 1.1.2 1.5.6.4.4.6.9.6 1.4 0 .3-.1.6-.2.8-.1.3-.5.6-.9 1-.5.4-.8.8-1 1-.3.3-.5.7-.6 1-.2.4-.2.8-.2 1.3v.5h1.6v-.1c0-.6 0-.8.1-1.1.1-.2.2-.5.3-.7.1-.2.4-.5.9-.9.7-.6 1.2-1.2 1.4-1.6.2-.4.4-.9.4-1.5 0-.9-.4-1.7-1.1-2.4-.7-.4-1.6-.7-2.8-.7zm-.9 10.5h1.7v1.7H9.1z"/></svg>