<svg xmlns="http://www.w3.org/2000/svg" height="20" viewBox="0 0 20 20"><path d="M10 0C4.5 0 0 4.5 0 10s4.5 10 10 10 10-4.5 10-10S15.5 0 10 0zm.9 16.1H9.1v-1.7h1.7v1.7zm2.6-7.4c-.2.5-.7 1-1.4 1.6-.5.4-.8.7-.9.9-.1.2-.2.4-.3.7-.1.3-.1.5-.1 1.1v.1H9.2v-.5c0-.6.1-.9.2-1.3.1-.3.3-.7.6-1 .2-.2.5-.6 1-1s.8-.8.9-1c.1-.2.2-.5.2-.8 0-.5-.2-1-.6-1.4-.4-.4-.9-.6-1.5-.6-.5-.2-1 0-1.4.4-.4.4-.7 1-.8 1.8v.1l-1.7-.3v-.1c.1-1.1.5-2 1.2-2.6.7-.6 1.6-.9 2.7-.9 1.2 0 2.1.3 2.8 1 .7.6 1.1 1.4 1.1 2.4 0 .5-.2 1-.4 1.4z"/></svg>