<svg xmlns="http://www.w3.org/2000/svg" height="30" viewBox="0 0 30 30"><path transform="rotate(-45.001 15 15)" d="M-3.8 14h37.6v2H-3.8z"/><path d="M9 15c0 .7.1 1.4.4 2.1l7.7-7.7c-.7-.3-1.4-.4-2.1-.4-3.3 0-6 2.7-6 6zM15 21c3.3 0 6-2.7 6-6 0-.7-.1-1.4-.4-2.1l-7.7 7.7c.7.3 1.4.4 2.1.4z"/><path d="M5.1 21.4L6.5 20c-1.6-1.3-3-3-4.2-5C5.2 9.9 9.7 7 15 7c1.3 0 2.7.2 3.9.6L20.5 6C18.8 5.4 17 5 15 5 8.3 5 3 9 0 15c1.3 2.5 3 4.7 5.1 6.4zM25 8.6L23.5 10c1.6 1.3 3 3 4.2 5-3 5.2-7.5 8-12.7 8-1.4 0-2.7-.2-3.9-.6L9.5 24c1.7.6 3.5 1 5.5 1 6.7 0 11.9-4 15-10-1.3-2.5-3-4.7-5-6.4z"/></svg>