<svg xmlns="http://www.w3.org/2000/svg" height="16" viewBox="0 0 16 16"><path transform="rotate(-45.001 8 8)" d="M-2.8 7.5h21.6v1H-2.8z"/><path d="M5 8c0 .3.1.7.2 1l1.5-1.5c.1-.3.4-.6.7-.7L9 5.2c-.3-.1-.7-.2-1-.2-1.7 0-3 1.3-3 3zM8.6 9.3L7 10.8c.3.1.7.2 1 .2 1.7 0 3-1.3 3-3 0-.3-.1-.7-.2-1L9.3 8.6c-.2.3-.4.5-.7.7z"/><path d="M2.9 11.3l.7-.7C2.7 9.9 1.8 9.1 1.2 8c1.6-2.6 4-4 6.8-4 .7 0 1.3.1 1.9.2l.8-.8C9.9 3.2 9 3 8 3 4.4 3 1.7 5 0 8c.7 1.3 1.7 2.4 2.9 3.3zM13.1 4.7l-.7.7c.9.7 1.7 1.5 2.4 2.6-1.6 2.6-4 4-6.8 4-.7 0-1.3-.1-1.9-.2l-.8.8c.8.2 1.7.4 2.7.4 3.6 0 6.3-2 8-5-.7-1.3-1.7-2.4-2.9-3.3z"/></svg>