<svg xmlns="http://www.w3.org/2000/svg" height="20" viewBox="0 0 20 20"><path transform="rotate(-45.001 10 10)" d="M-2.2 9.5h24.5v1H-2.2z"/><path d="M3.9 14.2l.7-.7c-1.3-.8-2.5-2-3.5-3.5C3.3 6.8 6.4 5 10 5c1 0 1.9.1 2.8.4l.8-.8C12.5 4.2 11.3 4 10 4 5.5 4 2.1 6.4 0 10c1 1.7 2.3 3.2 3.9 4.2zM16.1 5.8l-.7.7c1.3.8 2.5 2 3.5 3.5-2.1 3.2-5.2 5-8.8 5-1 0-1.9-.1-2.8-.4l-.8.8c1 .4 2.2.6 3.5.6 4.5 0 7.9-2.4 10-6-1-1.7-2.3-3.2-3.9-4.2z"/><path d="M6 10c0 .6.2 1.2.4 1.7l1.9-1.9c.1-.8.7-1.4 1.5-1.5l1.9-1.9c-.5-.2-1.1-.4-1.7-.4-2.2 0-4 1.8-4 4zM10.2 11.7l-1.9 1.9c.5.2 1.1.4 1.7.4 2.2 0 4-1.8 4-4 0-.6-.2-1.2-.4-1.7l-1.9 1.9c-.1.8-.7 1.4-1.5 1.5z"/></svg>