<svg xmlns="http://www.w3.org/2000/svg" height="16" viewBox="0 0 16 16"><path d="M14 14h-.7c-.3-2.3-1.4-3.4-2.3-4.2-.6-.6-1.1-1.1-1.1-1.8s.5-1.2 1.1-1.8c.9-.8 2-1.9 2.3-4.2h.7c.6 0 1-.4 1-1s-.4-1-1-1H2c-.6 0-1 .4-1 1s.4 1 1 1h.7C2.9 4.3 4.1 5.4 5 6.2c.6.6 1.1 1.1 1.1 1.8S5.6 9.2 5 9.8c-.9.8-2 1.9-2.3 4.2H2c-.6 0-1 .4-1 1s.4 1 1 1h12c.6 0 1-.4 1-1s-.4-1-1-1zm-8.5-3.6c.7-.7 1.4-1.3 1.4-2.4s-.7-1.7-1.4-2.4c-.8-.8-1.8-1.7-2-3.6h9.1c-.2 1.9-1.2 2.8-2 3.6-.8.7-1.5 1.3-1.5 2.4s.7 1.7 1.4 2.4c.8.7 1.6 1.5 2 3.1C10.7 12 8.9 12 8 12c-1 0-2.7.1-4.4 1.5.3-1.6 1.1-2.4 1.9-3.1z"/><path d="M10 4H6c0 1 .9 2 2 2 1.3 0 2-1 2-2z"/></svg>