<svg xmlns="http://www.w3.org/2000/svg" height="20" viewBox="0 0 20 20"><path d="M16.5 17H16c0-3-1.6-4.3-2.7-5.3-.8-.7-1.3-1.1-1.3-1.7s.5-1 1.3-1.7C14.4 7.3 16 6 16 3h.5c.8 0 1.5-.7 1.5-1.5S17.3 0 16.5 0h-13C2.7 0 2 .7 2 1.5S2.7 3 3.5 3H4c0 3 1.6 4.3 2.7 5.3C7.5 9 8 9.4 8 10s-.5 1-1.3 1.7C5.6 12.7 4 14 4 17h-.5c-.8 0-1.5.7-1.5 1.5S2.7 20 3.5 20h13c.8 0 1.5-.7 1.5-1.5s-.7-1.5-1.5-1.5zM3.5 2c-.3 0-.5-.2-.5-.5s.2-.5.5-.5h13c.3 0 .5.2.5.5s-.2.5-.5.5h-13zm3.9 10.5C8.2 11.8 9 11.1 9 10s-.8-1.8-1.6-2.5C6.3 6.6 5 5.5 5 3h10c0 2.5-1.3 3.6-2.4 4.5-.8.7-1.6 1.4-1.6 2.5s.8 1.8 1.6 2.5c1.1.9 2.4 2 2.4 4.5-1-2.5-3.6-3-5-3-1.5 0-4 .5-5 3 0-2.5 1.3-3.6 2.4-4.5zm9.1 6.5h-13c-.3 0-.5-.2-.5-.5s.2-.5.5-.5h13c.3 0 .5.2.5.5s-.2.5-.5.5z"/><path d="M12.5 5h-5c0 1.5 1.4 3 2.5 3 1.3 0 2.5-1.5 2.5-3z"/></svg>