<svg xmlns="http://www.w3.org/2000/svg" height="30" viewBox="0 0 76 30"><path d="M0 0h14v2H0zm0 4h14v2H0zm0 20h14v2H0zm0 4h14v2H0zm4-8h6v2H4zm0-4h6v2H4zm0-4h6v2H4zm0-4h6v2H4zm16 0h6v2h-6zm26 8h6v2h-6zm0 4h6v2h-6zm-4 4h10v2H42zm24 0h10v2H66zm0 4h10v2H66zm-24 0h10v2H42zm24-12h6v2h-6zm0 4h6v2h-6zm-46 0h6v2h-6zM52.7 0H42v2h11.5zm1.6 4H42v2h13.1zm1.6 4H46v2h10.6zm1.5 4H46v2h12.2zm7.4 4H53.3l.7 2h10zm-10 4h8.4l-.8 2h-6.8zm1.6 4h5.2l-.8 2h-3.6zm1.6 4h2l-.8 2h-.4zm7.1-28H76v2H64.3zm-1.6 4H76v2H62.7zM62 8h10v2H61.2zm-1.7 4H72v2H59.5zM31 30H16v-2h21.1c-.9.8-3.4 2-6.1 2zm8.8-6H16v2h23c.3-.5.7-1.3.8-2zm-.3-4H33v2h6.8c.1-.5-.1-1.4-.3-2zm-3.3-4H20v2h18.5c-.2-.5-1.6-1.8-2.3-2zm2.1-4H20v2h16.1c.7-.3 1.9-1.3 2.2-2zm1.4-4H33v2h6.4c.2-.4.4-1.2.3-2zm-.9-4H16v2h23.6c0-.6-.5-1.7-.8-2zM16 0v2h21c-.6-.5-3-2-6.1-2H16z"/></svg>