<svg xmlns="http://www.w3.org/2000/svg" height="45" viewBox="0 0 114 45"><path d="M0 0h21v3H0zm0 6h21v3H0zm0 30h21v3H0zm0 6h21v3H0zm6-12h9v3H6zm0-6h9v3H6zm0-6h9v3H6zm0-6h9v3H6zm24 0h9v3h-9zm39 12h9v3h-9zm0 6h9v3h-9zm-6 6h15v3H63zm36 0h15v3H99zm0 6h15v3H99zm-36 0h15v3H63zm36-18h9v3h-9zm0 6h9v3h-9zm-69 0h9v3h-9zM79 0H63v3h17.2zm2.4 6H63v3h19.6zm2.4 6H69.1v3H85zm2.4 6H69v3h18.4zm11 6H79.9l1.2 3H96zm-14.9 6h12.5l-1.2 3H83.5zm2.4 6h7.7l-1.2 3h-5.4zm2.3 6h3l-1 3h-1zM97.7 0H114v3H96.4zm-2.4 6H114v3H94.1zm-2.4 6H108v3H91.8zm-2.4 6H108v3H89.3zm-44 27H24v-3h31.7c-1.4 1.3-5.2 3-9.2 3zm13.1-9H24v3h34.5c.5-.7 1.1-2 1.1-3zm-.4-6H49v3h10.8c.1-.8-.2-2.1-.6-3zm-4.9-6H30v3h27.7c-.2-.7-2.4-2.7-3.4-3zm3.2-6H30v3h24.1c1.2-.5 3-1.9 3.4-3zm2.1-6H49v3h10.1c.2-.6.5-1.9.5-3zm-1.4-6H24v3h35.4c0-.9-.8-2.5-1.2-3zM24 0v3h31.5c-1-.7-4.5-3-9.2-3H24z"/></svg>