<svg xmlns="http://www.w3.org/2000/svg" height="15" viewBox="0 0 38 15"><path d="M0 0h7v1H0zm0 2h7v1H0zm0 10h7v1H0zm0 2h7v1H0zm2-4h3v1H2zm0-2h3v1H2zm0-2h3v1H2zm0-2h3v1H2zm8 0h3v1h-3zm13 4h3v1h-3zm0 2h3v1h-3zm-2 2h5v1h-5zm12 0h5v1h-5zm0 2h5v1h-5zm-12 0h5v1h-5zm12-6h3v1h-3zm0 2h3v1h-3zm-23 0h3v1h-3zM26.3 0H21v1h5.7zm.8 2H21v1h6.5zm.8 2H23v1h5.3zm.8 2H23v1h6.1zm3.7 2h-5.8l.4 1h5zm-5 2h4.2l-.4 1h-3.4zm.8 2h2.6l-.4 1h-1.8zm.8 2h1l-.4 1h-.2zm3.6-14H38v1h-5.8zm-.8 2H38v1h-6.6zM31 4h5v1h-5.4zm-.8 2H36v1h-6.2zm-14.7 9H8v-1h10.6c-.5.4-1.8 1-3.1 1zm4.4-3H8v1h11.5c.2-.2.4-.7.4-1zm-.2-2h-3.3v1h3.5c.1-.3 0-.7-.2-1zm-1.6-2H10v1h9.2c0-.2-.8-.9-1.1-1zm1.1-2H10v1h8.1c.3-.2.9-.6 1.1-1zm.7-2h-3.5v1h3.3c.1-.2.2-.6.2-1zm-.5-2H8v1h11.8c0-.3-.3-.8-.4-1zM8 0v1h10.5c-.3-.2-1.5-1-3.1-1H8z"/></svg>