<svg xmlns="http://www.w3.org/2000/svg" height="20" viewBox="0 0 20 20"><path d="M19.5 4.5C21.3-.3 17.7 0 17.7 0c-2.3 0-5.2 2.1-5.2 2.1s-3.4-.9-6.9 1.2C1.8 5.6 2 9.9 2 9.9c3-4.4 7.3-6.1 7.3-6.1V4C3 8.3 1.5 14.6 1.1 15.9.8 17.1 1 20 3.7 20 6.3 20 9 17.9 9 17.9s.6.1 2.1.1c6.6 0 8.2-6 8.2-6h-5.9s-.4 2.1-2.5 2.1C8 14.1 8.2 11 8.2 11h11.2c.5-7.7-5.7-8.6-5.7-8.6s1.9-1.6 4-1.6c3.3 0 1.4 3.3 1.4 3.3l.4.4zM8.7 17.8s-4 2.4-5.9.7c-1-1.7.6-4.1.6-4.1s1.4 2.5 5.3 3.4zm4.8-9.4H8.2s-.1-2.6 2.7-2.6c2.7.1 2.6 2.6 2.6 2.6z"/></svg>