<svg xmlns="http://www.w3.org/2000/svg" height="16" viewBox="0 0 16 16"><path d="M15.6 3.6C17-.3 14.2 0 14.2 0c-1.8 0-4.1 1.7-4.1 1.7s-2.7-.8-5.5.9c-3 1.9-2.9 5.3-2.9 5.3C4.2 4.4 7.5 3 7.5 3v.2c-5 3.4-6.1 8.4-6.4 9.5-.3 1-.1 3.3 2 3.3s4.2-1.7 4.2-1.7.5.1 1.7.1c5.2 0 6.5-4.6 6.5-4.6h-4.6s-.3 1.5-2 1.5c-2.3 0-2.2-2.4-2.2-2.4h8.8C16 2.7 11.2 2 11.2 2S12.4.6 14 .6c2.6 0 1.3 2.5 1.3 2.5l.3.5zM7.1 14.2s-3.2 2-4.6.6c-.8-1.4.5-3.3.5-3.3s1 2 4.1 2.7zm3.8-7.4H6.7s-.1-2.1 2.2-2.1c2.1 0 2 2.1 2 2.1z"/></svg>