<svg xmlns="http://www.w3.org/2000/svg" height="30" viewBox="0 0 30 30"><path d="M29.2 6.7C32-.5 26.5 0 26.5 0c-3.5 0-8 3.2-8 3.2S13.3 1.8 8 4.9c-5.7 3.6-5.6 9.9-5.6 9.9 4.7-6.5 11.2-9.2 11.2-9.2V6C4 12.5 1.8 21.9 1.2 23.8.6 25.7 1 30 5.1 30c4 0 8.1-3.2 8.1-3.2s.9.2 3.3.2C26.6 27 29 18.3 29 18.3h-9s-.6 2.8-3.8 2.8c-4.4 0-4.2-4.5-4.2-4.5h17.1C29.9 5 19.6 3.3 19.6 3.3S23.3.8 26.4.8c5 0 2.6 5.7 2.6 5.7l.2.2zm-16.5 20s-6.2 3.7-8.9 1.1c-1.5-2.5.9-6.1.9-6.1s2 3.7 8 5zm7.4-14H12s-.1-3.9 4.2-3.9c4.1 0 3.9 3.9 3.9 3.9z"/></svg>