<svg xmlns="http://www.w3.org/2000/svg" height="16" viewBox="0 0 16 16"><path d="M1 15l2.4-4L5 12.6z"/><path d="M14.6 1h.4c.2 2.5-1.7 5.2-3.7 7-.3.2-.4.6-.3 1l.7 2.5-3.2 1.9.7-1.5c.2-.4.1-.9-.2-1.2-.2-.2-.4-.3-.7-.3-.1 0-.3 0-.4.1-.5.3-1 .4-1.3.4L5 9.4c.1-.3.2-.8.4-1.3.2-.3.2-.8-.1-1.1-.2-.2-.5-.3-.7-.3-.1 0-.3 0-.4.1l-1.6.8 1.9-3.2L7 5h.3c.2.1.5 0 .7-.3C10.1 2.4 12.5 1 14.6 1m0-1c-2.7 0-5.4 1.9-7.3 4.1L4 3.2 0 9.9l4.6-2.2c-.4.8-.6 1.6-.6 2.1L6.2 12h.1c.5 0 1.2-.2 2-.6L6.1 16l6.7-4-.9-3.2c2.5-2.2 4.7-5.5 3.9-8.6-.4-.2-.8-.2-1.2-.2z"/><circle cx="12.5" cy="3.5" r="1.5"/></svg>