<svg xmlns="http://www.w3.org/2000/svg" height="30" viewBox="0 0 30 30"><path d="M3 27l4-7 3 3z"/><path d="M26.5 2.8h.7c.4 4.3-3 9-6.5 12.1-.5.5-.7 1.2-.5 1.8l1.2 4.3-5.4 3.3 1.2-2.5c.3-.7.2-1.5-.3-2.1-.3-.3-.8-.5-1.3-.5-.3 0-.5.1-.8.2-.9.4-1.6.7-2.2.7l-2.7-2.7c.1-.5.3-1.3.7-2.2.3-.7.2-1.5-.3-2.1-.3-.3-.8-.5-1.3-.5-.3 0-.5.1-.8.2L5.7 14 9 8.6l4.3 1.2c.2 0 .3.1.5.1.5 0 1-.2 1.3-.6 3.6-4.1 7.8-6.5 11.4-6.5m0-1.8C21.8 1 17 4.4 13.7 8.1L8.1 6.6 1 18.4l8-3.9c-.7 1.4-1 2.7-1 3.7l3.8 3.8h.2c.9 0 2.2-.3 3.5-1l-3.9 8 11.8-7.1-1.6-5.6c4.4-3.9 8.2-9.6 6.9-15-.7-.2-1.5-.3-2.2-.3z"/><circle cx="23" cy="7" r="2"/></svg>