<svg xmlns="http://www.w3.org/2000/svg" height="20" viewBox="0 0 20 20"><path d="M1 19l5.7-3.2-2.5-2.5z"/><path d="M19.8.2c-.5-.1-1.1-.2-1.6-.2-3.4 0-6.7 2.4-9.1 5.1L5.1 4 0 12.4l5.7-2.8c-.5 1-.7 2-.7 2.6L7.7 15h.1c.7 0 1.6-.2 2.5-.7L7.6 20l8.4-5.1-1.1-4C18 8.2 20.8 4.1 19.8.2zm-5.6 10c-.3.3-.4.6-.3 1l.9 3.3-4.8 2.9 1.3-2.7c.2-.4.1-.8-.2-1.1-.2-.2-.4-.3-.7-.3-.1 0-.3 0-.4.1-.6.3-1.3.5-1.8.6L6 11.9c.1-.4.2-1 .6-1.8.2-.4.1-.8-.2-1.1-.2-.3-.4-.4-.7-.4-.1 0-.3 0-.4.1L2.6 10l2.9-4.9 3.3.9h.3c.3 0 .6-.1.7-.3 2.6-3 5.8-4.8 8.4-4.8h.8c.5 4.3-3.5 8.1-4.8 9.3z"/><circle cx="15" cy="5" r="2"/></svg>