<svg xmlns="http://www.w3.org/2000/svg" height="20" viewBox="0 0 20 20"><path d="M10 .5C6.7.5 4 3 4 6.1c0 1.4.5 2.6 1.4 3.8l.1.1c.4.4 1.5 1.7 1.5 3.1v1.4c0 .3.2.5.5.5h5c.3 0 .5-.2.5-.5v-1.4c0-1.4 1.1-2.7 1.5-3.1l.1-.1c1-1.2 1.5-2.5 1.5-3.8C16.1 3 13.4.5 10 .5zm3.8 8.8c-.5.6-1.8 2.1-1.8 3.8v.9H8v-.9c0-1.7-1.3-3.2-1.7-3.7l-.1-.1c-.8-1-1.2-2-1.2-3.2 0-2.5 2.3-4.6 5-4.6 2.8 0 5 2.1 5 4.6.1 1.1-.3 2.1-1.2 3.2zM7 18.8c0 .2.1.3.2.5.2.2.6.4 1.1.5.5.1 1.1.2 1.7.2 1.7 0 3-.6 3-1.2V16H7v2.8z" fill="#949494"/></svg>