<svg xmlns="http://www.w3.org/2000/svg" height="16" viewBox="0 0 16 16"><path d="M14.9 1.1C14.2.4 13.3 0 12.3 0s-2 .4-2.6 1.1L8 2.7c-.6.7-1.1 1.6-1.1 2.6 0 .6.2 1.3.4 1.8l-.2.3c-.5-.3-1.1-.5-1.8-.5-1 0-2 .4-2.6 1.1L1.1 9.6c-.7.7-1.1 1.6-1.1 2.7s.4 2 1.1 2.6S2.7 16 3.7 16s2-.4 2.6-1.1L8 13.3c.7-.7 1.1-1.6 1.1-2.6 0-.6-.2-1.3-.4-1.8l.2-.2c.5.3 1.2.4 1.8.4 1 0 2-.4 2.6-1.1l1.6-1.6c.7-.7 1.1-1.6 1.1-2.7s-.4-1.9-1.1-2.6zM8 10.7c0 .7-.3 1.4-.8 1.9l-1.6 1.6c-.5.5-1.2.8-1.9.8A2.732 2.732 0 0 1 1 12.3c0-.7.3-1.4.8-1.9l1.6-1.6C4 8.3 4.6 8 5.3 8c.3 0 .7.1 1 .2L4 10.4 5.6 12l2.3-2.3c0 .3.1.6.1 1zm6.2-5.1l-1.6 1.6c-.6.5-1.2.8-1.9.8-.3 0-.7-.1-1-.2L12 5.6 10.4 4 8.2 6.3c-.1-.3-.2-.6-.2-1 0-.7.3-1.3.8-1.9l1.6-1.6c.5-.5 1.2-.8 1.9-.8s1.4.3 1.9.8.8 1.2.8 1.9-.3 1.4-.8 1.9z"/></svg>