<svg xmlns="http://www.w3.org/2000/svg" height="20" viewBox="0 0 20 20"><path d="M18.6 1.4c-.8-.8-2-1.4-3.3-1.4C14 0 12.9.5 12 1.4l-2 2c-.8.8-1.4 2-1.4 3.3 0 .8.2 1.6.5 2.2l-.2.3c-.7-.3-1.4-.5-2.2-.5-1.3 0-2.5.5-3.3 1.4l-2 2C.5 12.9 0 14 0 15.3s.5 2.5 1.4 3.3 2 1.4 3.3 1.4c1.3 0 2.4-.5 3.3-1.4l2-2c.8-.8 1.4-2 1.4-3.3 0-.8-.2-1.6-.5-2.2l.3-.3c.7.3 1.4.5 2.2.5 1.3 0 2.5-.5 3.3-1.4l2-2C19.5 7.1 20 6 20 4.7s-.5-2.5-1.4-3.3zM10 13.3c0 .9-.3 1.7-1 2.4l-2 2c-.6.6-1.5 1-2.4 1-.9 0-1.7-.3-2.4-1-.6-.6-1-1.5-1-2.4 0-.9.3-1.7 1-2.4l2-2c.6-.6 1.5-1 2.4-1 .4 0 .8.1 1.2.2L5 12.9l1.9 1.9L9.7 12c.2.5.3.9.3 1.3zM17.7 7l-2 2c-.6.6-1.5 1-2.4 1-.4 0-.8-.1-1.2-.2L14.9 7 13 5.1l-2.8 2.8c-.1-.4-.2-.8-.2-1.2 0-.9.3-1.7 1-2.4l2-2c.6-.6 1.5-1 2.4-1 .9 0 1.7.3 2.4 1 .6.6 1 1.5 1 2.4s-.5 1.7-1.1 2.3z"/></svg>