<svg xmlns="http://www.w3.org/2000/svg" height="32" viewBox="0 0 32 32"><path d="M11.3 13h9.3c-.7-1.8-2.5-3-4.7-3-2.1 0-3.9 1.2-4.6 3zM11 15h10v3H11zM11 22.8v.2h10v-3H11v2.8zM16 28c2.1 0 3.8-1.2 4.5-3h-9.1c.8 1.8 2.5 3 4.6 3z"/><circle cx="12.5" cy="6.5" r="2.5"/><circle cx="19.5" cy="6.5" r="2.5"/><path d="M6.6 15.6c-.6.7-1 2-1 3.5 0 2.2.9 4 2 4 .2 0 1.5 0 1.9-2.3.1-.5 1.4-8.7 1.5-9.3h-.1c-1 1-3.3 3.2-4.3 4.1zM25.4 15.6c-1-1-3.4-3.2-4.3-4H21c.1.6 1.4 8.8 1.5 9.3.5 2.3 1.7 2.3 1.9 2.3 1.1 0 2-1.8 2-4 .1-1.5-.3-2.9-1-3.6z"/></svg>