<svg xmlns="http://www.w3.org/2000/svg" height="20" viewBox="0 0 20 20"><path d="M11 18.7v1.2c1.3-.1 2.5-.5 3.6-1.1l-.6-1c-1 .5-1.9.8-3 .9zM15.6 16.8l.6 1.1c.9-.7 1.7-1.7 2.3-2.7l-1-.6c-.5.8-1.1 1.5-1.9 2.2zM18.8 10c0 .9-.1 1.8-.4 2.7l1.1.6c.4-1 .6-2.1.6-3.3h-1.3zM18.6 8h1.2C18.9 3.8 15.4.5 11 .1v1.2c3.7.4 6.7 3.1 7.6 6.7zM1.2 10c0-4.5 3.4-8.2 7.8-8.7V.1C3.9.6 0 4.8 0 10s3.9 9.4 9 9.9v-1.2c-4.4-.5-7.8-4.2-7.8-8.7z"/><path d="M12.5 11H10V6.5c0-.3-.2-.5-.5-.5s-.5.2-.5.5V12h3.5c.3 0 .5-.2.5-.5s-.2-.5-.5-.5z"/><path d="M10 3c-3.9 0-7 3.1-7 7s3.1 7 7 7 7-3.1 7-7-3.1-7-7-7zm0 12.8c-3.2 0-5.8-2.6-5.8-5.8S6.8 4.2 10 4.2s5.8 2.6 5.8 5.8-2.6 5.8-5.8 5.8z"/></svg>