<svg xmlns="http://www.w3.org/2000/svg" height="32" viewBox="0 0 32 32"><path d="M11.3 13h9.3c-.7-1.8-2.5-3-4.7-3-2.1 0-3.9 1.2-4.6 3zm-.3 2h10v3H11zm0 7.8v.2h10v-3H11v2.8zm5 5.2c2.1 0 3.8-1.2 4.5-3h-9.1c.8 1.8 2.5 3 4.6 3z"/><circle cx="12.5" cy="6.5" r="2.5"/><circle cx="19.5" cy="6.5" r="2.5"/><path d="M4.2 15.6c-1 .7-1.6 2-1.6 3.5 0 2.2 1.4 4 3.1 4 .4 0 2.2 0 2.9-2.3.2-.5 2.2-8.7 2.3-9.3h-.2c-1.3 1-4.9 3.2-6.5 4.1zm23.6 0c-1.5-1-5.2-3.2-6.5-4H21c.1.6 2.2 8.8 2.3 9.3.7 2.3 2.6 2.3 2.9 2.3 1.7 0 3.1-1.8 3.1-4 .1-1.5-.6-2.9-1.5-3.6z"/></svg>