<svg xmlns="http://www.w3.org/2000/svg" height="16" viewBox="0 0 16 16"><path d="M13 8c0-2.8-2.2-5-5-5S3 5.2 3 8s2.2 5 5 5 5-2.2 5-5zm-5 3.8c-2.1 0-3.8-1.7-3.8-3.8S5.9 4.2 8 4.2s3.8 1.7 3.8 3.8-1.7 3.8-3.8 3.8z"/><path d="M9.5 8.5H8v-3c0-.3-.2-.5-.5-.5s-.5.2-.5.5v4h2.5c.3 0 .5-.2.5-.5s-.2-.5-.5-.5zM9 14.7v1.2c.9-.1 1.8-.4 2.6-.8l-.6-1c-.7.3-1.3.5-2 .6zM14.8 8c0 .6-.1 1.1-.2 1.6l1.1.6c.2-.6.3-1.4.3-2.2h-1.2zM1.2 8c0-3.4 2.5-6.2 5.8-6.7V.1C3.1.6 0 3.9 0 8s3.1 7.4 7 7.9v-1.2c-3.3-.5-5.8-3.3-5.8-6.7zM14.5 6h1.2C14.9 2.9 12.3.5 9 .1v1.2c2.6.4 4.7 2.2 5.5 4.7zM12.6 13l.6 1.1c.6-.6 1.2-1.2 1.6-1.9l-1-.6c-.3.5-.7 1-1.2 1.4z"/></svg>