<svg xmlns="http://www.w3.org/2000/svg" height="30" viewBox="0 0 30 30"><path d="M24 15c0-5-4-9-9-9s-9 4-9 9 4 9 9 9 9-4 9-9zm-9 7c-3.9 0-7-3.1-7-7s3.1-7 7-7 7 3.1 7 7-3.1 7-7 7z"/><path d="M18 15h-2v-4.5c0-.6-.4-1-1-1s-1 .4-1 1V17h4c.6 0 1-.4 1-1s-.4-1-1-1zM26.8 13h2C27.9 6.5 22.6 1.5 16 1.1v2c5.5.4 9.9 4.6 10.8 9.9zM16 26.9v2c2-.1 3.9-.7 5.6-1.6l-1-1.7c-1.4.8-3 1.2-4.6 1.3zM3 15C3 8.7 7.9 3.6 14 3.1v-2C6.7 1.6 1 7.6 1 15s5.7 13.4 13 13.9v-2C7.9 26.4 3 21.3 3 15zM22.2 24.5l1 1.7c1.5-1.1 2.8-2.5 3.8-4.2l-1.7-1c-.8 1.4-1.8 2.6-3.1 3.5zM27 15c0 1.5-.3 3-.8 4.3l1.8 1c.7-1.6 1.1-3.4 1.1-5.3H27z"/></svg>