<svg xmlns="http://www.w3.org/2000/svg" height="20" viewBox="0 0 20 20"><circle cx="10" cy="6" r="2"/><path d="M10 1.2c1.3 0 2.5.5 3.4 1.5.9 1 1.4 2.4 1.4 3.8 0 1.7-.8 3.1-1.5 4.2L10 15.5l-3.2-4.6C6 9.8 5.2 8.3 5.2 6.6c0-1.5.5-2.8 1.4-3.8.9-1.1 2.1-1.6 3.4-1.6M10 0C8.3 0 6.8.7 5.8 1.9 4.7 3.1 4 4.8 4 6.6c0 1.9.8 3.5 1.8 4.9l3.6 5.2c.1.2.4.3.6.3s.5-.1.6-.3l3.6-5.2c.9-1.4 1.8-3 1.8-4.9 0-1.8-.7-3.5-1.8-4.7C13.2.7 11.7 0 10 0z"/><path d="M17 11h-1.4c-.2.3-.4.7-.6 1h1.3l2.3 7H1.4l2.3-7H5c-.2-.3-.4-.7-.6-1H3l-3 9h20l-3-9z"/></svg>