<svg xmlns="http://www.w3.org/2000/svg" height="16" viewBox="0 0 16 16"><path d="M8 1c1 0 1.9.4 2.7 1.2.7.8 1.1 1.9 1.1 3.1 0 1.3-.6 2.5-1.2 3.4L8 12.3 5.4 8.7c-.6-.9-1.2-2-1.2-3.4 0-1.2.4-2.2 1.1-3.1C6.1 1.4 7 1 8 1m0-1C6.7 0 5.5.6 4.6 1.5c-.9 1-1.4 2.3-1.4 3.7 0 1.5.7 2.8 1.4 3.9l2.9 4.1c.1.2.3.3.5.3s.4-.1.5-.3l2.9-4.1c.8-1.1 1.4-2.4 1.4-3.9s-.5-2.8-1.4-3.7C10.5.6 9.3 0 8 0z"/><circle cx="8" cy="4.8" r="1.6"/><path d="M14 9h-1.3c-.1.2-.3.4-.4.6l-.3.4h1.2l1.4 5H1.3l1.4-5H4l-.3-.4c-.1-.2-.2-.4-.4-.6H2l-2 7h16l-2-7z"/></svg>