<svg xmlns="http://www.w3.org/2000/svg" height="30" viewBox="0 0 30 30"><circle cx="15" cy="8" r="3"/><path d="M15 1.8c1.9 0 3.7.8 5 2.3 1.4 1.5 2.2 3.5 2.2 5.7 0 2.5-1.2 4.6-2.3 6.4L15 23.6l-4.9-7.5C9 14.5 7.8 12.3 7.8 9.8c0-2.2.8-4.2 2.2-5.7 1.3-1.5 3.1-2.3 5-2.3M15 0c-2.5 0-4.7 1.1-6.4 2.9C7 4.6 6 7.1 6 9.8c0 2.9 1.2 5.3 2.6 7.3l5.4 8.4c.2.3.6.5.9.5.4 0 .7-.2.9-.5l5.4-8.4C22.8 15 24 12.7 24 9.8c0-2.7-1-5.2-2.6-6.9C19.7 1.1 17.5 0 15 0z"/><path d="M24.8 17h-1.9c-.2.3-1.4 2-1.4 2h1.9l2.8 9H3.8l2.8-9h1.9s-1.2-1.7-1.4-2H5.2L1 30h28l-4.2-13z"/></svg>