<svg xmlns="http://www.w3.org/2000/svg" height="20" viewBox="0 0 20 20"><circle cx="3" cy="13.5" r="1"/><path d="M12 13h3v1h-3z"/><path d="M9.9 16l1-1 1 1h3l3-2.5L15 11H8.3c-.8-1.2-2.2-2-3.8-2C2 9 0 11 0 13.5S2 18 4.5 18c1.6 0 3-.8 3.8-2h1.6zm-2.5-.6c-.6.9-1.7 1.5-2.9 1.5-1.9 0-3.4-1.5-3.4-3.4s1.5-3.4 3.4-3.4c1.2 0 2.3.5 2.9 1.5l.3.5h6.9l1.7 1.4-1.7 1.4h-2.1L11 13.4l-1.5 1.5H7.7l-.3.5z"/><path d="M19 9.4V6c0-3.3-2.7-6-6-6S7 2.7 7 6v2.6c.5.2 1 .6 1.4 1 1.1-1.4 2.7-2.3 4.6-2.3 3.2 0 5.8 2.6 5.8 5.8s-2.6 5.8-5.8 5.8c-1.6 0-3.1-.7-4.2-1.8-.3.3-.5.6-.9.8C9.2 19.2 11 20 13 20c3.9 0 7-3.1 7-7 0-1.3-.4-2.5-1-3.6zm-1.2-1.5C16.5 6.7 14.9 6 13 6s-3.5.7-4.8 1.9V6c0-2.6 2.2-4.8 4.8-4.8s4.8 2.2 4.8 4.8v1.9z"/></svg>