<svg xmlns="http://www.w3.org/2000/svg" height="16" viewBox="0 0 16 16"><circle cx="3" cy="10.5" r="1"/><path d="M7.7 12.4l.8-.8.8.8h2.3l2.3-1.9-2.3-1.9H6.4C5.8 7.6 4.7 7 3.5 7 1.6 7 0 8.6 0 10.5S1.6 14 3.5 14c1.2 0 2.3-.6 2.9-1.6h1.3zm-2-.4c-.5.7-1.3 1.1-2.2 1.1-1.4 0-2.6-1.2-2.6-2.6s1.2-2.6 2.6-2.6c.9 0 1.7.4 2.2 1.1l.3.5h5.4l1.3 1-1.3 1H9.7l-.5-.5-.6-.6-.7.6-.5.5H6l-.3.5z"/><path d="M15 7.3V4.5C15 2 13 0 10.5 0S6 2 6 4.5v2.3c.3.2.7.4.9.8h.3c.8-.9 2-1.5 3.2-1.5 2.4 0 4.4 2 4.4 4.4 0 2.4-2 4.4-4.4 4.4-1.3 0-2.4-.6-3.2-1.5h-.3l-.6.6c1 1.2 2.5 2 4.2 2 3 0 5.5-2.5 5.5-5.5 0-1.2-.4-2.3-1-3.2zm-1.2-1.1c-.9-.8-2-1.2-3.3-1.2s-2.4.4-3.3 1.1V4.5c0-1.8 1.5-3.3 3.3-3.3s3.3 1.5 3.3 3.4v1.6z"/></svg>