<svg xmlns="http://www.w3.org/2000/svg" height="30" viewBox="0 0 30 30"><circle cx="4.5" cy="19.5" r="1.5"/><path d="M17.5 19h4v1h-4z"/><path d="M12 23h1.5l1.5-1.5 1.5 1.5h5.8l3.7-3.5-3.7-3.5H12c-1.2-1.8-3.2-3-5.5-3C2.9 13 0 15.9 0 19.5S2.9 26 6.5 26c2.3 0 4.3-1.2 5.5-3zm-5.5 1.2c-2.6 0-4.7-2.1-4.7-4.7s2.1-4.7 4.7-4.7c1.6 0 3.1.8 4 2.2l.5.8h10.6l1.8 1.7-1.8 1.7h-4.4L15 19l-2.2 2.2H11l-.5.8c-.9 1.4-2.4 2.2-4 2.2z"/><path d="M27 11.5V8c0-4.4-3.6-8-8-8s-8 3.6-8 8v3.5c-.3.3-.5.6-.8.9.6.3 1.1.7 1.6 1.1 1.6-2.2 4.2-3.6 7.2-3.6 5 0 9 4 9 9s-4 9-9 9c-2.7 0-5.1-1.2-6.7-3-.5.5-1 .9-1.5 1.3 2 2.3 5 3.7 8.2 3.7 6.1 0 11-4.9 11-11 0-2.8-1.1-5.5-3-7.4zm-2-1.7C23.3 8.7 21.2 8 19 8s-4.3.7-6 1.8V8c0-3.3 2.7-6 6-6s6 2.7 6 6v1.8z"/></svg>