<svg xmlns="http://www.w3.org/2000/svg" height="30" viewBox="0 0 30 30"><path d="M21.8 2.8H27V1h-8v8h1.8V4.5c3.7 2 6.2 6 6.2 10.5 0 6.3-4.9 11.4-11 11.9V1.1c-.3-.1-.7-.1-1-.1C7.3 1 1 7.3 1 15s6.3 14 14 14h1c7.3-.5 13-6.6 13-13.9 0-5.4-2.9-9.9-7.2-12.3zm-10.1.7C10.6 4.6 9.6 6.3 9 8.3 7.8 8 6.8 7.6 6 7.1c1.5-1.7 3.5-3 5.7-3.6zM4.8 8.7c1 .7 2.2 1.2 3.7 1.6-.3 1.1-.4 2.4-.5 3.7H3c.2-1.9.8-3.7 1.8-5.3zm0 12.6c-1-1.6-1.6-3.4-1.7-5.3h5c.1 1.3.2 2.6.4 3.7-1.5.4-2.7.9-3.7 1.6zM6 22.9c.8-.5 1.8-.9 3-1.2.7 2.1 1.6 3.8 2.8 4.9-2.3-.7-4.3-2-5.8-3.7zm8 2.8c-1.2-.6-2.3-2.2-3.1-4.5.9-.1 2-.2 3.1-.2v4.7zm0-6.7c-1.3 0-2.5.1-3.6.3-.2-1-.3-2.1-.4-3.3h4v3zm0-5h-4c.1-1.2.2-2.3.4-3.3 1.1.2 2.3.3 3.6.3v3zm0-5c-1.1 0-2.1-.1-3.1-.2.8-2.3 1.9-3.9 3.1-4.5V9z"/></svg>