<svg xmlns="http://www.w3.org/2000/svg" height="20" viewBox="0 0 20 20"><path d="M15.1 2.2H19V1h-6v6h1.2V3.1c2.7 1.4 4.6 4.2 4.6 7.4 0 4.4-3.5 8-7.8 8.3V1h-.5C5.3 1 1 5.3 1 10.5S5.3 20 10.5 20h.5c5-.3 9-4.4 9-9.5 0-3.6-2-6.7-4.9-8.3zm-6.6.1c-1 .8-1.9 2.2-2.4 3.9-.9-.3-1.6-.6-2.2-1C5 3.8 6.6 2.7 8.5 2.3zM5.8 7.4c-.2.8-.2 1.6-.3 2.5H2c.1-1.3.5-2.6 1.1-3.7.8.5 1.7.9 2.7 1.2zm-2.6 7.4c-.6-1.1-1-2.3-1.1-3.7h3.5c0 .9.1 1.7.3 2.5-1.1.3-2 .7-2.7 1.2zm.6 1c.6-.4 1.4-.7 2.3-1 .5 1.8 1.4 3.1 2.4 3.9-1.9-.4-3.5-1.5-4.7-2.9zm6.2 2.6c-1.2-.3-2.3-1.8-2.9-3.9.9-.1 1.9-.3 2.9-.3v4.2zm0-5.4c-1.1 0-2.2.2-3.2.4-.1-.7-.2-1.5-.3-2.3H10V13zm0-3.1H6.5c0-.8.1-1.6.3-2.3 1 .2 2.1.4 3.2.4v1.9zm0-3.1c-1 0-2-.1-2.9-.3.6-2.1 1.7-3.6 2.9-3.9v4.2z"/></svg>