<svg xmlns="http://www.w3.org/2000/svg" height="16" viewBox="0 0 16 16"><path d="M16 1h-6v6h1.2V2.7c2.2 1 3.7 3.2 3.7 5.8 0 3.4-2.6 6.1-5.9 6.4V1h-.5C4.4 1 1 4.4 1 8.5S4.4 16 8.5 16H9c3.9-.3 7-3.5 7-7.5 0-2.7-1.4-5-3.5-6.3H16V1zM6.4 2.3c-.5.6-1 1.4-1.3 2.4-.5-.1-1-.3-1.4-.6.7-.8 1.7-1.4 2.7-1.8zM3.1 4.9c.5.3 1.1.5 1.7.7-.2.8-.3 1.6-.3 2.4H2c.1-1.1.5-2.2 1.1-3.1zm0 7.2c-.6-.9-1-1.9-1-3.1h2.5c0 .8.1 1.6.3 2.3-.8.2-1.3.5-1.8.8zm.6.8c.4-.2.9-.4 1.4-.6.3 1 .8 1.8 1.3 2.4-1-.4-2-1-2.7-1.8zM8 14.6c-.8-.3-1.5-1.2-1.9-2.5.6-.1 1.2-.2 1.9-.2v2.7zm0-3.7c-.8 0-1.5.1-2.2.2-.2-.6-.3-1.4-.3-2.1H8v1.9zM8 8H5.5c0-.7.1-1.5.3-2.1.7.1 1.4.2 2.2.2V8zm0-2.9c-.7 0-1.3-.1-1.9-.2.4-1.3 1.1-2.2 1.9-2.5v2.7z"/></svg>