<svg xmlns="http://www.w3.org/2000/svg" height="30" viewBox="0 0 30 30"><circle cx="7" cy="7" r="2"/><path d="M7 1.8c1.4 0 2.7.6 3.6 1.6 1 1.1 1.6 2.5 1.6 4.1 0 1.8-.9 3.4-1.8 4.7L7 17.5l-3.5-5.3C2.7 11 1.8 9.4 1.8 7.5c0-1.6.6-3 1.6-4.1.9-1 2.2-1.6 3.6-1.6M7 0C5.1 0 3.3.8 2.1 2.2.8 3.6 0 5.5 0 7.5c0 2.2 1 4.1 2.1 5.6l4.2 6.5c.2.3.4.4.7.4.3 0 .5-.1.7-.4l4.2-6.5C13 11.6 14 9.7 14 7.5c0-2.1-.8-4-2.1-5.3C10.7.8 8.9 0 7 0z"/><path d="M20 4l-6.3-2.5c.7.8 1.2 1.8 1.6 2.8l3.9 1.5v21.7L11 24.2v-6.1l-1.7 2.6-.1.1v3.4L2 27V16.4L.6 14.2l-.6-.9V30l10-4 10 4 10-4V0L20 4zm8 20.6l-7.1 2.8V5.8L28 3v21.6z"/></svg>