<svg xmlns="http://www.w3.org/2000/svg" height="16" viewBox="0 0 16 16"><path d="M4 1c.8 0 1.5.3 2.1.9.6.7.9 1.5.9 2.4 0 1-.5 1.9-1 2.6L4 9.7 2 6.9c-.5-.7-1-1.6-1-2.6 0-.9.3-1.7.9-2.3.6-.7 1.3-1 2.1-1m0-1C2.9 0 1.9.5 1.2 1.2.4 2 0 3.1 0 4.3c0 1.2.6 2.3 1.2 3.2l2.4 3.3c.1.1.2.2.4.2s.3-.1.4-.2l2.4-3.3c.7-1 1.2-2 1.2-3.2 0-1.2-.4-2.2-1.2-3C6.1.5 5.1 0 4 0z"/><circle cx="4" cy="4" r="1.5"/><path d="M10.5 3L8.3 1.7c.2.5.4 1 .5 1.5l1.2.7v10.7l-4-2.4v-1.8l-.8 1.1c-.1.1-.1.2-.2.2v.5l-4 2.2V8.9L.3 8c-.1-.1-.2-.3-.3-.5V16l5.5-3 5 3 5.5-3V0l-5.5 3zm4.5 9.4l-4 2.2V3.9l4-2.2v10.7z"/></svg>