<svg xmlns="http://www.w3.org/2000/svg" height="20" viewBox="0 0 20 20"><circle cx="5" cy="5" r="1.5"/><path d="M5 1.2c1 0 1.9.4 2.7 1.2.7.8 1.1 1.9 1.1 3 0 1.3-.6 2.5-1.2 3.4L5 12.4 2.5 8.8c-.6-.9-1.3-2-1.3-3.4 0-1.1.4-2.2 1.1-3C3.1 1.6 4 1.2 5 1.2M5 0C3.6 0 2.4.6 1.5 1.6.6 2.6 0 3.9 0 5.4 0 7 .7 8.3 1.5 9.5l3 4.3c.1.1.3.2.5.2s.4-.1.5-.3l3-4.3C9.3 8.3 10 7 10 5.4c0-1.5-.6-2.9-1.5-3.8C7.6.6 6.4 0 5 0z"/><path d="M13.5 3L9.7 1.1c.4.5.7 1 1 1.6L13 3.9v14.8l-5-2.5v-3.8l-1 1.4v2.4l-5 2.3v-6.1L1 11v9l6.5-3 6 3 6.5-3V0l-6.5 3zM19 16.4l-5 2.3V3.9l5-2.3v14.8z"/></svg>