<svg xmlns="http://www.w3.org/2000/svg" height="16" viewBox="0 0 16 16"><path d="M12.6 7.1c.1-.1.2-.2.3-.2 0 0 .1 0 .4.1.3.1.5.1.7-.1.1-.1.1-.2.1-.4s-.1-.3-.2-.4c-.1 0-.3-.1-.5-.1-.1 0-.2 0-.3.1-.2.1-.3.2-.6.4-.2.2-.4.4-.5.6l-.5.7c-.2-.6-.3-.9-.3-1.1-.1-.2-.2-.5-.4-.7L9 6.3v.3h.4c.3 0 .5.1.6.2.1.1.3.3.4.6l.4 1.6c-.1.2-.3.6-.6 1.1-.3.5-.6.9-.8 1-.1.1-.1.1-.2.1 0 0-.1 0-.2-.1-.2-.1-.3-.2-.5-.2-.1 0-.3.1-.4.2-.1.1-.1.2-.1.4s.1.3.2.4c.2 0 .3.1.5.1s.5-.1.8-.3c.4-.3.9-1 1.5-2.1.3 1.2.4 1.8.5 2 .1.3.3.4.6.4.2 0 .4-.1.6-.3.4-.3.7-.8 1-1.3l-.3-.2c-.2.3-.3.6-.6.7-.1.1-.2.1-.3.1 0 0-.1 0-.1-.1 0 0-.1-.2-.2-.6l-.5-2.2c.3-.4.6-.8.9-1z"/><path d="M14.1 12.9c.7-1.3 1.1-2.6 1.1-3.9 0-.5-.1-1-.2-1.5l-.3-1.2-.6-1.2V5h.7c.5.7.8 1.4 1 2.1.2.6.3 1.2.3 1.9s-.1 1.5-.4 2.2c-.2.7-.6 1.3-.9 1.8h-.7v-.1zM8 12.9c-.7-1.3-1.1-2.6-1.1-3.9 0-.5.1-1 .2-1.5l.3-1.2.6-1.2.1-.1h-.7c-.5.7-.8 1.4-1 2.1-.2.6-.3 1.2-.3 1.9s.1 1.5.4 2.2c.2.6.5 1.2.9 1.8h.7l-.1-.1zM6.7 2.3c-.3-.4-.9-.4-1.5 0-.3.2-.6.6-.8 1-.2.3-.4.7-.6 1.3-.1.1-.2.3-.2.5-.1.2-.2.8-.5.9 0 0-.2.1-.6.1l-.4.8h1.2l-.9 4c-.2 1.1-.3 1.7-.4 1.9-.1.5-.2.8-.4 1-.1.2-.3.4-.4.5-.1.1-.3.2-.4.2H.7l.1-.1c.1-.1.2-.2.2-.4 0-.1 0-.2-.1-.3-.1-.1-.2-.2-.3-.2-.2 0-.3.1-.4.2-.1.2-.2.3-.2.5s.1.4.2.5c.2.2.4.3.6.3.3 0 .7-.2 1-.5.4-.4.8-1.1 1.2-2.2.3-.7.5-1.8.8-3.1l.5-2.4h1l.3-.8H4.4c.1-.4.2-.9.2-1.2.1-.5.2-.9.2-1 .3-.4.5-.8.7-1 .2-.2.3-.3.5-.3h.1v.1l-.1.2v.3c0 .1 0 .3.1.4.1.1.2.2.3.2.2 0 .3-.1.4-.2.2-.2.2-.4.2-.6 0-.2-.1-.4-.3-.6z"/></svg>