<svg xmlns="http://www.w3.org/2000/svg" height="30" viewBox="0 0 30 30"><path d="M24.6 11.9c.1 0 .3 0 .7.2.6.2 1.1.1 1.4-.2.1-.1.2-.4.2-.7 0-.3-.1-.6-.3-.8-.2-.2-.5-.3-.9-.3-.3 0-.5.1-.7.1-.3.1-.7.4-1.1.8-.4.4-.8.8-1 1.2l-.9 1.4c-.3-1.2-.5-1.9-.7-2.2-.2-.4-.5-.9-.9-1.3l-3.4.5v.7h.7c.5 0 1 .1 1.3.3.3.2.5.6.7 1.1 0 .1.2.7.8 3.2-.2.5-.6 1.2-1.3 2.3-.6 1.1-1.2 1.7-1.5 2.1-.2.1-.3.2-.3.2s-.2 0-.4-.3c-.3-.3-.6-.4-.9-.4-.3 0-.5.1-.7.3-.2.2-.3.5-.3.8 0 .3.1.6.3.8.3.3.6.4 1 .4.5 0 1-.2 1.5-.7.7-.6 1.7-2.1 2.9-4.2.5 2.4.8 3.7 1 4 .3.6.7.8 1.2.8.3 0 .7-.2 1.2-.6.8-.7 1.5-1.5 2-2.5l.1-.1-.6-.3v.1c-.3.6-.7 1.1-1.1 1.5-.2.2-.4.3-.5.3-.1 0-.1-.1-.2-.2s-.2-.3-.4-1.2l-1-4.3c.7-1.2 1.3-2.1 1.8-2.5-.1-.2.2-.3.3-.3zM29.6 12.7c-.3-1.2-.8-2.4-1.5-3.6L28 9h-1l.1.2c.4 1 .7 1.7.9 2.1.2.6.4 1.3.5 2 .2.9.2 1.8.2 2.6 0 2.2-.5 4.5-1.6 6.8l-.1.3h1v-.1c.5-.9 1-2 1.4-3.2.4-1.2.6-2.5.6-3.8 0-1-.1-2.2-.4-3.2zM13.3 16c0-.9.1-1.8.2-2.6.1-.7.3-1.4.5-2 .1-.4.4-1.1.9-2.1L15 9h-1v.1c-.7 1.2-1.2 2.4-1.5 3.6-.3 1-.4 2.2-.4 3.3 0 1.3.2 2.6.6 3.8.4 1.2.8 2.3 1.4 3.2v.1h1l-.1-.2c-1.2-2.4-1.7-4.7-1.7-6.9zM10.5 5.6c.4-1 .8-1.8 1.3-2.2.3-.3.7-.5 1.2-.5.2 0 .3 0 .3.1 0 0 .1.1.1.2 0 0 0 .1-.1.4-.2.2-.3.4-.3.5 0 .3.1.5.3.7.2.2.4.3.7.3.3 0 .6-.1.8-.4.1-.2.2-.5.2-.9 0-.5-.2-.9-.6-1.3-.3-.3-.8-.5-1.4-.5-.6 0-1.2.2-1.8.6-.6.5-1.2 1.1-1.8 1.9-.4.6-.8 1.7-1.2 2.8-.2.4-.4 1.5-.8 2-.2.3-.4.5-.6.6-.3.1-.5.1-1.1.1h-.1l-.5 1.4H7l-1.8 8.4c-.4 2.1-.7 3.4-.8 3.8-.2.9-.5 1.6-.8 2.1-.3.5-.6.8-.9 1.1-.3.2-.6.3-.9.3-.1 0-.2 0-.2-.1v-.1s0-.1.1-.2c.2-.1.3-.3.3-.6 0-.2-.1-.5-.2-.6-.2-.2-.4-.3-.6-.3-.3 0-.6.1-.8.4-.3.2-.4.5-.4.9s.1.7.4 1c.3.3.7.5 1.2.5.7 0 1.4-.3 2.1-.9.9-.8 1.8-2.2 2.6-4.3.5-1.5 1.1-3.5 1.6-6.2L9 11.4h1.7l.5-1.4H9.4c.2-.8.4-1.6.5-2.3.3-1 .5-1.8.6-2.1z"/></svg>