<svg xmlns="http://www.w3.org/2000/svg" height="20" viewBox="0 0 20 20"><path d="M16 8.5c.2-.1.3-.2.4-.2.1 0 .2 0 .5.1.4.1.7.1 1-.2.1 0 .1-.2.1-.5 0-.2-.1-.4-.2-.5-.2-.1-.4-.2-.6-.2-.2 0-.3 0-.5.1s-.5.3-.7.5c-.3.2-.5.5-.7.8l-.6 1c-.2-.8-.4-1.3-.4-1.5-.1-.3-.3-.6-.6-.9l-2.3.4v.4h.5c.4 0 .6.1.8.2.2.1.3.4.5.7 0 .1.1.5.5 2.1-.1.3-.4.8-.8 1.5s-.8 1.2-1 1.4c-.1.1-.2.1-.2.1s-.1 0-.3-.2c-.2-.2-.4-.3-.6-.3-.2 0-.4.1-.5.2-.2.3-.3.5-.3.7 0 .2.1.4.2.6.2.2.4.3.6.3.3 0 .7-.1 1-.4.5-.4 1.2-1.4 2-2.8.3 1.6.6 2.5.7 2.7.2.4.5.6.8.6.2 0 .5-.1.8-.4.5-.4 1-1 1.3-1.7V13l-.4-.3v.1c-.2.4-.5.7-.8 1-.1.1-.3.2-.4.2 0 0-.1 0-.2-.1 0-.1-.1-.2-.2-.8l-.7-2.9c.6-.9 1-1.4 1.3-1.7zM18.1 15.8c.7-1.6 1.1-3.2 1.1-4.8 0-.6-.1-1.3-.2-1.9-.1-.5-.2-1-.3-1.4-.1-.3-.3-.8-.6-1.5L18 6h.7v.1c.5.9.8 1.7 1 2.6.2.7.3 1.5.3 2.3 0 .9-.1 1.8-.4 2.7-.2.9-.6 1.6-.9 2.3H18l.1-.2zM9.9 15.8c-.7-1.6-1.1-3.2-1.1-4.8 0-.6.1-1.3.2-1.9.1-.5.2-1 .3-1.4.1-.3.3-.8.6-1.5L10 6h-.7v.1c-.5.9-.8 1.7-1 2.6-.2.7-.3 1.5-.3 2.3 0 .9.1 1.8.4 2.7.2.9.6 1.6.9 2.3h.7l-.1-.2zM8.7 2.4c-.4-.5-1.2-.5-2 0-.4.3-.8.7-1.1 1.2-.2.3-.5.9-.8 1.6 0 .2-.1.4-.2.6-.1.3-.2 1-.6 1.1 0 .1-.3.1-.7.1h-.1l-.5 1h1.5l-1.1 4.9c-.3 1.3-.4 2.1-.5 2.3-.1.6-.3 1-.5 1.3-.1.3-.3.5-.5.7-.2.1-.4.2-.5.2H1l.1-.1c.1-.1.2-.3.2-.4 0-.2-.1-.3-.2-.4-.1-.1-.2-.2-.4-.2s-.4.1-.5.2c-.1.1-.2.3-.2.5 0 .3.1.5.2.6.3.3.5.4.8.4.4 0 .9-.2 1.3-.6.5-.5 1.1-1.4 1.5-2.7.3-.9.7-2.2 1-3.8l.7-3h1.2l.4-1H5.7c.1-.4.2-1 .3-1.3.1-.6.2-1.1.3-1.3.2-.6.5-1.1.8-1.4.2-.2.4-.3.7-.3H8v.1l-.1.2c-.1.2-.2.3-.2.5s.1.3.2.5c.1 0 .3.1.4.1.2 0 .4-.1.5-.3.1-.1.2-.3.2-.5 0-.3-.1-.6-.3-.8z"/></svg>