<svg xmlns="http://www.w3.org/2000/svg" height="20" viewBox="0 0 20 20"><path d="M20 13.5c0-1.8-1.4-3.3-3.3-4 .8-1 1.3-2.1 1.3-3.4 0-.7-.2-1.4-.5-2.1-1.3-2.4-4.7-4-8.5-4-5 0-9 2.7-9 6.1 0 2.5 2.5 4.5 5.1 5.4-.1.4-.6 1.2-2.4 2.8-.1.1-.2.3-.1.5.1.1.2.2.4.2h.1c.1 0 2.7-.5 4.9-1.4.1 2.4 2.4 4.4 5.3 4.6 1.6 1.3 4.5 1.9 4.6 1.9.1 0 .2-.1.3-.2.1-.1 0-.3-.1-.3-1.2-1.2-1.6-1.8-1.6-2 1.8-.8 3.5-2.3 3.5-4.1zM5.6 10.4C3.4 9.6 1.2 8 1.2 6.1c0-2.6 3.6-4.9 7.8-4.9 3.3 0 6.3 1.4 7.4 3.4.3.5.4 1 .4 1.5 0 1.1-.5 2.2-1.4 3-.5-.1-.9-.1-1.4-.1-2.5 0-4.8 1.2-5.6 2.9v.1c-.8.4-1.8.8-2.7 1.1.5-.6.7-1 .7-1.4 0-.5-.3-1.1-.8-1.3zm10.5 5.9c-.5.2-.8.8-.7 1.3 0 .1 0 .2.1.3-.5-.2-1-.5-1.4-.8-.2-.2-.4-.2-.7-.3-2.4-.1-4.2-1.7-4.2-3.5 0-.3.1-.7.2-1C10 11 11.9 10 14 10c2.6 0 4.8 1.5 4.8 3.3 0 1.4-1.4 2.5-2.7 3z"/><circle cx="9" cy="6.5" r="1.5"/><circle cx="13.5" cy="6.5" r="1.5"/><circle cx="4.5" cy="6.5" r="1.5"/></svg>