<svg xmlns="http://www.w3.org/2000/svg" height="16" viewBox="0 0 16 16"><path d="M8.5 11c1.9 0 3.5-1.6 3.5-3.5v-4C12 1.6 10.4 0 8.5 0S5 1.6 5 3.5v4C5 9.4 6.6 11 8.5 11zm0-9.9c1.2 0 2.1.8 2.3 1.9H9.5c-.3 0-.5.2-.5.5s.2.5.5.5h1.4v1H9.5c-.3 0-.5.2-.5.5s.2.5.5.5h1.4v1H9.5c-.3 0-.5.2-.5.5s.2.5.5.5h1.4c-.2 1.1-1.2 1.9-2.3 1.9-1.3 0-2.2-.8-2.4-1.9h1.3c.3 0 .5-.2.5-.5S7.8 7 7.5 7H6.1V6h1.4c.3 0 .5-.2.5-.5S7.8 5 7.5 5H6.1V4h1.4c.3 0 .5-.2.5-.5S7.8 3 7.5 3H6.2c.2-1.1 1.1-1.9 2.3-1.9z"/><path d="M14 8h-1.1c-.3 2.2-2.1 3.9-4.4 3.9S4.4 10.2 4.1 8H3c.2 2.6 2.4 4.7 5 5v2H6v1h5v-1H9v-2c2.6-.3 4.8-2.4 5-5z"/></svg>