<svg xmlns="http://www.w3.org/2000/svg" height="30" viewBox="0 0 30 30"><path d="M27.2 13.6l-3.4-3.4c-.4-.4-1-.3-1.3 0-.4.4-.4 1 0 1.3l2.4 2.4h-18c-.5.1-.9.5-.9 1.1s.4 1 .9 1h17.9l-2.4 2.4c-.4.4-.3 1 0 1.3s1 .4 1.3 0l3.4-3.4c1.2-1 1.1-1.7.1-2.7z"/><path d="M16.5 24h-13V6h13v6.5H18V4c0-1.7-1.3-3-3-3H5C3.3 1 2 2.3 2 4v22c0 1.7 1.3 3 3 3h10c1.7 0 3-1.3 3-3v-8.5h-1.5V24zM7.4 3h5.2c.2 0 .4.2.4.5s-.2.5-.4.5H7.4c-.2 0-.4-.2-.4-.5s.2-.5.4-.5zM10 28.3c-1 0-1.8-.8-1.8-1.8s.8-1.8 1.8-1.8 1.8.8 1.8 1.8-.8 1.8-1.8 1.8z"/></svg>