<svg xmlns="http://www.w3.org/2000/svg" height="16" viewBox="0 0 16 16"><path d="M14 6c-.3 0-.7.1-.9.3l-3.1-4V2c0-1.1-.9-2-2-2S6 .9 6 2v.2L3.8 4.1C3.5 3.5 2.8 3 2 3 .9 3 0 3.9 0 5s.9 2 2 2c.7 0 1.4-.4 1.7-1l1.6 2-1.6 2c-.3-.6-1-1-1.7-1-1.1 0-2 .9-2 2s.9 2 2 2c.8 0 1.5-.5 1.8-1.1L6 13.8v.2c0 1.1.9 2 2 2s2-.9 2-2v-.3l3.1-4c.3.2.6.3 1 .3 1.1 0 2-.9 2-2-.1-1.1-1-2-2.1-2zM8 .8c.7 0 1.2.5 1.2 1.2S8.7 3.2 8 3.2 6.8 2.7 6.8 2 7.3.8 8 .8zM2 6.2C1.3 6.2.8 5.7.8 5S1.3 3.8 2 3.8s1.2.5 1.2 1.2c0 .1 0 .2-.1.3-.1.5-.6.9-1.1.9zm0 6c-.7 0-1.2-.5-1.2-1.2S1.3 9.8 2 9.8c.5 0 1 .4 1.1.9 0 .1.1.2.1.3 0 .7-.5 1.2-1.2 1.2zm6 3c-.7 0-1.2-.5-1.2-1.2s.5-1.2 1.2-1.2 1.2.5 1.2 1.2-.5 1.2-1.2 1.2zM8 12c-.6 0-1.2.3-1.6.8L4.2 11l1.9-2.3c.3.7 1 1.3 1.9 1.3 1.1 0 2-.9 2-2s-.9-2-2-2c-.9 0-1.6.6-1.9 1.4L4.2 5.1l2.2-1.8c.4.4 1 .7 1.6.7.6 0 1.1-.3 1.5-.7l2.8 3.6c-.2.3-.3.7-.3 1.1s.1.8.3 1.1l-2.8 3.6c-.4-.4-.9-.7-1.5-.7zM6.8 8c0-.7.5-1.2 1.2-1.2s1.2.5 1.2 1.2S8.7 9.2 8 9.2 6.8 8.7 6.8 8zM14 9.2c-.7 0-1.2-.5-1.2-1.2s.5-1.2 1.2-1.2 1.2.5 1.2 1.2-.5 1.2-1.2 1.2z"/></svg>