<svg xmlns="http://www.w3.org/2000/svg" height="30" viewBox="0 0 30 30"><path d="M25.5 12c-1 0-1.8.4-2.5 1l-4-7.3v-.2C19 3.6 17.4 2 15.5 2S12.1 3.4 12 5.3L8.8 8.5C8.4 7 7.1 6 5.5 6 3.6 6 2 7.6 2 9.5S3.6 13 5.5 13c1.3 0 2.4-.7 3-1.8l3.6 3.6c0 .2 0 .3-.1.5l-3.2 3.2C8.4 17 7.1 16 5.5 16 3.6 16 2 17.6 2 19.5S3.6 23 5.5 23c1.3 0 2.4-.7 3-1.8l3.6 3.6c0 .2-.1.5-.1.7 0 1.9 1.6 3.5 3.5 3.5s3.5-1.6 3.5-3.5v-.2l4-7.3c.6.6 1.5 1 2.5 1 1.9 0 3.5-1.6 3.5-3.5S27.4 12 25.5 12zm-10-8.5c1.1 0 2 .9 2 2s-.9 2-2 2-2-.9-2-2 .9-2 2-2zm-10 8c-1.1 0-2-.9-2-2s.9-2 2-2 2 .9 2 2-.9 2-2 2zm0 10c-1.1 0-2-.9-2-2s.9-2 2-2 2 .9 2 2-.9 2-2 2zm10 6c-1.1 0-2-.9-2-2s.9-2 2-2 2 .9 2 2-.9 2-2 2zm0-5.5c-1.3 0-2.4.7-3 1.8l-3.6-3.6c0-.2 0-.3.1-.5l3.2-3.2c.4 1.4 1.8 2.5 3.3 2.5 1.9 0 3.5-1.6 3.5-3.5S17.4 12 15.5 12c-1.3 0-2.4.7-3 1.8l-3.6-3.6c.1-.1.1-.3.1-.5l3.2-3.2C12.6 8 13.9 9 15.5 9c1.4 0 2.5-.8 3.1-1.9l3.8 6.8c-.2.5-.4 1-.4 1.6 0 .6.1 1.1.4 1.6l-3.8 6.8c-.6-1.1-1.7-1.9-3.1-1.9zm-2-6.5c0-1.1.9-2 2-2s2 .9 2 2-.9 2-2 2-2-.9-2-2zm12 2c-1.1 0-2-.9-2-2s.9-2 2-2 2 .9 2 2-.9 2-2 2z"/></svg>