<svg xmlns="http://www.w3.org/2000/svg" height="16" viewBox="0 0 16 16"><path d="M10 3.1C9.8 1.8 9.4 1 8.8.7c-1-.6-2.3 0-3.3.5-.8.2-1.5.6-1.9.4-.2-.1-.3-.5-.4-1.1 0-.3-.3-.5-.7-.5-.3 0-.5.3-.5.7.1 1 .5 1.7 1 2 .9.5 1.9 0 2.9-.5.8-.4 1.8-.8 2.3-.5.3.2.5.6.6 1.4C6.7 3.4 5 5.3 5 7.5v4C5 14 7 16 9.5 16s4.5-2 4.5-4.5v-4c0-2.3-1.8-4.2-4-4.4zm2.8 8.4c0 1.8-1.5 3.3-3.3 3.3s-3.3-1.5-3.3-3.3v-4c0-1.8 1.5-3.3 3.3-3.3s3.3 1.5 3.3 3.3v4z"/><path d="M9.5 5.5c-.3 0-.5.2-.5.5v2.5c0 .3.2.5.5.5s.5-.2.5-.5V6c0-.3-.2-.5-.5-.5z"/></svg>