<svg xmlns="http://www.w3.org/2000/svg" height="30" viewBox="0 0 30 30"><path d="M16 16c-.6 0-1-.4-1-1v-4c0-.5.4-1 1-1s1 .4 1 1v4c0 .5-.4 1-1 1z"/><path d="M17 6.1v-.3c-.2-2.2-.9-3.6-2.1-4.5-2-1.3-4.8-.5-7.4.4-1.9.6-4 1.2-4.8.7-.4-.2-.6-.7-.7-1.5C1.9.3 1.4-.1.9 0 .3.1-.1.6 0 1.1c.2 1.4.7 2.4 1.6 3 1.7 1.1 4 .3 6.4-.4 2.2-.7 4.5-1.4 5.7-.6.7.5 1.1 1.5 1.3 3v.1c-3.9.4-7 3.7-7 7.8v8c0 4.4 3.6 8 8 8s8-3.6 8-8v-8c0-4.1-3.1-7.5-7-7.9zM22 22c0 3.3-2.7 6-6 6s-6-2.7-6-6v-8c0-3.3 2.7-6 6-6s6 2.7 6 6v8z"/></svg>