<svg xmlns="http://www.w3.org/2000/svg" height="20" viewBox="0 0 20 20"><path d="M11.3 4.1c-.2-1.4-.6-2.3-1.3-2.8-1.2-.8-2.6-.3-3.9.1-.9.3-1.9.6-2.4.3-.2-.2-.4-.7-.4-1.1 0-.4-.4-.6-.7-.6-.4 0-.6.4-.6.8.1 1 .5 1.7 1 2.1 1 .6 2.2.2 3.4-.2 1.1-.4 2.2-.7 2.8-.3.4.2.6.8.8 1.6-2.8.3-5 2.7-5 5.5v5c0 3 2.5 5.5 5.5 5.5s5.5-2.5 5.5-5.5v-5c0-2.8-2.1-5.1-4.7-5.4zm3.4 10.4c0 2.3-1.9 4.2-4.2 4.2-2.3 0-4.2-1.9-4.2-4.2v-5c0-2.3 1.9-4.2 4.2-4.2 2.3 0 4.2 1.9 4.2 4.2v5z"/><path d="M10.5 7c-.3 0-.5.2-.5.5v3c0 .3.2.5.5.5s.5-.2.5-.5v-3c0-.3-.2-.5-.5-.5z"/></svg>