<svg xmlns="http://www.w3.org/2000/svg" height="20" viewBox="0 0 20 20"><path d="M8 4h11v1H8zm0 2h11v1H8zm0 7h11v1H8zm0 2h11v1H8zM5 9H2V8h1V4H2v-.9c.4 0 .7-.1.9-.2.2-.2.3-.5.4-.9H4v6h1v1zm-1.8 8.1c.2-.2.4-.5.6-.7.3-.3.6-.6.8-.9.2-.2.3-.4.4-.6.1-.2.3-.4.4-.6.1-.2.2-.4.2-.6.1-.2.1-.5.1-.7 0-.6-.2-1.1-.5-1.4-.3-.4-.8-.6-1.4-.6-.3 0-.6 0-.9.1-.3.1-.6.2-.7.3h-.1v1.1h.4c.1 0 .1-.1.2-.2s.2-.1.3-.2c.1-.1.3-.1.4-.1.2-.1.5-.1.7 0 .1 0 .2.1.3.2.1.1.1.2.2.3 0 .1.1.3.1.5 0 .3-.1.7-.2 1s-.5.8-.9 1.3c-.2.3-.4.5-.7.8-.4.2-.9.8-.9.8V18h4v-.9H3.2z"/></svg>