<svg xmlns="http://www.w3.org/2000/svg" height="16" viewBox="0 0 16 16"><path d="M6 2h10v1H6zm0 2h10v1H6zm0 7h10v1H6zm0 2h10v1H6zM3 7H0V6h1V2H0v-.9c.4 0 .7-.1.9-.2s.3-.5.4-.9H2v6h1v1zm-1.8 8.1c.2-.2.4-.5.6-.7.3-.3.6-.6.8-.9.2-.2.3-.4.4-.6.1-.2.3-.4.4-.6.1-.2.2-.4.2-.6.1-.2.1-.5.1-.7 0-.6-.2-1.1-.5-1.4-.3-.4-.8-.6-1.4-.6-.3 0-.6 0-.9.1-.3.1-.5.2-.7.3H.1v1.1h.4c.1 0 .1-.1.2-.2s.2-.1.3-.2c.1-.1.3-.1.4-.1.2-.1.5-.1.7 0 .1 0 .2.1.3.2.1.1.1.2.2.3 0 .1.1.3.1.5 0 .3-.1.7-.2 1-.2.3-.5.8-.9 1.3-.2.3-.4.5-.7.8-.4.2-.9.8-.9.8V16h4v-.9H1.2z"/></svg>