<svg xmlns="http://www.w3.org/2000/svg" height="30" viewBox="0 0 30 30"><path d="M6 9H3V8h1V4H3v-.9c.4 0 .7-.1.9-.2s.3-.5.4-.9H5v6h1v1zm-1.8 8.1c.2-.2.4-.5.6-.7.3-.3.6-.6.8-.9.2-.2.3-.4.4-.6.1-.2.3-.4.4-.6.1-.2.2-.4.2-.6.1-.2.1-.5.1-.7 0-.6-.2-1.1-.5-1.4-.3-.4-.8-.6-1.4-.6-.3 0-.6 0-.9.1-.3.1-.6.2-.7.3h-.1v1.1h.4c.1 0 .1-.1.2-.2s.2-.1.3-.2c.1-.1.3-.1.4-.1.2-.1.5-.1.7 0 .1 0 .2.1.3.2.1.1.1.2.2.3 0 .1.1.3.1.5 0 .3-.1.7-.2 1s-.5.8-.9 1.3c-.2.3-.4.5-.7.8-.4.2-.9.8-.9.8V18h4v-.9H4.2zM10 4h18v2H10zm0 10h18v2H10zm0 10h18v2H10zm-3.1.2c-.1-.2-.2-.4-.3-.5-.1-.1-.3-.2-.4-.3-.1 0-.1 0-.2-.1.2-.1.4-.3.6-.5.2-.3.4-.6.4-1 0-.3-.1-.5-.2-.7-.1-.2-.3-.4-.5-.6l-.6-.3c-.4-.1-1-.1-1.7 0-.3.1-.6.2-.8.3h-.1v1.1h.2c.1-.1.2-.1.3-.2.1-.1.2-.1.3-.2.1-.1.3-.1.4-.1.3-.1.6-.1.8 0 .1 0 .2.1.3.1l.2.2c.1.1.1.2.1.4 0 .3-.1.6-.3.7-.2.2-.5.3-.8.3h-.3v1h1c.1 0 .3.1.4.2.1.1.2.2.2.3.1.1.1.3.1.5s0 .4-.1.5c-.1.1-.1.3-.2.4-.1.1-.2.2-.4.2-.4.1-.9.1-1.3-.1-.3-.1-.5-.2-.7-.4H3v1.1h.1c.2.1.5.2.8.3.3.1.6.1 1 .1.3 0 .6-.1.9-.2.3-.1.5-.3.7-.5.2-.2.3-.4.4-.7 0 .1.1-.2.1-.5s0-.6-.1-.8z"/></svg>