<svg xmlns="http://www.w3.org/2000/svg" height="16" viewBox="0 0 16 16"><path fill="#949494" d="M8.5 1C4.4 1 1 4.4 1 8.5S4.4 16 8.5 16 16 12.6 16 8.5 12.6 1 8.5 1zM9 6.1c.8 0 1.5-.1 2.2-.2.2.7.3 1.4.3 2.1H9V6.1zm0-1V2.4c.8.3 1.5 1.2 1.9 2.5-.6.1-1.2.2-1.9.2zM8 2.4v2.7c-.7 0-1.3-.1-1.9-.2.4-1.3 1.1-2.2 1.9-2.5zm0 3.7V8H5.5c0-.7.1-1.5.3-2.1.7.1 1.4.2 2.2.2zM4.5 8H2c.1-1.1.5-2.2 1-3.1.5.3 1.1.5 1.7.7-.1.8-.2 1.6-.2 2.4zm0 1c0 .8.1 1.6.3 2.3-.7.2-1.3.4-1.7.7-.6-.9-1-1.9-1-3.1h2.4zm1 0H8v1.9c-.8 0-1.5.1-2.2.2-.2-.6-.3-1.4-.3-2.1zM8 11.9v2.7c-.8-.3-1.5-1.2-1.9-2.5.6-.1 1.2-.2 1.9-.2zm1 2.7v-2.7c.7 0 1.3.1 1.9.2-.4 1.3-1.1 2.2-1.9 2.5zm0-3.7V9h2.5c0 .7-.1 1.5-.3 2.1-.7-.1-1.4-.2-2.2-.2zM12.5 9H15c-.1 1.1-.5 2.2-1 3.1-.5-.3-1.1-.5-1.7-.7.1-.8.2-1.6.2-2.4zm0-1c0-.8-.1-1.6-.3-2.3.7-.2 1.3-.4 1.7-.7.6.9 1 1.9 1 3.1h-2.4zm.8-3.9c-.4.2-.9.4-1.4.6-.3-1-.8-1.8-1.3-2.4 1 .4 2 1 2.7 1.8zM6.4 2.3c-.5.6-1 1.4-1.3 2.4-.5-.1-1-.3-1.4-.6.7-.8 1.7-1.4 2.7-1.8zM3.7 12.9c.4-.2.9-.4 1.4-.6.3 1 .8 1.8 1.3 2.4-1-.4-2-1-2.7-1.8zm6.9 1.8c.5-.6 1-1.4 1.3-2.4.5.1 1 .3 1.4.6-.7.8-1.7 1.4-2.7 1.8z"/></svg>