<svg xmlns="http://www.w3.org/2000/svg" height="30" viewBox="0 0 30 30"><path d="M25 4.1c2.7 2.7 4 6.3 4 10.8 0 4.1-1.3 7.6-4 10.6S19 30 14.9 30c-4 0-7.4-1.5-10-4.5-2.6-3-4-6.5-4-10.6 0-4.5 1.3-8 3.9-10.8C7.5 1.4 10.8 0 14.9 0S22.4 1.4 25 4.1zm-5.1 6.3c-.1-1.2-.3-2.4-.7-3.5-.3-1.2-.9-2-1.6-2.7-.7-.6-1.6-.9-2.7-.9s-2 .3-2.7.9c-.7.6-1.2 1.5-1.5 2.7-.3 1.2-.6 2.3-.7 3.5-.1 1.2-.2 2.6-.2 4.3 0 1.1 0 1.9.1 2.7 0 .7.1 1.6.2 2.6s.3 1.9.5 2.6c.2.7.5 1.4.9 2.1.4.7.8 1.2 1.4 1.6.6.4 1.3.5 2 .5.8 0 1.5-.2 2.1-.5.6-.4 1.1-.9 1.5-1.6.4-.7.7-1.4.9-2.1.2-.7.4-1.6.5-2.6.1-1 .2-1.9.2-2.7v-2.6c0-1.7 0-3.1-.2-4.3z"/></svg>