<svg xmlns="http://www.w3.org/2000/svg" height="16" viewBox="0 0 16 16"><path d="M13.9 2.2C15.3 3.6 16 5.6 16 7.9c0 2.2-.7 4.1-2.1 5.7-1.4 1.6-3.2 2.4-5.4 2.4s-3.9-.8-5.4-2.4C1.7 12 1 10.1 1 7.9c0-2.4.7-4.3 2.1-5.8C4.5.7 6.3 0 8.5 0c2.1 0 3.9.7 5.4 2.2zm-2.8 3.3c-.1-.6-.2-1.3-.4-1.9-.1-.6-.4-1-.8-1.4-.4-.3-.9-.5-1.4-.5-.6 0-1.1.2-1.5.5-.3.3-.6.8-.8 1.4-.2.6-.3 1.3-.3 1.9-.1.6-.1 1.4-.1 2.3v1.4c0 .4.1.9.1 1.4.1.6.1 1 .3 1.4.1.4.3.7.5 1.1.2.4.5.6.8.8.3.2.7.3 1.1.3.4 0 .8-.1 1.1-.3.3-.2.6-.5.8-.8.2-.4.4-.7.5-1.1.1-.4.2-.8.3-1.4.1-.6.1-1 .1-1.4V7.8c-.2-.9-.2-1.6-.3-2.3z"/></svg>