<svg xmlns="http://www.w3.org/2000/svg" height="20" viewBox="0 0 20 20"><path d="M17.3 2.7C19.1 4.6 20 7 20 9.9c0 2.7-.9 5.1-2.7 7.1-1.8 2-4.1 3-6.8 3s-5-1-6.8-3C1.9 15 1 12.6 1 9.9c0-3 .9-5.4 2.6-7.2C5.4.9 7.7 0 10.5 0c2.7 0 5 .9 6.8 2.7zm-3.4 4.2c-.1-.8-.2-1.6-.5-2.4-.2-.8-.6-1.4-1.1-1.8-.5-.4-1.1-.6-1.8-.6s-1.3.2-1.8.6c-.5.4-.8 1-1 1.8-.3.8-.5 1.6-.6 2.4 0 .8-.1 1.7-.1 2.8v1.8c0 .5.1 1.1.1 1.8.2.7.3 1.2.4 1.7.1.5.3.9.6 1.4.2.5.6.8 1 1 .4.2.9.4 1.4.4.5 0 1-.1 1.4-.4.4-.2.7-.6 1-1 .2-.5.5-.9.6-1.4.2-.5.3-1 .4-1.7.1-.7.1-1.3.1-1.8V9.7c0-1-.1-2-.1-2.8z"/></svg>