<svg xmlns="http://www.w3.org/2000/svg" height="20" viewBox="0 0 20 20"><path d="M15 0H5v9h1V1h8v5h5v13H6v-1H5v2h15V5zM5 13.6c0 .8-.2 1.4-.6 1.9-.4.5-.9.8-1.5.8-.3 0-.5 0-.7-.1l-.6-.3V18H0v-6.9h1.6v.5c.2-.2.5-.4.7-.5.2 0 .5-.1.8-.1.6 0 1 .2 1.4.7.3.5.5 1.1.5 1.9zm-1.6 0c0-.5-.1-.8-.2-1.1-.2-.2-.4-.3-.7-.3-.1 0-.3 0-.4.1-.1 0-.3.1-.4.2V15c.1 0 .2.1.3.1h.4c.4 0 .7-.1.9-.4s.1-.6.1-1.1z"/><path d="M11 15.9H9.4v-.5c-.1.1-.2.2-.4.3-.1.1-.2.2-.3.2-.1.1-.3.1-.4.1h-.4c-.6 0-1-.2-1.4-.7-.3-.5-.5-1.1-.5-1.9 0-.4.1-.8.2-1.1s.3-.6.5-.8c.2-.2.4-.4.7-.5.3-.1.5-.2.8-.2.3 0 .5 0 .7.1.1 0 .3.1.5.2V9H11v6.9zm-1.6-1.4v-2.4c-.1-.1-.2-.1-.3-.1h-.3c-.4 0-.7.1-.9.4-.2.3-.3.6-.3 1.1 0 .5.1.8.2 1.1.2.2.4.3.7.3.1 0 .3 0 .4-.1.3-.1.4-.2.5-.3zm6.6-4.3h-.1c-.1 0-.2 0-.3-.1h-.4c-.3 0-.6.1-.7.2-.1.1-.2.3-.2.7h1.3v1.1h-1.3V16h-1.7v-3.9H12V11h.7v-.1c0-.6.2-1.1.5-1.4.3-.3.9-.5 1.6-.5h.7c.2 0 .4 0 .5.1v1.1z"/></svg>