<svg xmlns="http://www.w3.org/2000/svg" height="16" viewBox="0 0 16 16"><path d="M4 10.2c0 .7-.2 1.2-.5 1.7-.3.4-.7.6-1.2.6-.2 0-.4 0-.5-.1-.2 0-.3-.1-.5-.2V14H0V8h1.3v.6c.2-.2.4-.3.6-.4.1-.1.4-.2.6-.2.5 0 .9.2 1.1.6.3.4.4.9.4 1.6zm-1.3 0c0-.4-.1-.7-.2-.9-.1-.2-.3-.3-.6-.3-.1 0-.2 0-.3.1-.1 0-.2.1-.3.2v2.2c.1 0 .1.1.2.1h.3c.3 0 .5-.1.7-.3s.2-.6.2-1.1zM9 13H7.7v-.6c-.1.1-.2.1-.3.2-.1.1-.2.1-.3.2 0 .1-.1.1-.2.2h-.4c-.5 0-.8-.2-1.1-.6s-.4-.9-.4-1.6c0-.4 0-.7.1-1 .1-.3.2-.5.4-.7.1-.2.3-.3.5-.4.2-.1.4-.2.7-.2.2 0 .4 0 .5.1.1 0 .3.1.5.2V7H9v6zm-1.3-1.3V9.6c-.1 0-.1-.1-.2-.1h-.3c-.3 0-.5.1-.7.3-.2.2-.2.5-.2.9s.1.7.2.9.3.4.6.4c.1 0 .2 0 .3-.1s.2-.1.3-.2zM13 8c-.1 0-.2 0-.3-.1h-.3c-.3 0-.4 0-.5.1-.1.1-.1.6-.1.9H13v1h-1.2v3h-1.3v-3H10V9h.5v-.4c0-.5.1-.9.4-1.2.3-.3.6-.4 1.2-.4h.5c.1 0 .3 0 .4.1V8z"/><path d="M12 0H3v7h1V1h7v4h4v10H4v-1H3v2h13V4z"/></svg>