<svg xmlns="http://www.w3.org/2000/svg" height="20" viewBox="0 0 20 20"><path d="M3.9 13.5l-.3 1 1.9 1.9 1-.3L14.6 8 12 5.4z"/><path d="M19.5 3.5l-3-3c-.3-.3-.8-.5-1.2-.5-.5 0-.9.2-1.2.5L2.3 12.3c-.1.1-.2.2-.2.4l-2 6c-.1.4 0 .8.2 1 .2.2.4.3.7.3.1 0 .2 0 .3-.1l6-2c.1 0 .3-.1.4-.2L19.5 5.9c.3-.3.5-.7.5-1.2 0-.4-.2-.9-.5-1.2zM7 17l-6 2 2-6 9-9 4 4-9 9zM18.8 5.2l-1.5 1.5-4.1-4.1 1.5-1.5c.3-.3.8-.3 1 0l3 3c.4.4.4.9.1 1.1z"/><path d="M3 13l-2 6 6-2 9-9-4-4-9 9zm3.5 3.1l-.9.3-2-2 .3-.9L12 5.4 14.6 8l-8.1 8.1zm9.3-14.9c-.3-.3-.8-.3-1 0l-1.5 1.5 4.1 4.1 1.5-1.5c.3-.3.3-.8 0-1l-3.1-3.1z"/></svg>