<svg xmlns="http://www.w3.org/2000/svg" height="20" viewBox="0 0 20 20"><path d="M5.5 5C6.9 5 8 3.9 8 2.5S6.9 0 5.5 0 3 1.1 3 2.5 4.1 5 5.5 5zm0-4C6.3 1 7 1.7 7 2.5S6.3 4 5.5 4 4 3.3 4 2.5 4.7 1 5.5 1zM7 6H4c-1.1 0-2 .9-2 2v5c0 1 .8 1.9 1.8 2l.2 3.6c.1.9.7 1.4 1.3 1.4h.4c.6 0 1.2-.6 1.3-1.4l.2-3.6c1-.1 1.8-1 1.8-2V8c0-1.1-.9-2-2-2zm7.5-1C15.9 5 17 3.9 17 2.5S15.9 0 14.5 0 12 1.1 12 2.5 13.1 5 14.5 5zm0-4c.8 0 1.5.7 1.5 1.5S15.3 4 14.5 4 13 3.3 13 2.5 13.7 1 14.5 1zM16 6h-3c-1.1 0-2 .9-2 2v5c0 1 .8 1.9 1.8 2l.2 3.6c.1.9.7 1.4 1.3 1.4h.4c.6 0 1.2-.6 1.3-1.4l.2-3.6c1-.1 1.8-.9 1.8-2V8c0-1.1-.9-2-2-2z" fill="#959595"/></svg>