<svg xmlns="http://www.w3.org/2000/svg" height="16" viewBox="0 0 16 16"><path d="M11.5 4c1.1 0 2-.9 2-2s-.9-2-2-2-2 .9-2 2 .9 2 2 2zm0-3c.6 0 1 .4 1 1s-.4 1-1 1-1-.4-1-1 .4-1 1-1zm1 4h-2.1C9.7 5 9 5.7 9 6.5v4.1c0 .7.5 1.2 1.1 1.4l.3 2.9c.1.6.4 1.1 1 1.1h.3c.5 0 .8-.5 1-1.1L13 12c.6-.2 1.1-.7 1.1-1.4V6.5C14 5.7 13.3 5 12.5 5zm-8-1c1.1 0 2-.9 2-2s-.9-2-2-2-2 .9-2 2 .9 2 2 2zm0-3c.6 0 1 .4 1 1s-.4 1-1 1-1-.4-1-1 .4-1 1-1zm1 4h-2C2.7 5 2 5.7 2 6.5v4.1c0 .7.5 1.2 1.1 1.4l.3 2.9c.1.6.4 1.1 1 1.1h.3c.5 0 .8-.5 1-1.1l.2-2.9c.6-.2 1.1-.7 1.1-1.4V6.5C7 5.7 6.3 5 5.5 5z" fill-rule="evenodd" clip-rule="evenodd" fill="#959595"/></svg>