<svg xmlns="http://www.w3.org/2000/svg" height="30" viewBox="0 0 30 30"><path d="M21 9c2.2 0 4-1.8 4-4s-1.8-4-4-4-4 1.8-4 4 1.8 4 4 4zm0-6.7c1.5 0 2.7 1.2 2.7 2.7S22.5 7.7 21 7.7 18.3 6.5 18.3 5s1.2-2.7 2.7-2.7zm2 7.7h-4c-1.7 0-3 1.3-3 3v6c0 1.3.9 2.5 2.1 2.8l.7 6.3c.2 1 .9 1.9 1.9 1.9h.6c1.1 0 1.8-.9 1.9-1.9l.7-6.3c1.2-.4 2.1-1.5 2.1-2.8v-6c0-1.7-1.3-3-3-3zM9 9c2.2 0 4-1.8 4-4s-1.8-4-4-4-4 1.8-4 4 1.8 4 4 4zm0-6.7c1.5 0 2.7 1.2 2.7 2.7S10.5 7.7 9 7.7 6.3 6.5 6.3 5 7.5 2.3 9 2.3zm2 7.7H7c-1.7 0-3 1.3-3 3v6c0 1.3.9 2.5 2.1 2.8l.7 6.3c.2 1 .9 1.9 1.9 1.9h.6c1.1 0 1.8-.9 1.9-1.9l.7-6.3c1.2-.4 2.1-1.5 2.1-2.8v-6c0-1.7-1.3-3-3-3z" fill="#959595"/></svg>