<svg xmlns="http://www.w3.org/2000/svg" height="30" viewBox="0 0 30 30"><path d="M4 10.8c0-1.3.3-2.5.8-3.8S6.1 4.6 7 3.6s2.3-2 3.9-2.6 3.4-1 5.3-1c3.1 0 5.7 1 7.8 2.9s3 4.3 3 6.9c0 3.4-.9 6.2-2.6 8.5s-3.9 3.3-6.6 3.3c-.9 0-1.7-.2-2.5-.6-.8-.4-1.3-.9-1.6-1.5l-1.2 4.7c-.1.4-.2.8-.4 1.2-.2.4-.3.8-.5 1.1s-.4.7-.6 1l-.6.9c-.2.3-.4.5-.5.7-.1.2-.3.4-.4.5l-.2.2c0 .2-.1.2-.2.2s-.1-.1-.2-.2v-.4c0-.3-.1-.5-.1-.8 0-.3-.1-.7-.1-1.1v-1.3c0-.4 0-.9.1-1.4.1-.5.1-1 .2-1.4.2-.9 1-4.1 2.2-9.4-.2-.3-.3-.7-.4-1.2-.1-.4-.1-.8-.1-1.1v-.4c0-1.3.3-2.3 1-3.2.6-.8 1.4-1.3 2.3-1.3.7 0 1.3.2 1.7.7.4.5.6 1.1.6 1.8 0 .5-.1 1-.3 1.7-.2.7-.4 1.4-.7 2.3-.3.9-.5 1.6-.6 2.1-.2.9 0 1.7.5 2.3.5.7 1.3 1 2.2 1 1.6 0 2.9-.9 3.9-2.7 1-1.8 1.5-4 1.5-6.5 0-1.9-.6-3.5-1.9-4.8s-3-1.8-5.2-1.8c-2.5 0-4.5.8-6.1 2.4s-2.3 3.6-2.3 5.8c0 1.3.4 2.5 1.1 3.4.3.3.3.6.2 1 0 .1-.1.3-.2.7s-.1.6-.2.7c0 .2-.1.4-.3.4-.2.1-.3.1-.5 0-1.2-.5-2-1.3-2.6-2.5s-.8-2.5-.8-4z"/></svg>