<svg xmlns="http://www.w3.org/2000/svg" height="16" viewBox="0 0 16 16"><path d="M2 5.7c0-.7.1-1.3.4-2s.7-1.3 1.2-1.8 1.2-1 2-1.4C6.4.2 7.4 0 8.4 0c1.6 0 3 .5 4 1.6S14 3.8 14 5.3c0 1.8-.4 3.3-1.3 4.5-.9 1.2-2 1.8-3.5 1.8-.5 0-.9-.1-1.3-.3s-.7-.6-.9-.9l-.6 2.5c-.1.2-.1.4-.2.6-.1.3-.2.5-.3.7s-.2.4-.3.5c-.1.2-.2.3-.3.5-.1.1-.2.3-.3.4-.1.1-.1.2-.2.3l-.1.1s-.1.1-.1 0c-.1 0-.1 0-.1-.1v-2.7c0-.3.1-.5.1-.8.1-.5.5-2.2 1.1-5 0-.2-.1-.4-.1-.6-.1-.3-.1-.5-.1-.6V6c0-.7.2-1.3.5-1.7.3-.5.7-.7 1.2-.7.4 0 .7.1.9.4.2.3.3.6.3 1 0 .2 0 .5-.1.9s-.2.7-.4 1.2-.2.8-.3 1.1c-.1.5 0 .9.3 1.2s.6.6 1.1.6c.8 0 1.5-.5 2-1.4s.8-2.1.8-3.5c0-1-.3-1.9-1-2.5-.7-.7-1.6-1-2.7-1-1.3 0-2.3.4-3.1 1.3S3.7 4.8 3.7 6c0 .7.2 1.3.6 1.8.1.2.2.3.1.5 0 .1-.1.2-.1.4V9c0 .1-.1.2-.2.2h-.3c-.6-.2-1-.6-1.3-1.3S2 6.6 2 5.7z"/></svg>