<svg xmlns="http://www.w3.org/2000/svg" height="20" viewBox="0 0 20 20"><path d="M3 7.2c0-.8.2-1.7.5-2.5S4.3 3.1 5 2.4 6.5 1.1 7.5.7 9.7 0 11 0c2 0 3.7.7 5 2s2 2.8 2 4.6c0 2.3-.6 4.2-1.7 5.6s-2.6 2.2-4.3 2.2c-.6 0-1.1-.1-1.6-.4-.5-.3-.9-.6-1.1-1l-.8 3.2c-.1.3-.1.5-.3.8-.1.3-.2.5-.3.7-.1.2-.2.5-.4.7-.1.2-.2.4-.4.6-.1.2-.2.3-.3.5l-.3.3-.1.2h-.1c-.1 0-.1-.1-.1-.1v-.3c0-.2 0-.4-.1-.5 0-.2 0-.4-.1-.7v-.9c0-.3 0-.6.1-.9 0-.3.1-.7.1-1 .1-.6.6-2.7 1.4-6.3 0-.3-.1-.5-.2-.8s-.1-.6-.1-.8v-.3c0-.9.2-1.6.6-2.1s.9-.8 1.5-.8c.5 0 .8.2 1.1.5.4.3.5.7.5 1.2 0 .3-.1.7-.2 1.1-.1.4-.3 1-.4 1.5-.2.6-.3 1-.4 1.4-.1.6 0 1.1.3 1.6.4.4.8.7 1.4.7 1 0 1.9-.6 2.5-1.8.7-1.2 1-2.6 1-4.3 0-1.3-.4-2.3-1.2-3.2S12.1 2 10.7 2c-1.7 0-3 .5-4 1.6S5.2 6 5.2 7.5c0 .9.2 1.6.7 2.3.2.2.2.4.2.6 0 .1-.1.2-.1.5s-.1.4-.1.5c0 .1-.1.2-.2.3h-.3c-.9-.5-1.4-1-1.8-1.8-.4-.8-.6-1.7-.6-2.7z"/></svg>