<svg xmlns="http://www.w3.org/2000/svg" height="30" viewBox="0 0 30 30"><path d="M14 23h-2v-4.2c0-.3-.1-.5-.1-.6-.1-.2-.2-.3-.3-.3-.1-.1-.3-.1-.5-.1s-.3 0-.5.1-.4.1-.6.3V23H8v-6.8h2v.8c.3-.3.6-.5 1-.7.3-.2.7-.2 1-.2.7 0 1.2.2 1.5.7.3.4.5 1.1.5 1.9V23zm7-.5c0 .7-.1 1.2-.2 1.7-.2.5-.4.8-.7 1.1-.3.3-.6.5-1 .6-.4.1-.8.2-1.3.2-.4 0-.8 0-1.2-.1-.4-.1-.7-.1-1-.2V24h.2c.1 0 .2.1.3.1.1.1.3.1.4.1.2 0 .3.1.5.1h.5c.3 0 .6 0 .8-.1.2-.1.4-.2.5-.3.1-.1.2-.3.2-.5s.1-.5.1-.8v-.1c-.2.2-.5.4-.7.5-.3.1-.6.2-.9.2-.8 0-1.4-.3-1.8-.9-.4-.6-.6-1.5-.6-2.7 0-.6.1-1.1.2-1.5.1-.4.3-.8.6-1.1.2-.3.5-.5.8-.7.3-.2.7-.2 1-.2.3 0 .5 0 .8.1.2.1.5.2.7.4V16h2v6.5zm-1.9-1.4v-2.9c-.1 0-.2-.1-.3-.1h-.4c-.5 0-.8.2-1 .5-.2.3-.3.7-.3 1.3 0 .3 0 .5.1.7 0 .2.1.4.2.5.1.1.2.3.4.3.1.1.3.1.6.1.2 0 .3 0 .5-.1-.1-.1 0-.2.2-.3z"/><path d="M20 1H7v13h2V3h10v8h8v16H9v-2H7v4h22V10zM7 19.3c0 1-.2 1.9-.7 2.5-.5.6-1.1.9-1.8.9-.3 0-.6 0-.8-.1-.2-.1-.4-.2-.7-.3v3.2H1v-9.3h2v.7c.3-.3.5-.5.8-.6.3-.2.6-.2 1-.2.7 0 1.3.3 1.6.9.4.5.6 1.3.6 2.3zm-2 .1c0-.7 0-1.1-.2-1.4-.2-.3-.5-.4-.9-.4-.2 0-.3 0-.5.1s-.3.1-.4.3v3.2c.1 0 .1.1.3.1h.4c.5 0 .8-.2 1-.5s.3-.8.3-1.4z"/></svg>