<svg xmlns="http://www.w3.org/2000/svg" height="16" viewBox="0 0 16 16"><path d="M9 13H7.7v-3c0-.2 0-.3-.1-.4 0-.1-.1-.2-.2-.2-.1-.1-.2-.1-.4-.1-.1 0-.2 0-.3.1-.1 0-.2.1-.4.2V13H5V8.1h1.3v.5c.2-.1.5-.3.7-.4.2-.1.4-.2.7-.2.4 0 .8.2 1 .5.2.3.3.7.3 1.3V13zm5-1.1c0 .4-.1.7-.2 1s-.3.5-.4.6c-.2.2-.4.3-.7.3-.3.2-.5.2-.9.2-.3 0-.5 0-.8-.1-.2 0-.5-.1-.6-.1v-1.1h.1c.1 0 .1.1.2.1s.2.1.3.1c.1 0 .2.1.3.1h.3c.2 0 .4 0 .5-.1.1 0 .3-.1.3-.2.1-.1.1-.2.2-.3v-.6c-.1.1-.3.2-.5.3-.2.1-.4.1-.6.1-.5 0-.9-.2-1.2-.5-.3-.4-.4-.9-.4-1.6 0-.3 0-.6.1-.9.1-.3.2-.5.4-.7.2-.2.3-.3.5-.4.4-.1.6-.1.8-.1.2 0 .4 0 .6.1.2.1.3.1.5.2v-.2H14v3.8zm-1.3-.9V9.1c-.1 0-.1-.1-.2-.1h-.3c-.3 0-.5.1-.7.3-.2.2-.2.5-.2.9v.5c0 .1.1.2.1.3.1.1.1.2.2.2.1.1.2.1.4.1.1 0 .2 0 .3-.1.2 0 .3-.1.4-.2zM4 10.2c0 .7-.2 1.2-.5 1.7-.3.4-.7.6-1.2.6-.2 0-.4 0-.5-.1-.2 0-.3-.1-.5-.2V14H0V8h1.3v.6c.2-.2.4-.3.6-.4.1-.1.4-.2.6-.2.5 0 .9.2 1.1.6.3.4.4.9.4 1.6zm-1.3 0c0-.4-.1-.7-.2-.9-.1-.2-.3-.3-.6-.3-.1 0-.2 0-.3.1-.1 0-.2.1-.3.2v2.2c.1 0 .1.1.2.1h.3c.3 0 .5-.1.7-.3s.2-.6.2-1.1z"/><path d="M12 0H3v7h1V1h7v4h4v10H4v-1H3v2h13V4z"/></svg>