<svg xmlns="http://www.w3.org/2000/svg" height="20" viewBox="0 0 20 20"><path d="M15 0H5v9h1V1h8v5h5v13H6v-1H5v2h15V5zM5 13.6c0 .8-.2 1.4-.6 1.9-.4.5-.9.8-1.5.8-.3 0-.5 0-.7-.1l-.6-.3V18H0v-6.9h1.6v.5c.2-.2.5-.4.7-.5.2 0 .5-.1.8-.1.6 0 1 .2 1.4.7.3.5.5 1.1.5 1.9zm-1.6 0c0-.5-.1-.8-.2-1.1-.2-.2-.4-.3-.7-.3-.1 0-.3 0-.4.1-.1 0-.3.1-.4.2V15c.1 0 .2.1.3.1h.4c.4 0 .7-.1.9-.4s.1-.6.1-1.1z"/><path d="M11 16H9.3v-3c0-.2 0-.3-.1-.4-.1-.1-.1-.2-.2-.2s-.3-.1-.4-.1c-.1 0-.3 0-.4.1-.1 0-.3.1-.4.2V16H6v-4.9h1.7v.5c.3-.2.5-.4.8-.5.2 0 .5-.1.8-.1.5 0 1 .2 1.2.5.3.3.4.8.4 1.4V16zm6-.5c0 .5-.1.9-.2 1.2-.1.3-.3.6-.6.8-.2.2-.5.3-.8.4-.3.1-.7.1-1.1.1-.3 0-.7 0-1-.1-.3 0-.6-.1-.8-.1v-1.2h.2c.1 0 .2.1.3.1.1 0 .2.1.3.1.1 0 .3.1.4.1h.4c.3 0 .5 0 .7-.1.2-.1.3-.1.4-.2.1-.1.2-.2.2-.4 0-.1.1-.3.1-.5v-.1c-.2.2-.4.3-.6.4-.2.1-.5.1-.7.1-.7 0-1.2-.2-1.5-.6-.5-.5-.7-1.1-.7-2 0-.4.1-.7.2-1.1.1-.3.3-.6.5-.8.2-.2.4-.4.7-.5.3-.1.5-.2.8-.2.3 0 .5 0 .7.1l.6.3.1-.2H17v4.4zm-1.6-.9v-2.3c-.1 0-.2-.1-.3-.1h-.3c-.4 0-.7.1-.9.4-.2.2-.3.6-.3 1v.5c0 .1.1.3.2.4l.3.3c.1.1.3.1.5.1.1 0 .3 0 .4-.1.2-.1.3-.2.4-.2z"/></svg>