<svg xmlns="http://www.w3.org/2000/svg" height="30" viewBox="0 0 30 30"><path d="M3 0v30h24V0H3zm22 28H5V5h20v23z"/><path d="M9.5 12c1.4 0 2.5-1.1 2.5-2.5S10.9 7 9.5 7 7 8.1 7 9.5 8.1 12 9.5 12zm0-4c.8 0 1.5.7 1.5 1.5S10.3 11 9.5 11 8 10.3 8 9.5 8.7 8 9.5 8zM14 9h9v1h-9zM9.5 26c1.4 0 2.5-1.1 2.5-2.5S10.9 21 9.5 21 7 22.1 7 23.5 8.1 26 9.5 26zm0-4c.8 0 1.5.7 1.5 1.5S10.3 25 9.5 25 8 24.3 8 23.5 8.7 22 9.5 22zm4.5 1h9v1h-9zm-4.5-4c1.4 0 2.5-1.1 2.5-2.5S10.9 14 9.5 14 7 15.1 7 16.5 8.1 19 9.5 19zm0-4c.8 0 1.5.7 1.5 1.5S10.3 18 9.5 18 8 17.3 8 16.5 8.7 15 9.5 15zm4.5 1h9v1h-9z"/></svg>