<svg xmlns="http://www.w3.org/2000/svg" height="20" viewBox="0 0 20 20"><path d="M19 .8c-.6-.5-1.5-.8-2.5-.8s-1.7.2-2.4.8c-.7.6-1 1.3-1.1 2.3h1.4c.2-1.3.9-2 2.1-2 .6 0 1.1.2 1.5.6.4.4.6.8.6 1.4 0 .3-.1.5-.2.8-.2.2-.5.6-1.1 1.1-.6.5-1 1-1.2 1.4-.2.4-.3.7-.3 1.6h1.3c0-.7.1-.8.2-1.1.1-.3.5-.7 1.1-1.2.6-.5 1.1-1.1 1.3-1.5.2-.4.3-.8.3-1.3 0-.8-.4-1.6-1-2.1zm-3.4 8.4h1.8V11h-1.8zM13 8.5C13 4.9 10.1 2 6.5 2S0 4.9 0 8.5 2.9 15 6.5 15 13 12.1 13 8.5zm-6.5 5.4c-3 0-5.4-2.4-5.4-5.4s2.4-5.4 5.4-5.4 5.4 2.4 5.4 5.4-2.4 5.4-5.4 5.4zm4.535.69l1.556-1.555 5.445 5.445-1.555 1.556z"/></svg>