<svg xmlns="http://www.w3.org/2000/svg" height="16" viewBox="0 0 16 16"><path d="M5 4c2.2 0 4 1.8 4 4s-1.8 4-4 4-4-1.8-4-4 1.8-4 4-4m0-1C2.2 3 0 5.2 0 8s2.2 5 5 5 5-2.2 5-5-2.2-5-5-5zm6.8 13L9 13.2l1.2-1.2 2.8 2.8z"/><path d="M15 .8c-.6-.5-1.5-.8-2.5-.8s-1.7.2-2.4.8C9.4 1.4 9.1 2 9 3h1.5c.2-1.3.9-2 2.1-2 .6 0 1.1.2 1.5.6.4.4.6.8.6 1.4 0 .3 0 .6-.2.8s-.5.6-1.1 1.1-1 1-1.2 1.4c-.2.4-.3.7-.3 1.6h1.3c0-.7.1-.8.2-1.1s.5-.7 1.1-1.2 1-1 1.2-1.4c.2-.4.3-.8.3-1.3 0-.8-.4-1.5-1-2.1zm-3.4 8.4h1.8V11h-1.8z"/></svg>