<svg xmlns="http://www.w3.org/2000/svg" height="20" viewBox="0 0 20 20"><path d="M14.7 8.9h-2.6l3.1-4.3L11 7.9c-.3-.1-.6-.2-.9-.2L8.9 5.3v2.6c-.2.2-.5.4-.6.6L6.8 8l1.1 1.1c-.2.3-.2.5-.2.8L5.3 11h2.6l-3.1 4.3L9 12.1c.3.1.6.2.9.2l1.1 2.4v-2.6c.2-.1.5-.3.6-.5l1.5.5L12 11c.1-.3.2-.6.2-.8l2.5-1.3zm-4.7 3h-.2c-.1 0-.3-.1-.4-.1l1.4-1 1-1.4c0 .1.1.2.1.2.1.4.1.8-.1 1.1-.2.4-.4.7-.7.9-.2.1-.4.2-.6.2-.2.1-.3.1-.5.1zm0-3.8h.2c.1 0 .3.1.4.1l-1.4 1-1 1.4c0-.1-.1-.2-.1-.2-.1-.5 0-1 .3-1.4.3-.4.7-.7 1.2-.8.1-.1.2-.1.4-.1z"/><path d="M10 0C4.5 0 0 4.5 0 10s4.5 10 10 10 10-4.5 10-10S15.5 0 10 0zm1.1 14.9l-.5 3H10c-3.5 0-6.4-2.2-7.5-5.3L5.1 11 2 10.6V10c0-3.5 2.2-6.4 5.3-7.5l1.6 2.6.5-3.1h.6c3.5 0 6.4 2.2 7.5 5.3l-2.6 1.6 3 .5v.6c0 3.5-2.2 6.4-5.3 7.5l-1.5-2.6z"/></svg>