<svg xmlns="http://www.w3.org/2000/svg" height="16" viewBox="0 0 16 16"><path d="M11.7 7.2H9.6l2.5-3.4-3.3 2.5c-.2-.1-.5-.1-.7-.2l-.9-1.8v2.1c-.3.1-.5.2-.6.4l-1.2-.4.9.9c-.1.2-.2.4-.2.6l-1.8.9h2.1l-2.5 3.4 3.4-2.6c.2.1.5.2.7.2l.9 1.9V9.6c.2-.1.4-.2.5-.4l1.2.4-.9-.9c.1-.2.1-.4.1-.7l1.9-.8zM8 9.5h-.2c-.1 0-.2 0-.3-.1l1.1-.8.8-1.1c0 .1 0 .1.1.2.1.3 0 .6-.1.9-.1.3-.3.5-.6.7-.1.1-.3.1-.5.2H8zm0-3h.2c.1 0 .2 0 .3.1l-1.1.8-.8 1.1c0-.1-.1-.1-.1-.2-.1-.4 0-.8.2-1.1.3-.3.6-.6 1-.7H8z"/><path d="M8 0C3.6 0 0 3.6 0 8s3.6 8 8 8 8-3.6 8-8-3.6-8-8-8zm.9 11.9l-.4 2.4H8c-2.8 0-5.1-1.8-6-4.3l2.1-1.3-2.5-.2V8c0-2.8 1.8-5.1 4.3-6l1.3 2.1.4-2.5h.5c2.8 0 5.2 1.8 6 4.3L12 7.2l2.4.4v.5c0 2.8-1.8 5.1-4.3 6l-1.2-2.2z"/></svg>