<svg xmlns="http://www.w3.org/2000/svg" height="30" viewBox="0 0 30 30"><path d="M16.7 14c-.3-.1-.7-.2-1.1-.3l-1.4-2.8V14c-.3.2-.6.4-.8.6l-1.8-.6 1.3 1.3c-.1.3-.2.7-.2 1l-2.8 1.4 3.1.1L9.2 23l5.1-4c.3.1.7.2 1.1.3l1.4 2.8.1-3.2c.3-.2.6-.4.8-.6l1.8.6-1.3-1.3c.1-.3.2-.7.2-1l2.8-1.4H18l3.8-5.2-5.1 4zm-3.3 3.3c0-.1-.1-.2-.1-.3-.1-.6 0-1.2.3-1.7s.8-.9 1.4-1c.2 0 .3-.1.5-.1h.3c.2 0 .3.1.5.1l-1.6 1.3-1.3 1.7zm4.2.1c-.2.4-.5.8-.9 1-.2.1-.4.2-.7.3-.2 0-.3.1-.5.1h-.3c-.2 0-.3-.1-.5-.1l1.6-1.3 1.2-1.7c0 .1.1.2.1.3.2.5.2.9 0 1.4z"/><path d="M15.5 3h-.8c.1-.2.1-.5.1-.8-.2-.8-1-1.3-2-1.3-.2 0-.4 0-.6.1-1.2.3-2.1 1.2-1.9 2.2.1.3.2.5.4.7C5.6 5.9 2 10.8 2 16.5 2 24 8 30 15.5 30S29 24 29 16.5 23 3 15.5 3zm-4.5.1c-.1-.3.1-.6.3-.7.3-.3.7-.5 1.1-.6h.5c.7 0 1.2.3 1.3.7 0 .2 0 .5-.2.7-.4-.3-.8-.5-1.3-.4-.5.1-.9.5-1.1.9-.4-.2-.6-.4-.6-.6zm8.1 23.6l-.4-.7-1.7-2.9-.5 3.3-.1.9h-.9c-4.7 0-8.7-3-10.2-7.2l.7-.4L8.9 18l-3.3-.5-.9-.1v-.9c0-4.7 3-8.7 7.2-10.2l.4.7L14 9.9l.5-3.3.1-.9h.8c4.7 0 8.7 3 10.2 7.2l-.6.4-2.9 1.7 3.3.5.9.1v.8c0 4.8-3 8.8-7.2 10.3z"/></svg>