<svg xmlns="http://www.w3.org/2000/svg" height="30" viewBox="0 0 30 30"><path d="M15 17H4v9h11v-9zm-6 8H5v-3h4v3zm0-4H5v-3h4v3zm5 4h-4v-3h4v3zm0-4h-4v-3h4v3z"/><path d="M16 11c0-1.1-.9-2-2-2s-2 .9-2 2v1H7v-1c0-1.1-.9-2-2-2s-2 .9-2 2v1H0v18h19V12h-3v-1zm-3 0c0-.6.4-1 1-1s1 .4 1 1v2h-2v-2zm-9 0c0-.6.4-1 1-1s1 .4 1 1v2H4v-2zm13 4v13H2V15h15zm8-3c.6 0 1-.4 1-1s-.4-1-1-1h-4V4c0-.6-.4-1-1-1s-1 .4-1 1v7c0 .6.4 1 1 1h5z"/><path d="M20 0c-5.5 0-10 4.5-10 10 0 .3 0 .7.1 1h.9c0-.8.3-1.6.9-2.1.6-4 4-7.1 8.1-7.1 4.5 0 8.2 3.7 8.2 8.2s-3.7 8.2-8.2 8.2V20c5.5 0 10-4.5 10-10S25.5 0 20 0z"/></svg>