<svg xmlns="http://www.w3.org/2000/svg" height="20" viewBox="0 0 20 20"><path d="M8 1C4.1 1 1 4.1 1 8s3.1 7 7 7 7-3.1 7-7-3.1-7-7-7zm0 12.8c-3.2 0-5.8-2.6-5.8-5.8S4.8 2.2 8 2.2s5.8 2.6 5.8 5.8-2.6 5.8-5.8 5.8z"/><path transform="rotate(-45.001 16.646 16.647)" d="M15.6 12.9h2v7.5h-2z"/><path d="M11 6.3c-.9.3-1.7.6-2.5 1 .2-1 .3-1.9.3-2.6H7.2c0 .4 0 1.3.2 2.6-.8-.4-1.5-.7-2.4-1l-.5 1.5c.9.2 1.7.4 2.7.6-.6.6-1.2 1.3-1.7 2l1.2.9c.5-.7 1-1.5 1.4-2.3.4.8.9 1.6 1.5 2.3l1.2-.9c-.6-.7-1.1-1.4-1.8-2 .9-.1 1.7-.3 2.6-.6L11 6.3z"/></svg>