<svg xmlns="http://www.w3.org/2000/svg" height="16" viewBox="0 0 16 16"><path d="M6 0C2.7 0 0 2.7 0 6s2.7 6 6 6 6-2.7 6-6-2.7-6-6-6zm0 11c-2.8 0-5-2.2-5-5s2.2-5 5-5 5 2.2 5 5-2.2 5-5 5z"/><path transform="rotate(-45.001 13.146 13.147)" d="M12.1 10.1h2v6.1h-2z"/><path d="M8.6 4.6c-.8.3-1.5.5-2.2.9.1-.9.2-1.6.2-2.2H5.3c0 .4 0 1.1.1 2.2-.7-.4-1.3-.7-2-.9L3 5.8c.7.2 1.5.4 2.3.5-.5.5-1 1.1-1.4 1.7l1 .7c.4-.6.8-1.2 1.2-1.9.4.7.8 1.3 1.2 1.9l1-.7c-.5-.6-1-1.2-1.5-1.7.7 0 1.5-.3 2.2-.5l-.4-1.2z"/></svg>