<svg xmlns="http://www.w3.org/2000/svg" height="30" viewBox="0 0 30 30"><path d="M12 2C6.5 2 2 6.5 2 12s4.5 10 10 10 10-4.5 10-10S17.5 2 12 2zm0 18c-4.4 0-8-3.6-8-8s3.6-8 8-8 8 3.6 8 8-3.6 8-8 8z"/><path transform="rotate(-45.001 24.5 24.5)" d="M23.4 19.2h2.1v10.6h-2.1z"/><path d="M16.3 9.7c-1.2.5-2.4.8-3.5 1.4.2-1.4.4-2.6.4-3.6H11c0 .6 0 1.8.2 3.6C10 10.5 9 10 7.7 9.7l-.7 2c1.2.4 2.4.6 3.9.8-.9.8-1.7 1.8-2.4 2.8l1.7 1.2c.7-1 1.3-2 2-3.1.6 1.1 1.3 2.2 2.1 3.1l1.7-1.2c-.9-1-1.6-1.9-2.6-2.8 1.2-.1 2.4-.5 3.7-.8l-.8-2z"/></svg>