<svg xmlns="http://www.w3.org/2000/svg" height="30" viewBox="0 0 30 30"><path d="M5 0v2H2v24h3v2H0V0zM21 13.8c4 0 7.2 3.2 7.2 7.2S25 28.2 21 28.2 13.8 25 13.8 21s3.2-7.2 7.2-7.2m0-1.8c-5 0-9 4-9 9s4 9 9 9 9-4 9-9-4-9-9-9z"/><path d="M21 16.8c2.3 0 4.2 1.9 4.2 4.2s-1.9 4.2-4.2 4.2-4.2-1.9-4.2-4.2 1.9-4.2 4.2-4.2m0-1.8c-3.3 0-6 2.7-6 6s2.7 6 6 6 6-2.7 6-6-2.7-6-6-6z"/><path d="M20 24.1l-2.5-2.6 1-1 1.5 1.4 3.5-3.4 1 1z"/><path d="M10.5 21c0-1 .2-2 .4-3H6.6C5.2 18 4 19.2 4 20.7V24h6.9c-.2-1-.4-2-.4-3zM11.8 16c.5-1 1.3-1.9 2.1-2.7-.7.4-1.5.7-2.4.7C9 14 7 12 7 9.5S9 5 11.5 5 16 7 16 9.5c0 1.2-.5 2.2-1.2 3 .9-.7 1.9-1.2 3-1.6.1-.5.2-1 .2-1.5C18 5.9 15.1 3 11.5 3S5 5.9 5 9.5 7.9 16 11.5 16h.3z"/><path d="M22 10.6c.7.1 1.4.2 2 .4V0h-5v2h3v8.6z"/></svg>