<svg xmlns="http://www.w3.org/2000/svg" height="20" viewBox="0 0 20 20"><path d="M4 0v1H1v14h3v1H0V0z"/><path d="M6.5 3C7.9 3 9 4.1 9 5.5S7.9 8 6.5 8 4 6.9 4 5.5 5.1 3 6.5 3m0-1C4.6 2 3 3.6 3 5.5S4.6 9 6.5 9 10 7.4 10 5.5 8.4 2 6.5 2z"/><path d="M13 15.7l-1.9-1.8.8-.8 1.1 1.2 2.6-2.7.8.8z"/><path d="M13.5 8c3 0 5.5 2.5 5.5 5.5S16.5 19 13.5 19 8 16.5 8 13.5 10.5 8 13.5 8m0-1C9.9 7 7 9.9 7 13.5S9.9 20 13.5 20s6.5-2.9 6.5-6.5S17.1 7 13.5 7z"/><path d="M6 13.5c0-1.3.3-2.5.9-3.5H4c-1 0-2 1-2 2v2h4v-.5z"/><path d="M12 6.2c.3-.1.7-.2 1-.2V0H9v1h3v5.2zM13.5 10c1.9 0 3.5 1.6 3.5 3.5S15.4 17 13.5 17 10 15.4 10 13.5s1.6-3.5 3.5-3.5m0-1C11 9 9 11 9 13.5s2 4.5 4.5 4.5 4.5-2 4.5-4.5S16 9 13.5 9z"/></svg>