<svg xmlns="http://www.w3.org/2000/svg" height="30" viewBox="0 0 30 30"><path fill="#949494" d="M23.5 19c-1.5 0-2.9.8-3.7 1.9l-8.9-4.5c.1-.3.1-.6.1-.9 0-.3 0-.6-.1-.9l8.9-4.5c.8 1.2 2.2 1.9 3.7 1.9C26 12 28 10 28 7.5S26 3 23.5 3 19 5 19 7.5c0 .3 0 .6.1.9l-8.9 4.5C9.4 11.8 8 11 6.5 11 4 11 2 13 2 15.5S4 20 6.5 20c1.5 0 2.9-.8 3.7-1.9l8.9 4.5c-.1.3-.1.6-.1.9 0 2.5 2 4.5 4.5 4.5s4.5-2 4.5-4.5-2-4.5-4.5-4.5zm0-14.2c1.5 0 2.7 1.2 2.7 2.7 0 1.5-1.2 2.7-2.7 2.7S20.8 9 20.8 7.5c0-1.5 1.2-2.7 2.7-2.7zm-17 13.4c-1.5 0-2.7-1.2-2.7-2.7 0-1.5 1.2-2.7 2.7-2.7s2.7 1.2 2.7 2.7c0 1.5-1.2 2.7-2.7 2.7zm17 8c-1.5 0-2.7-1.2-2.7-2.7 0-1.5 1.2-2.7 2.7-2.7s2.7 1.2 2.7 2.7c0 1.5-1.2 2.7-2.7 2.7z"/></svg>