<svg xmlns="http://www.w3.org/2000/svg" height="16" viewBox="0 0 16 16"><path fill="#949494" d="M13.5 10c-.9 0-1.7.5-2.1 1.2L6 8.9v-.8l5.4-2.3c.4.7 1.2 1.2 2.1 1.2C14.9 7 16 5.9 16 4.5S14.9 2 13.5 2 11 3.1 11 4.5v.4L5.6 7.2C5.2 6.5 4.4 6 3.5 6 2.1 6 1 7.1 1 8.5S2.1 11 3.5 11c.9 0 1.7-.5 2.1-1.2l5.4 2.3v.4c0 1.4 1.1 2.5 2.5 2.5s2.5-1.1 2.5-2.5-1.1-2.5-2.5-2.5zm0-7c.8 0 1.5.7 1.5 1.5S14.3 6 13.5 6 12 5.3 12 4.5 12.7 3 13.5 3zm-10 7C2.7 10 2 9.3 2 8.5S2.7 7 3.5 7 5 7.7 5 8.5 4.3 10 3.5 10zm10 4c-.8 0-1.5-.7-1.5-1.5s.7-1.5 1.5-1.5 1.5.7 1.5 1.5-.7 1.5-1.5 1.5z"/></svg>