<svg xmlns="http://www.w3.org/2000/svg" height="20" viewBox="0 0 20 20"><path fill="#949494" d="M16.5 13c-1.1 0-2 .5-2.7 1.2L7 10.8v-.6l6.9-3.4c.6.7 1.5 1.2 2.6 1.2C18.4 8 20 6.4 20 4.5S18.4 1 16.5 1 13 2.6 13 4.5c0 .4.1.8.2 1.2L6.7 9c-.6-1.2-1.8-2-3.2-2C1.6 7 0 8.6 0 10.5S1.6 14 3.5 14c1.4 0 2.6-.8 3.2-2l6.6 3.3c-.1.4-.2.8-.2 1.2 0 1.9 1.6 3.5 3.5 3.5s3.5-1.6 3.5-3.5c-.1-1.9-1.7-3.5-3.6-3.5zm0-10.8c1.3 0 2.3 1 2.3 2.3 0 1.3-1 2.3-2.3 2.3s-2.3-1-2.3-2.3c0-1.3 1-2.3 2.3-2.3zm-13 10.6c-1.3 0-2.3-1-2.3-2.3 0-1.3 1-2.3 2.3-2.3s2.3 1 2.3 2.3c0 1.3-1 2.3-2.3 2.3zm13 6c-1.3 0-2.3-1-2.3-2.3 0-1.3 1-2.3 2.3-2.3s2.3 1 2.3 2.3c0 1.3-1 2.3-2.3 2.3z"/></svg>