<svg xmlns="http://www.w3.org/2000/svg" height="30" viewBox="0 0 30 30"><path d="M26 1H4C2.3 1 1 2.3 1 4v22c0 1.7 1.3 3 3 3h22c1.7 0 3-1.3 3-3V4c0-1.7-1.3-3-3-3zm-1 19.4c-.2.4-1.1.8-2.6 1-.1 0-.2.3-.3.6 0 .2-.1.3-.1.5s-.1.2-.3.2c-.1 0-.2 0-.4-.1-.3-.1-.7-.1-1.1-.1-.3 0-.5 0-.8.1-.6.1-1 .4-1.5.8-.7.5-1.5 1.1-2.7 1.1H14.9c-1.2 0-2-.6-2.7-1.1-.5-.4-1-.7-1.5-.8-.3 0-.5-.1-.8-.1-.5 0-.8.1-1.1.1-.2 0-.3.1-.4.1-.1 0-.3 0-.3-.2S8 22.2 8 22c-.1-.4-.1-.6-.3-.6-1.5-.2-2.4-.6-2.6-1v-.1c0-.1.1-.2.2-.3 1.2-.2 2.2-.8 3.1-1.9.7-.8 1-1.6 1.1-1.7.2-.4.2-.7.1-.9-.2-.5-.8-.7-1.3-.8-.1 0-.2-.1-.3-.1-.4-.1-1-.5-.9-.9.1-.3.5-.5.8-.5h.2c.4.2.7.3 1 .3.4 0 .5-.1.6-.2v-.6c-.1-1.4-.2-3.1.2-4.1 1.3-2.9 4.1-3.2 4.9-3.2h.4c.8 0 3.6.2 4.9 3.2.4 1 .3 2.7.2 4.1v.6s.2.2.5.2.6-.1 1-.3c.1-.1.2-.1.3-.1.1 0 .3 0 .4.1.3.1.5.3.5.6 0 .2-.2.5-.9.8-.1 0-.2.1-.3.1-.4.1-1.1.3-1.3.8-.1.2-.1.6.1.9.1.1 1.3 3.1 4.2 3.6.1 0 .2.1.2.3v.1z"/></svg>