<svg xmlns="http://www.w3.org/2000/svg" height="20" viewBox="0 0 20 20"><path d="M18 0H2C.9 0 0 .9 0 2v16c0 1.1.9 2 2 2h16c1.1 0 2-.9 2-2V2c0-1.1-.9-2-2-2zm-.5 14c-.1.3-.8.6-1.9.7-.1 0-.1.2-.2.5 0 .1-.1.2-.1.3 0 .1-.1.2-.2.2h-.3c-.2 0-.5-.1-.8-.1-.2 0-.4 0-.6.1-.4.1-.8.3-1.2.6-.5.4-1.1.8-2 .8H10c-.9 0-1.5-.4-2-.8-.4-.3-.7-.5-1.2-.6-.2 0-.4-.1-.6-.1-.4 0-.6.1-.8.1h-.3c-.1 0-.2 0-.2-.2 0-.1-.1-.2-.1-.3-.1-.3-.1-.4-.2-.5-1.1-.2-1.8-.4-1.9-.7v-.1c0-.1.1-.2.2-.2.9-.1 1.7-.6 2.4-1.4.5-.6.8-1.2.8-1.2.1-.3.2-.5.1-.7-.1-.3-.6-.5-.9-.6-.1 0-.2 0-.2-.1-.6-.1-1.1-.3-1-.6 0-.2.4-.4.6-.4h.2c.3.1.5.2.8.2.2 0 .3-.1.3-.1v-.4c-.1-1-.1-2.3.2-3 1-2.2 3-2.3 3.6-2.3h.3c.6 0 2.7.2 3.7 2.3.3.7.2 2 .2 3v.4s.2.1.4.1.5-.1.7-.2h.2c.1 0 .2 0 .3.1.2 0 .3.2.4.3 0 .2-.1.4-.7.6-.1 0-.1 0-.2.1-.3.1-.8.3-.9.6-.1.2-.1.4.1.7 0 .1 1 2.3 3.2 2.6-.1 0 0 .1 0 .3 0-.1 0 0 0 0z"/></svg>