<svg xmlns="http://www.w3.org/2000/svg" height="16" viewBox="0 0 16 16"><path d="M14 0H2C.9 0 0 .9 0 2v12c0 1.1.9 2 2 2h12c1.1 0 2-.9 2-2V2c0-1.1-.9-2-2-2zm0 11.2c-.1.2-.6.4-1.5.6-.1 0-.1.1-.2.4 0 .1 0 .2-.1.3 0 .1-.1.1-.2.1h-.3c-.2 0-.4-.1-.7-.1h-.5c-.3.1-.6.3-.9.5-.4.3-.9.6-1.6.6h-.2c-.7 0-1.2-.3-1.6-.6-.3-.2-.6-.4-.9-.5h-.5c-.3 0-.5 0-.7.1h-.3c-.1 0-.2 0-.2-.1s0-.2-.1-.3c0-.2-.1-.4-.2-.4-.9-.1-1.4-.3-1.5-.6v-.1c.2 0 .2-.1.3-.1.7-.1 1.3-.5 1.9-1.1.4-.5.6-.9.6-1 .1-.2.1-.4.1-.5-.1-.3-.5-.5-.7-.5-.1 0-.1 0-.2-.1-.2-.1-.6-.3-.6-.5.1-.2.3-.3.5-.3h.1c.2.1.4.2.6.2.2 0 .3-.1.4-.1v-.4c0-.8-.1-1.8.2-2.4.8-1.7 2.4-1.9 2.9-1.9h.2c.5 0 2.1.1 2.9 1.9.3.6.2 1.6.1 2.4V7s.1.1.3.1c.2 0 .4-.1.6-.2h.4c.2.1.3.2.3.3 0 .1-.1.3-.5.5 0 0-.1 0-.2.1-.3.1-.6.2-.8.5-.1.1 0 .3.1.5 0 .1.8 1.8 2.5 2.1.2.1.2.2.2.3z"/></svg>