<svg xmlns="http://www.w3.org/2000/svg" height="30" viewBox="0 0 30 30"><path d="M8 25.5V29h14v-3.5c0-1.4-1.1-2.5-2.5-2.5h-8.9C9.1 23 8 24.1 8 25.5zM15 11.8c2.3 0 4.2 1.9 4.2 4.2s-1.9 4.2-4.2 4.2-4.2-1.9-4.2-4.2 1.9-4.2 4.2-4.2m0-1.8c-3.3 0-6 2.7-6 6s2.7 6 6 6 6-2.7 6-6-2.7-6-6-6zM7.6 13c.4-.9.9-1.7 1.5-2.3-.6.3-1.3.5-2.1.5-2.3 0-4.2-1.9-4.2-4.2S4.7 2.8 7 2.8s4.2 1.9 4.2 4.2c0 .9-.3 1.8-.8 2.5.7-.5 1.6-.9 2.5-1.2 0-.4.1-.9.1-1.3 0-3.3-2.7-6-6-6S1 3.7 1 7s2.7 6 6 6h.6zM23 1c-3.3 0-6 2.7-6 6 0 .4.1.9.1 1.3.9.3 1.8.7 2.5 1.2-.5-.7-.8-1.6-.8-2.5 0-2.3 1.9-4.2 4.2-4.2s4.2 1.9 4.2 4.2-1.9 4.2-4.2 4.2c-.8 0-1.5-.2-2.1-.6.6.7 1.1 1.5 1.5 2.3h.6c3.3 0 6-2.7 6-6C29 3.7 26.3 1 23 1zM27.5 14h-4.7c.2.6.3 1.3.3 2 0 1.5-.4 2.8-1.1 4h8v-3.5c0-1.4-1.1-2.5-2.5-2.5zM7 16c0-.7.1-1.4.3-2H2.5C1.1 14 0 15.1 0 16.5V20h8.1C7.4 18.8 7 17.5 7 16z"/></svg>