<svg xmlns="http://www.w3.org/2000/svg" height="20" viewBox="0 0 20 20"><path d="M10 8.2c1.5 0 2.8 1.3 2.8 2.8s-1.3 2.8-2.8 2.8-2.8-1.3-2.8-2.8S8.5 8.2 10 8.2M10 7c-2.2 0-4 1.8-4 4s1.8 4 4 4 4-1.8 4-4-1.8-4-4-4zM13.6 16H6.4c-.8 0-1.4.6-1.4 1.4V20h10v-2.6c0-.8-.6-1.4-1.4-1.4zM6.2 7.8c.5-.6 1.2-1.2 2-1.5.5-.6.8-1.4.8-2.3 0-2.2-1.8-4-4-4S1 1.8 1 4s1.8 4 4 4c.4 0 .8-.1 1.2-.2zM2.2 4c0-1.5 1.3-2.8 2.8-2.8S7.8 2.5 7.8 4 6.5 6.8 5 6.8 2.2 5.5 2.2 4zM5 11c0-.7.2-1.4.4-2h-4C.6 9 0 9.6 0 10.4V13h5.4c-.2-.6-.4-1.3-.4-2zM18.6 9h-4c.3.6.4 1.3.4 2s-.2 1.4-.4 2H20v-2.6c0-.8-.6-1.4-1.4-1.4zM15 0c-2.2 0-4 1.8-4 4 0 .9.3 1.7.8 2.3.8.3 1.5.8 2 1.5.4.1.8.2 1.2.2 2.2 0 4-1.8 4-4s-1.8-4-4-4zm0 6.8c-1.5 0-2.8-1.3-2.8-2.8s1.3-2.8 2.8-2.8 2.8 1.3 2.8 2.8-1.3 2.8-2.8 2.8z"/></svg>