<svg xmlns="http://www.w3.org/2000/svg" height="16" viewBox="0 0 16 16"><path d="M13 4v1.4h-2.6c-.2 1.4-.3 2-.3 3.3 0 .6.1 1.1.4 1.4.2.3.5.4.9.4.3 0 .5-.1.7-.3.2-.2.3-.5.4-.8h.3c-.1 1-.4 1.7-.7 2.1-.4.4-.8.6-1.3.6s-.9-.2-1.3-.7c-.4-.5-.5-1.3-.5-2.5 0-.8.1-1.4.4-3.5H6.8c-.2 3.2-.4 4.5-.7 5.4-.3.8-.7 1.2-1.2 1.2-.2 0-.4-.1-.6-.2-.2-.1-.2-.3-.2-.6 0-.2 0-.3.1-.4.1-.2.2-.4.5-.7.4-.5.7-1 .8-1.6.2-.9.4-1.4.5-3.1h-.5c-.5 0-.9 0-1.1.2-.4.2-.7.6-1 1.1H3c.4-1.1.8-1.8 1.3-2.2.3-.3.9-.5 1.5-.5H13z"/><path d="M15 1v14H1V1h14m1-1H0v16h16V0z"/></svg>