<svg xmlns="http://www.w3.org/2000/svg" height="20" viewBox="0 0 20 20"><path d="M16 5v1.7h-3.1c-.3 1.8-.4 2.5-.4 4.1 0 .8.1 1.4.4 1.7.3.3.6.5 1 .5.3 0 .6-.1.9-.3.2-.2.4-.6.5-1h.4c-.1 1.2-.4 2.1-.9 2.6s-1 .8-1.5.8c-.6 0-1.1-.3-1.5-.8-.4-.5-.6-1.6-.6-3.1 0-.9.1-1.7.4-4.4h-3c-.2 4.1-.5 5.6-.9 6.7-.3 1-.8 1.5-1.3 1.5-.3 0-.5-.1-.7-.3s-.3-.4-.3-.7c0-.2 0-.4.1-.5.1-.2.2-.5.5-.8.5-.6.8-1.3 1-2 .3-1.2.5-1.8.7-4H7c-.5 0-1 .1-1.2.3-.5.2-.9.7-1.3 1.4h-.4C4.5 7 5 6.1 5.6 5.6 6 5.2 6.7 5 7.5 5H16z"/><path d="M18 2v16H2V2h16m1-1H1v18h18V1z"/></svg>