<svg xmlns="http://www.w3.org/2000/svg" height="30" viewBox="0 0 30 30"><path d="M24 9v2.4h-4.4c-.4 2.5-.6 3.5-.6 5.7 0 1.1.2 1.9.6 2.4.4.5.9.7 1.5.7.5 0 .9-.2 1.2-.5.4-.3.6-.9.7-1.5h.6c-.2 1.7-.6 3-1.3 3.7-.6.7-1.3 1.1-2.1 1.1-.9 0-1.6-.4-2.2-1.2-.6-.8-.9-2.2-.9-4.3 0-1.3.2-2.4.6-6.2h-4.3c-.3 5.7-.8 7.9-1.2 9.4-.5 1.5-1.2 2.3-2 2.3-.4 0-.7-.1-1-.4s-.4-.6-.4-1c0-.3 0-.5.1-.7.1-.3.4-.7.8-1.2.7-.9 1.1-1.8 1.4-2.8.5-1.6.8-2.6.9-5.6h-.9c-.8 0-1.4.1-1.8.4-.6.4-1.2 1.1-1.8 2H7c.6-1.9 1.3-3.2 2.2-3.9.6-.5 1.5-.8 2.6-.8H24z"/><path d="M27 4v23H4V4h23m2-2H2v27h27V2z"/></svg>