<svg xmlns="http://www.w3.org/2000/svg" height="16" viewBox="0 0 16 16"><path d="M4.4 9.4l-.6-.3C3.6 9 3.3 9 2.9 9c-.2 0-.5 0-.8.1-.3.1-.5.1-.6.2h-.1v1.2h.3c.2-.1.5-.2.7-.3.4-.1.7-.1 1-.1.1 0 .2.1.3.1l.2.2c0 .1.1.3.1.4-.4 0-.7.1-1 .1-.4.1-.7.2-1 .3-.3.2-.6.4-.7.7-.1.3-.2.6-.2 1 0 .3 0 .5.1.7l.3.6c.1.2.3.3.5.4.1.4.3.4.6.4s.4 0 .6-.1c.1 0 .3-.1.4-.2.1-.1.2-.1.3-.3v.4H5V11c0-.4 0-.7-.1-.9-.1-.3-.3-.5-.5-.7zM3.9 12v1.2c-.2.2-.3.3-.5.4-.2.1-.4.2-.6.2-.2 0-.4-.1-.6-.2-.1-.1-.2-.3-.2-.6 0-.2.1-.4.2-.5.1-.1.3-.2.5-.3.2-.1.4-.1.7-.1.2 0 .4 0 .5-.1zm4.3-2.7c-.3 0-.6.1-.8.2-.1.1-.2.2-.4.3V7H6v7.8h1v-.2c.1.1.2.2.3.2.2.2.5.2.7.2.6 0 1.1-.3 1.4-.9.4-.6.6-1.2.6-2.1 0-.8-.1-1.4-.5-2-.3-.4-.7-.7-1.3-.7zm.7 2.8c0 .7-.1 1-.3 1.3-.2.3-.4.4-.8.4-.2 0-.3 0-.4-.1-.1 0-.3-.1-.4-.3V11c.1-.1.3-.3.5-.4.2-.1.4-.2.5-.2.3 0 .5.1.6.4.3.4.3.7.3 1.3zm4.9-1.9c.1 0 .3.1.4.2.1.1.2.1.3.2.1.1.2.1.2.2h.3V9.5h-.1c-.2-.1-.4-.2-.7-.3-.5-.3-1.2-.2-1.8 0-.3.1-.6.3-.8.6-.2.3-.4.6-.5.9 0 .4-.1.8-.1 1.3s.1.9.2 1.3.3.7.5.9c.2.3.5.4.8.6.3.1.6.2 1 .2h.5c.1 0 .2-.1.4-.1.1 0 .2-.1.4-.1.1-.1.2-.1.3-.2h.1v-1.3h-.3c-.2.2-.4.3-.6.4-.2.1-.5.2-.7.2-.4 0-.7-.2-.9-.5-.2-.3-.3-.8-.3-1.4 0-.6.1-1.1.4-1.4 0-.4.5-.6 1-.4zM10 8.1L7 5l1-1 2 1.9 4.5-4.4 1 1z"/></svg>