<svg xmlns="http://www.w3.org/2000/svg" height="20" viewBox="0 0 20 20"><path d="M5.3 12.5c-.2-.2-.5-.3-.8-.4-.3-.1-.6-.1-1.1-.1-.3 0-.7 0-1 .1-.3.1-.6.1-.8.2h-.1v1.4h.3l.9-.3c.5-.1.9-.1 1.3-.1.2 0 .3.1.4.1.1.1.2.2.2.3.1.1.1.3.1.5-.5 0-.9.1-1.3.1-.5.1-.9.2-1.2.4-.4.2-.7.5-.9.8-.2.4-.3.8-.3 1.3 0 .3.1.6.2.9.1.3.2.5.4.7.2.2.4.3.6.5.2 0 .5.1.8.1.3 0 .6 0 .7-.1.2-.1.3-.1.5-.2.1-.1.3-.2.4-.3v.5H6v-4.5c0-.4-.1-.8-.2-1.1-.1-.3-.3-.6-.5-.8zm-.6 3V17c-.2.2-.4.3-.6.5-.2.1-.5.2-.7.2-.3 0-.5-.1-.7-.2-.1-.1-.2-.4-.2-.7 0-.3.1-.5.2-.6.1-.2.3-.3.6-.3.2-.1.5-.1.8-.2.1-.1.4-.1.6-.2zm5.1-3.6c-.4 0-.7.1-1 .3-.2.1-.3.2-.5.4V9H7v9.8h1.3v-.2c.1.1.2.2.4.3.2 0 .5.1.8.1.7 0 1.3-.4 1.8-1.1.5-.8.7-1.5.7-2.6s-.2-1.8-.6-2.4c-.3-.7-.9-1-1.6-1zm.9 3.5c0 .9-.1 1.3-.4 1.6-.2.4-.5.5-1 .5-.2 0-.4 0-.5-.1-.1 0-.4-.1-.5-.4v-3c.2-.2.4-.3.6-.5.2-.1.5-.2.7-.2.4 0 .6.2.8.5.2.4.3.8.3 1.6zm5.8-2c.2.1.3.1.5.2s.3.2.4.2c.1.1.2.1.3.2h.3v-1.5l-.1-.1c-.3-.1-.5-.3-.9-.4-.7-.2-1.6-.2-2.2.1-.4.2-.7.4-1 .7-.3.3-.5.7-.6 1.1-.1.4-.2.9-.2 1.5s.1 1.1.2 1.5c.1.4.4.8.6 1.1.3.3.6.5 1 .7.4.1.8.2 1.2.2h.6c.1 0 .3-.1.5-.1.1 0 .3-.1.4-.2.2-.1.3-.1.4-.2l.1-.1v-1.5h-.3l-.1.2c-.2.2-.5.4-.7.5-.3.1-.6.2-.9.2-.5 0-.9-.2-1.1-.6-.3-.4-.4-.9-.4-1.6 0-.7.1-1.3.4-1.7.4-.4.9-.6 1.6-.4zM12 10.1L8.5 6.5l1-1L12 7.9l5.5-5.4 1 1z"/></svg>