<svg xmlns="http://www.w3.org/2000/svg" height="30" viewBox="0 0 30 30"><path d="M8.2 17.7c-.3-.3-.7-.5-1.2-.6-.4 0-.9-.1-1.5-.1-.5 0-1 .1-1.5.1-.5.1-.9.2-1.2.3l-.2.1v2h.5c.5-.2.9-.4 1.3-.5.8-.2 1.3-.2 1.9-.1.2 0 .4.1.6.2.1.1.2.2.3.4.1.2.1.4.1.7-.7 0-1.3.1-1.9.2-.7.1-1.3.3-1.8.5-.6.3-1 .7-1.3 1.2-.2.5-.3 1.1-.3 1.8 0 .4.1.9.2 1.2.1.4.3.7.6 1 .3.3.6.5.9.6.4.2.7.3 1.1.3.5 0 .8 0 1.1-.1.2-.1.5-.2.8-.3.2-.1.4-.2.6-.4v.7h1.9v-6.4c0-.6-.1-1.1-.2-1.5-.2-.6-.4-1-.8-1.3zm-.9 4.4v2.1c-.3.3-.6.5-.9.6-.3.2-.7.3-1.1.3-.4 0-.8-.1-1-.3-.2-.2-.3-.5-.3-1 0-.4.1-.7.3-.9.2-.2.5-.4.8-.5.3-.1.7-.2 1.2-.2.4-.1.7-.1 1-.1zm7.9-5.1c-.6 0-1 .1-1.4.4-.2.1-.5.3-.7.5V13h-1.8v13.7h1.8v-.3c.2.2.3.3.5.4.3.1.7.2 1.2.2 1 0 1.9-.5 2.5-1.5.7-1.1 1-2.1 1-3.6s-.2-2.5-.8-3.4c-.6-1-1.3-1.5-2.3-1.5zm1.2 5c0 1.3-.2 1.8-.5 2.3-.3.5-.8.7-1.3.7-.3 0-.5 0-.8-.1-.2-.1-.5-.2-.7-.5V20c.3-.3.5-.5.8-.6.3-.2.6-.3 1-.3.5 0 .9.2 1.1.7.2.5.4 1 .4 2.2zm8.7-3c.3.1.5.2.7.3l.6.3c.2.1.3.2.4.3l.1.1h.5v-2.1l-.1-.1c-.4-.2-.8-.4-1.2-.5-1.1-.3-2.3-.3-3.3.1-.6.2-1 .6-1.4 1-.4.4-.7.9-.9 1.5-.4.6-.5 1.3-.5 2.1s.1 1.6.3 2.2c.2.6.5 1.2.9 1.6.4.4.9.7 1.4.9.5.2 1.1.3 1.8.3.3 0 .6 0 .8-.1.2 0 .4-.1.7-.2.2-.1.4-.1.6-.2l.6-.3.2-.1V24h-.5l-.1.1c-.3.3-.7.6-1.1.7-.4.2-.8.3-1.3.3-.7 0-1.3-.3-1.7-.8-.4-.5-.6-1.3-.6-2.3 0-1 .2-1.8.6-2.4.7-.7 1.5-.9 2.5-.6zm-6.9-4.9l-4.7-4.7L15 8l3.2 3.3L26.5 3 28 4.4z"/></svg>