<svg xmlns="http://www.w3.org/2000/svg" height="20" viewBox="0 0 20 20"><path d="M10 17h6v-5h-6v5zm1-4h4v3h-4v-3z"/><path d="M19.9 6.8c-.1-.2-.1-.3-.2-.5l-2.2-4.1c-.3-.6-.6-1.2-1.9-1.2H4.4c-1.2 0-1.7.5-1.9 1.2L.3 6.3c-.1.1-.1.3-.2.4 0 .3-.1.5-.1.8 0 1.2.9 2.2 2 2.4V20h16V9.9c1.1-.2 2-1.2 2-2.4 0-.3-.1-.5-.1-.7zM8 19H5v-6h3v6zm9 0H9v-7H4v7H3V9.9c1.1-.2 2-1.2 2-2.4C5 8.9 6.1 10 7.5 10S10 8.9 10 7.5c0 1.4 1.1 2.5 2.5 2.5S15 8.9 15 7.5c0 1.2.9 2.2 2 2.4V19zm0-12H3V3h14v4z"/><path d="M4 4h12v2H4z"/></svg>