<svg xmlns="http://www.w3.org/2000/svg" height="30" viewBox="0 0 30 30"><path d="M16 22h7v-6h-7v6zm1-5h5v4h-5v-4z"/><path d="M29.8 9.1c-.1-.3-.2-.5-.3-.7l-3.3-5.6c-.5-1-1.3-1.8-2.8-1.8H6.6c-1.5 0-2.3.8-2.8 1.9L.5 8.5l-.3.6c-.1.4-.2.8-.2 1.1 0 1.8 1.3 3.3 3 3.7V29h24V13.9c1.7-.3 3-1.9 3-3.7 0-.3-.1-.7-.2-1.1zM13 27H8V17h5v10zm12 0H14V16H7v11H5V13.8c1.5-.5 2.5-1.9 2.5-3.5 0 2.1 1.7 3.8 3.8 3.8s3.8-1.7 3.8-3.8c0 2.1 1.7 3.8 3.8 3.8s3.8-1.7 3.8-3.8c0 1.6 1 3 2.5 3.5V27zm1-18H4V4h22v5z"/><path d="M5 5h20v3H5z"/></svg>