<svg xmlns="http://www.w3.org/2000/svg" height="20" viewBox="0 0 20 20"><path d="M19 10h-6.1c-.6-.4-1.3-.8-2.1-1.2-1.2-.6-1.9-1-2.3-1.2-.4-.3-.8-.7-1-1-.1-.3-.2-.6-.2-.9 0-.5.2-.9.6-1.3.4-.4 1-.6 1.7-.6.9 0 1.8.4 2.6 1.1.8.7 1.3 1.7 1.5 2.9h.4L14 3h-.3c-.1.4-.2.7-.3.8-.1.1-.3.2-.4.2-.2 0-.5-.1-1-.3-.5-.2-.9-.4-1.2-.5-.5-.1-.9-.2-1.4-.2-1.3 0-2.3.4-3.1 1.2C5.4 5 5 6 5 7.1c0 .7.2 1.3.5 1.9.2.3.5.7.8 1H1v1h6.6c.5.3 1.2.7 2 1.1.9.5 1.6.8 1.9 1.1.4.3.6.6.8.9.2.3.3.6.3 1 0 .6-.2 1.1-.7 1.5-.5.4-1.1.6-1.9.6-1 0-2-.4-2.8-1.2-.9-.8-1.5-2-1.8-3.5H5V18h.4c.1-.3.3-.5.5-.6.2-.1.4-.2.6-.2.2 0 .5.1.8.2.6.3 1.1.4 1.5.5.4.1.8.1 1.3.1 1.4 0 2.6-.4 3.5-1.3.9-.9 1.4-1.9 1.4-3.1 0-.9-.3-1.8-.9-2.5L14 11h5v-1z"/></svg>