<svg xmlns="http://www.w3.org/2000/svg" height="16" viewBox="0 0 16 16"><path d="M16 7h-5.7c-.3-.2-.7-.4-1.1-.6-1.1-.6-1.8-1-2.1-1.2-.4-.3-.7-.6-.8-.9-.2-.2-.2-.5-.2-.8 0-.5.2-.9.6-1.2.3-.4.8-.5 1.4-.5.8 0 1.6.3 2.3 1 .7.7 1.2 1.6 1.3 2.7h.4V1h-.3c-.1.4-.2.7-.3.8-.1.1-.2.2-.4.2s-.5-.1-.9-.3c-.4-.3-.7-.5-1-.5C8.8 1.1 8.4 1 8 1c-1.2 0-2.1.4-2.9 1.1C4.4 2.9 4 3.8 4 4.8c0 .7.1 1.2.4 1.8.1.1.2.3.3.4H1v1h4.6c.6.4 1.4.9 2.5 1.5.8.4 1.4.8 1.7 1 .3.3.6.5.7.8.2.3.2.6.2.9 0 .5-.2 1-.6 1.4-.4.4-1 .6-1.7.6-.9 0-1.8-.4-2.6-1.1-.8-.7-1.3-1.8-1.6-3.2H4v5h.4c.1-.3.3-.5.4-.6.2-.1.4-.2.5-.2.2 0 .4.1.7.2.5.2 1 .4 1.4.5.4.2.8.2 1.2.2 1.3 0 2.3-.4 3.2-1.2.8-.8 1.2-1.8 1.2-2.9 0-.9-.3-1.7-.8-2.4-.1-.2-.3-.4-.5-.6H16V7z"/></svg>