<svg xmlns="http://www.w3.org/2000/svg" height="30" viewBox="0 0 30 30"><path d="M29 14H18.7c-.7-.5-1.5-.9-2.4-1.4-1.9-1-3.1-1.7-3.7-2-.7-.6-1.3-1.1-1.6-1.7-.2-.4-.3-.9-.3-1.4 0-.8.3-1.6 1-2.2.7-.6 1.6-1 2.7-1 1.5 0 2.9.6 4.1 1.8 1.3 1.2 2.1 2.8 2.4 4.8h.7l-.2-8h-.5c-.1.7-.3 1.2-.5 1.4-.2.2-.4.3-.7.3-.3 0-.8-.2-1.6-.6-.8-.4-1.4-.6-1.9-.8-.7-.1-1.4-.2-2.1-.2-2 0-3.7.7-5 2C7.7 6.4 7 8 7 9.9c0 1.1.3 2.1.8 3 .2.4.4.7.7 1.1H1v2h9.6c.9.6 2.2 1.4 3.7 2.2 1.5.8 2.5 1.4 3.1 1.9.6.5 1 1 1.3 1.5.3.5.4 1.1.4 1.6 0 1-.4 1.8-1.1 2.5-.7.7-1.8 1.1-3 1.1-1.6 0-3.1-.7-4.5-2S8.1 21.5 7.7 19H7v9h.6c.2-.5.5-.8.8-1.1.3-.2.6-.4.9-.4.3 0 .8.1 1.3.4 1 .4 1.8.7 2.4.9.6.2 1.3.2 2 .2 2.3 0 4.2-.7 5.7-2.2 1.5-1.4 2.2-3.2 2.2-5.1 0-1.6-.5-3-1.4-4.2-.1-.2-.3-.3-.4-.5H29v-2z"/></svg>