<svg xmlns="http://www.w3.org/2000/svg" height="30" viewBox="0 0 30 30"><path d="M16.2 9.3c.4-.3.7-.5 1-.5.1 0 .4.1 1.1.3.9.3 1.7.2 2.3-.3.3-.2.4-.6.4-1.1 0-.5-.2-.8-.5-1.2-.4-.3-.9-.5-1.5-.5-.4 0-.8.1-1.1.2-.5.2-1.1.6-1.7 1.1-.6.6-1.2 1.2-1.7 1.8L13 11.4c-.5-1.8-.8-2.8-1.1-3.3-.3-.7-.8-1.4-1.4-2V6l-5.4.9v1h1.2c.9 0 1.5.2 2 .5.4.3.8.8 1.1 1.6 0 .1.3 1.1 1.3 4.8-.3.7-1 1.8-2 3.4-1 1.6-1.8 2.6-2.4 3.1-.3.2-.4.3-.5.3-.1 0-.3-.1-.7-.4-.5-.4-1-.7-1.4-.7-.5 0-.9.2-1.2.5-.3.3-.5.7-.5 1.2s.2.9.5 1.3c.5.3 1 .5 1.5.5.8 0 1.6-.3 2.4-1 1.2-1 2.7-3.1 4.6-6.3.8 3.6 1.3 5.5 1.6 6 .5.8 1.1 1.3 1.9 1.3.5 0 1.2-.3 1.9-.9 1.3-1 2.3-2.3 3.1-3.8l.1-.1-1-.5-.1.1c-.5.9-1.1 1.7-1.8 2.2-.3.3-.6.4-.9.4-.1 0-.2-.1-.4-.2-.1-.1-.3-.5-.6-1.7L13.5 13c1-1.8 2-3 2.7-3.7zM24.9 28H19v-.3c1.5-1.4 2.8-2.6 3.9-3.8.9-1 1.4-1.7 1.7-2.2.2-.5.3-1 .3-1.5s-.2-.9-.5-1.2c-.3-.3-.7-.5-1.2-.5-.7 0-1.4.4-1.9 1.2l-.3-.1c.3-.8.7-1.4 1.1-1.8.6-.6 1.4-.8 2.2-.8.8 0 1.4.2 1.9.7.5.5.8 1 .8 1.6 0 .5-.1 1.1-.4 1.6-.2.5-.8 1.2-1.5 2-.6.6-1.8 1.7-3.6 3.2h2.1c.7 0 1.2-.1 1.4-.2.3-.2.5-.5.8-.9h.4l-1.3 3z"/></svg>