<svg xmlns="http://www.w3.org/2000/svg" height="20" viewBox="0 0 20 20"><path d="M10.6 6c.2-.2.4-.3.6-.3.1 0 .3 0 .7.2.6.2 1 .1 1.4-.2.1-.1.2-.3.2-.7 0-.3-.1-.5-.3-.7-.3-.2-.6-.3-.9-.3-.2 0-.5 0-.7.1-.3.1-.7.4-1.1.7-.4.3-.7.7-1 1.1l-.9 1.4c-.2-1.1-.5-1.8-.6-2-.2-.4-.5-.9-.9-1.3l-3.2.6v.6h.7c.5 0 .9.1 1.2.3.2.1.5.5.7 1 0 .1.2.7.8 2.9-.3.4-.7 1.1-1.3 2.1-.6 1-1.1 1.6-1.5 1.9-.2.1-.2.2-.3.2 0 0-.2 0-.4-.2-.3-.4-.5-.5-.8-.5-.3 0-.5.1-.7.3-.2.2-.3.4-.3.7 0 .3.1.6.3.8.3.2.6.3.9.3.5 0 .9-.2 1.4-.6.7-.6 1.7-1.9 2.8-3.9.5 2.2.8 3.4 1 3.7.3.5.7.8 1.1.8.3 0 .7-.2 1.1-.5.8-.6 1.4-1.4 1.9-2.3v-.1l-.5-.3v.1c-.3.6-.7 1-1.1 1.4-.2.2-.4.3-.5.3-.1 0-.1 0-.2-.1s-.2-.3-.3-1.1l-.9-4c.5-1.2 1.1-2 1.6-2.4zm7.1 2H14v-.2c1-.9 1.8-1.7 2.4-2.4.5-.6.9-1.1 1-1.4.1-.3.2-.6.2-1 0-.3-.1-.6-.3-.7-.1-.2-.4-.3-.7-.3-.5 0-.9.3-1.2.8l-.2-.1c.2-.5.4-.9.7-1.1.4-.4.9-.6 1.4-.6.5 0 .9.1 1.2.4.3.3.5.6.5 1 0 .3-.1.7-.2 1-.2.3-.5.8-1 1.3-.4.4-1.1 1.1-2.3 2h1.3c.4 0 .7 0 .9-.1.2-.1.3-.3.5-.6h.2l-.7 2z"/></svg>