<svg xmlns="http://www.w3.org/2000/svg" height="16" viewBox="0 0 16 16"><path d="M7.5 4.8c.2-.1.4-.2.5-.2.1 0 .2 0 .6.2.5.2.9.1 1.2-.2.1-.2.2-.4.2-.7 0-.3-.1-.5-.3-.7-.2-.1-.4-.2-.7-.2-.2 0-.4 0-.6.1-.3.1-.6.4-.9.7-.3.3-.6.6-.9 1L5.8 6c-.2-1-.4-1.6-.6-1.8-.1-.4-.4-.8-.7-1.2l-2.9.5V4h.6c.5 0 .8.1 1 .3.2.2.4.5.6.9 0 .1.2.6.7 2.7-.1.4-.5 1-1 1.9-.5.9-1 1.5-1.3 1.7l-.2.2s-.1 0-.3-.2c-.3-.2-.5-.4-.8-.4-.2 0-.4.1-.6.3-.2.1-.3.3-.3.6s.1.5.3.7c.2.2.5.3.8.3.4 0 .8-.2 1.3-.5C3 12 3.8 10.8 4.8 9c.4 2 .7 3.1.8 3.4.2.5.6.7 1 .7.3 0 .6-.2 1-.5.7-.6 1.2-1.3 1.7-2.1v-.1l-.5-.3v.1c-.3.5-.6.9-.9 1.2-.2.2-.3.2-.5.2-.1 0-.1 0-.2-.1s-.2-.3-.3-1L6 6.9c.6-1 1.1-1.7 1.5-2.1zM14.7 7H11v-.2c1-.9 1.8-1.7 2.4-2.4.5-.6.9-1.1 1-1.4.1-.3.2-.6.2-1 0-.3-.1-.6-.3-.7s-.4-.3-.7-.3c-.5 0-.9.3-1.2.8l-.2-.1c.2-.5.4-.9.7-1.1.4-.4.9-.6 1.4-.6.5 0 .9.1 1.2.4.3.3.5.6.5 1 0 .3-.1.7-.2 1-.2.3-.5.8-1 1.3-.4.4-1.1 1.1-2.3 2h1.3c.4 0 .7 0 .9-.1.2-.1.3-.3.5-.6h.2l-.7 2z"/></svg>