<svg xmlns="http://www.w3.org/2000/svg" height="30" viewBox="0 0 30 30"><path transform="rotate(-45.001 21.818 25.217)" d="M20.7 21h2.2v8.5h-2.2z"/><path d="M28.4 2.3c-1-.9-2.3-1.3-4-1.3-1.6 0-2.8.4-3.8 1.2s-1.5 2-1.7 3.5v.1l2.4.3V6c.2-1.1.5-1.9 1.1-2.4.6-.5 1.3-.8 2.1-.8.9 0 1.6.3 2.2.8.6.6.9 1.2.9 1.9 0 .4-.1.8-.3 1.1-.2.3-.7.8-1.3 1.4-.7.6-1.2 1.1-1.5 1.4-.4.4-.7.9-.8 1.3-.2.6-.3 1-.3 1.8v.9h2.3v-.2c0-.7 0-1.2.1-1.6.1-.3.2-.6.4-.9s.6-.7 1.3-1.2c1-.8 1.7-1.6 2-2.2.3-.6.5-1.3.5-2-.1-1-.6-2.1-1.6-3zM23 15h2.5v2.5H23zM15 0H0v15h15V0zm-5 2v2H8V2h2zM7 8v2H5V8h2zM5 7V5h2v2H5zm3 1h2v2H8V8zm0-1V5h2v2H8zM7 2v2H5V2h2zM2 2h2v2H2V2zm0 3h2v2H2V5zm0 3h2v2H2V8zm0 5v-2h2v2H2zm3 0v-2h2v2H5zm3 0v-2h2v2H8zm5 0h-2v-2h2v2zm0-3h-2V8h2v2zm0-3h-2V5h2v2zm0-3h-2V2h2v2z"/><path d="M16 6.8v2.7c1.2 1.3 2 3.1 2 5.1 0 4.1-3.4 7.5-7.5 7.5-3.6 0-6.6-2.6-7.3-6h-2c.7 4.5 4.7 8 9.4 8 5.2 0 9.5-4.3 9.5-9.5-.1-3.3-1.7-6.1-4.1-7.8z"/></svg>