<svg xmlns="http://www.w3.org/2000/svg" height="16" viewBox="0 0 16 16"><path transform="rotate(-45.001 11 14)" d="M10.2 12h1.7v4h-1.7z"/><path d="M15 .8c-.6-.5-1.5-.8-2.5-.8s-1.7.2-2.4.8C9.4 1.4 9.1 2 9 3h1.5c.2-1.3.9-2 2.1-2 .6 0 1.1.2 1.5.6.4.4.6.8.6 1.4 0 .3 0 .6-.2.8s-.5.6-1.1 1.1c-.6.5-1 1-1.2 1.4s-.3.8-.3 1.7h1.3c0-.7.1-.9.2-1.2.1-.3.5-.7 1.1-1.2s1-1 1.2-1.4c.2-.4.3-.8.3-1.3 0-.8-.4-1.5-1-2.1zM11.6 9.2h1.8V11h-1.8zM7 1H0v7h7V1zM4 2v1H3V2h1zm0 2v1H3V4h1zM1 2h1v1H1V2zm0 2h1v1H1V4zm0 3V6h1v1H1zm2 0V6h1v1H3zm3 0H5V6h1v1zm0-2H5V4h1v1zm0-2H5V2h1v1z"/><path d="M8 4v1.4C8.6 6.1 9 7 9 8c0 2.2-1.8 4-4 4-1.9 0-3.4-1.3-3.9-3h-1c.5 2.3 2.4 4 4.9 4 2.8 0 5-2.2 5-5 0-1.7-.8-3.1-2-4z"/></svg>