<svg xmlns="http://www.w3.org/2000/svg" height="20" viewBox="0 0 20 20"><path d="M19 .8c-.6-.5-1.5-.8-2.5-.8s-1.7.2-2.4.8c-.7.6-1 1.2-1.1 2.2h1.4c.2-1.3.9-1.9 2.1-1.9.6 0 1.1.2 1.5.6.4.4.6.8.6 1.4 0 .3-.1.5-.2.8-.2.2-.5.6-1.1 1.1-.6.5-1 1-1.2 1.4-.2.4-.3.7-.3 1.6h1.3c0-.7.1-.8.2-1.1.1-.3.5-.7 1.1-1.2.6-.5 1.1-1.1 1.3-1.5.2-.4.3-.8.3-1.3 0-.8-.4-1.6-1-2.1zM15.6 9.2h1.8V11h-1.8z"/><path transform="rotate(-45.001 14.535 16.5)" d="M13.4 12.6h2.2v7.7h-2.2z"/><path d="M10 0H0v10h10V0zM6 1v2H4V1h2zm0 3v2H4V4h2zM1 1h2v2H1V1zm0 3h2v2H1V4zm0 5V7h2v2H1zm3 0V7h2v2H4zm5 0H7V7h2v2zm0-3H7V4h2v2zm0-3H7V1h2v2z"/><path d="M13 8.5c0-1.8-.8-3.5-2-4.7v1.7c.6.9.9 1.9.9 3 0 3-2.4 5.4-5.4 5.4-2.1 0-3.8-1.2-4.7-2.9H.5c1 2.3 3.3 4 6 4 3.6 0 6.5-2.9 6.5-6.5z"/></svg>