<svg xmlns="http://www.w3.org/2000/svg" height="30" viewBox="0 -7 30 30"><path d="M7.6 1.9c.9 0 1.6.7 1.6 1.6s-.8 1.6-1.6 1.6S6 4.4 6 3.5s.7-1.6 1.6-1.6m0-1.2C6.1.7 4.8 2 4.8 3.5S6 6.3 7.6 6.3s2.8-1.2 2.8-2.8S9.1.7 7.6.7z"/><path d="M15.4 23c-.3 0-.5-.1-.7-.3L1.3 9.2c-.2-.1-.3-.4-.3-.7V-2c0-.6.4-1 1-1h10.6c.3 0 .5.1.7.3l13.4 13.4c.4.4.4 1 0 1.4L16.1 22.7c-.1.2-.4.3-.7.3zM3 8.1l12.4 12.5 9.1-9.2L12.1-1H3v9.1z"/><path d="M28.7 6.7L15.3-6.7c-.2-.2-.5-.3-.7-.3H4c-.6 0-1 .4-1 1v1h11.1L28 8.8l.7-.7c.4-.4.4-1 0-1.4z"/></svg>