<svg xmlns="http://www.w3.org/2000/svg" height="20" viewBox="0 0 20 20"><path d="M15 0H5v8.5h1V1h8v5h5v13H6v-2H5v3h15V5z"/><path d="M11 15.9V9H9.4v2.1c-.2-.1-.4-.2-.6-.2-.2-.1-.4-.1-.7-.1-.3 0-.6.1-.8.2-.3.1-.5.3-.7.5-.2.2-.4.5-.5.8S6 13 6 13.4c0 .8.2 1.4.5 1.9s.8.7 1.4.7h.4c.1 0 .2-.1.4-.1.1 0 .2-.1.3-.2.1-.1.2-.2.4-.3v.5H11zm-2-1.2c-.1.1-.3.1-.4.1-.3 0-.6-.1-.7-.3-.2-.2-.2-.6-.2-1.1 0-.5.1-.8.3-1.1.2-.3.5-.4.9-.4h.3c.1 0 .2.1.3.1v2.4c-.2.2-.3.3-.5.3zm8-1.3c0-.4-.1-1-.2-1.3-.1-.3-.3-.5-.5-.7-.2-.2-.5-.3-.8-.4-.3-.1-.6-.1-1-.1-.8 0-1.4.2-1.9.7-.4.4-.6 1-.6 1.8s.3 1.4.8 1.9 1.2.7 2.1.7h.6c.1 0 .3-.1.5-.1.1 0 .3-.1.4-.1l.5-.2v-1.2h-.4l-.1.1c-.1 0-.1.1-.2.1-.1.1-.2.1-.4.2-.1.1-.3.1-.4.1h-.5c-.5 0-.9-.1-1.1-.3-.2-.2-.3-.2-.3-.6H17v-.6zm-3.6-.3c0-.2 0-.5.1-.6.1-.1.1-.2.2-.3.1-.1.2-.2.4-.2.2-.1.9-.1 1.1 0 .1 0 .2.1.3.2.1.1.1.2.2.3 0 .1.1.4.1.6h-2.4zm-8.2-.8v-1.4H3.8V9H2.3v1.9H1v1.4h1.3V16h1.5v-3.7z"/></svg>