<svg xmlns="http://www.w3.org/2000/svg" height="30" viewBox="0 0 30 30"><path d="M20 1H7v11h2V3h10v8h8v16H9v-2.5H7V29h22V10z"/><path d="M14 22.8v-9.3h-2v3c-.3-.2-.4-.3-.6-.3-.2-.1-.5-.1-.8-.1-.4 0-.7.1-1 .2-.3.1-.6.4-.8.7-.2.3-.4.7-.6 1.1-.1.4-.2.9-.2 1.5 0 1 .2 1.9.6 2.5.4.6 1 .9 1.7.9.2 0 .4 0 .5-.1.1 0 .3-.1.5-.2.1-.1.3-.2.4-.3.2-.1.2-.2.3-.4v.7h2zm-2.4-1.5c-.2.1-.3.1-.5.1-.4 0-.7-.1-.9-.4-.2-.3-.2-.8-.2-1.5 0-.6.1-1.1.3-1.4.2-.3.6-.5 1-.5h.4c.2 0 .2.1.3.1V21c-.1.1-.2.2-.4.3zm9.4-2.2c0-.5-.1-1-.2-1.3-.1-.4-.3-.7-.6-1-.3-.3-.6-.5-.9-.6-.3-.1-.7-.2-1.1-.2-1 0-1.7.3-2.3 1-.6.6-.9 1.5-.9 2.6s.3 1.9.9 2.5c.6.6 1.5.9 2.5.9h.7c.2 0 .4-.1.6-.1.2 0 .3-.1.5-.2l.6-.2v-1.6h-.5l-.1.1c-.1.1-.2.1-.3.2-.1.1-.3.2-.5.2-.2.1-.3.1-.5.2-.2 0-.4.1-.6.1-.6 0-1-.2-1.3-.5-.3-.3-.4-.7-.5-1.2H21v-.9zm-4.3-.5c0-.1.1-.2.1-.3.1-.2.2-.3.3-.5.1-.1.3-.2.4-.3.3-.1.9-.1 1.2 0 .1.1.3.2.4.3.1.1.2.3.2.4 0 .1.1.2.1.4h-2.7zm-9.2-.8V16H6v-2.5H4V16H2.5v1.8H4V23h2v-5.2z"/></svg>