<svg xmlns="http://www.w3.org/2000/svg" height="16" viewBox="0 0 16 16"><path d="M9 13V7H7.7v1.8c-.2-.1-.3-.2-.4-.2-.1 0-.3-.1-.5-.1s-.5.1-.7.2c-.3.1-.4.2-.6.4-.1.2-.3.5-.4.7s-.1.6-.1 1c0 .7.1 1.2.4 1.6.3.4.6.6 1.1.6h.4c.1 0 .2-.1.3-.1.1 0 .2-.1.3-.2.1-.1.2-.2.3-.2v.5H9zm-1.6-1.1c-.1 0-.2.1-.3.1-.3 0-.5-.1-.6-.3s-.2-.5-.2-.9.1-.7.2-.9c.2-.2.4-.3.7-.3h.3c.1 0 .2 0 .2.1v2.1c-.1 0-.2.1-.3.1z"/><path d="M12 0H3v6h1V1h7v4h4v10H4v-1H3v2h13V4z"/><path d="M14 10.4c0-.4 0-.9-.1-1.1-.1-.3-.2-.5-.4-.7-.2-.2-.4-.3-.6-.4-.2-.2-.5-.2-.8-.2-.6 0-1.2.2-1.5.7-.4.5-.6 1.1-.6 1.8 0 .8.2 1.4.6 1.8.4.4 1 .7 1.7.7h.5c.1 0 .3-.1.4-.1.1 0 .2-.1.3-.1l.4-.2v-1.2h-.3l-.1.1s-.1.1-.2.1c-.1.1-.2.1-.3.2-.1 0-.2.1-.4.1h-.4c-.4 0-.6-.1-.8-.3-.2-.2-.3-.3-.3-.6H14v-.6zm-2.8-.4c0-.2 0-.3.1-.4 0-.1.1-.2.2-.3.1-.1.2-.2.3-.2.2-.1.6-.1.8 0 .1 0 .2.1.2.2.1.1.1.2.1.3v.4h-1.7zM3 13v-3h1.2V8.8H3V7H1.8v1.8H.6V10h1.2v3z"/></svg>