<svg xmlns="http://www.w3.org/2000/svg" height="30" viewBox="0 0 30 30"><path d="M27.6 20.7c-1.2-1.2-4.5-3.5-6.8-3.5-.6 0-1.1.1-1.5.4-.6.4-1.6 1-1.9 1.1-.1 0-.4-.3-.6-.5 0 0-3.5-3.4-4.8-4.9-.4-.4-.8-.9-.8-1 0-.1.1-.4.8-1.4 1-1.3 1-2.9.2-4.7-.7-1.2-1.7-2.5-2.6-3.6C8.7 1.5 7.7 1 6.5 1 5.3 1 3.7 2 3.7 2c-1.2.7-2 1.8-2.4 2.8-.5 1.5-.8 3.5 1.4 7.5 1.8 3.3 3.5 5.6 6.1 8.3 2.5 2.5 3.6 3.4 6 5.1 2.8 2 5.5 3.2 7.4 3.2 1.8 0 3.3 0 5.3-2.5 2.5-2.6 1.3-4.4.1-5.7zm-1.5 4.5C24.7 27 23.9 27 22.3 27c-1.2 0-3.4-.7-6.3-2.8-2.5-1.8-3.4-2.5-5.8-4.9-2.5-2.6-4.1-4.7-5.8-7.9-2-3.6-1.5-5-1.2-5.9.2-.6.8-1.3 1.6-1.8.5-.3 1.4-.7 1.7-.7.4 0 .9.1 1.5.8.8 1 1.8 2.2 2.3 3.3.7 1.4.4 2.2 0 2.6-.9 1.2-1.2 1.8-1.2 2.5v.2l.1.2c.1.6.5 1.1 1.3 1.9 1.3 1.5 5 5 5 5 .5.4.8.7 1.2.9l.4.2h.5c.6-.1 1.1-.4 2.7-1.4.1-.1.3-.1.5-.1 1.5 0 4.2 1.7 5.3 2.9.9 1 1.4 1.6 0 3.2z"/></svg>