<svg xmlns="http://www.w3.org/2000/svg" height="16" viewBox="0 0 16 16"><path d="M3.2 1.1c.2 0 .5.1.9.5.5.6 1 1.3 1.3 1.9.4.8.2 1.3 0 1.5-.5.7-.7 1-.7 1.4v.2c.1.5.3.7.8 1.2.7.8 2.7 2.8 2.8 2.8 0 0 .5.4.7.5l.2.1h.3c.3 0 .6-.2 1.5-.8.1-.1.2-.1.3-.1.8 0 2.4 1 3.1 1.6.5.5.8.9 0 1.9-.8 1-1.3 1-2.2 1-.7 0-2-.4-3.6-1.6-1.4-1-2-1.4-3.3-2.8C3.9 9 3 7.8 2 6c-1.2-2.1-.9-2.9-.8-3.5.1-.4.4-.7.9-1 .3-.1.8-.4 1.1-.4m0-1.1c-.7 0-1.7.6-1.7.6C.9 1 .4 1.6.2 2.2c-.3.9-.5 2 .8 4.3 1 1.9 2 3.2 3.5 4.7 1.4 1.4 2 1.9 3.4 2.9 1.6 1.2 3.1 1.8 4.3 1.8 1 0 1.9 0 3-1.4 1.3-1.6.7-2.6 0-3.3-.7-.7-2.6-2-3.9-2-.3 0-.6.1-.9.2-.4.2-.9.6-1.1.6 0 .1-.1 0-.3-.2 0 0-2-2-2.7-2.8-.2-.2-.5-.4-.5-.5 0 0 0-.2.5-.8.5-.7.6-1.6.1-2.7-.4-.7-1-1.5-1.5-2.1C4.4.3 3.8 0 3.2 0z"/></svg>