<svg xmlns="http://www.w3.org/2000/svg" height="20" viewBox="0 0 20 20"><path d="M4 1.3c.3 0 .7.1 1.1.7.6.7 1.3 1.6 1.7 2.4.5 1.1.3 1.7 0 2-.6.8-.8 1.2-.8 1.7v.4c.1.4.3.7.9 1.3.9 1 3.5 3.6 3.5 3.6s.6.5.9.6l.3.1h.3c.4 0 .8-.2 1.9-1 .1-.1.2-.1.4-.1 1.1 0 3.1 1.3 3.9 2.1.6.7 1 1.2 0 2.4-1.1 1.3-1.7 1.3-2.8 1.3-.8 0-2.5-.5-4.6-2-1.8-1.3-2.5-1.8-4.1-3.5-1.8-1.8-2.9-3.4-4.2-5.6C1 4.9 1.3 3.8 1.5 3.2c.1-.5.6-1 1.1-1.3.4-.3 1.1-.6 1.4-.6M4 0c-.9 0-2 .7-2 .7C1.1 1.3.5 2 .2 2.8c-.3 1.1-.6 2.5 1 5.3 1.3 2.4 2.5 4 4.4 5.9 1.8 1.8 2.5 2.4 4.3 3.7 2 1.4 3.9 2.3 5.3 2.3 1.3 0 2.3 0 3.8-1.8 1.6-2 .8-3.3 0-4.2-.9-.9-3.2-2.5-4.8-2.5-.4 0-.8.1-1.1.3-.4.3-1.2.7-1.3.8-.1 0-.3-.2-.4-.3 0 0-2.5-2.5-3.4-3.5-.4-.3-.7-.6-.7-.7 0-.1.1-.3.6-1 .7-.9.7-2 .1-3.3-.5-1-1.2-1.9-1.9-2.7C5.5.4 4.8 0 4 0z"/></svg>