<svg xmlns="http://www.w3.org/2000/svg" height="20" viewBox="0 0 20 20"><path d="M5 2v5h1.2v-.5c.1-.7.1-1.5.2-1.8.2-.4.6-.8.9-1 .5-.2.7-.3 1.4-.3h2.9v11.2c0 1.2-.4 1.7-.5 1.8-.3.3-.9.5-1.5.5H9V18h7v-1.1h-.7c-.6 0-1.2-.2-1.5-.5-.1-.1-.5-.5-.5-1.8V3.4h2.9c.7 0 .9.1 1.3.3.4.2.7.5.9 1 .1.3.2 1.1.3 1.8V7H20V2H5z"/><path d="M1 9v3h.7v-.3c0-.4.1-.9.1-1.1.1-.2.3-.4.5-.5.2-.1.4-.2.7-.2h1.3V16c0 .7-.2.9-.3 1-.1.2-.4.2-.7.2H3v.8h4v-.7h-.3c-.3 0-.6-.1-.7-.2-.1-.1-.3-.3-.3-1V9.9H7c.4 0 .5.1.7.2.2.1.4.3.5.5.1.2.1.7.1 1.1v.3H9V9H1z"/></svg>