<svg xmlns="http://www.w3.org/2000/svg" height="16" viewBox="0 0 16 16"><path d="M3 1v4.1h1v-.4c.1-.6.1-1.1.2-1.3.2-.4.5-.7.9-.9.3-.2.5-.3 1.1-.3h2.5V12c0 1.1-.3 1.5-.4 1.6-.2.2-.8.5-1.3.5h-.8v.9h6.5v-.9H12c-.5 0-1-.2-1.3-.5-.1-.1-.4-.5-.4-1.6V2.2h2.5c.6 0 .8.1 1.1.3.3.2.6.5.8.8.1.2.1.7.2 1.3v.5h1V1H3z"/><path d="M0 7v2.7h.6v-.3c0-.3 0-.8.1-1 .1-.2.3-.3.5-.4.2-.1.3-.2.6-.2h1.1v5.5c0 .6-.2.8-.2.9-.1.1-.3.2-.6.2h-.3v.6h3.5v-.6H5c-.3 0-.5-.1-.6-.2-.1-.1-.2-.3-.2-.9V7.8h1.1c.3 0 .4.1.6.2.1.1.3.2.4.4.1.1.1.6.1 1v.3H7V7H0z"/></svg>