<svg xmlns="http://www.w3.org/2000/svg" height="30" viewBox="0 0 30 30"><path d="M1 14v4h1v-.4c.1-.6.1-1 .2-1.2.2-.4.5-.7.8-.8.3-.2.5-.3 1.1-.3h2v9c0 1-.4 1.2-.4 1.3-.4.3-.7.4-1.2.4H4v1h6v-1h-.5c-.5 0-.8-.1-1-.3-.1-.1-.5-.4-.5-1.4v-9h2c.5 0 .7.1 1.1.3.3.2.6.4.8.8.1.2.1.7.2 1.2v.4h1v-4H1z"/><path d="M7 3v7h1.7v-.7c0-1.3.2-1.8.4-2.3.3-.7.8-1.1 1.4-1.4.6-.3.9-.5 1.9-.5h4.3v16.8c0 1.9-.6 2.5-.7 2.7-.4.4-1.3.8-2.1.8H13V27h10v-1.6h-.8c-.9 0-1.8-.4-2.1-.8-.2-.2-.7-.8-.7-2.7V5.1h4.3c1 0 1.3.2 1.9.5.6.3 1 .8 1.4 1.4.2.4.4 1.2.4 2.2v.8H29V3H7z"/></svg>