<svg xmlns="http://www.w3.org/2000/svg" height="40" viewBox="0 0 40 40"><path d="M7 37H3c-1.1 0-2-.9-2-2V17c0-1.1.9-2 2-2h4c1.1 0 2 .9 2 2v18c0 1.1-.9 2-2 2zM25.5 4c.8 0 1.5.7 1.5 1.5v8.1c0 2.2 1.8 4 4 4h.3l5.7-.4h.1c.4 0 .6.2.7.3.1.1.3.4.3.8l-1.4 15.8c0 .5-.5.9-1 .9h-.1L13 33.4V19.8c0-.5.4-1 .9-1C19.6 18.4 24 13.7 24 8V5.5c0-.8.7-1.5 1.5-1.5m0-2C23.6 2 22 3.6 22 5.5V8c0 4.6-3.6 8.5-8.2 8.8-1.6.1-2.8 1.4-2.8 3v13.6c0 1 .8 1.9 1.9 2L35.4 37h.2c1.5 0 2.8-1.2 3-2.7L40 18.5c.2-1.8-1.2-3.3-3-3.3h-.2l-5.7.4H31c-1.1 0-2-.9-2-2V5.5C29 3.6 27.4 2 25.5 2z"/></svg>