<svg xmlns="http://www.w3.org/2000/svg" height="50" viewBox="0 0 50 50"><path d="M40 4h6c1.1 0 2 .9 2 2v22c0 1.1-.9 2-2 2h-6c-1.1 0-2-.9-2-2V6c0-1.1.9-2 2-2zM20 44c-1.1 0-2-.9-2-2v-9.8c0-2.2-1.8-4-4-4h-.2l-7.6.5h-.1c-.6 0-1.1-.2-1.5-.7-.4-.4-.6-1-.5-1.5l2-18.7c.1-1 1-1.8 2-1.8l25.8 1.8v18.3c-7.1.4-12 5.2-12 11.7V42c.1 1.1-.8 2-1.9 2m0 2c2.2 0 4-1.8 4-4v-4.2c0-5.7 4.4-9.4 10.1-9.7 1.1-.1 1.9-.9 1.9-2V7.8c0-1.1-.9-2-1.9-2L8.2 4h-.1c-2 0-3.8 1.5-4 3.6L2 26.3c-.3 2.4 1.6 4.4 4 4.4h.2l7.6-.5h.1c1.1 0 2 .9 2 2V42c.1 2.2 1.9 4 4.1 4z"/></svg>