<svg xmlns="http://www.w3.org/2000/svg" height="40" viewBox="0 0 40 40"><path d="M34 3h4c1.1 0 2 .9 2 2v18c0 1.1-.9 2-2 2h-4c-1.1 0-2-.9-2-2V5c0-1.1.9-2 2-2zM5.4 5s.1 0 0 0L28 6.6v13.6c0 .5-.4 1-.9 1C21.4 21.6 17 26.3 17 32v2.5c0 .8-.7 1.5-1.5 1.5s-1.5-.7-1.5-1.5v-8.1c0-1.1-.4-2.1-1.2-2.8-.8-.8-1.8-1.2-2.8-1.2h-.3l-5.7.4h-.1c-.4 0-.6-.2-.7-.3 0-.2-.2-.4-.2-.8L4.4 5.9c.1-.5.5-.9 1-.9m0-2c-1.5 0-2.8 1.2-3 2.7L1 21.5c-.2 1.8 1.2 3.3 3 3.3h.2l5.7-.4h.1c1.1 0 2 .9 2 2v8.1c0 1.9 1.6 3.5 3.5 3.5s3.5-1.6 3.5-3.5V32c0-4.6 3.6-8.5 8.2-8.8 1.6-.1 2.8-1.4 2.8-3V6.6c0-1-.8-1.9-1.9-2L5.6 3h-.2z"/></svg>