<svg xmlns="http://www.w3.org/2000/svg" height="30" viewBox="0 0 30 30"><path d="M5 29H1c-.6 0-1-.5-1-1V12c0-.6.4-1 1-1h4c.6 0 1 .4 1 1v16c0 .5-.4 1-1 1zM19 2.8c.7 0 1.2.5 1.2 1.2v6.5c0 1.5 1.3 2.8 2.8 2.8h.2L28 13c.1 0 .1 0 .1.1l.1.1-.8 13.8c0 .1-.1.2-.2.2L8.8 26V14.2l.8-.1c4.6-.3 8.2-4.2 8.2-8.8V4c0-.7.5-1.2 1.2-1.2M19 1c-1.7 0-3 1.3-3 3v1.4c0 3.7-2.9 6.7-6.5 7l-1.5.1c-.5 0-.9.5-.9 1v13.3c0 .5.4 1 .9 1L27.1 29h.1c1.1 0 1.9-.8 2-1.9l.8-13.8c.1-1.2-.9-2.1-2-2.1h-.1l-4.8.3H23c-.5 0-1-.4-1-1V4c0-1.7-1.3-3-3-3z"/></svg>