<svg xmlns="http://www.w3.org/2000/svg" height="50" viewBox="0 0 50 50"><path d="M10 46H4c-1.1 0-2-.9-2-2V22c0-1.1.9-2 2-2h6c1.1 0 2 .9 2 2v22c0 1.1-.9 2-2 2zM30 6c1.1 0 2 .9 2 2v9.8c0 2.2 1.8 4 4 4h.2l7.6-.5h.1c.6 0 1.1.2 1.5.7.4.4.6 1 .5 1.5l-2.1 18.7c-.1 1-1 1.8-2 1.8L16 42.2V23.9c7.1-.4 12-5.2 12-11.7V8c0-1.1.9-2 2-2m0-2c-2.2 0-4 1.8-4 4v4.2c0 5.7-4.4 9.4-10.1 9.7-1.1.1-1.9.9-1.9 2v18.3c0 1.1.9 2 1.9 2L41.8 46h.1c2 0 3.8-1.5 4-3.6L48 23.7c.3-2.4-1.6-4.4-4-4.4h-.2l-7.6.5h-.1c-1.1 0-2-.9-2-2V8C34 5.8 32.2 4 30 4z"/></svg>