<svg xmlns="http://www.w3.org/2000/svg" height="30" viewBox="0 0 30 30"><path d="M25 1h4c.5 0 1 .5 1 1v16c0 .5-.5 1-1 1h-4c-.5 0-1-.5-1-1V2c0-.5.5-1 1-1zM2.8 2.8L21.2 4v11.8l-.8.1c-4.6.3-8.2 4.2-8.2 8.8V26c0 .7-.5 1.2-1.2 1.2s-1.2-.5-1.2-1.2v-6.5c0-.8-.3-1.5-.8-2s-1.2-.8-2-.8h-.2l-4.8.4c-.1 0-.1 0-.1-.1l-.1-.1L2.6 3c0-.1.1-.2.2-.2m0-1.8c-1.1 0-1.9.8-2 1.9L0 16.7c-.1 1.2.9 2.1 2 2.1h.1l4.8-.3H7c.5 0 1 .4 1 1V26c0 1.7 1.3 3 3 3s3-1.3 3-3v-1.4c0-3.7 2.9-6.7 6.5-7l1.5-.1c.5 0 .9-.5.9-1V3.3c0-.5-.4-1-.9-1L2.9 1h-.1z"/></svg>