<svg xmlns="http://www.w3.org/2000/svg" height="20" viewBox="0 0 20 20"><path d="M17 1h2c.5 0 1 .5 1 1v9c0 .6-.5 1-1 1h-2c-.6 0-1-.4-1-1V2c0-.6.5-1 1-1zM7 18c-.6 0-1-.4-1-1v-4.3c0-1.2-1.2-2-2.2-2h-.1l-1.6.1H2c-.3 0-.5-.1-.7-.3-.2-.2-.3-.5-.3-.7l.6-6.9c0-.5.5-.9 1-.9h.1l11.3.8v7.3c-3.4.2-6 3-6 6.4v.5c0 .6-.4 1-1 1m0 1c1.1 0 2-.9 2-2v-.5c0-2.9 2.2-5.2 5.1-5.4.5 0 .9-.5.9-1V2.8c0-.5-.4-1-.9-1L2.8 1h-.1c-1 0-1.9.8-2 1.8L0 9.7c-.1 1.2.8 2.2 2 2.2h.1l1.6-.1h.1c.6 0 1.2.4 1.2 1V17c0 1.1.9 2 2 2z"/></svg>