<svg xmlns="http://www.w3.org/2000/svg" height="30" viewBox="0 0 30 30"><path d="M7.5 15C3.4 15 0 18.4 0 22.5S3.4 30 7.5 30s7.5-3.4 7.5-7.5S11.6 15 7.5 15zm0 13.4c-3.3 0-5.9-2.6-5.9-5.9 0-3.3 2.6-5.9 5.9-5.9s5.9 2.6 5.9 5.9c0 3.3-2.6 5.9-5.9 5.9z"/><path d="M10 22H8v-3.5c0-.3-.2-.5-.5-.5s-.5.2-.5.5V23h3c.3 0 .5-.2.5-.5s-.2-.5-.5-.5zm13.3-2.4c.6-.6.5-1 .8-1.3s.6-.8.2-1.2c-.2-.2-.5 0-.9.4 0 0-.4.4-.8.7-.3.3-.2.7-.4.9-.2.2-.1.9-.3 1.5s0 .2.5.2c.4.1.2-.6.9-1.2z"/><path d="M17.6 0C10.8 0 5.2 5.6 5.2 12.5c0 .4 0 .9.1 1.3.6-.2 1.3-.3 2-.3 0-.3-.1-.7-.1-1 0-4.5 2.9-8.4 6.9-9.9-.5.7.3 1.6-.2 1.7-.9.1-1.8.4-2 .8s-.6 1-.3 1.3c.2.3.1.6.4.6.4 0 .5.2.9-.2s.5-.7 1-.9c.6-.2.6-.7 1.3-.7.7 0 .8.7 1.5.9 1.4.4 2.2.5 2.2-.1.1-.5.6.1.8.7.1.2 1.1-.4 1.5-.3.4.1 0 1-.3 1.1-.4.1-.5.1-1.1 0-1.4-.4-1.6 1.2-2.1 1.4-.5.2-.3-.2-1.1-.3-1.4-.1-.1-1.2-1.7-1.1-.7.1-1.1.3-1.1.3-.7.7-1.3.6-1.8.8-.3.1-.8 1-1 1.3-.2.2-.5.9-.4 1.4s-.3.8-.3 1 0 .5.5 1.1c.5.7.8 1.1 1.1 1.2.3.1 1.1-.4 1.7-.4s1.2 0 1.6.4c.4.4.3-.4.6-.2s-.2.8 0 1.3c.2.4 1 .7 1 1.4s0 1.2-.3 1.5c-.2.2.1.5.3 1.2s.3 1.3.5 1.6c.1.3.1.6.6.4s1-.6 1.2-.6c.2 0 .9-.1 1.1-.9.1-.4.7-1.4 1-1.5.5-.2.6-.9.5-1.9 0-.5.4-1.4 1.1-1.8.4-.2 1.4-.7 1.6-1.3.2-.6.4-.9.3-1-.2-.2-.2-.2-.4 0-.3.3-.8.3-1 .1-.2-.2-.3-.7-.6-1.1-.4-.7-.5-1.8-.2-1.8s.4.9.7 1.3.6 1.2 1 .8c.4-.4 1-.9 1.5-1.4.4-.4.8-.7.6-1-.3-.3-.6-.1-.5-.5.1-.2 1.1-.3 1.7.2.3 1 .5 2.1.5 3.3C28 18.3 23.3 23 17.6 23c-.4 0-.8 0-1.1-.1 0 .7-.1 1.3-.3 2 .5.1 1 .1 1.4.1C24.5 25 30 19.4 30 12.5S24.5 0 17.6 0z"/></svg>