<svg xmlns="http://www.w3.org/2000/svg" height="16" viewBox="0 0 16 16"><path d="M6 11H5V9c0-.3-.2-.5-.5-.5S4 8.7 4 9v3h2c.3 0 .5-.2.5-.5S6.3 11 6 11z"/><path d="M4.5 7C2 7 0 9 0 11.5S2 16 4.5 16 9 14 9 11.5 7 7 4.5 7zm0 8C2.6 15 1 13.4 1 11.5S2.6 8 4.5 8 8 9.6 8 11.5 6.4 15 4.5 15zm8-5.9c.3-.3.3-.5.4-.6.1-.1.3-.4.1-.6-.1-.1-.2 0-.4.2l-.4.4c-.2.2-.1.4-.2.4-.1.1 0 .4-.1.8-.1.3 0 .1.2.1s.1-.4.4-.7z"/><path d="M9.5 0C6 0 3.2 2.8 3 6.2c.3-.1.7-.1 1-.2.2-1.9 1.3-3.5 3-4.4-.2.3-.3.5-.2.7.2.1.1.2.3.2.2 0 .2.1.4-.1.2-.1.3-.3.5-.4.3-.1.3-.3.6-.3.4 0 .4.3.8.4.7.2 1.1.2 1.1-.1 0-.2.3.1.4.3 0 .1.5-.2.7-.1.2 0 0 .5-.1.6-.2.1-.2.1-.6 0-.7-.2-.8.6-1 .7-.2.1-.1-.1-.5-.2-.7 0-.1-.6-.8-.5-.4 0-.6.1-.6.1-.4.4-.7.3-.9.4-.1.1-.4.6-.5.7-.1.1-.3.4-.2.7.1.3-.1.4-.1.5s0 .2.2.6c.2.2.4.5.5.5.2.1.6-.2.8-.2s.6 0 .8.2c.2.2.2-.2.3-.1.1.1-.1.4 0 .6.1.3.5.4.5.8s0 .6-.1.7c-.1.1 0 .2.1.6.1.3.2.7.2.8.1.2 0 .3.3.2s.5-.3.6-.3.4 0 .6-.5c.1-.2.3-.7.5-.8.3-.1.3-.5.3-.9 0-.2.2-.7.5-.9.2-.1.7-.4.8-.7.1-.3.2-.4.1-.5-.1-.1-.1-.1-.2 0s-.4.2-.5.1c-.1-.1-.2-.3-.3-.6-.2-.2-.2-.8-.1-.8s.2.5.4.6.3.6.5.4l.7-.7c.2-.2.5-.3.6-.4.4.8.6 1.7.6 2.6 0 2.9-2.2 5.2-5 5.5 0 .3-.1.7-.2 1 3.5-.2 6.2-3 6.2-6.5C16 2.9 13.1 0 9.5 0z"/></svg>