<svg xmlns="http://www.w3.org/2000/svg" height="20" viewBox="0 0 20 20"><path d="M7.5 14H6v-2.5c0-.3-.2-.5-.5-.5s-.5.2-.5.5V15h2.5c.3 0 .5-.2.5-.5s-.2-.5-.5-.5zm8.1-1.5c.5-.4.3-.6.5-.8.2-.2.4-.5.1-.7 0-.1-.2 0-.5.2 0 0-.3.2-.5.5-.2.2-.2.5-.3.6-.1.1-.1.5-.2 1-.1.4 0 .1.3.1s.1-.5.6-.9z"/><path d="M5.5 9C2.5 9 0 11.5 0 14.5S2.5 20 5.5 20s5.5-2.5 5.5-5.5S8.5 9 5.5 9zm0 9.8c-2.4 0-4.3-1.9-4.3-4.3s1.9-4.3 4.3-4.3 4.3 1.9 4.3 4.3-1.9 4.3-4.3 4.3z"/><path d="M12 0C7.6 0 4 3.6 4 8v.2c.4-.1.8-.2 1.2-.2 0-3 2-5.5 4.6-6.4-.5.4.1 1.1-.2 1.2-.6 0-1.2.2-1.4.5-.1.3-.4.6-.2.8s.1.3.4.3c.3 0 .3.2.6-.1.2-.2.3-.4.7-.6.3-.1.3-.4.7-.4.4 0 .5.4 1 .6.9.3 1.4.3 1.4-.1 0-.3.4.1.5.4.1.1.7-.2 1-.2.2.1 0 .7-.2.7-.2.1-.3.1-.7 0-.9-.2-1 .7-1.3.9-.3.2-.2-.1-.7-.1-.9-.1-.1-.8-1.1-.7-.5.1-.7.2-.7.2-.5.4-.9.4-1.2.5-.2.1-.5.7-.6.8-.1.1-.4.6-.3.9.1.3-.2.5-.2.6 0 .1 0 .2.2.5.6.2 1.2.5 1.7.8h.2c.4 0 .7 0 1 .3.3.3.2-.3.4-.1s-.1.5 0 .8c.1.3.6.4.6.9 0 .3 0 .5-.1.7.3.7.6 1.5.6 2.3h.1c.3-.1.6-.4.8-.4.2 0 .6 0 .7-.6.1-.3.4-.9.7-1 .3-.1.4-.6.3-1.2 0-.3.2-.9.7-1.1.3-.1.9-.5 1-.9.1-.4.3-.6.2-.7-.1-.1-.1-.1-.3 0-.2.2-.5.2-.6.1-.1-.1-.2-.4-.4-.7-.3-.4-.3-1.1-.1-1.1.2 0 .3.6.5.8.2.2.4.7.6.5s.7-.6.9-.9c.3-.3.5-.5.4-.6-.2-.2-.4 0-.3-.3.1-.2.9-.2 1.3.3.2.6.3 1.3.3 1.9 0 3.7-3.1 6.8-6.8 6.8 0 .4-.1.8-.2 1.2h.2c4.4 0 8-3.6 8-8A7.9 7.9 0 0 0 12 0z"/></svg>