<svg xmlns="http://www.w3.org/2000/svg" height="20" viewBox="0 0 20 20"><path d="M3 2h7v.8h-.3c-.5 0-.9.1-1.1.2s-.4.2-.4.4c-.1.2-.2.7-.2 1.5v6.3c0 1.2.1 2 .3 2.4.2.4.5.7.9 1 .4.3 1 .4 1.6.4.7 0 1.4-.2 1.9-.5s.9-.8 1.2-1.4c.3-.6.4-1.6.4-3.1V4.9c0-.6-.1-1-.2-1.3-.1-.3-.3-.4-.5-.5-.3-.2-.7-.2-1.3-.2V2H17v.8h-.3c-.4 0-.7.1-1 .2-.3.2-.4.4-.6.7-.1.2-.1.6-.1 1.2v4.8c0 1.6-.1 2.8-.3 3.5-.2.7-.7 1.4-1.5 2-.8.6-1.9.9-3.3.9-1.2 0-2.1-.2-2.7-.5-.9-.4-1.5-1-1.9-1.6-.4-.7-.5-1.6-.5-2.7V4.9c0-.8 0-1.3-.1-1.5l-.5-.5c-.2-.1-.6-.1-1.2-.1V2zM2 18h16v1H2z"/></svg>