<svg xmlns="http://www.w3.org/2000/svg" height="30" viewBox="0 0 30 30"><path d="M4 3h11v1.1h-.5c-.8 0-1.4.1-1.7.2-.3.2-.5.4-.7.7-.1.3-.2 1-.2 2.1v9c0 1.7.1 2.9.4 3.5.3.6.8 1 1.4 1.4.7.4 1.5.6 2.5.6 1.2 0 2.1-.2 3-.7.8-.5 1.4-1.1 1.8-2 .4-.8.6-2.3.6-4.4V7.1c0-.9-.1-1.5-.3-1.9-.2-.4-.5-.6-.8-.8-.5-.2-1.1-.3-2-.3V3H26v1.1h-.4c-.6 0-1.1.1-1.5.3-.4.2-.7.6-.9 1-.1.3-.2.9-.2 1.7V14c0 2.3-.2 4-.5 5s-1.1 2-2.4 2.8c-1.3.9-3 1.3-5.2 1.3-1.8 0-3.3-.2-4.3-.7-1.4-.6-2.3-1.4-2.9-2.4-.6-1-.9-2.3-.9-3.9v-9c0-1.1-.1-1.8-.2-2.1-.2-.3-.4-.5-.7-.7-.4-.1-1-.2-1.9-.2V3zm0 22h22v2H4z"/></svg>