<svg xmlns="http://www.w3.org/2000/svg" height="16" viewBox="0 0 16 16"><path d="M1 1h7v.7h-.3c-.5 0-.9.1-1.1.2-.2.1-.4.2-.4.4-.1.2-.2.6-.2 1.4v5.8c0 1.1.1 1.9.3 2.3.2.4.5.7.9.9.4.2 1 .4 1.6.4.7 0 1.4-.2 1.9-.5s.9-.7 1.2-1.3c.3-.5.4-1.5.4-2.8V3.7c0-.6-.1-1-.2-1.2-.1-.2-.3-.4-.5-.5-.3-.1-.7-.2-1.3-.2V1H15v.7h-.3c-.4 0-.7.1-1 .2-.3.1-.4.4-.6.6-.1.2-.1.6-.1 1.1v4.5c0 1.5-.1 2.6-.3 3.2-.2.7-.7 1.3-1.5 1.8s-1.9.9-3.3.9c-1.2 0-2.1-.1-2.7-.4-.9-.4-1.5-.9-1.9-1.5-.4-.6-.5-1.5-.5-2.5V3.7c0-.7 0-1.2-.1-1.4-.2-.2-.3-.3-.5-.4-.2-.1-.6-.2-1.2-.2V1zm0 14h14v1H1z"/></svg>