<svg xmlns="http://www.w3.org/2000/svg" height="16" viewBox="0 0 16 16"><path fill="#C7C7C7" d="M8 6.8c.8 0 1.5-.3 2-.8l1.2-1.2c.5-.5.8-1.2.8-2s-.3-1.5-.8-2S10 0 9.2 0s-1.5.3-2 .8L6 2c-.5.5-.8 1.2-.8 2v.3l2.4 2.4c.2.1.3.1.4.1zM6 4c0-.5.2-1 .6-1.4l1.2-1.2c.4-.4.9-.6 1.4-.6.5 0 1 .2 1.4.6s.6.9.6 1.4-.2 1-.6 1.4L9.4 5.4C9 5.8 8.5 6 8 6c-.3 0-.5 0-.7-.1L9 4.2 7.8 3 6.1 4.7C6 4.5 6 4.3 6 4zM4 5.2c-.8 0-1.5.3-2 .8L.8 7.2c-.5.5-.8 1.2-.8 2s.3 1.5.8 2 1.2.8 2 .8 1.5-.3 2-.8L6 10c.5-.5.8-1.2.8-2v-.3L4.3 5.2H4zM6 8c0 .5-.2 1-.6 1.4l-1.2 1.2c-.4.4-.9.6-1.4.6-.5 0-1-.2-1.4-.6-.4-.4-.6-.9-.6-1.4 0-.5.2-1 .6-1.4l1.2-1.2C3 6.2 3.5 6 4 6c.3 0 .5 0 .7.1L3 7.8 4.2 9l1.7-1.7c.1.2.1.4.1.7z"/><path fill="#C7C7C7" d="M8 9.2c-.8 0-1.5.3-2 .8l-1.2 1.2c-.5.5-.8 1.2-.8 2s.3 1.5.8 2 1.2.8 2 .8 1.5-.3 2-.8L10 14c.5-.5.8-1.2.8-2v-.3L8.3 9.2H8zm2 2.8c0 .5-.2 1-.6 1.4l-1.2 1.2c-.4.4-.9.6-1.4.6-.5 0-1-.2-1.4-.6-.4-.4-.6-.9-.6-1.4 0-.5.2-1 .6-1.4l1.2-1.2c.4-.4.9-.6 1.4-.6.3 0 .5 0 .7.1L7 11.8 8.2 13l1.7-1.7c.1.2.1.4.1.7zm4-2l1.2-1.2c.5-.5.8-1.2.8-2s-.3-1.5-.8-2-1.2-.8-2-.8-1.5.3-2 .8L10 6c-.5.5-.8 1.2-.8 2v.3l2.4 2.4h.3c.9.1 1.6-.2 2.1-.7zm-2.2-3l-1.7 1.7c-.1-.2-.1-.4-.1-.7 0-.5.2-1 .6-1.4l1.2-1.2c.4-.4.9-.6 1.4-.6.5 0 1 .2 1.4.6s.6.9.6 1.4-.2 1-.6 1.4l-1.2 1.2c-.4.4-.9.6-1.4.6-.3 0-.5 0-.7-.1L13 8.2 11.8 7z"/><path fill="#E71D32" d="M14.5 13.5l-12-12c-.3-.3-.7-.3-.9 0s-.3.7 0 .9l12 12c.1.1.3.2.5.2s.3-.1.5-.2c.1-.2.1-.6-.1-.9z"/></svg>