<svg xmlns="http://www.w3.org/2000/svg" height="20" viewBox="0 0 20 20"><path fill="#C7C7C7" d="M19 7c-.6-.6-1.4-1-2.3-1s-1.7.4-2.3 1L13 8.4c-.6.6-1 1.4-1 2.3 0 .2 0 .4.1.5l2.7 2.7c.2 0 .4.1.5.1.9 0 1.7-.4 2.3-1l1.4-1.4c.6-.6 1-1.4 1-2.3s-.4-1.8-1-2.3zm-.6 3.9L17 12.3c-.4.4-1 .7-1.6.7-.3 0-.6-.1-.9-.2l2-2-1.3-1.3-2 2c-.1-.2-.2-.5-.2-.8 0-.6.2-1.2.7-1.6l1.4-1.4c.4-.4 1-.7 1.6-.7s1.2.2 1.6.7c.4.4.7 1 .7 1.6s-.2 1.2-.6 1.6zm-7.2 1.2c-.2 0-.4-.1-.5-.1-.9 0-1.7.4-2.3 1L7 14.4c-.6.6-1 1.4-1 2.3 0 .9.4 1.7 1 2.3.6.6 1.4 1 2.3 1s1.7-.4 2.3-1l1.4-1.4c.6-.6 1-1.4 1-2.3 0-.2 0-.4-.1-.5l-2.7-2.7zm1.1 4.9l-1.4 1.4c-.4.4-1 .7-1.6.7s-1.2-.2-1.6-.7c-.4-.4-.7-1-.7-1.6 0-.6.2-1.2.7-1.6L9 13.7c.4-.4 1-.7 1.6-.7.3 0 .6.1.9.2l-2 2 1.3 1.3 2-2c.1.3.2.6.2.9 0 .6-.2 1.1-.7 1.6zM8.8 7.9c.2 0 .4.1.5.1.9 0 1.7-.4 2.3-1L13 5.6c.6-.6 1-1.4 1-2.3s-.4-1.8-1-2.3c-.6-.6-1.4-1-2.3-1S9 .4 8.4 1L7 2.4c-.6.6-1 1.4-1 2.3 0 .2 0 .4.1.5l2.7 2.7zM7.7 3l1.4-1.4c.4-.4 1-.7 1.6-.7s1.2.2 1.6.7c.4.4.7 1 .7 1.6s-.2 1.2-.7 1.6L11 6.3c-.5.5-1 .7-1.7.7-.3 0-.6-.1-.8-.2l2-2-1.4-1.3-2 2c0-.2-.1-.5-.1-.8 0-.7.2-1.2.7-1.7zM5.2 6.1h-.5c-.9 0-1.7.4-2.3 1L1 8.4c-.6.6-1 1.4-1 2.3 0 .9.4 1.7 1 2.3.6.6 1.4 1 2.3 1s1.7-.4 2.3-1L7 11.6c.6-.6 1-1.4 1-2.3 0-.2 0-.4-.1-.5L5.2 6.1zM6.3 11l-1.4 1.4c-.4.4-1 .7-1.6.7s-1.2-.2-1.6-.7c-.4-.4-.7-1-.7-1.6 0-.6.2-1.2.7-1.6L3 7.7c.5-.5 1-.7 1.7-.7.3 0 .6.1.8.2l-2 2 1.3 1.3 2-2c.1.2.2.5.2.8 0 .7-.2 1.2-.7 1.7z"/><path fill="#E71D32" d="M17 17.7c-.2 0-.3-.1-.5-.2l-14-14c-.3-.3-.3-.7 0-.9s.7-.3.9 0l14 14c.3.3.3.7 0 .9-.1.1-.2.2-.4.2z"/></svg>