<svg xmlns="http://www.w3.org/2000/svg" height="20" viewBox="0 0 20 20"><path fill="none" d="M6.9 14.9L5 13l2.8-2.8c-.3-.1-.7-.2-1.1-.2-.9 0-1.7.3-2.4 1l-2 2c-.6.6-1 1.5-1 2.4s.3 1.7 1 2.4c.6.6 1.5 1 2.4 1 .9 0 1.7-.3 2.4-1l2-2c.6-.6 1-1.5 1-2.4 0-.4-.1-.8-.2-1.2l-3 2.7zm6.4-4.9c.9 0 1.7-.3 2.4-1l2-2c.6-.6 1-1.5 1-2.4 0-.9-.3-1.7-1-2.4-.6-.6-1.5-1-2.4-1s-1.7.3-2.4 1l-2 2c-.6.6-1 1.5-1 2.4 0 .4.1.8.2 1.2L12.9 5l1.9 1.9L12 9.7c.5.2.9.3 1.3.3z"/><path fill="#C7C7C7" d="M6.7 8.7c-1.3 0-2.5.5-3.3 1.4l-2 2C.5 12.9 0 14 0 15.3s.5 2.5 1.4 3.3c.8.8 2 1.4 3.3 1.4 1.3 0 2.4-.5 3.3-1.4l2-2c.8-.8 1.4-2 1.4-3.3 0-.4-.1-.8-.2-1.2L7.9 8.8c-.4-.1-.8-.1-1.2-.1zm2.3 7l-2 2c-.6.6-1.5 1-2.4 1-.9 0-1.7-.3-2.4-1-.6-.6-1-1.5-1-2.4s.3-1.7 1-2.4l2-2c.6-.6 1.5-1 2.4-1 .4 0 .8.1 1.2.2L5 12.9l1.9 1.9L9.7 12c.1.4.2.8.2 1.2.1 1-.2 1.9-.9 2.5zm7.6-5.7l2-2c.9-.9 1.4-2 1.4-3.3 0-1.3-.5-2.5-1.4-3.3-.8-.8-2-1.4-3.3-1.4C14 0 12.9.5 12 1.4l-2 2c-.8.8-1.4 2-1.4 3.3 0 .4.1.8.2 1.2l3.3 3.3c.4.1.8.2 1.2.2 1.3-.1 2.5-.6 3.3-1.4zm-3.5-4.9l-2.8 2.8c-.2-.4-.3-.8-.3-1.2 0-.9.3-1.7 1-2.4l2-2c.6-.6 1.5-1 2.4-1s1.7.3 2.4 1c.6.6 1 1.5 1 2.4 0 .9-.3 1.7-1 2.4l-2 2c-.6.6-1.5 1-2.4 1-.4 0-.8-.1-1.2-.2L15 7.1l-1.9-2z"/><path fill="#E71D32" d="M17.5 16.5l-14-14c-.3-.3-.7-.3-.9 0s-.3.7 0 .9l14 14c.1.1.3.2.5.2s.3-.1.5-.2c.1-.2.1-.6-.1-.9z"/></svg>