<svg xmlns="http://www.w3.org/2000/svg" height="30" viewBox="0 0 30 30"><path fill="none" d="M19.7 15c1.2 0 2.4-.5 3.3-1.4l2.8-2.8c.9-.9 1.4-2.1 1.4-3.3 0-1.2-.5-2.4-1.4-3.3-.9-.9-2.1-1.4-3.3-1.4-1.2 0-2.4.5-3.3 1.4L16.4 7c-.9.9-1.4 2.1-1.4 3.3 0 .6.1 1.2.3 1.7l4-4 2.6 2.6-4 4c.6.3 1.2.4 1.8.4zm-9 6.9l-2.6-2.6 4-4c-.5-.2-1.1-.3-1.7-.3-1.2 0-2.4.5-3.3 1.4l-2.8 2.8c-.9.9-1.4 2.1-1.4 3.3 0 1.2.5 2.4 1.4 3.3.9.9 2.1 1.4 3.3 1.4 1.2 0 2.4-.5 3.3-1.4l2.8-2.8c.9-.9 1.4-2.1 1.4-3.3 0-.6-.1-1.2-.3-1.7l-4.1 3.9z"/><path fill="#C7C7C7" d="M24.3 15l2.8-2.8C28.3 11 29 9.3 29 7.5c0-1.8-.7-3.4-1.9-4.6A6.42 6.42 0 0 0 22.5 1c-1.8 0-3.4.7-4.6 1.9L15 5.7a6.42 6.42 0 0 0-1.9 4.6c0 .7.1 1.3.3 2l4.3 4.3c.6.2 1.3.3 2 .3 1.8 0 3.4-.8 4.6-1.9zm-5-6.9l-4 4c-.2-.5-.3-1.1-.3-1.7 0-1.2.5-2.4 1.4-3.3l2.8-2.8c.9-.9 2.1-1.4 3.3-1.4 1.2 0 2.4.5 3.3 1.4.9.9 1.4 2.1 1.4 3.3 0 1.2-.5 2.4-1.4 3.3L23 13.6c-.9.9-2.1 1.4-3.3 1.4-.6 0-1.2-.1-1.7-.3l4-4-2.7-2.6zm-9 5c-1.8 0-3.4.7-4.6 1.9l-2.8 2.8C1.7 19 1 20.7 1 22.5c0 1.8.7 3.4 1.9 4.6C4.1 28.3 5.7 29 7.5 29c1.8 0 3.4-.7 4.6-1.9l2.8-2.8c1.2-1.2 1.9-2.8 1.9-4.6 0-.7-.1-1.3-.3-2l-4.3-4.3c-.5-.2-1.2-.3-1.9-.3zm3.3 9.9l-2.8 2.8c-.9.9-2.1 1.4-3.3 1.4-1.2 0-2.4-.5-3.3-1.4-.9-.9-1.4-2.1-1.4-3.3 0-1.2.5-2.4 1.4-3.3L7 16.4c.9-.9 2.1-1.4 3.3-1.4.6 0 1.2.1 1.7.3l-4 4 2.6 2.6 4-4c.2.5.3 1.1.3 1.7.1 1.3-.4 2.5-1.3 3.4z"/><path fill="#E71D32" d="M26.6 25.4l-22-22c-.3-.3-.8-.3-1.1 0-.3.3-.3.8 0 1.1l22 22c.2.2.4.2.6.2s.4-.1.6-.2c.2-.2.2-.8-.1-1.1z"/></svg>