<svg xmlns="http://www.w3.org/2000/svg" height="30" viewBox="0 0 30 30"><path fill="#C7C7C7" d="M27.6 10.4c-.8-.8-2-1.4-3.3-1.4-1.3 0-2.4.5-3.3 1.4l-2 2c-.8.8-1.4 2-1.4 3.3 0 .3 0 .7.1 1l3.6 3.6c.3.1.6.1 1 .1 1.3 0 2.5-.5 3.3-1.4l2-2c.8-.8 1.4-2 1.4-3.3 0-1.3-.5-2.5-1.4-3.3zm-.9 5.6l-2 2c-.6.6-1.5 1-2.4 1-.4 0-.8-.1-1.2-.2l2.8-2.8-1.9-1.9-2.8 2.8c-.1-.4-.2-.8-.2-1.2 0-.9.3-1.7 1-2.4l2-2c.6-.6 1.5-1 2.4-1s1.7.3 2.4 1c.6.6 1 1.5 1 2.4-.1.9-.5 1.7-1.1 2.3zm-10.1 1.8c-.3-.1-.6-.1-1-.1-1.3 0-2.5.5-3.3 1.4l-2 2C9.5 21.9 9 23 9 24.3s.5 2.5 1.4 3.3c.8.8 2 1.4 3.3 1.4 1.3 0 2.5-.5 3.3-1.4l2-2c.8-.8 1.4-2 1.4-3.3 0-.3 0-.7-.1-1l-3.7-3.5zm1.4 6.9l-2 2c-.6.6-1.5 1-2.4 1-.9 0-1.7-.3-2.4-1-.6-.6-1-1.5-1-2.4s.3-1.7 1-2.4l2-2c.6-.6 1.5-1 2.4-1 .4 0 .8.1 1.2.2L14 21.9l1.9 1.9 2.8-2.8c.1.4.2.8.2 1.2.1 1-.2 1.9-.9 2.5zM8.6 9.8c-.3-.1-.6-.1-.9-.1-1.3 0-2.5.5-3.3 1.4l-2 2C1.5 13.9 1 15 1 16.3s.5 2.5 1.4 3.3c.8.8 2 1.4 3.3 1.4 1.3 0 2.4-.5 3.3-1.4l2-2c.8-.8 1.4-2 1.4-3.3 0-.3 0-.7-.1-1L8.6 9.8zm1.4 6.9l-2 2c-.6.6-1.5 1-2.4 1-.9 0-1.7-.3-2.4-1-.6-.6-1-1.5-1-2.4s.3-1.7 1-2.4l2-2c.6-.6 1.5-1 2.4-1 .4 0 .8.1 1.2.2L6 13.9l1.9 1.9 2.8-2.8c.1.4.2.8.2 1.2.1 1-.2 1.9-.9 2.5zm3.4-4.5c.3.1.6.1 1 .1 1.3 0 2.5-.5 3.3-1.4l2-2C20.5 8.1 21 7 21 5.7c0-1.3-.5-2.5-1.4-3.3-.8-.8-2-1.4-3.3-1.4-1.3 0-2.4.5-3.3 1.4l-2 2c-.8.8-1.4 2-1.4 3.3 0 .3 0 .7.1 1l3.7 3.5zM12 5.3l2-2c.6-.6 1.5-1 2.4-1s1.7.3 2.4 1c.6.6 1 1.5 1 2.4 0 .9-.3 1.7-1 2.4l-2 2c-.6.6-1.5 1-2.4 1-.4 0-.8-.1-1.2-.2L16 8.1l-1.9-1.9L11.3 9c-.2-.5-.3-.9-.3-1.3 0-.9.3-1.8 1-2.4z"/><path fill="#E71D32" d="M26 26.8c-.2 0-.4-.1-.6-.2l-22-22c-.3-.3-.3-.8 0-1.1.3-.3.8-.3 1.1 0l22 22c.3.3.3.8 0 1.1-.1.1-.3.2-.5.2z"/></svg>