<svg xmlns="http://www.w3.org/2000/svg" height="16" viewBox="0 0 16 16"><path fill="none" d="M10.7 8c.7 0 1.4-.3 1.9-.8l1.6-1.6c.5-.5.8-1.2.8-1.9s-.3-1.4-.8-1.9-1.2-.7-1.9-.7-1.4.3-1.9.8L8.8 3.4C8.3 4 8 4.6 8 5.3c0 .3.1.7.2 1L10.4 4 12 5.6 9.7 7.8c.3.1.6.2 1 .2zM4 10.4l2.3-2.3c-.3 0-.6-.1-1-.1-.7 0-1.3.3-1.9.8l-1.6 1.6c-.5.5-.8 1.2-.8 1.9s.3 1.4.8 1.9 1.2.8 1.9.8 1.4-.3 1.9-.8l1.6-1.6c.5-.6.8-1.2.8-1.9 0-.3-.1-.7-.2-1L5.6 12 4 10.4z"/><path fill="#C7C7C7" d="M13.3 8l1.6-1.6c.7-.7 1.1-1.6 1.1-2.7 0-1-.4-2-1.1-2.6C14.2.4 13.3 0 12.3 0s-2 .4-2.6 1.1L8 2.7c-.6.7-1.1 1.6-1.1 2.6 0 .3 0 .5.1.8L9.9 9c.2 0 .5.1.8.1 1 0 1.9-.5 2.6-1.1zm-2.9-4L8.2 6.3c-.1-.3-.2-.6-.2-1 0-.7.3-1.3.8-1.9l1.6-1.6c.5-.5 1.2-.8 1.9-.8s1.4.3 1.9.8.8 1.2.8 1.9-.3 1.4-.8 1.9l-1.6 1.6c-.6.5-1.2.8-1.9.8-.3 0-.7-.1-1-.2L12 5.6 10.4 4zM5.3 6.9c-1 0-2 .4-2.6 1.1L1.1 9.6c-.7.7-1.1 1.6-1.1 2.7s.4 2 1.1 2.6S2.7 16 3.7 16s2-.4 2.6-1.1L8 13.3c.7-.7 1.1-1.6 1.1-2.6 0-.3 0-.5-.1-.8L6.1 7c-.3 0-.5-.1-.8-.1zM8 10.7c0 .7-.3 1.4-.8 1.9l-1.6 1.6c-.5.5-1.2.8-1.9.8A2.732 2.732 0 0 1 1 12.3c0-.7.3-1.4.8-1.9l1.6-1.6C4 8.3 4.6 8 5.3 8c.3 0 .7.1 1 .2L4 10.4 5.6 12l2.3-2.3c0 .3.1.6.1 1z"/><path fill="#E71D32" d="M14.5 13.5l-12-12c-.3-.3-.7-.3-.9 0s-.3.7 0 .9l12 12c.1.1.3.2.5.2s.3-.1.5-.2c.1-.2.1-.6-.1-.9z"/></svg>