<svg xmlns="http://www.w3.org/2000/svg" height="16" viewBox="0 0 16 16"><path d="M2.5 4c1.1 0 2-.9 2-2s-.9-2-2-2-2 .9-2 2 .9 2 2 2zm0-3.2c.7 0 1.2.5 1.2 1.2s-.5 1.2-1.2 1.2S1.3 2.7 1.3 2 1.8.8 2.5.8zM9 8.5l.5 2.5h1l.5-2.5v-2H9z"/><circle cx="10" cy="12.5" r="1"/><path d="M15.7 9.4l-5.1-5.1c-.2-.2-.4-.3-.6-.3s-.4.1-.6.3L4.3 9.4c-.3.3-.3.9 0 1.2l5.1 5.1c.2.2.4.3.6.3s.4-.1.6-.3l5.1-5.1c.4-.3.4-.9 0-1.2zM10 14.9L5.1 10 10 5.1l4.9 4.9-4.9 4.9z"/><path d="M3.5 8.7L5 7.2v-.7C5 5.7 4.3 5 3.5 5h-2C.7 5 0 5.7 0 6.5v4c0 .7.5 1.3 1.2 1.5l.3 3.2c.2 1.1 1.8 1.1 2 0l.3-3.2c.1 0 .2-.1.3-.1l-.5-.5c-.8-.8-.8-2-.1-2.7z"/></svg>