<svg xmlns="http://www.w3.org/2000/svg" height="30" viewBox="0 0 30 30"><path d="M6 8c2.2 0 4-1.8 4-4S8.2 0 6 0 2 1.8 2 4s1.8 4 4 4zm0-6.7c1.5 0 2.7 1.2 2.7 2.7S7.5 6.7 6 6.7 3.3 5.5 3.3 4 4.5 1.3 6 1.3zM17.4 16l.9 5.5h1.4l.8-5.5v-3h-3.1z"/><circle cx="19" cy="24.5" r="1.5"/><path d="M29.5 17.9l-9.4-9.4c-.3-.3-.7-.5-1.1-.5s-.8.2-1.1.5l-9.4 9.4c-.6.6-.6 1.6 0 2.2l9.4 9.4c.3.3.7.5 1.1.5s.8-.2 1.1-.5l9.4-9.4c.7-.6.7-1.6 0-2.2zM19 28.1L9.9 19 19 9.9l9.1 9.1-9.1 9.1z"/><path d="M6.5 19c0-.9.4-1.8 1-2.4l3.5-3.5v-1.6C11 10.1 9.9 9 8.5 9h-5C2.1 9 1 10.1 1 11.5v7c0 1.3 1.1 2.4 2.4 2.5l.6 6.4c.4 2.2 3.5 2.2 3.9 0l.5-5-1-1c-.5-.6-.9-1.5-.9-2.4z"/></svg>