<svg xmlns="http://www.w3.org/2000/svg" height="20" viewBox="0 0 20 20"><path d="M12 11l.5 3h1l.5-3V9h-2z"/><circle cx="13" cy="16" r="1"/><path d="M3.5 5C4.9 5 6 3.9 6 2.5S4.9 0 3.5 0 1 1.1 1 2.5 2.1 5 3.5 5zm0-4C4.3 1 5 1.7 5 2.5S4.3 4 3.5 4 2 3.3 2 2.5 2.7 1 3.5 1zM19.7 12.3l-6-6c-.2-.2-.5-.3-.7-.3s-.5.1-.7.3l-6 6c-.4.4-.4 1 0 1.4l6 6c.2.2.5.3.7.3s.5-.1.7-.3l6-6c.4-.4.4-1 0-1.4zM13 19l-6-6 6-6 6 6-6 6z"/><path d="M5 13c0-.5.2-1 .6-1.4L7 10.2V8c0-1.1-.9-2-2-2H2C.9 6 0 6.9 0 8v5c0 1 .8 1.9 1.8 2l.4 3.9c.3 1.5 2.3 1.5 2.6 0l.4-3.9c.3 0 .5-.1.7-.2l-.3-.3c-.4-.5-.6-1-.6-1.5z"/></svg>