<svg xmlns="http://www.w3.org/2000/svg" height="30" viewBox="0 0 30 30"><path d="M25.5 27h-2c-.2-4.1-2.1-6.8-3.8-8.6-1.1-1.2-2-2.2-2-3.4s.9-2.1 2-3.4C21.3 9.8 23.3 7 23.5 3h2c.8 0 1.5-.7 1.5-1.5S26.3 0 25.5 0h-21C3.7 0 3 .7 3 1.5S3.7 3 4.5 3h2c.2 4.1 2.1 6.8 3.8 8.6 1.1 1.2 2 2.2 2 3.4s-.9 2.1-2 3.4C8.7 20.2 6.7 23 6.5 27h-2c-.8 0-1.5.7-1.5 1.5S3.7 30 4.5 30h21c.8 0 1.5-.7 1.5-1.5s-.7-1.5-1.5-1.5zM4 1.5c0-.3.2-.5.5-.5h21c.3 0 .5.2.5.5s-.2.5-.5.5h-21c-.3 0-.5-.2-.5-.5zM11 19c1.2-1.3 2.2-2.5 2.2-4s-1-2.7-2.2-4C9.5 9.2 7.7 6.7 7.5 3h15c-.2 3.7-1.9 6.2-3.5 8-1.2 1.3-2.2 2.5-2.2 4s1 2.7 2.2 4c1.4 1.6 3 3.7 3.4 6.7C20.6 23 17.1 22 15 22c-2.3 0-5.6 1-7.4 3.8.5-3 2-5.2 3.4-6.8zm14.5 10h-21c-.3 0-.5-.2-.5-.5s.2-.5.5-.5h21c.3 0 .5.2.5.5s-.2.5-.5.5z"/><path d="M15 14c0-1.2 5-5.8 5-8H10c0 2.2 5 6.8 5 8z"/></svg>