<svg xmlns="http://www.w3.org/2000/svg" height="16" viewBox="0 0 16 16"><path d="M0 0v16h6v-1H1V1h11v3h1V0z"/><path d="M10.5 5C7.5 5 5 7.5 5 10.5S7.5 16 10.5 16s5.5-2.5 5.5-5.5S13.5 5 10.5 5zm3.7 3h-1.4c-.2-.7-.6-1.4-1-1.8 1 .3 1.9 1 2.4 1.8zM11 8V6.6c.4.2.8.7 1 1.4h-1zm1.3 1c.1.3.1.6.1 1H11V9h1.3zM10 6.6V8H9c.2-.7.6-1.2 1-1.4zM10 9v1H8.6c0-.4.1-.7.1-1H10zm-2.2 1H6.1c0-.3.1-.7.2-1h1.6c-.1.3-.1.7-.1 1zm0 1c0 .3.1.7.1 1H6.3c-.1-.3-.2-.7-.2-1h1.7zm.8 0H10v1H8.7c-.1-.3-.1-.6-.1-1zm1.4 2v1.4c-.4-.2-.8-.7-1-1.4h1zm1 1.4V13h1c-.2.7-.6 1.2-1 1.4zm0-2.4v-1h1.4c0 .4-.1.7-.1 1H11zm2.2-1h1.7c0 .3-.1.7-.2 1h-1.6c.1-.3.1-.7.1-1zm0-1c0-.3-.1-.7-.1-1h1.6c.1.3.2.7.2 1h-1.7zm-4-3.8c-.4.4-.8 1-1 1.8H6.8c.5-.8 1.4-1.5 2.4-1.8zM6.8 13h1.4c.2.7.6 1.4 1 1.8-1-.3-1.9-1-2.4-1.8zm5 1.8c.4-.4.8-1 1-1.8h1.4c-.5.8-1.4 1.5-2.4 1.8z"/><path d="M4.5 13H3V9h1.2c.1-.3.2-.7.3-1H2v6h3c-.2-.3-.4-.6-.5-1zm6-9h.5V2H2v3h5c1-.6 2.2-1 3.5-1zM3 3h7v1H3V3zm2.8 3H2v1h3c.3-.4.5-.7.8-1z"/></svg>