<svg xmlns="http://www.w3.org/2000/svg" height="20" viewBox="0 0 20 20"><path d="M0 0v20h8.5v-1H1V1h13v5h1V0z"/><path d="M13.5 7C9.9 7 7 9.9 7 13.5S9.9 20 13.5 20s6.5-2.9 6.5-6.5S17.1 7 13.5 7zm.5 4.5c.7 0 1.3-.1 1.9-.2.1.5.2 1.1.2 1.7H14v-1.5zm0-1V8.1c.6.3 1.2 1.1 1.7 2.2-.5.1-1.1.2-1.7.2zm-1-2.4v2.4c-.6 0-1.2-.1-1.7-.1.5-1.2 1.1-2 1.7-2.3zm0 3.4V13h-2.1c0-.6.1-1.2.2-1.7.6.1 1.2.2 1.9.2zM9.9 13H8c.1-.9.4-1.7.8-2.4.4.2.8.4 1.3.5-.1.6-.2 1.2-.2 1.9zm0 1c0 .7.1 1.3.2 1.9-.5.1-.9.3-1.3.5-.4-.7-.7-1.5-.8-2.4h1.9zm1 0H13v1.5c-.7 0-1.3.1-1.9.2-.1-.5-.2-1.1-.2-1.7zm2.1 2.5v2.4c-.6-.3-1.2-1.1-1.7-2.2.5-.1 1.1-.2 1.7-.2zm1 2.4v-2.4c.6 0 1.2.1 1.7.1-.5 1.2-1.1 2-1.7 2.3zm0-3.4V14h2.1c0 .6-.1 1.2-.2 1.7-.6-.1-1.2-.2-1.9-.2zm3.1-1.5H19c-.1.9-.4 1.7-.8 2.4-.4-.2-.8-.4-1.3-.5.1-.6.2-1.2.2-1.9zm0-1c0-.7-.1-1.3-.2-1.9.5-.1.9-.3 1.3-.5.4.7.7 1.5.8 2.4h-1.9zm.5-3.2l-.9.3c-.2-.6-.5-1.1-.7-1.6.5.4 1.1.8 1.6 1.3zm-6.5-1.2c-.3.5-.5 1-.7 1.6-.4-.2-.7-.3-1-.4.5-.5 1.1-.9 1.7-1.2zm-1.7 8.6l.9-.3c.2.6.5 1.1.7 1.6-.5-.4-1.1-.8-1.6-1.3zm6.5 1.3c.3-.5.5-1 .7-1.6.3.1.7.2.9.3-.4.5-1 .9-1.6 1.3z"/><path d="M12 3v1H3V3h9m1-1H2v3h11V2zM6.9 17H3v-4h3c0-.3.1-.7.1-1H2v6h5.5c-.2-.3-.4-.6-.6-1zm0-7H2v1h4.4c.2-.3.3-.7.5-1zm6.8-4h-.2.2zM9.8 7c.7-.4 1.4-.7 2.2-.8V6H2v3h5.5c.3-.4.6-.7.9-1H3V7h6.8z"/></svg>