<svg xmlns="http://www.w3.org/2000/svg" height="30" viewBox="0 0 30 30"><path d="M21.5 13c-4.7 0-8.5 3.8-8.5 8.5s3.8 8.5 8.5 8.5 8.5-3.8 8.5-8.5-3.8-8.5-8.5-8.5zm.5 6.3c.9 0 1.8-.1 2.6-.3.1.6.2 1.3.2 2H22v-1.7zm0-1v-3.6c.9.3 1.8 1.5 2.4 3.3l-2.4.3zm-1-3.6v3.6c-.8 0-1.6-.1-2.4-.3.6-1.8 1.5-3 2.4-3.3zm0 4.6V21h-2.8c0-.7.1-1.4.2-2 .8.2 1.7.3 2.6.3zM16.9 21h-2.3c.1-1.1.4-2.1.9-3 .5.3 1 .5 1.7.7-.2.7-.3 1.5-.3 2.3zm0 1c0 .8.1 1.6.3 2.3-.6.2-1.2.4-1.7.7-.5-.9-.9-1.9-.9-3h2.3zm1.3 0H21v1.7c-.9 0-1.8.1-2.6.3-.1-.6-.2-1.3-.2-2zm2.8 2.7v3.6c-.9-.3-1.8-1.5-2.4-3.3l2.4-.3zm1 3.6v-3.6c.8 0 1.6.1 2.4.3-.6 1.8-1.5 3-2.4 3.3zm0-4.6V22h2.8c0 .7-.1 1.4-.2 2-.8-.2-1.7-.3-2.6-.3zm4.1-1.7h2.3c-.1 1.1-.4 2.1-.9 3-.5-.3-1.1-.5-1.7-.7.2-.7.3-1.5.3-2.3zm0-1c0-.8-.1-1.6-.3-2.3.6-.2 1.2-.4 1.7-.7.5.9.9 1.9.9 3h-2.3zm.8-3.9c-.4.2-.8.4-1.3.5-.3-1-.7-1.8-1.1-2.5.9.5 1.8 1.2 2.4 2zm-8.4-1.9c-.5.7-.8 1.5-1.1 2.5-.5-.2-.9-.3-1.3-.5.6-.9 1.5-1.6 2.4-2zm-2.4 10.7c.4-.2.8-.4 1.3-.5.3 1 .7 1.8 1.1 2.5-1-.5-1.8-1.2-2.4-2zm8.4 1.9c.5-.7.8-1.5 1.1-2.5.5.2.9.3 1.3.5-.6.9-1.4 1.6-2.4 2z"/><path d="M13.2 27H4V3h18v8.5c.7 0 1.4.1 2 .3V1H2v28h12.9c-.7-.6-1.3-1.3-1.7-2z"/><path d="M20 5v1H6V5h14m1-1H5v3h16V4zm-6 5v1H6V9h9m1-1H5v3h11V8zm4 1v1h-2V9h2m1-1h-4v3h4V8zm-6.1 6H6v-1h10.3c.7-.4 1.4-.8 2.1-1H5v3h8.9c.3-.4.6-.7 1-1zm-2.8 11H6v-8h6.6c.2-.3.4-.7.6-1H5v10h7.6c-.2-.3-.3-.7-.5-1z"/></svg>