<svg xmlns="http://www.w3.org/2000/svg" height="16" viewBox="0 0 16 16"><g fill="#959595"><path d="M8 0C3.6 0 0 3.6 0 8s3.6 8 8 8 8-3.6 8-8-3.6-8-8-8zm0 14.8c-3.7 0-6.8-3.1-6.8-6.8 0-3 2-5.5 4.6-6.4-.5.4.1 1.1-.2 1.2-.6 0-1.2.2-1.4.5-.1.3-.4.6-.2.8.2.2.1.3.4.3s.3.2.6-.1c.2-.2.3-.4.7-.6.3-.1.3-.4.7-.4s.5.4 1 .6c.9.3 1.4.3 1.4-.1 0-.3.4.1.5.4.1.1.7-.2 1-.2.2.1 0 .7-.2.7-.2.1-.3.1-.7 0-.9-.2-1 .7-1.3.9-.3.2-.2-.1-.7-.1-.9-.1-.1-.8-1.1-.7-.5.1-.7.2-.7.2-.5.4-.9.4-1.2.5-.2.1-.5.7-.6.8s-.4.6-.3.9-.2.5-.2.6 0 .3.3.7c.3.5.5.8.7.8.2.1.7-.2 1.1-.2s.7 0 1 .3c.3.3.2-.3.4-.1.2.2-.1.5 0 .8.1.3.6.4.6.9s0 .8-.2.9c-.2.2 0 .3.2.7.1.4.2.8.3 1.1.1.2 0 .4.4.2.3-.1.6-.4.8-.4.2 0 .6 0 .7-.6.1-.3.4-.9.7-1 .3-.1.4-.6.3-1.2 0-.3.2-.9.7-1.1.3-.1.9-.5 1-.9.1-.4.3-.6.2-.7-.1-.1-.1-.1-.3 0-.2.2-.5.2-.6.1-.1-.1-.2-.4-.4-.7-.3-.4-.3-1.1-.1-1.1s.3.6.5.8.4.7.6.5.7-.6.9-.9c.3-.3.5-.5.4-.6-.2-.2-.4 0-.3-.3.1-.2.9-.2 1.3.3.2.6.3 1.3.3 1.9 0 3.7-3.1 6.8-6.8 6.8z"/><path d="M11.7 11.2s-.3.2-.5.5c-.2.2-.2.5-.3.6s-.1.5-.2 1c-.1.4 0 .1.3.1s.1-.5.6-.9.3-.6.5-.8c.2-.2.4-.5.1-.7 0-.1-.2 0-.5.2z"/></g></svg>