<svg xmlns="http://www.w3.org/2000/svg" height="30" viewBox="0 0 30 30"><g fill="#959595"><path d="M15 1C7.3 1 1 7.3 1 15s6.3 14 14 14 14-6.3 14-14S22.7 1 15 1zm0 26C8.4 27 3 21.6 3 15 3 9.6 6.6 5 11.6 3.5c-1.6.8-.1 2.2-.8 2.3-1 .1-2 .4-2.3.9s-.8 1.2-.4 1.5c.3.3.2.6.6.6.4 0 .5.2 1-.2.4-.4.6-.8 1.2-1 .6-.3.7-.7 1.4-.7.8 0 .9.8 1.7 1 1.6.5 2.4.5 2.5-.1.1-.5.6.1.9.8.1.2 1.2-.4 1.7-.3.4.1 0 1.2-.3 1.3-.4.2-.5.1-1.3 0-1.6-.4-1.8 1.3-2.3 1.5-.5.2-.3-.2-1.2-.3-1.5-.1-.2-1.4-1.9-1.2-.8.1-1.3.3-1.3.3-.8.8-1.5.7-2 .9-.4.1-.9 1.2-1.1 1.4-.3.2-.6 1-.5 1.6.1.6-.3.9-.3 1.1 0 .2 0 .5.5 1.3.5.7.9 1.3 1.2 1.4.4.1 1.3-.4 1.9-.4.6 0 1.3 0 1.8.4.5.5.4-.5.7-.2s-.2.9 0 1.4c.2.5 1.1.7 1.1 1.6s0 1.4-.3 1.7c-.3.3.1.5.3 1.3.2.8.4 1.5.6 1.8.2.4.1.7.6.4.6-.2 1.1-.7 1.4-.7.3 0 1-.1 1.3-1 .1-.5.8-1.6 1.2-1.7.6-.2.7-1 .6-2.1-.1-.5.4-1.6 1.2-2 .5-.2 1.6-.8 1.8-1.5.2-.7.5-1 .3-1.2-.2-.2-.2-.3-.5 0s-.9.4-1.1.1c-.2-.2-.4-.8-.7-1.2-.5-.7-.6-2-.2-2 .4 0 .5 1 .8 1.4.4.4.7 1.3 1.1.8.5-.5 1.2-1 1.7-1.5s.9-.8.6-1.1-.7-.1-.5-.6c.1-.4 2-.4 2.4.9.2.8.3 1.8.3 2.8 0 6.6-5.4 12-12 12z"/><path d="M21.6 20.7s-.5.4-.9.8-.3.8-.5 1c-.2.2-.1 1-.4 1.7-.2.8 0 .3.6.3.5 0 .3-.8 1-1.5s.6-1.1.9-1.4.6-.9.3-1.3c-.2-.3-.6-.1-1 .4z"/></g></svg>