<svg xmlns="http://www.w3.org/2000/svg" height="20" viewBox="0 0 20 20"><g fill="#959595"><path d="M10 0C4.5 0 0 4.5 0 10s4.5 10 10 10 10-4.5 10-10S15.5 0 10 0zm0 18.8c-4.9 0-8.8-3.9-8.8-8.8 0-3.9 2.5-7.2 6-8.3-.4.7.2 1.7-.3 1.8-.7.1-1.4.3-1.6.6-.2.4-.5.8-.2 1 .2.2.2.4.5.4s.4.2.7-.1.3-.5.7-.7c.5-.2.5-.5 1-.5s.6.5 1.2.7c1.1.3 1.7.4 1.8-.1.1-.4.5.1.6.5.1.2.9-.3 1.2-.2.3.1 0 .8-.2.9-.3.1-.4.1-.9 0-1.1-.3-1.3.9-1.7 1.1-.3.1-.1-.2-.8-.2-1.1-.1-.1-1-1.3-.9-.6.1-.9.2-.9.2-.5.5-1 .5-1.4.6-.3.1-.6.8-.8 1s-.5.8-.4 1.2c.1.4-.2.6-.2.8s0 .4.4.9.6.9.9 1c.3.1.9-.3 1.4-.3s.9 0 1.3.3c.3.3.3-.4.5-.2s-.2.7 0 1 .8.5.8 1.1 0 1-.2 1.2.1.4.2.9c.2.5.3 1.1.4 1.3.1.3 0 .5.4.3s.8-.5 1-.5.7 0 .9-.7c.1-.4.6-1.1.8-1.2.4-.1.5-.7.4-1.5 0-.4.3-1.1.9-1.4.3-.2 1.1-.6 1.3-1.1s.3-.7.2-.8c-.1-.1-.1-.2-.4 0-.2.2-.6.3-.8.1-.2-.2-.3-.6-.5-.9-.3-.5-.4-1.4-.1-1.4s.3.7.6 1c.3.3.5.9.8.6.3-.3.8-.7 1.2-1.1.3-.3.7-.6.5-.8-.2-.2-.5-.1-.4-.4.1-.2 1.3-.8 2 .6.2.7.3 1.4.3 2.1-.2 5-4.1 8.9-9 8.9z"/><path d="M14.7 14s-.4.3-.6.6c-.3.3-.2.6-.4.7-.2.2-.1.7-.3 1.2-.2.5 0 .2.4.2s.2-.6.7-1.1c.5-.5.4-.8.7-1 .2-.2.5-.7.2-.9-.1-.1-.4 0-.7.3z"/></g></svg>