<?xml version="1.0" encoding="utf-8"?>
<!-- Generator: Adobe Illustrator 21.0.0, SVG Export Plug-In . SVG Version: 6.00 Build 0)  -->
<svg version="1.1" id="Layer_1" xmlns="http://www.w3.org/2000/svg" xmlns:xlink="http://www.w3.org/1999/xlink" x="0px" y="0px"
	 viewBox="0 0 38 15" style="enable-background:new 0 0 38 15;" xml:space="preserve">
<style type="text/css">
	.st0{fill:#AEAEAE;}
</style>
<g>
	<rect class="st0" width="7" height="1"/>
	<rect y="2" class="st0" width="7" height="1"/>
	<rect x="2" y="4" class="st0" width="3" height="1"/>
	<rect x="2" y="6" class="st0" width="3" height="1"/>
	<rect x="2" y="8" class="st0" width="3" height="1"/>
	<rect x="2" y="10" class="st0" width="3" height="1"/>
	<rect y="12" class="st0" width="7" height="1"/>
	<rect y="14" class="st0" width="7" height="1"/>
	<rect x="8" y="14" class="st0" width="9" height="1"/>
	<rect x="8" y="12" class="st0" width="11" height="1"/>
	<rect x="10" y="10" class="st0" width="3" height="1"/>
	<rect x="10" y="8" class="st0" width="8" height="1"/>
	<rect x="10" y="6" class="st0" width="8" height="1"/>
	<rect x="10" y="4" class="st0" width="3" height="1"/>
	<rect x="8" y="2" class="st0" width="11" height="1"/>
	<rect x="16" y="4" class="st0" width="3" height="1"/>
	<rect x="8" class="st0" width="9" height="1"/>
	<rect x="16" y="10" class="st0" width="3" height="1"/>
	<rect x="21" y="14" class="st0" width="5" height="1"/>
	<rect x="21" y="12" class="st0" width="5" height="1"/>
	<rect x="23" y="10" class="st0" width="3" height="1"/>
	<rect x="23" y="8" class="st0" width="3" height="1"/>
	<rect x="23" y="6" class="st0" width="3" height="1"/>
	<rect x="27" y="6" class="st0" width="2" height="1"/>
	<rect x="30" y="6" class="st0" width="2" height="1"/>
	<rect x="33" y="6" class="st0" width="3" height="1"/>
	<rect x="27" y="8" class="st0" width="5" height="1"/>
	<rect x="28" y="10" class="st0" width="3" height="1"/>
	<rect x="28.5" y="12" class="st0" width="2" height="1"/>
	<rect x="29" y="14" class="st0" width="1" height="1"/>
	<rect x="33" y="12" class="st0" width="5" height="1"/>
	<rect x="33" y="14" class="st0" width="5" height="1"/>
	<rect x="33" y="10" class="st0" width="3" height="1"/>
	<rect x="33" y="8" class="st0" width="3" height="1"/>
	<rect x="31" y="4" class="st0" width="5" height="1"/>
	<rect x="23" y="4" class="st0" width="5" height="1"/>
	<rect x="21" y="2" class="st0" width="6" height="1"/>
	<rect x="21" class="st0" width="6" height="1"/>
	<rect x="32" class="st0" width="6" height="1"/>
	<rect x="32" y="2" class="st0" width="6" height="1"/>
</g>
</svg>
